<?xml version="1.0" encoding="UTF-8"?>
<!DOCTYPE svg PUBLIC "-//W3C//DTD SVG 1.1//EN" "http://www.w3.org/Graphics/SVG/1.1/DTD/svg11.dtd">
<svg xmlns="http://www.w3.org/2000/svg" version="1.1" width="430px" height="288px" style="shape-rendering:geometricPrecision; text-rendering:geometricPrecision; image-rendering:optimizeQuality; fill-rule:evenodd; clip-rule:evenodd" xmlns:xlink="http://www.w3.org/1999/xlink">
<g><path style="opacity:0.228" fill="#56348a" d="M 140.5,-0.5 C 149.5,-0.5 158.5,-0.5 167.5,-0.5C 190.215,3.27859 207.715,14.9453 220,34.5C 227.754,33.3526 235.587,33.1859 243.5,34C 248.651,35.0494 253.484,36.8828 258,39.5C 272.667,26.2051 289.834,21.3717 309.5,25C 331.592,29.4749 347.426,41.9749 357,62.5C 359.274,69.2066 360.774,76.0399 361.5,83C 364.632,84.6349 367.632,86.4682 370.5,88.5C 388.663,81.1978 402.663,85.8644 412.5,102.5C 418.309,99.977 423.976,99.977 429.5,102.5C 429.5,106.167 429.5,109.833 429.5,113.5C 428.609,111.709 427.609,109.876 426.5,108C 421.009,107.32 415.675,107.653 410.5,109C 400.729,92.7439 386.896,88.2439 369,95.5C 366.268,93.5483 363.435,91.7149 360.5,90C 356.547,58.7117 339.214,39.3784 308.5,32C 289.08,28.6438 272.08,33.4772 257.5,46.5C 245.395,40.6685 232.729,39.0019 219.5,41.5C 200.558,14.538 174.558,3.03801 141.5,7C 119.171,11.3409 102.171,23.3409 90.5,43C 84.0899,42.7868 78.0899,44.1201 72.5,47C 39.1827,44.2263 16.1827,58.0597 3.5,88.5C 2.31116,89.4287 0.977822,89.762 -0.5,89.5C -0.5,87.1667 -0.5,84.8333 -0.5,82.5C 1.16667,82.5 2.83333,82.5 4.5,82.5C 11.1895,60.9795 25.5229,47.4795 47.5,42C 55.7825,40.8355 64.1158,40.1689 72.5,40C 78.531,37.3419 84.8643,35.8419 91.5,35.5C 102.808,16.507 119.142,4.50701 140.5,-0.5 Z"/></g>
<g><path style="opacity:1" fill="#a38fbf" d="M 429.5,113.5 C 429.5,149.167 429.5,184.833 429.5,220.5C 427.036,218.43 424.369,216.596 421.5,215C 418.333,214.748 415.333,214.582 412.5,214.5C 414.167,211.833 415.833,209.167 417.5,206.5C 416.833,206.167 416.167,205.833 415.5,205.5C 411.431,206.861 408.098,209.194 405.5,212.5C 401.227,209.403 396.56,208.403 391.5,209.5C 393.126,210.99 394.792,212.49 396.5,214C 391.591,214.788 387.591,217.121 384.5,221C 388.833,221.333 393.167,221.667 397.5,222C 389.566,225.368 386.566,231.202 388.5,239.5C 390.483,237.016 392.65,234.683 395,232.5C 395.569,237.118 396.902,241.451 399,245.5C 400.186,239.931 402.519,234.931 406,230.5C 405.732,243.495 405.232,256.495 404.5,269.5C 401.824,270.008 399.157,270.175 396.5,270C 395.643,269.311 394.977,268.478 394.5,267.5C 395.52,265.568 395.687,263.568 395,261.5C 392.695,257.696 390.195,254.03 387.5,250.5C 384.232,249.513 380.898,249.18 377.5,249.5C 377.5,241.5 377.5,233.5 377.5,225.5C 372.833,225.5 368.167,225.5 363.5,225.5C 363.5,228.5 363.5,231.5 363.5,234.5C 359.5,234.5 355.5,234.5 351.5,234.5C 351.5,239.833 351.5,245.167 351.5,250.5C 347.167,250.5 342.833,250.5 338.5,250.5C 338.5,247.167 338.5,243.833 338.5,240.5C 336.833,240.5 335.167,240.5 333.5,240.5C 333.5,238.833 333.5,237.167 333.5,235.5C 333.253,233.142 333.919,231.142 335.5,229.5C 338.357,226.454 340.19,222.787 341,218.5C 344.027,208.26 346.527,197.927 348.5,187.5C 346.408,187.561 344.908,188.561 344,190.5C 342.186,194.953 340.186,199.286 338,203.5C 338.236,196.802 339.07,190.136 340.5,183.5C 340.812,180.307 339.478,179.14 336.5,180C 334.671,187.135 332.838,194.302 331,201.5C 330.667,192.5 330.333,183.5 330,174.5C 328.951,173.483 327.784,173.316 326.5,174C 324.943,177.978 324.11,182.145 324,186.5C 323.501,191.823 323.334,197.156 323.5,202.5C 322.5,202.5 321.5,202.5 320.5,202.5C 320.332,195.148 319.832,187.815 319,180.5C 317.333,177.833 315.667,177.833 314,180.5C 314.689,190.468 315.022,200.468 315,210.5C 314.558,212.679 313.558,213.345 312,212.5C 310.568,208.469 308.734,204.636 306.5,201C 303.77,200.058 302.437,201.058 302.5,204C 303.672,209.681 305.339,215.181 307.5,220.5C 307.5,220.833 307.5,221.167 307.5,221.5C 302.82,220.107 298.154,218.607 293.5,217C 291.613,216.22 289.946,216.387 288.5,217.5C 288.119,213.881 287.119,210.548 285.5,207.5C 286.995,204.488 286.162,202.155 283,200.5C 282.802,202.382 282.302,204.048 281.5,205.5C 281.5,203.833 281.5,202.167 281.5,200.5C 284.427,195.416 286.427,190.083 287.5,184.5C 289.451,184.773 290.951,184.107 292,182.5C 294.882,171.663 295.882,160.663 295,149.5C 288.705,125.752 273.205,114.918 248.5,117C 226.472,123.696 216.305,138.529 218,161.5C 220.213,171.641 223.713,181.308 228.5,190.5C 230.045,191.452 231.712,191.785 233.5,191.5C 235.472,194.765 237.472,198.098 239.5,201.5C 237.736,205.434 236.403,209.601 235.5,214C 235.095,214.945 234.428,215.612 233.5,216C 233.728,216.399 234.062,216.565 234.5,216.5C 234.158,217.338 233.492,217.672 232.5,217.5C 232.265,216.903 231.765,216.57 231,216.5C 221.653,219.837 212.32,223.171 203,226.5C 195.416,223.621 187.916,220.621 180.5,217.5C 179.438,218.425 179.438,219.425 180.5,220.5C 179.833,224.167 179.167,227.833 178.5,231.5C 181.007,220.896 178.007,212.396 169.5,206C 168.069,205.535 166.903,204.701 166,203.5C 165.601,203.728 165.435,204.062 165.5,204.5C 164.513,199.695 164.179,194.695 164.5,189.5C 164.5,188.833 164.5,188.167 164.5,187.5C 166.936,187.683 169.103,187.016 171,185.5C 174.307,180.228 176.474,174.561 177.5,168.5C 179.497,165.84 180.997,162.84 182,159.5C 182.746,153.449 182.579,147.449 181.5,141.5C 180.335,133.805 176.002,129.138 168.5,127.5C 164.318,121.816 158.651,118.649 151.5,118C 146.648,117.185 141.981,117.352 137.5,118.5C 121.022,121.112 112.689,130.778 112.5,147.5C 111.099,151.181 110.433,155.014 110.5,159C 111.018,164.158 111.351,169.325 111.5,174.5C 111.428,186.281 114.761,196.947 121.5,206.5C 120.504,206.414 119.671,206.748 119,207.5C 117.289,209.956 115.956,212.623 115,215.5C 113.22,216.639 111.386,217.639 109.5,218.5C 107.034,211.396 104.867,204.063 103,196.5C 102.196,195.196 101.029,194.529 99.5,194.5C 91.7967,196.299 84.2967,198.632 77,201.5C 77.0234,206.604 77.8567,211.604 79.5,216.5C 78.2058,217.29 77.0391,218.29 76,219.5C 75.8238,223.688 75.3238,227.688 74.5,231.5C 70.1311,231.467 65.7978,231.8 61.5,232.5C 61.5,226.167 61.5,219.833 61.5,213.5C 58.1667,213.5 54.8333,213.5 51.5,213.5C 51.5,211.833 51.5,210.167 51.5,208.5C 49.5,208.5 47.5,208.5 45.5,208.5C 45.5,211.5 45.5,214.5 45.5,217.5C 36.5481,218.754 27.5481,219.42 18.5,219.5C 18.5,216.167 18.5,212.833 18.5,209.5C 15.5,209.5 12.5,209.5 9.5,209.5C 8.9845,201.526 8.15116,201.526 7,209.5C 4.8926,227.122 3.3926,244.789 2.5,262.5C 1.5,262.5 0.5,262.5 -0.5,262.5C -0.5,204.833 -0.5,147.167 -0.5,89.5C 0.977822,89.762 2.31116,89.4287 3.5,88.5C 16.1827,58.0597 39.1827,44.2263 72.5,47C 78.0899,44.1201 84.0899,42.7868 90.5,43C 102.171,23.3409 119.171,11.3409 141.5,7C 174.558,3.03801 200.558,14.538 219.5,41.5C 232.729,39.0019 245.395,40.6685 257.5,46.5C 272.08,33.4772 289.08,28.6438 308.5,32C 339.214,39.3784 356.547,58.7117 360.5,90C 363.435,91.7149 366.268,93.5483 369,95.5C 386.896,88.2439 400.729,92.7439 410.5,109C 415.675,107.653 421.009,107.32 426.5,108C 427.609,109.876 428.609,111.709 429.5,113.5 Z"/></g>
<g><path style="opacity:1" fill="#55358b" d="M 287.5,184.5 C 287.667,173.162 287.5,161.828 287,150.5C 284.958,148.396 282.458,147.229 279.5,147C 264.552,145.471 249.885,146.805 235.5,151C 231.836,152.002 228.669,153.836 226,156.5C 228.278,168.151 230.778,179.818 233.5,191.5C 231.712,191.785 230.045,191.452 228.5,190.5C 223.713,181.308 220.213,171.641 218,161.5C 216.305,138.529 226.472,123.696 248.5,117C 273.205,114.918 288.705,125.752 295,149.5C 295.882,160.663 294.882,171.663 292,182.5C 290.951,184.107 289.451,184.773 287.5,184.5 Z"/></g>
<g><path style="opacity:1" fill="#3c302d" d="M 137.5,118.5 C 140.518,118.335 143.518,118.502 146.5,119C 151.214,120.754 155.881,122.754 160.5,125C 161.796,130.968 165.463,133.968 171.5,134C 175.276,135.947 178.61,138.447 181.5,141.5C 182.579,147.449 182.746,153.449 182,159.5C 180.997,162.84 179.497,165.84 177.5,168.5C 173.46,163.189 169.294,163.189 165,168.5C 163.964,171.753 163.297,175.086 163,178.5C 162.329,179.252 161.496,179.586 160.5,179.5C 159.945,176.904 158.945,174.571 157.5,172.5C 157.622,166.28 156.122,160.613 153,155.5C 152.24,151.775 152.407,148.108 153.5,144.5C 144.306,144.636 135.139,143.636 126,141.5C 123.833,141.667 121.667,141.833 119.5,142C 117.004,143.666 114.671,145.5 112.5,147.5C 112.689,130.778 121.022,121.112 137.5,118.5 Z"/></g>
<g><path style="opacity:1" fill="#554545" d="M 137.5,118.5 C 141.981,117.352 146.648,117.185 151.5,118C 158.651,118.649 164.318,121.816 168.5,127.5C 176.002,129.138 180.335,133.805 181.5,141.5C 178.61,138.447 175.276,135.947 171.5,134C 165.463,133.968 161.796,130.968 160.5,125C 155.881,122.754 151.214,120.754 146.5,119C 143.518,118.502 140.518,118.335 137.5,118.5 Z"/></g>
<g><path style="opacity:1" fill="#ea671d" d="M 71.5,135.5 C 79.0739,134.283 83.4073,137.45 84.5,145C 82.9579,153.371 78.2912,159.205 70.5,162.5C 60.0641,159.6 54.8974,152.933 55,142.5C 57.4353,137.776 61.2686,136.276 66.5,138C 67,138.5 67.5,139 68,139.5C 69.3756,138.295 70.5423,136.962 71.5,135.5 Z"/></g>
<g><path style="opacity:1" fill="#ebb384" d="M 157.5,172.5 C 154.281,173.638 150.947,174.471 147.5,175C 135.492,175.5 123.492,175.333 111.5,174.5C 111.351,169.325 111.018,164.158 110.5,159C 110.433,155.014 111.099,151.181 112.5,147.5C 114.671,145.5 117.004,143.666 119.5,142C 121.667,141.833 123.833,141.667 126,141.5C 135.139,143.636 144.306,144.636 153.5,144.5C 152.407,148.108 152.24,151.775 153,155.5C 156.122,160.613 157.622,166.28 157.5,172.5 Z"/></g>
<g><path style="opacity:1" fill="#ea671d" d="M 318.5,143.5 C 321.29,143.222 323.79,143.889 326,145.5C 333.901,143.405 337.568,146.405 337,154.5C 333.907,159.748 329.407,163.415 323.5,165.5C 316.599,161.367 313.766,155.367 315,147.5C 316.032,145.973 317.199,144.64 318.5,143.5 Z"/></g>
<g><path style="opacity:1" fill="#504d50" d="M 287.5,184.5 C 286.427,190.083 284.427,195.416 281.5,200.5C 273.162,211.533 262.496,214.533 249.5,209.5C 246.55,207.885 243.884,205.885 241.5,203.5C 241.167,202.5 240.5,201.833 239.5,201.5C 237.472,198.098 235.472,194.765 233.5,191.5C 230.778,179.818 228.278,168.151 226,156.5C 228.669,153.836 231.836,152.002 235.5,151C 249.885,146.805 264.552,145.471 279.5,147C 282.458,147.229 284.958,148.396 287,150.5C 287.5,161.828 287.667,173.162 287.5,184.5 Z"/></g>
<g><path style="opacity:1" fill="#e9b182" d="M 282.5,173.5 C 281.844,172.722 281.011,172.056 280,171.5C 265.325,176.984 250.159,178.984 234.5,177.5C 233.662,171.17 233.162,164.837 233,158.5C 235.408,156.044 238.241,154.211 241.5,153C 252.025,150.414 262.692,149.414 273.5,150C 276.548,150.606 279.048,152.106 281,154.5C 281.651,160.827 282.151,167.16 282.5,173.5 Z"/></g>
<g><path style="opacity:1" fill="#443530" d="M 264.5,154.5 C 268.182,154.335 271.848,154.501 275.5,155C 276.308,155.308 276.975,155.808 277.5,156.5C 273.589,156.692 269.589,156.859 265.5,157C 263.854,158.401 262.187,158.568 260.5,157.5C 261.901,156.479 263.235,155.479 264.5,154.5 Z"/></g>
<g><path style="opacity:1" fill="#564339" d="M 114.5,157.5 C 117.518,157.335 120.518,157.502 123.5,158C 126,158.833 126.167,160 124,161.5C 120.541,160.867 117.041,160.2 113.5,159.5C 113.863,158.817 114.196,158.15 114.5,157.5 Z"/></g>
<g><path style="opacity:1" fill="#463731" d="M 131.5,158.5 C 136.179,158.334 140.845,158.501 145.5,159C 146.308,159.308 146.975,159.808 147.5,160.5C 142.189,160.443 136.856,160.776 131.5,161.5C 130.438,160.575 130.438,159.575 131.5,158.5 Z"/></g>
<g><path style="opacity:1" fill="#503e36" d="M 243.5,157.5 C 247.064,157.151 250.398,157.817 253.5,159.5C 249.878,160.325 246.211,160.825 242.5,161C 240.99,161.85 239.49,162.683 238,163.5C 236.743,163.15 236.409,162.483 237,161.5C 239.095,159.875 241.261,158.542 243.5,157.5 Z"/></g>
<g><path style="opacity:1" fill="#e9b083" d="M 177.5,168.5 C 176.474,174.561 174.307,180.228 171,185.5C 169.103,187.016 166.936,187.683 164.5,187.5C 164.5,186.833 164.167,186.5 163.5,186.5C 163.047,184.435 162.047,182.768 160.5,181.5C 160.5,180.833 160.5,180.167 160.5,179.5C 161.496,179.586 162.329,179.252 163,178.5C 163.297,175.086 163.964,171.753 165,168.5C 169.294,163.189 173.46,163.189 177.5,168.5 Z"/></g>
<g><path style="opacity:1" fill="#624c3f" d="M 267.5,163.5 C 270.649,163.211 273.649,163.711 276.5,165C 272.309,165.074 268.309,165.907 264.5,167.5C 264.167,167.333 263.833,167.167 263.5,167C 264.731,165.595 266.064,164.429 267.5,163.5 Z"/></g>
<g><path style="opacity:1" fill="#664f41" d="M 116.5,165.5 C 118.527,165.338 120.527,165.505 122.5,166C 123.451,166.718 123.617,167.551 123,168.5C 120.595,167.726 118.095,167.226 115.5,167C 116.056,166.617 116.389,166.117 116.5,165.5 Z"/></g>
<g><path style="opacity:1" fill="#d88b53" d="M 168.5,167.5 C 173.931,166.094 176.265,168.094 175.5,173.5C 173.857,173.52 172.524,172.853 171.5,171.5C 170.676,174.785 170.176,178.118 170,181.5C 168.867,183.211 167.367,183.711 165.5,183C 168.824,179.967 169.158,176.467 166.5,172.5C 166.902,170.7 167.569,169.033 168.5,167.5 Z"/></g>
<g><path style="opacity:1" fill="#574339" d="M 135.5,166.5 C 139.544,165.958 143.211,166.791 146.5,169C 143.968,169.003 141.468,168.503 139,167.5C 137.105,167.615 135.438,168.282 134,169.5C 133.761,168.212 134.261,167.212 135.5,166.5 Z"/></g>
<g><path style="opacity:1" fill="#685042" d="M 243.5,167.5 C 246.722,167.108 249.722,167.608 252.5,169C 248.309,169.074 244.309,169.907 240.5,171.5C 240.167,171.333 239.833,171.167 239.5,171C 240.731,169.595 242.064,168.429 243.5,167.5 Z"/></g>
<g><path style="opacity:1" fill="#e96821" d="M 89.5,169.5 C 95.9297,169.693 97.763,172.693 95,178.5C 88.9848,185.128 84.1515,184.128 80.5,175.5C 81.1841,170.732 83.6841,169.399 88,171.5C 88.7172,170.956 89.2172,170.289 89.5,169.5 Z"/></g>
<g><path style="opacity:1" fill="#fcfbfb" d="M 282.5,173.5 C 284.592,186.559 280.925,197.559 271.5,206.5C 266.821,206.666 262.155,206.499 257.5,206C 250.032,201.024 243.032,195.524 236.5,189.5C 235.833,185.5 235.167,181.5 234.5,177.5C 250.159,178.984 265.325,176.984 280,171.5C 281.011,172.056 281.844,172.722 282.5,173.5 Z"/></g>
<g><path style="opacity:1" fill="#fcfcfc" d="M 157.5,172.5 C 158.945,174.571 159.945,176.904 160.5,179.5C 160.5,180.167 160.5,180.833 160.5,181.5C 158.316,185.779 154.982,188.946 150.5,191C 152.256,191.202 153.922,191.702 155.5,192.5C 148.51,203.332 138.51,208.999 125.5,209.5C 123.596,209.262 122.262,208.262 121.5,206.5C 114.761,196.947 111.428,186.281 111.5,174.5C 123.492,175.333 135.492,175.5 147.5,175C 150.947,174.471 154.281,173.638 157.5,172.5 Z"/></g>
<g><path style="opacity:1" fill="#ecb385" d="M 335.5,229.5 C 331.737,231.304 327.737,231.804 323.5,231C 317.996,227.644 312.663,224.144 307.5,220.5C 305.339,215.181 303.672,209.681 302.5,204C 302.437,201.058 303.77,200.058 306.5,201C 308.734,204.636 310.568,208.469 312,212.5C 313.558,213.345 314.558,212.679 315,210.5C 315.022,200.468 314.689,190.468 314,180.5C 315.667,177.833 317.333,177.833 319,180.5C 319.832,187.815 320.332,195.148 320.5,202.5C 321.5,202.5 322.5,202.5 323.5,202.5C 323.334,197.156 323.501,191.823 324,186.5C 324.11,182.145 324.943,177.978 326.5,174C 327.784,173.316 328.951,173.483 330,174.5C 330.333,183.5 330.667,192.5 331,201.5C 332.838,194.302 334.671,187.135 336.5,180C 339.478,179.14 340.812,180.307 340.5,183.5C 339.07,190.136 338.236,196.802 338,203.5C 340.186,199.286 342.186,194.953 344,190.5C 344.908,188.561 346.408,187.561 348.5,187.5C 346.527,197.927 344.027,208.26 341,218.5C 340.19,222.787 338.357,226.454 335.5,229.5 Z"/></g>
<g><path style="opacity:1" fill="#e2d5d1" d="M 160.5,181.5 C 162.047,182.768 163.047,184.435 163.5,186.5C 156.542,202.811 144.209,210.811 126.5,210.5C 126.167,210.5 125.833,210.5 125.5,210.5C 125.5,210.167 125.5,209.833 125.5,209.5C 138.51,208.999 148.51,203.332 155.5,192.5C 153.922,191.702 152.256,191.202 150.5,191C 154.982,188.946 158.316,185.779 160.5,181.5 Z"/></g>
<g><path style="opacity:1" fill="#ecb384" d="M 164.5,189.5 C 164.179,194.695 164.513,199.695 165.5,204.5C 168.661,216.913 164.994,226.58 154.5,233.5C 150.522,235.478 147.522,238.478 145.5,242.5C 143.4,239.289 141.066,236.289 138.5,233.5C 134.836,229.668 131.336,225.668 128,221.5C 126.096,218.077 125.263,214.41 125.5,210.5C 125.833,210.5 126.167,210.5 126.5,210.5C 129.365,216.268 134.032,218.102 140.5,216C 145.533,213.641 150.033,210.474 154,206.5C 157.76,200.926 161.26,195.259 164.5,189.5 Z"/></g>
<g><path style="opacity:1" fill="#d8cecc" d="M 236.5,189.5 C 243.032,195.524 250.032,201.024 257.5,206C 262.155,206.499 266.821,206.666 271.5,206.5C 266.045,210.6 260.045,211.433 253.5,209C 245.479,204.484 239.813,197.984 236.5,189.5 Z"/></g>
<g><path style="opacity:1" fill="#d88c54" d="M 163.5,186.5 C 164.167,186.5 164.5,186.833 164.5,187.5C 164.5,188.167 164.5,188.833 164.5,189.5C 161.26,195.259 157.76,200.926 154,206.5C 150.033,210.474 145.533,213.641 140.5,216C 134.032,218.102 129.365,216.268 126.5,210.5C 144.209,210.811 156.542,202.811 163.5,186.5 Z"/></g>
<g><path style="opacity:1" fill="#3d302e" d="M 109.5,218.5 C 109.517,220.565 109.85,222.565 110.5,224.5C 109.5,224.5 108.5,224.5 107.5,224.5C 107.5,223.167 107.5,221.833 107.5,220.5C 99.6734,220.665 92.1734,222.331 85,225.5C 84.228,225.355 83.5613,225.022 83,224.5C 81.9066,221.691 80.7399,219.024 79.5,216.5C 77.8567,211.604 77.0234,206.604 77,201.5C 84.2967,198.632 91.7967,196.299 99.5,194.5C 101.029,194.529 102.196,195.196 103,196.5C 104.867,204.063 107.034,211.396 109.5,218.5 Z"/></g>
<g><path style="opacity:1" fill="#57368c" d="M 285.5,207.5 C 285.628,209.655 285.128,211.655 284,213.5C 282.315,215.017 280.815,216.684 279.5,218.5C 280.689,219.429 282.022,219.762 283.5,219.5C 282.227,223.697 279.727,227.03 276,229.5C 275.312,230.332 275.479,230.998 276.5,231.5C 279.571,228.421 282.904,225.754 286.5,223.5C 295.515,225.752 304.182,228.919 312.5,233C 314.3,234.812 315.967,236.645 317.5,238.5C 317.632,241.57 317.299,244.57 316.5,247.5C 309.159,247.334 301.826,247.5 294.5,248C 284.246,252.046 274.08,256.213 264,260.5C 249.539,254.735 235.039,249.069 220.5,243.5C 222.628,255.034 225.295,266.701 228.5,278.5C 235.268,281.523 241.935,284.523 248.5,287.5C 236.167,287.5 223.833,287.5 211.5,287.5C 210.816,278.03 209.316,268.696 207,259.5C 205.093,256.713 203.593,256.88 202.5,260C 203.717,262.368 204.551,264.868 205,267.5C 205.5,274.158 205.666,280.825 205.5,287.5C 204.833,287.5 204.167,287.5 203.5,287.5C 203.179,285.952 202.179,285.285 200.5,285.5C 192.542,270.395 180.209,260.562 163.5,256C 157.985,254.11 152.319,253.276 146.5,253.5C 148.406,249.078 150.572,244.744 153,240.5C 153.689,239.643 154.522,238.977 155.5,238.5C 163.117,242.124 171.117,243.624 179.5,243C 181.722,235.611 182.055,228.111 180.5,220.5C 179.438,219.425 179.438,218.425 180.5,217.5C 187.916,220.621 195.416,223.621 203,226.5C 212.32,223.171 221.653,219.837 231,216.5C 231.765,216.57 232.265,216.903 232.5,217.5C 224.668,220.909 216.668,224.076 208.5,227C 207.289,227.893 207.289,228.726 208.5,229.5C 215.047,226.696 221.714,224.196 228.5,222C 230.728,221.18 232.728,221.513 234.5,223C 226.352,225.271 218.352,227.938 210.5,231C 210.833,231.333 211.167,231.667 211.5,232C 219.285,229.74 227.118,227.24 235,224.5C 239.534,228.7 244.368,232.533 249.5,236C 255.328,238.227 261.328,238.893 267.5,238C 268.609,236.187 267.942,235.354 265.5,235.5C 265.5,229.833 265.5,224.167 265.5,218.5C 266.167,218.5 266.5,218.167 266.5,217.5C 272.083,214.253 277.083,210.253 281.5,205.5C 282.302,204.048 282.802,202.382 283,200.5C 286.162,202.155 286.995,204.488 285.5,207.5 Z"/></g>
<g><path style="opacity:1" fill="#57378c" d="M 239.5,201.5 C 240.5,201.833 241.167,202.5 241.5,203.5C 241.622,207.147 243.288,209.981 246.5,212C 250.052,215.273 254.052,217.773 258.5,219.5C 259.568,220.434 260.901,220.768 262.5,220.5C 262.5,225.833 262.5,231.167 262.5,236.5C 248.482,236.175 239.148,229.509 234.5,216.5C 234.062,216.565 233.728,216.399 233.5,216C 234.428,215.612 235.095,214.945 235.5,214C 236.403,209.601 237.736,205.434 239.5,201.5 Z"/></g>
<g><path style="opacity:1" fill="#e8dbfe" d="M 74.5,231.5 C 74.7254,237.855 74.892,244.188 75,250.5C 71.2017,262.361 68.0351,274.361 65.5,286.5C 66.791,286.263 67.791,286.596 68.5,287.5C 45.5,287.5 22.5,287.5 -0.5,287.5C -0.5,279.167 -0.5,270.833 -0.5,262.5C 0.5,262.5 1.5,262.5 2.5,262.5C 3.3926,244.789 4.8926,227.122 7,209.5C 8.15116,201.526 8.9845,201.526 9.5,209.5C 12.5,209.5 15.5,209.5 18.5,209.5C 18.5,212.833 18.5,216.167 18.5,219.5C 27.5481,219.42 36.5481,218.754 45.5,217.5C 45.5,214.5 45.5,211.5 45.5,208.5C 47.5,208.5 49.5,208.5 51.5,208.5C 51.5,210.167 51.5,211.833 51.5,213.5C 54.8333,213.5 58.1667,213.5 61.5,213.5C 61.5,219.833 61.5,226.167 61.5,232.5C 65.7978,231.8 70.1311,231.467 74.5,231.5 Z"/></g>
<g><path style="opacity:1" fill="#57368b" d="M 178.5,231.5 C 178.425,234.206 178.092,236.873 177.5,239.5C 169.096,239.761 161.429,237.761 154.5,233.5C 164.994,226.58 168.661,216.913 165.5,204.5C 165.435,204.062 165.601,203.728 166,203.5C 166.903,204.701 168.069,205.535 169.5,206C 178.007,212.396 181.007,220.896 178.5,231.5 Z"/></g>
<g><path style="opacity:1" fill="#e4ab82" d="M 241.5,203.5 C 243.884,205.885 246.55,207.885 249.5,209.5C 253.664,215.079 259.331,217.746 266.5,217.5C 266.5,218.167 266.167,218.5 265.5,218.5C 263.283,219.369 260.95,219.702 258.5,219.5C 254.052,217.773 250.052,215.273 246.5,212C 243.288,209.981 241.622,207.147 241.5,203.5 Z"/></g>
<g><path style="opacity:1" fill="#57368b" d="M 121.5,206.5 C 122.262,208.262 123.596,209.262 125.5,209.5C 125.5,209.833 125.5,210.167 125.5,210.5C 125.263,214.41 126.096,218.077 128,221.5C 131.336,225.668 134.836,229.668 138.5,233.5C 131.231,235.628 124.231,238.628 117.5,242.5C 115.557,242.213 114.223,241.213 113.5,239.5C 113.5,238.5 113.5,237.5 113.5,236.5C 113.822,234.278 113.155,232.444 111.5,231C 115.518,228.212 115.185,226.045 110.5,224.5C 109.85,222.565 109.517,220.565 109.5,218.5C 111.386,217.639 113.22,216.639 115,215.5C 115.956,212.623 117.289,209.956 119,207.5C 119.671,206.748 120.504,206.414 121.5,206.5 Z"/></g>
<g><path style="opacity:1" fill="#d18956" d="M 281.5,200.5 C 281.5,202.167 281.5,203.833 281.5,205.5C 277.083,210.253 272.083,214.253 266.5,217.5C 259.331,217.746 253.664,215.079 249.5,209.5C 262.496,214.533 273.162,211.533 281.5,200.5 Z"/></g>
<g><path style="opacity:1" fill="#e7dafd" d="M 429.5,220.5 C 429.5,220.833 429.5,221.167 429.5,221.5C 425.486,221.334 421.486,221.501 417.5,222C 421.896,222.73 424.73,225.23 426,229.5C 426.667,232.833 426.667,236.167 426,239.5C 423.537,236.035 420.704,232.869 417.5,230C 416.833,229.333 416.167,229.333 415.5,230C 418.245,235.64 417.912,241.14 414.5,246.5C 413.068,242.987 412.235,239.32 412,235.5C 411.385,233.884 410.385,232.551 409,231.5C 408.833,236 408.667,240.5 408.5,245C 408.317,251.61 408.984,258.11 410.5,264.5C 417.049,260.387 423.382,260.72 429.5,265.5C 429.5,272.833 429.5,280.167 429.5,287.5C 397.5,287.5 365.5,287.5 333.5,287.5C 333.5,286.833 333.5,286.167 333.5,285.5C 334.568,284.566 335.901,284.232 337.5,284.5C 336.695,269.782 335.362,255.115 333.5,240.5C 335.167,240.5 336.833,240.5 338.5,240.5C 338.5,243.833 338.5,247.167 338.5,250.5C 342.833,250.5 347.167,250.5 351.5,250.5C 351.5,245.167 351.5,239.833 351.5,234.5C 355.5,234.5 359.5,234.5 363.5,234.5C 363.5,231.5 363.5,228.5 363.5,225.5C 368.167,225.5 372.833,225.5 377.5,225.5C 377.5,233.5 377.5,241.5 377.5,249.5C 380.898,249.18 384.232,249.513 387.5,250.5C 390.195,254.03 392.695,257.696 395,261.5C 395.687,263.568 395.52,265.568 394.5,267.5C 394.977,268.478 395.643,269.311 396.5,270C 399.157,270.175 401.824,270.008 404.5,269.5C 405.232,256.495 405.732,243.495 406,230.5C 402.519,234.931 400.186,239.931 399,245.5C 396.902,241.451 395.569,237.118 395,232.5C 392.65,234.683 390.483,237.016 388.5,239.5C 386.566,231.202 389.566,225.368 397.5,222C 393.167,221.667 388.833,221.333 384.5,221C 387.591,217.121 391.591,214.788 396.5,214C 394.792,212.49 393.126,210.99 391.5,209.5C 396.56,208.403 401.227,209.403 405.5,212.5C 408.098,209.194 411.431,206.861 415.5,205.5C 416.167,205.833 416.833,206.167 417.5,206.5C 415.833,209.167 414.167,211.833 412.5,214.5C 415.333,214.582 418.333,214.748 421.5,215C 424.369,216.596 427.036,218.43 429.5,220.5 Z"/></g>
<g><path style="opacity:1" fill="#ece8f1" d="M 285.5,207.5 C 287.119,210.548 288.119,213.881 288.5,217.5C 295.238,219.302 301.905,221.302 308.5,223.5C 310.262,224.262 311.262,225.596 311.5,227.5C 303.965,224.571 296.298,221.905 288.5,219.5C 287.479,220.002 287.312,220.668 288,221.5C 295.214,223.794 302.381,226.294 309.5,229C 312.936,230.274 315.603,232.441 317.5,235.5C 317.5,236.5 317.5,237.5 317.5,238.5C 315.967,236.645 314.3,234.812 312.5,233C 304.182,228.919 295.515,225.752 286.5,223.5C 282.904,225.754 279.571,228.421 276.5,231.5C 275.479,230.998 275.312,230.332 276,229.5C 279.727,227.03 282.227,223.697 283.5,219.5C 282.022,219.762 280.689,219.429 279.5,218.5C 280.815,216.684 282.315,215.017 284,213.5C 285.128,211.655 285.628,209.655 285.5,207.5 Z"/></g>
<g><path style="opacity:1" fill="#eeb384" d="M 79.5,216.5 C 80.7399,219.024 81.9066,221.691 83,224.5C 83.5613,225.022 84.228,225.355 85,225.5C 92.1734,222.331 99.6734,220.665 107.5,220.5C 107.5,221.833 107.5,223.167 107.5,224.5C 108.5,224.5 109.5,224.5 110.5,224.5C 115.185,226.045 115.518,228.212 111.5,231C 113.155,232.444 113.822,234.278 113.5,236.5C 112.078,236.709 110.745,237.209 109.5,238C 110.756,238.417 111.423,239.25 111.5,240.5C 111.167,241.167 110.833,241.833 110.5,242.5C 104.237,243.052 99.0708,245.718 95,250.5C 92.8622,258.022 91.6955,265.688 91.5,273.5C 91.5,273.833 91.5,274.167 91.5,274.5C 90.7149,279.087 89.0482,283.421 86.5,287.5C 80.5,287.5 74.5,287.5 68.5,287.5C 67.791,286.596 66.791,286.263 65.5,286.5C 68.0351,274.361 71.2017,262.361 75,250.5C 74.892,244.188 74.7254,237.855 74.5,231.5C 75.3238,227.688 75.8238,223.688 76,219.5C 77.0391,218.29 78.2058,217.29 79.5,216.5 Z"/></g>
<g><path style="opacity:1" fill="#edeaf3" d="M 234.5,216.5 C 239.148,229.509 248.482,236.175 262.5,236.5C 262.5,231.167 262.5,225.833 262.5,220.5C 264.141,225.251 265.141,230.251 265.5,235.5C 267.942,235.354 268.609,236.187 267.5,238C 261.328,238.893 255.328,238.227 249.5,236C 244.368,232.533 239.534,228.7 235,224.5C 227.118,227.24 219.285,229.74 211.5,232C 211.167,231.667 210.833,231.333 210.5,231C 218.352,227.938 226.352,225.271 234.5,223C 232.728,221.513 230.728,221.18 228.5,222C 221.714,224.196 215.047,226.696 208.5,229.5C 207.289,228.726 207.289,227.893 208.5,227C 216.668,224.076 224.668,220.909 232.5,217.5C 233.492,217.672 234.158,217.338 234.5,216.5 Z"/></g>
<g><path style="opacity:1" fill="#644391" d="M 311.5,227.5 C 313.907,228.794 316.074,230.461 318,232.5C 318.74,233.749 318.573,234.749 317.5,235.5C 315.603,232.441 312.936,230.274 309.5,229C 302.381,226.294 295.214,223.794 288,221.5C 287.312,220.668 287.479,220.002 288.5,219.5C 296.298,221.905 303.965,224.571 311.5,227.5 Z"/></g>
<g><path style="opacity:1" fill="#8e74ab" d="M 265.5,218.5 C 265.5,224.167 265.5,229.833 265.5,235.5C 265.141,230.251 264.141,225.251 262.5,220.5C 260.901,220.768 259.568,220.434 258.5,219.5C 260.95,219.702 263.283,219.369 265.5,218.5 Z"/></g>
<g><path style="opacity:1" fill="#614191" d="M 288.5,217.5 C 289.946,216.387 291.613,216.22 293.5,217C 298.154,218.607 302.82,220.107 307.5,221.5C 308.338,221.842 308.672,222.508 308.5,223.5C 301.905,221.302 295.238,219.302 288.5,217.5 Z"/></g>
<g><path style="opacity:1" fill="#f1eef4" d="M 180.5,220.5 C 182.055,228.111 181.722,235.611 179.5,243C 171.117,243.624 163.117,242.124 155.5,238.5C 154.522,238.977 153.689,239.643 153,240.5C 150.572,244.744 148.406,249.078 146.5,253.5C 144.833,253.5 143.167,253.5 141.5,253.5C 142.822,251.689 143.322,249.689 143,247.5C 141.632,244.814 140.299,242.147 139,239.5C 138.261,238.426 137.261,237.759 136,237.5C 129.258,240.581 122.758,244.081 116.5,248C 115.207,248.49 113.873,248.657 112.5,248.5C 112.405,246.214 111.738,244.214 110.5,242.5C 110.833,241.833 111.167,241.167 111.5,240.5C 112.492,240.672 113.158,240.338 113.5,239.5C 114.223,241.213 115.557,242.213 117.5,242.5C 124.231,238.628 131.231,235.628 138.5,233.5C 141.066,236.289 143.4,239.289 145.5,242.5C 147.522,238.478 150.522,235.478 154.5,233.5C 161.429,237.761 169.096,239.761 177.5,239.5C 178.092,236.873 178.425,234.206 178.5,231.5C 179.167,227.833 179.833,224.167 180.5,220.5 Z"/></g>
<g><path style="opacity:1" fill="#a391c0" d="M 429.5,221.5 C 429.5,236.167 429.5,250.833 429.5,265.5C 423.382,260.72 417.049,260.387 410.5,264.5C 408.984,258.11 408.317,251.61 408.5,245C 408.667,240.5 408.833,236 409,231.5C 410.385,232.551 411.385,233.884 412,235.5C 412.235,239.32 413.068,242.987 414.5,246.5C 417.912,241.14 418.245,235.64 415.5,230C 416.167,229.333 416.833,229.333 417.5,230C 420.704,232.869 423.537,236.035 426,239.5C 426.667,236.167 426.667,232.833 426,229.5C 424.73,225.23 421.896,222.73 417.5,222C 421.486,221.501 425.486,221.334 429.5,221.5 Z"/></g>
<g><path style="opacity:1" fill="#d78a53" d="M 307.5,221.5 C 307.5,221.167 307.5,220.833 307.5,220.5C 312.663,224.144 317.996,227.644 323.5,231C 327.737,231.804 331.737,231.304 335.5,229.5C 333.919,231.142 333.253,233.142 333.5,235.5C 330.241,237.576 327.074,239.909 324,242.5C 321.775,256.079 320.609,269.746 320.5,283.5C 318.167,283.5 315.833,283.5 313.5,283.5C 313.5,282.5 313.5,281.5 313.5,280.5C 315.059,269.567 316.059,258.567 316.5,247.5C 317.299,244.57 317.632,241.57 317.5,238.5C 317.5,237.5 317.5,236.5 317.5,235.5C 318.573,234.749 318.74,233.749 318,232.5C 316.074,230.461 313.907,228.794 311.5,227.5C 311.262,225.596 310.262,224.262 308.5,223.5C 308.672,222.508 308.338,221.842 307.5,221.5 Z"/></g>
<g><path style="opacity:1" fill="#453732" d="M 113.5,236.5 C 113.5,237.5 113.5,238.5 113.5,239.5C 113.158,240.338 112.492,240.672 111.5,240.5C 111.423,239.25 110.756,238.417 109.5,238C 110.745,237.209 112.078,236.709 113.5,236.5 Z"/></g>
<g><path style="opacity:1" fill="#eeb486" d="M 333.5,235.5 C 333.5,237.167 333.5,238.833 333.5,240.5C 335.362,255.115 336.695,269.782 337.5,284.5C 335.901,284.232 334.568,284.566 333.5,285.5C 330.505,285.294 327.838,285.96 325.5,287.5C 321.167,287.5 316.833,287.5 312.5,287.5C 312.5,287.167 312.5,286.833 312.5,286.5C 312.205,284.265 312.539,282.265 313.5,280.5C 313.5,281.5 313.5,282.5 313.5,283.5C 315.833,283.5 318.167,283.5 320.5,283.5C 320.609,269.746 321.775,256.079 324,242.5C 327.074,239.909 330.241,237.576 333.5,235.5 Z"/></g>
<g><path style="opacity:1" fill="#58378b" d="M 141.5,253.5 C 126.514,253.606 113.181,258.272 101.5,267.5C 101.665,264.482 101.498,261.482 101,258.5C 99.6124,257.446 98.1124,257.28 96.5,258C 94.0141,262.962 92.3474,268.129 91.5,273.5C 91.6955,265.688 92.8622,258.022 95,250.5C 99.0708,245.718 104.237,243.052 110.5,242.5C 111.738,244.214 112.405,246.214 112.5,248.5C 113.873,248.657 115.207,248.49 116.5,248C 122.758,244.081 129.258,240.581 136,237.5C 137.261,237.759 138.261,238.426 139,239.5C 140.299,242.147 141.632,244.814 143,247.5C 143.322,249.689 142.822,251.689 141.5,253.5 Z"/></g>
<g><path style="opacity:1" fill="#3d8354" d="M 133.5,240.5 C 136.166,240.066 137.333,241.066 137,243.5C 133.403,245.066 132.237,244.066 133.5,240.5 Z"/></g>
<g><path style="opacity:1" fill="#fdfdfd" d="M 316.5,247.5 C 316.059,258.567 315.059,269.567 313.5,280.5C 312.539,282.265 312.205,284.265 312.5,286.5C 311.689,282.582 310.689,278.582 309.5,274.5C 299.625,278.609 289.958,282.942 280.5,287.5C 269.833,287.5 259.167,287.5 248.5,287.5C 241.935,284.523 235.268,281.523 228.5,278.5C 225.295,266.701 222.628,255.034 220.5,243.5C 235.039,249.069 249.539,254.735 264,260.5C 274.08,256.213 284.246,252.046 294.5,248C 301.826,247.5 309.159,247.334 316.5,247.5 Z"/></g>
<g><path style="opacity:1" fill="#3b2e2f" d="M 141.5,253.5 C 143.167,253.5 144.833,253.5 146.5,253.5C 152.319,253.276 157.985,254.11 163.5,256C 180.209,260.562 192.542,270.395 200.5,285.5C 200.833,286.167 201.167,286.833 201.5,287.5C 196.167,287.5 190.833,287.5 185.5,287.5C 185.167,286.833 184.833,286.167 184.5,285.5C 173.942,271.182 159.609,264.515 141.5,265.5C 140.167,265.5 138.833,265.5 137.5,265.5C 125.028,266.986 114.528,272.319 106,281.5C 104.906,283.078 104.072,284.745 103.5,286.5C 102.833,286.5 102.5,286.833 102.5,287.5C 97.1667,287.5 91.8333,287.5 86.5,287.5C 89.0482,283.421 90.7149,279.087 91.5,274.5C 91.3505,275.552 91.5172,276.552 92,277.5C 94.6682,273.666 97.8348,270.333 101.5,267.5C 113.181,258.272 126.514,253.606 141.5,253.5 Z"/></g>
<g><path style="opacity:1" fill="#f5f4f7" d="M 101.5,267.5 C 97.8348,270.333 94.6682,273.666 92,277.5C 91.5172,276.552 91.3505,275.552 91.5,274.5C 91.5,274.167 91.5,273.833 91.5,273.5C 92.3474,268.129 94.0141,262.962 96.5,258C 98.1124,257.28 99.6124,257.446 101,258.5C 101.498,261.482 101.665,264.482 101.5,267.5 Z"/></g>
<g><path style="opacity:1" fill="#f2eff6" d="M 211.5,287.5 C 209.5,287.5 207.5,287.5 205.5,287.5C 205.666,280.825 205.5,274.158 205,267.5C 204.551,264.868 203.717,262.368 202.5,260C 203.593,256.88 205.093,256.713 207,259.5C 209.316,268.696 210.816,278.03 211.5,287.5 Z"/></g>
<g><path style="opacity:1" fill="#55358a" d="M 137.5,265.5 C 137.5,270.167 137.5,274.833 137.5,279.5C 139.124,279.64 140.29,278.973 141,277.5C 141.499,273.514 141.666,269.514 141.5,265.5C 159.609,264.515 173.942,271.182 184.5,285.5C 157.495,285.539 130.495,285.872 103.5,286.5C 104.072,284.745 104.906,283.078 106,281.5C 114.528,272.319 125.028,266.986 137.5,265.5 Z"/></g>
<g><path style="opacity:1" fill="#f6f4f9" d="M 137.5,265.5 C 138.833,265.5 140.167,265.5 141.5,265.5C 141.666,269.514 141.499,273.514 141,277.5C 140.29,278.973 139.124,279.64 137.5,279.5C 137.5,274.833 137.5,270.167 137.5,265.5 Z"/></g>
<g><path style="opacity:1" fill="#5a3a8e" d="M 312.5,286.5 C 312.5,286.833 312.5,287.167 312.5,287.5C 301.833,287.5 291.167,287.5 280.5,287.5C 289.958,282.942 299.625,278.609 309.5,274.5C 310.689,278.582 311.689,282.582 312.5,286.5 Z"/></g>
<g><path style="opacity:1" fill="#dccef5" d="M 184.5,285.5 C 184.833,286.167 185.167,286.833 185.5,287.5C 157.833,287.5 130.167,287.5 102.5,287.5C 102.5,286.833 102.833,286.5 103.5,286.5C 130.495,285.872 157.495,285.539 184.5,285.5 Z"/></g>
<g><path style="opacity:1" fill="#65408a" d="M 333.5,285.5 C 333.5,286.167 333.5,286.833 333.5,287.5C 330.833,287.5 328.167,287.5 325.5,287.5C 327.838,285.96 330.505,285.294 333.5,285.5 Z"/></g>
<g><path style="opacity:1" fill="#b5a1d4" d="M 200.5,285.5 C 202.179,285.285 203.179,285.952 203.5,287.5C 202.833,287.5 202.167,287.5 201.5,287.5C 201.167,286.833 200.833,286.167 200.5,285.5 Z"/></g>
</svg>
