<?xml version="1.0" encoding="UTF-8"?>
<!DOCTYPE svg PUBLIC "-//W3C//DTD SVG 1.1//EN" "http://www.w3.org/Graphics/SVG/1.1/DTD/svg11.dtd">
<svg xmlns="http://www.w3.org/2000/svg" version="1.1" width="23px" height="23px" style="shape-rendering:geometricPrecision; text-rendering:geometricPrecision; image-rendering:optimizeQuality; fill-rule:evenodd; clip-rule:evenodd" xmlns:xlink="http://www.w3.org/1999/xlink">
<g><path style="opacity:0.572" fill="#fefffe" d="M 22.5,10.5 C 22.5,13.5 22.5,16.5 22.5,19.5C 14.8333,22.1667 7.16667,22.1667 -0.5,19.5C -0.5,16.5 -0.5,13.5 -0.5,10.5C 0.376442,10.6309 1.04311,10.2975 1.5,9.5C -0.263249,6.51895 0.403418,4.51895 3.5,3.5C 4.64732,3.81777 5.48065,4.48444 6,5.5C 6.77556,1.04973 9.27556,-0.450271 13.5,1C 14.8932,2.17109 15.7265,3.67109 16,5.5C 17.0665,3.71739 18.5665,3.21739 20.5,4C 21.767,5.79595 21.767,7.62928 20.5,9.5C 20.9569,10.2975 21.6236,10.6309 22.5,10.5 Z M 10.5,2.5 C 12.5053,3.25403 13.172,4.42069 12.5,6C 8.44668,6.46838 7.78001,5.30171 10.5,2.5 Z M 5.5,6.5 C 6.93111,7.0819 8.26444,7.91523 9.5,9C 7.97323,10.6324 6.30656,10.7991 4.5,9.5C 5.12723,8.58317 5.46056,7.58317 5.5,6.5 Z M 14.5,6.5 C 18.7962,9.22118 18.4628,10.3879 13.5,10C 13.1667,9.66667 12.8333,9.33333 12.5,9C 13.756,8.58309 14.4226,7.74975 14.5,6.5 Z M 1.5,12.5 C 2.5,12.5 3.5,12.5 4.5,12.5C 4.5,14.1667 4.5,15.8333 4.5,17.5C 3.5,17.5 2.5,17.5 1.5,17.5C 1.5,15.8333 1.5,14.1667 1.5,12.5 Z M 8.5,12.5 C 13.8333,11.8333 16.1667,14.1667 15.5,19.5C 12.5,19.5 9.5,19.5 6.5,19.5C 6.1658,16.812 6.83247,14.4786 8.5,12.5 Z M 17.5,12.5 C 18.5,12.5 19.5,12.5 20.5,12.5C 20.5,14.1667 20.5,15.8333 20.5,17.5C 19.5,17.5 18.5,17.5 17.5,17.5C 17.5,15.8333 17.5,14.1667 17.5,12.5 Z"/></g>
</svg>
