<?xml version="1.0" encoding="UTF-8"?>
<!DOCTYPE svg PUBLIC "-//W3C//DTD SVG 1.1//EN" "http://www.w3.org/Graphics/SVG/1.1/DTD/svg11.dtd">
<svg xmlns="http://www.w3.org/2000/svg" version="1.1" width="23px" height="23px" style="shape-rendering:geometricPrecision; text-rendering:geometricPrecision; image-rendering:optimizeQuality; fill-rule:evenodd; clip-rule:evenodd" xmlns:xlink="http://www.w3.org/1999/xlink">
<g><path style="opacity:0.624" fill="#543388" d="M 18.5,11.5 C 17.8333,11.8333 17.1667,12.1667 16.5,12.5C 16.1667,11.1667 15.8333,11.1667 15.5,12.5C 14.5084,12.3284 13.8417,12.6618 13.5,13.5C 13.5,14.1667 13.5,14.8333 13.5,15.5C 12.6726,16.4387 12.0059,16.1054 11.5,14.5C 12.8333,13.8333 12.8333,13.1667 11.5,12.5C 10.8333,12.8333 10.1667,13.1667 9.5,13.5C 8.04125,13.4326 6.70792,13.7659 5.5,14.5C 4.83333,14.5 4.16667,14.5 3.5,14.5C 2.48631,13.3263 1.15298,12.6596 -0.5,12.5C -0.5,12.1667 -0.5,11.8333 -0.5,11.5C 0.267389,10.828 0.934056,9.9947 1.5,9C 7.00179,9.49422 9.50179,6.99422 9,1.5C 12.6813,-0.358575 14.8479,0.808092 15.5,5C 14.2539,7.58198 14.9206,8.41531 17.5,7.5C 18.4287,8.68884 18.762,10.0222 18.5,11.5 Z M 10.5,2.5 C 14.2434,2.4592 14.4101,3.12587 11,4.5C 10.5357,3.90558 10.369,3.23891 10.5,2.5 Z M 9.5,7.5 C 10.7759,8.3864 10.7759,9.3864 9.5,10.5C 8.43764,9.57537 8.43764,8.57537 9.5,7.5 Z"/></g>
<g><path style="opacity:0.68" fill="#54338a" d="M 18.5,11.5 C 19.326,13.2644 20.6593,14.5977 22.5,15.5C 22.5,16.5 22.5,17.5 22.5,18.5C 21.4693,19.355 20.3026,20.0217 19,20.5C 17.2173,19.0471 15.2173,18.0471 13,17.5C 8.09633,22.0322 4.92967,21.0322 3.5,14.5C 4.16667,14.5 4.83333,14.5 5.5,14.5C 4.35723,16.1007 5.02389,16.7674 7.5,16.5C 10.2386,16.4526 10.9053,15.4526 9.5,13.5C 10.1667,13.1667 10.8333,12.8333 11.5,12.5C 11.5,13.1667 11.5,13.8333 11.5,14.5C 12.0059,16.1054 12.6726,16.4387 13.5,15.5C 14.8333,14.8333 14.8333,14.1667 13.5,13.5C 13.8417,12.6618 14.5084,12.3284 15.5,12.5C 15.4614,13.7562 15.9614,14.7562 17,15.5C 17.4696,14.4232 17.3029,13.4232 16.5,12.5C 17.1667,12.1667 17.8333,11.8333 18.5,11.5 Z"/></g>
</svg>
