<?xml version="1.0" encoding="UTF-8"?>
<!DOCTYPE svg PUBLIC "-//W3C//DTD SVG 1.1//EN" "http://www.w3.org/Graphics/SVG/1.1/DTD/svg11.dtd">
<svg xmlns="http://www.w3.org/2000/svg" version="1.1" width="238px" height="238px" style="shape-rendering:geometricPrecision; text-rendering:geometricPrecision; image-rendering:optimizeQuality; fill-rule:evenodd; clip-rule:evenodd" xmlns:xlink="http://www.w3.org/1999/xlink">
<g><path style="opacity:0.929" fill="#e8e8e8" d="M 83.5,100.5 C 78.0357,101.901 72.369,102.401 66.5,102C 64.6125,100.606 62.6125,99.4396 60.5,98.5C 59.5084,98.6716 58.8417,98.3382 58.5,97.5C 62.7205,96.8076 66.3872,97.8076 69.5,100.5C 72.8202,98.9764 76.3202,97.9764 80,97.5C 78.021,72.4704 77.1877,47.1371 77.5,21.5C 58.5,21.5 39.5,21.5 20.5,21.5C 20.5,54.8333 20.5,88.1667 20.5,121.5C 24.1667,121.5 27.8333,121.5 31.5,121.5C 34.8309,123.298 38.4975,123.964 42.5,123.5C 42.1583,124.338 41.4916,124.672 40.5,124.5C 32.8333,124.5 25.1667,124.5 17.5,124.5C 17.5,89.5 17.5,54.5 17.5,19.5C 39.5,19.5 61.5,19.5 83.5,19.5C 83.5,46.5 83.5,73.5 83.5,100.5 Z"/></g>
<g><path style="opacity:1" fill="#f8f8f8" d="M 58.5,97.5 C 58.5,96.8333 58.5,96.1667 58.5,95.5C 58.5,89.5 58.5,83.5 58.5,77.5C 61.1667,77.5 63.8333,77.5 66.5,77.5C 66.5,63.5 66.5,49.5 66.5,35.5C 54.8333,35.5 43.1667,35.5 31.5,35.5C 31.5,53.8333 31.5,72.1667 31.5,90.5C 30.5664,95.5683 30.5664,100.568 31.5,105.5C 31.5,110.833 31.5,116.167 31.5,121.5C 27.8333,121.5 24.1667,121.5 20.5,121.5C 20.5,88.1667 20.5,54.8333 20.5,21.5C 39.5,21.5 58.5,21.5 77.5,21.5C 77.1877,47.1371 78.021,72.4704 80,97.5C 76.3202,97.9764 72.8202,98.9764 69.5,100.5C 66.3872,97.8076 62.7205,96.8076 58.5,97.5 Z"/></g>
<g><path style="opacity:0.982" fill="#28343a" d="M 111.5,187.5 C 110.5,186.167 109.5,186.167 108.5,187.5C 106.05,187.702 103.717,187.369 101.5,186.5C 101.5,185.833 101.167,185.5 100.5,185.5C 99.5773,181.936 99.244,178.269 99.5,174.5C 99.5,171.5 99.5,168.5 99.5,165.5C 99.5,163.833 99.5,162.167 99.5,160.5C 99.5,156.5 99.5,152.5 99.5,148.5C 99.5,146.833 99.5,145.167 99.5,143.5C 100.833,143.5 102.167,143.5 103.5,143.5C 103.5,152.833 103.5,162.167 103.5,171.5C 137.167,171.5 170.833,171.5 204.5,171.5C 205.499,128.003 205.832,84.3365 205.5,40.5C 171.167,40.5 136.833,40.5 102.5,40.5C 102.5,57.8333 102.5,75.1667 102.5,92.5C 102.993,94.8056 103.326,97.139 103.5,99.5C 103.5,103.833 103.5,108.167 103.5,112.5C 102.167,112.5 100.833,112.5 99.5,112.5C 99.5,111.167 99.5,109.833 99.5,108.5C 99.9038,107.244 100.571,106.077 101.5,105C 101.022,103.697 100.355,102.531 99.5,101.5C 99.3334,78.4976 99.5,55.4976 100,32.5C 100.308,31.6919 100.808,31.0253 101.5,30.5C 136.458,29.3403 171.458,29.1737 206.5,30C 207.667,30.5 208.5,31.3333 209,32.5C 209.667,83.1667 209.667,133.833 209,184.5C 208.167,185.333 207.333,186.167 206.5,187C 174.835,187.5 143.168,187.667 111.5,187.5 Z"/></g>
<g><path style="opacity:1" fill="#e6e6e6" d="M 58.5,95.5 C 54.3676,92.7065 51.3676,89.0399 49.5,84.5C 50.795,83.5116 52.1283,82.5116 53.5,81.5C 56.4025,79.6953 57.7359,77.0286 57.5,73.5C 57.3273,58.262 50.6606,54.0953 37.5,61C 34.857,64.6791 33.5237,68.8458 33.5,73.5C 34.1355,77.1806 34.4689,80.8473 34.5,84.5C 34.0863,86.9192 33.0863,88.9192 31.5,90.5C 31.5,72.1667 31.5,53.8333 31.5,35.5C 43.1667,35.5 54.8333,35.5 66.5,35.5C 66.5,49.5 66.5,63.5 66.5,77.5C 63.8333,77.5 61.1667,77.5 58.5,77.5C 58.5,83.5 58.5,89.5 58.5,95.5 Z"/></g>
<g><path style="opacity:1" fill="#3b4e57" d="M 138.5,34.5 C 149.187,34.168 159.854,34.5013 170.5,35.5C 165.167,35.8333 159.833,36.1667 154.5,36.5C 148.789,36.4949 143.456,35.8282 138.5,34.5 Z"/></g>
<g><path style="opacity:1" fill="#fcfcfc" d="M 204.5,171.5 C 170.833,171.5 137.167,171.5 103.5,171.5C 103.5,162.167 103.5,152.833 103.5,143.5C 111.167,143.5 118.833,143.5 126.5,143.5C 125.786,137.249 124.452,131.249 122.5,125.5C 122.361,121.111 121.361,116.944 119.5,113C 114.177,112.501 108.844,112.334 103.5,112.5C 103.5,108.167 103.5,103.833 103.5,99.5C 106.413,100.241 109.413,100.741 112.5,101C 115.934,105.19 119.6,109.19 123.5,113C 125.5,113.667 127.5,113.667 129.5,113C 132.309,111.259 135.309,110.092 138.5,109.5C 139.15,109.196 139.817,108.863 140.5,108.5C 141.495,113.792 141.828,119.125 141.5,124.5C 137.518,126.719 133.185,128.052 128.5,128.5C 132.337,130.714 136.337,131.048 140.5,129.5C 139.083,133.002 138.416,136.669 138.5,140.5C 149.5,140.5 160.5,140.5 171.5,140.5C 171.442,132.479 171.776,124.479 172.5,116.5C 172.5,116.167 172.5,115.833 172.5,115.5C 174.117,116.038 175.784,116.371 177.5,116.5C 177.666,109.825 177.5,103.158 177,96.5C 173.663,92.4219 169.497,89.7552 164.5,88.5C 165.015,84.3549 166.015,80.3549 167.5,76.5C 167.457,75.5836 167.124,74.9169 166.5,74.5C 166.5,73.5 166.5,72.5 166.5,71.5C 168.185,63.9915 165.019,59.9915 157,59.5C 154.538,60.1595 152.038,60.4928 149.5,60.5C 147.5,60.5 145.5,60.5 143.5,60.5C 143.226,64.2019 144.892,66.5352 148.5,67.5C 148.334,72.8437 148.501,78.1771 149,83.5C 151.46,84.755 152.627,86.755 152.5,89.5C 144.608,91.0635 138.275,95.0635 133.5,101.5C 131.201,102.211 129.035,103.211 127,104.5C 122.574,101.361 118.407,97.8615 114.5,94C 110.909,92.844 107.242,92.0106 103.5,91.5C 103.5,74.8333 103.5,58.1667 103.5,41.5C 137.167,41.5 170.833,41.5 204.5,41.5C 204.5,84.8333 204.5,128.167 204.5,171.5 Z"/></g>
<g><path style="opacity:1" fill="#c9cdce" d="M 204.5,171.5 C 204.5,128.167 204.5,84.8333 204.5,41.5C 170.833,41.5 137.167,41.5 103.5,41.5C 103.5,58.1667 103.5,74.8333 103.5,91.5C 103.5,92.1667 103.167,92.5 102.5,92.5C 102.5,75.1667 102.5,57.8333 102.5,40.5C 136.833,40.5 171.167,40.5 205.5,40.5C 205.832,84.3365 205.499,128.003 204.5,171.5 Z"/></g>
<g><path style="opacity:1" fill="#303b41" d="M 53.5,81.5 C 56.4496,72.9121 54.4496,65.9121 47.5,60.5C 45.4128,63.6728 43.5795,67.0061 42,70.5C 41.9638,75.5383 40.7971,80.205 38.5,84.5C 37.6602,87.3607 36.3268,90.0273 34.5,92.5C 33.2542,96.8935 32.2542,101.227 31.5,105.5C 30.5664,100.568 30.5664,95.5683 31.5,90.5C 33.0863,88.9192 34.0863,86.9192 34.5,84.5C 34.4689,80.8473 34.1355,77.1806 33.5,73.5C 33.5237,68.8458 34.857,64.6791 37.5,61C 50.6606,54.0953 57.3273,58.262 57.5,73.5C 57.7359,77.0286 56.4025,79.6953 53.5,81.5 Z"/></g>
<g><path style="opacity:1" fill="#e6e6e6" d="M 199.5,58.5 C 200.5,58.5 201.5,58.5 202.5,58.5C 202.5,90.1667 202.5,121.833 202.5,153.5C 201.5,153.5 200.5,153.5 199.5,153.5C 199.5,121.833 199.5,90.1667 199.5,58.5 Z"/></g>
<g><path style="opacity:1" fill="#59398a" d="M 149.5,60.5 C 155.253,62.2111 160.253,65.2111 164.5,69.5C 163.833,69.5 163.167,69.5 162.5,69.5C 161.341,67.7497 159.674,66.7497 157.5,66.5C 155.545,64.6742 153.212,64.1742 150.5,65C 149.748,65.6708 149.414,66.5041 149.5,67.5C 149.167,67.5 148.833,67.5 148.5,67.5C 144.892,66.5352 143.226,64.2019 143.5,60.5C 145.5,60.5 147.5,60.5 149.5,60.5 Z"/></g>
<g><path style="opacity:1" fill="#422f61" d="M 166.5,71.5 C 165.5,71.1667 164.833,70.5 164.5,69.5C 160.253,65.2111 155.253,62.2111 149.5,60.5C 152.038,60.4928 154.538,60.1595 157,59.5C 165.019,59.9915 168.185,63.9915 166.5,71.5 Z"/></g>
<g><path style="opacity:1" fill="#f0b395" d="M 53.5,81.5 C 52.1283,82.5116 50.795,83.5116 49.5,84.5C 45.8333,84.5 42.1667,84.5 38.5,84.5C 40.7971,80.205 41.9638,75.5383 42,70.5C 43.5795,67.0061 45.4128,63.6728 47.5,60.5C 54.4496,65.9121 56.4496,72.9121 53.5,81.5 Z"/></g>
<g><path style="opacity:1" fill="#2d3341" d="M 157.5,66.5 C 154.833,66.8333 152.167,67.1667 149.5,67.5C 149.414,66.5041 149.748,65.6708 150.5,65C 153.212,64.1742 155.545,64.6742 157.5,66.5 Z"/></g>
<g><path style="opacity:1" fill="#f6b899" d="M 157.5,66.5 C 159.674,66.7497 161.341,67.7497 162.5,69.5C 162.192,71.924 162.526,74.2573 163.5,76.5C 164.265,75.3881 165.265,74.7214 166.5,74.5C 167.124,74.9169 167.457,75.5836 167.5,76.5C 166.015,80.3549 165.015,84.3549 164.5,88.5C 160.568,90.3823 156.568,90.7156 152.5,89.5C 152.627,86.755 151.46,84.755 149,83.5C 148.501,78.1771 148.334,72.8437 148.5,67.5C 148.833,67.5 149.167,67.5 149.5,67.5C 152.167,67.1667 154.833,66.8333 157.5,66.5 Z"/></g>
<g><path style="opacity:1" fill="#3f4145" d="M 162.5,69.5 C 163.167,69.5 163.833,69.5 164.5,69.5C 164.833,70.5 165.5,71.1667 166.5,71.5C 166.5,72.5 166.5,73.5 166.5,74.5C 165.265,74.7214 164.265,75.3881 163.5,76.5C 162.526,74.2573 162.192,71.924 162.5,69.5 Z"/></g>
<g><path style="opacity:1" fill="#6e529c" d="M 72.5,83.5 C 74.9118,83.6941 75.9118,85.0274 75.5,87.5C 74.1667,87.5 72.8333,87.5 71.5,87.5C 71.4326,86.0413 71.7659,84.7079 72.5,83.5 Z"/></g>
<g><path style="opacity:1" fill="#573687" d="M 38.5,84.5 C 42.1667,84.5 45.8333,84.5 49.5,84.5C 51.3676,89.0399 54.3676,92.7065 58.5,95.5C 58.5,96.1667 58.5,96.8333 58.5,97.5C 58.8417,98.3382 59.5084,98.6716 60.5,98.5C 61.141,102.423 61.141,106.257 60.5,110C 54.4921,113.909 47.8254,115.409 40.5,114.5C 41.1733,107.682 42.0067,101.015 43,94.5C 40.7024,91.4743 37.8691,90.8076 34.5,92.5C 36.3268,90.0273 37.6602,87.3607 38.5,84.5 Z"/></g>
<g><path style="opacity:1" fill="#475b65" d="M 164.5,88.5 C 169.497,89.7552 173.663,92.4219 177,96.5C 177.5,103.158 177.666,109.825 177.5,116.5C 175.784,116.371 174.117,116.038 172.5,115.5C 169.576,114.414 166.576,113.914 163.5,114C 162.39,117.049 161.723,120.216 161.5,123.5C 156.324,124.025 151.157,124.692 146,125.5C 144.408,125.395 142.908,125.061 141.5,124.5C 141.828,119.125 141.495,113.792 140.5,108.5C 139.817,108.863 139.15,109.196 138.5,109.5C 137.331,106.489 135.664,103.822 133.5,101.5C 138.275,95.0635 144.608,91.0635 152.5,89.5C 156.568,90.7156 160.568,90.3823 164.5,88.5 Z"/></g>
<g><path style="opacity:1" fill="#faba9b" d="M 60.5,98.5 C 62.6125,99.4396 64.6125,100.606 66.5,102C 72.369,102.401 78.0357,101.901 83.5,100.5C 86.85,100.386 90.1833,100.053 93.5,99.5C 95.8405,99.3631 97.8405,100.03 99.5,101.5C 100.355,102.531 101.022,103.697 101.5,105C 100.571,106.077 99.9038,107.244 99.5,108.5C 94.1631,107.017 88.8297,106.684 83.5,107.5C 78.2284,108.855 72.8951,110.021 67.5,111C 67.4288,114.683 65.7621,117.183 62.5,118.5C 55.5291,119.388 48.8624,121.054 42.5,123.5C 38.4975,123.964 34.8309,123.298 31.5,121.5C 31.5,116.167 31.5,110.833 31.5,105.5C 32.2542,101.227 33.2542,96.8935 34.5,92.5C 37.8691,90.8076 40.7024,91.4743 43,94.5C 42.0067,101.015 41.1733,107.682 40.5,114.5C 47.8254,115.409 54.4921,113.909 60.5,110C 61.141,106.257 61.141,102.423 60.5,98.5 Z"/></g>
<g><path style="opacity:1" fill="#fdbe9e" d="M 103.5,91.5 C 107.242,92.0106 110.909,92.844 114.5,94C 118.407,97.8615 122.574,101.361 127,104.5C 129.035,103.211 131.201,102.211 133.5,101.5C 135.664,103.822 137.331,106.489 138.5,109.5C 135.309,110.092 132.309,111.259 129.5,113C 127.5,113.667 125.5,113.667 123.5,113C 119.6,109.19 115.934,105.19 112.5,101C 109.413,100.741 106.413,100.241 103.5,99.5C 103.326,97.139 102.993,94.8056 102.5,92.5C 103.167,92.5 103.5,92.1667 103.5,91.5 Z"/></g>
<g><path style="opacity:1" fill="#454646" d="M 68.5,104.5 C 69.2389,104.369 69.9056,104.536 70.5,105C 68.5985,107.613 66.2652,109.28 63.5,110C 65.3734,108.296 67.0401,106.463 68.5,104.5 Z"/></g>
<g><path style="opacity:1" fill="#f4f2f1" d="M 83.5,107.5 C 83.5,113.167 83.5,118.833 83.5,124.5C 76.8333,124.5 70.1667,124.5 63.5,124.5C 62.5386,122.735 62.2053,120.735 62.5,118.5C 65.7621,117.183 67.4288,114.683 67.5,111C 72.8951,110.021 78.2284,108.855 83.5,107.5 Z"/></g>
<g><path style="opacity:0.979" fill="#57378c" d="M 99.5,112.5 C 100.833,112.5 102.167,112.5 103.5,112.5C 107.97,113.486 112.637,113.819 117.5,113.5C 118.833,123.163 120.166,132.829 121.5,142.5C 115.31,142.177 109.31,142.51 103.5,143.5C 102.167,143.5 100.833,143.5 99.5,143.5C 98.8333,143.5 98.1667,143.5 97.5,143.5C 95.2188,143.923 93.5521,143.256 92.5,141.5C 93.5015,132.155 94.6682,122.821 96,113.5C 97.0113,112.663 98.1779,112.33 99.5,112.5 Z"/></g>
<g><path style="opacity:1" fill="#f7b99a" d="M 172.5,115.5 C 172.5,115.833 172.5,116.167 172.5,116.5C 171.149,121.705 168.816,126.538 165.5,131C 157.079,131.786 148.746,131.286 140.5,129.5C 136.337,131.048 132.337,130.714 128.5,128.5C 133.185,128.052 137.518,126.719 141.5,124.5C 142.908,125.061 144.408,125.395 146,125.5C 151.157,124.692 156.324,124.025 161.5,123.5C 161.723,120.216 162.39,117.049 163.5,114C 166.576,113.914 169.576,114.414 172.5,115.5 Z"/></g>
<g><path style="opacity:1" fill="#4c5f68" d="M 172.5,116.5 C 171.776,124.479 171.442,132.479 171.5,140.5C 160.5,140.5 149.5,140.5 138.5,140.5C 138.416,136.669 139.083,133.002 140.5,129.5C 148.746,131.286 157.079,131.786 165.5,131C 168.816,126.538 171.149,121.705 172.5,116.5 Z"/></g>
<g><path style="opacity:0.99" fill="#273339" d="M 62.5,118.5 C 62.2053,120.735 62.5386,122.735 63.5,124.5C 68.1675,142.169 72.8342,159.835 77.5,177.5C 72.9132,178.021 68.9132,179.688 65.5,182.5C 55.0149,183.717 44.6815,183.717 34.5,182.5C 35.37,167.173 36.2033,151.84 37,136.5C 38.072,132.453 39.2387,128.453 40.5,124.5C 41.4916,124.672 42.1583,124.338 42.5,123.5C 48.8624,121.054 55.5291,119.388 62.5,118.5 Z"/></g>
<g><path style="opacity:1" fill="#4b376d" d="M 103.5,112.5 C 108.844,112.334 114.177,112.501 119.5,113C 121.361,116.944 122.361,121.111 122.5,125.5C 122.45,130.552 122.95,135.552 124,140.5C 124.5,141 125,141.5 125.5,142C 124.207,142.49 122.873,142.657 121.5,142.5C 120.166,132.829 118.833,123.163 117.5,113.5C 112.637,113.819 107.97,113.486 103.5,112.5 Z"/></g>
<g><path style="opacity:1" fill="#5e4880" d="M 122.5,125.5 C 124.452,131.249 125.786,137.249 126.5,143.5C 118.833,143.5 111.167,143.5 103.5,143.5C 109.31,142.51 115.31,142.177 121.5,142.5C 122.873,142.657 124.207,142.49 125.5,142C 125,141.5 124.5,141 124,140.5C 122.95,135.552 122.45,130.552 122.5,125.5 Z"/></g>
<g><path style="opacity:1" fill="#8a74b0" d="M 132.5,148.5 C 133.601,147.402 134.934,147.235 136.5,148C 135.773,149.399 135.273,150.899 135,152.5C 134.878,150.563 134.045,149.23 132.5,148.5 Z"/></g>
<g><path style="opacity:1" fill="#8e76b1" d="M 137.5,147.5 C 140.503,147.988 141.669,149.655 141,152.5C 140,149.833 139,149.833 138,152.5C 137.506,150.866 137.34,149.199 137.5,147.5 Z"/></g>
<g><path style="opacity:1" fill="#b3a4cb" d="M 151.5,147.5 C 155.087,148.481 155.754,150.148 153.5,152.5C 152.311,153.429 150.978,153.762 149.5,153.5C 149.167,149.5 148.833,149.5 148.5,153.5C 146.5,153.5 144.5,153.5 142.5,153.5C 143.178,150.465 145.178,148.799 148.5,148.5C 150.417,149.903 151.417,149.57 151.5,147.5 Z"/></g>
<g><path style="opacity:1" fill="#a08dbe" d="M 161.5,150.5 C 163.534,147.797 165.201,147.963 166.5,151C 166.387,152.28 165.72,153.113 164.5,153.5C 163.265,152.66 162.265,151.66 161.5,150.5 Z"/></g>
<g><path style="opacity:1" fill="#a08dbe" d="M 167.5,149.5 C 168.741,151.931 169.908,151.931 171,149.5C 171.49,150.793 171.657,152.127 171.5,153.5C 168.5,153.833 167.167,152.5 167.5,149.5 Z"/></g>
<g><path style="opacity:1" fill="#8d77b1" d="M 161.5,150.5 C 161.478,152.8 160.478,153.967 158.5,154C 159.212,152.575 159.379,151.075 159,149.5C 159.671,150.252 160.504,150.586 161.5,150.5 Z"/></g>
<g><path style="opacity:1" fill="#c6c9cb" d="M 131.5,156.5 C 134.711,156.012 137.544,156.679 140,158.5C 140.519,157.484 141.353,156.818 142.5,156.5C 143.863,157.198 145.029,157.198 146,156.5C 147.901,157.983 147.567,158.983 145,159.5C 142.721,159.45 140.388,159.117 138,158.5C 136.667,161.167 135.333,161.167 134,158.5C 132.187,159.609 131.354,158.942 131.5,156.5 Z"/></g>
<g><path style="opacity:1" fill="#435861" d="M 152.5,174.5 C 158.488,174.664 159.821,177.164 156.5,182C 150.202,182.495 148.868,179.995 152.5,174.5 Z"/></g>
<g><path style="opacity:0.433" fill="#cacbcb" d="M 108.5,187.5 C 109.5,186.167 110.5,186.167 111.5,187.5C 111.631,188.376 111.298,189.043 110.5,189.5C 109.818,188.757 109.151,188.091 108.5,187.5 Z"/></g>
<g><path style="opacity:0.856" fill="#583888" d="M 18.5,188.5 C 19.8333,188.5 21.1667,188.5 22.5,188.5C 22.2069,191.754 22.8736,194.754 24.5,197.5C 24.1977,200.373 23.531,203.039 22.5,205.5C 21.7784,205.082 21.2784,204.416 21,203.5C 19.8443,198.54 19.011,193.54 18.5,188.5 Z"/></g>
<g><path style="opacity:0.94" fill="#fdbc9a" d="M 34.5,182.5 C 44.6815,183.717 55.0149,183.717 65.5,182.5C 63.0799,186.373 59.5799,188.707 55,189.5C 53.2823,197.807 51.7823,206.141 50.5,214.5C 47.2005,215.747 43.8672,215.747 40.5,214.5C 41.6297,207.246 41.7964,199.913 41,192.5C 35.5627,194.401 30.0627,196.067 24.5,197.5C 22.8736,194.754 22.2069,191.754 22.5,188.5C 26.3737,186.315 30.3737,184.315 34.5,182.5 Z"/></g>
<g><path style="opacity:0.93" fill="#e9e9e9" d="M 207.5,219.5 C 207.5,220.167 207.5,220.833 207.5,221.5C 196.5,221.5 185.5,221.5 174.5,221.5C 174.167,220.833 173.833,220.167 173.5,219.5C 173.5,214.167 173.5,208.833 173.5,203.5C 172.5,203.5 171.5,203.5 170.5,203.5C 170.5,201.167 170.5,198.833 170.5,196.5C 173.167,196.5 175.833,196.5 178.5,196.5C 178.507,190.806 180.841,189.472 185.5,192.5C 190.53,189.091 193.197,190.425 193.5,196.5C 195.5,196.5 197.5,196.5 199.5,196.5C 199.336,199.187 199.503,201.854 200,204.5C 200.725,203.941 201.558,203.608 202.5,203.5C 204.332,204.821 206.332,205.821 208.5,206.5C 207.92,210.81 207.586,215.143 207.5,219.5 Z M 188.5,193.5 C 189.773,194.077 189.773,194.743 188.5,195.5C 187.537,195.03 187.537,194.363 188.5,193.5 Z"/></g>
<g><path style="opacity:0.49" fill="#28303c" d="M 18.5,188.5 C 19.011,193.54 19.8443,198.54 21,203.5C 21.2784,204.416 21.7784,205.082 22.5,205.5C 22.3605,207.337 21.6939,207.67 20.5,206.5C 18.5237,200.938 17.357,195.272 17,189.5C 17.3826,188.944 17.8826,188.611 18.5,188.5 Z"/></g>
<g><path style="opacity:0.982" fill="#e0e0e0" d="M 92.5,141.5 C 93.5521,143.256 95.2188,143.923 97.5,143.5C 96.3192,145.067 94.6526,145.901 92.5,146C 94.117,149.152 96.4503,149.985 99.5,148.5C 99.5,152.5 99.5,156.5 99.5,160.5C 98.1667,162.167 98.1667,163.833 99.5,165.5C 99.5,168.5 99.5,171.5 99.5,174.5C 98.353,178.646 98.1864,182.98 99,187.5C 99.2784,186.584 99.7784,185.918 100.5,185.5C 101.167,185.5 101.5,185.833 101.5,186.5C 99.6571,190.187 98.9905,194.187 99.5,198.5C 103.5,198.5 107.5,198.5 111.5,198.5C 111.659,201.187 110.825,203.52 109,205.5C 108.565,210.184 108.065,214.851 107.5,219.5C 101.5,220.833 95.5,220.833 89.5,219.5C 88.9919,212.34 87.9919,205.34 86.5,198.5C 90.5,198.5 94.5,198.5 98.5,198.5C 98.4358,194.78 97.9358,191.114 97,187.5C 96.3128,189.555 95.1461,191.221 93.5,192.5C 92.8333,191.5 92.1667,190.5 91.5,189.5C 87.5666,197.586 85.4,197.252 85,188.5C 78.6052,193.167 77.2719,192.167 81,185.5C 82.5577,183.232 84.7244,182.066 87.5,182C 86.5,181 85.5,180 84.5,179C 85.0253,178.308 85.6919,177.808 86.5,177.5C 89.6128,180.358 93.1128,182.692 97,184.5C 97.6667,181.833 97.6667,179.167 97,176.5C 95.8904,178.037 94.3904,178.703 92.5,178.5C 92.6602,176.801 92.4935,175.134 92,173.5C 91.1072,174.711 90.2739,174.711 89.5,173.5C 90.3006,170.867 91.9673,169.033 94.5,168C 86.9814,166.828 86.8147,165.328 94,163.5C 94.8732,163.735 95.7065,164.069 96.5,164.5C 97.5527,161.185 97.5527,157.852 96.5,154.5C 95.5,154.5 94.5,154.5 93.5,154.5C 94.0344,150.522 92.5344,147.522 89,145.5C 88.0774,148.122 86.9107,150.622 85.5,153C 85.1667,153.167 84.8333,153.333 84.5,153.5C 83.6922,151.577 83.1922,149.577 83,147.5C 81.3333,149.833 79.6667,152.167 78,154.5C 76.3002,150.233 77.1335,146.4 80.5,143C 71.435,143.558 71.2684,142.058 80,138.5C 82.0364,138.954 83.8697,139.787 85.5,141C 88.0248,141.144 90.3581,141.31 92.5,141.5 Z"/></g>
<g><path style="opacity:0.88" fill="#5b3d89" d="M 40.5,214.5 C 43.8672,215.747 47.2005,215.747 50.5,214.5C 53.5396,215.68 56.2063,217.347 58.5,219.5C 52.5,219.5 46.5,219.5 40.5,219.5C 40.5,217.833 40.5,216.167 40.5,214.5 Z"/></g>
<g><path style="opacity:0.218" fill="#262e34" d="M 40.5,219.5 C 46.5,219.5 52.5,219.5 58.5,219.5C 68.8333,219.5 79.1667,219.5 89.5,219.5C 95.5,220.833 101.5,220.833 107.5,219.5C 129.5,219.5 151.5,219.5 173.5,219.5C 173.833,220.167 174.167,220.833 174.5,221.5C 120.499,221.667 66.499,221.5 12.5,221C 21.666,219.529 30.9993,219.029 40.5,219.5 Z"/></g>
<g><path style="opacity:0.049" fill="#192730" d="M 207.5,219.5 C 213.021,219.054 218.355,219.554 223.5,221C 218.177,221.499 212.844,221.666 207.5,221.5C 207.5,220.833 207.5,220.167 207.5,219.5 Z"/></g>
</svg>
