<?xml version="1.0" encoding="UTF-8"?>
<!DOCTYPE svg PUBLIC "-//W3C//DTD SVG 1.1//EN" "http://www.w3.org/Graphics/SVG/1.1/DTD/svg11.dtd">
<svg xmlns="http://www.w3.org/2000/svg" version="1.1" width="400px" height="400px" style="shape-rendering:geometricPrecision; text-rendering:geometricPrecision; image-rendering:optimizeQuality; fill-rule:evenodd; clip-rule:evenodd" xmlns:xlink="http://www.w3.org/1999/xlink">
<g><path style="opacity:0.938" fill="#f0f0f0" d="M 162.5,66.5 C 172.158,64.9934 176.325,68.9934 175,78.5C 170.003,84.5852 164.67,84.9186 159,79.5C 156.628,74.1273 157.795,69.794 162.5,66.5 Z"/></g>
<g><path style="opacity:0.996" fill="#8770ad" d="M 194.5,67.5 C 194.833,67.5 195.167,67.5 195.5,67.5C 196.833,67.5 198.167,67.5 199.5,67.5C 213.052,73.5992 215.885,82.9325 208,95.5C 205.005,97.6525 201.838,99.3192 198.5,100.5C 197.5,100.5 196.5,100.5 195.5,100.5C 195.167,100.5 194.833,100.5 194.5,100.5C 187.061,99.7268 182.394,95.7268 180.5,88.5C 180.768,86.901 180.434,85.5676 179.5,84.5C 180.117,74.9146 185.117,69.2479 194.5,67.5 Z"/></g>
<g><path style="opacity:0.83" fill="#59378d" d="M 199.5,67.5 C 200.959,67.4326 202.292,67.7659 203.5,68.5C 203.833,68.5 204.167,68.5 204.5,68.5C 211.314,71.1072 214.981,76.1072 215.5,83.5C 214.699,85.0418 214.366,86.7085 214.5,88.5C 213.276,94.0583 209.943,97.725 204.5,99.5C 203.833,99.5 203.5,99.8333 203.5,100.5C 201.833,100.5 200.167,100.5 198.5,100.5C 201.838,99.3192 205.005,97.6525 208,95.5C 215.885,82.9325 213.052,73.5992 199.5,67.5 Z"/></g>
<g><path style="opacity:0.938" fill="#f5f5f5" d="M 90.5,91.5 C 90.5,90.8333 90.1667,90.5 89.5,90.5C 89.5,89.8333 89.1667,89.5 88.5,89.5C 84.4825,78.3524 87.9825,74.6857 99,78.5C 98.6303,73.7052 100.797,71.3719 105.5,71.5C 113.719,72.7186 118.719,77.3853 120.5,85.5C 123.833,86.1667 127.167,86.8333 130.5,87.5C 130.269,91.3961 128.102,93.3961 124,93.5C 119.265,92.3758 114.599,92.7092 110,94.5C 103.56,93.073 97.0598,92.073 90.5,91.5 Z"/></g>
<g><path style="opacity:1" fill="#9b88b9" d="M 192.5,71.5 C 205.572,71.7241 210.406,78.0575 207,90.5C 199.181,98.7585 191.847,98.4252 185,89.5C 184.333,85.8333 184.333,82.1667 185,78.5C 187.396,75.9334 189.896,73.6 192.5,71.5 Z"/></g>
<g><path style="opacity:0.954" fill="#f5f5f5" d="M 274.5,74.5 C 281.838,73.871 288.004,76.2043 293,81.5C 302.021,79.0916 307.521,82.4249 309.5,91.5C 312.85,91.5056 315.85,92.5056 318.5,94.5C 316.796,96.8493 314.463,97.8493 311.5,97.5C 311.439,100.05 310.106,101.55 307.5,102C 299.996,102.438 292.496,102.938 285,103.5C 277.579,102.159 270.079,101.326 262.5,101C 259.417,100.214 257.251,98.3807 256,95.5C 253.67,81.8297 258.67,78.163 271,84.5C 271.333,82.1667 271.667,79.8333 272,77.5C 272.698,76.3094 273.531,75.3094 274.5,74.5 Z"/></g>
<g><path style="opacity:1" fill="#5d3d8f" d="M 195.5,74.5 C 197.149,75.714 198.815,77.0473 200.5,78.5C 199.675,79.3857 198.675,79.719 197.5,79.5C 198.486,81.8442 199.819,84.0109 201.5,86C 201.333,86.8333 201.167,87.6667 201,88.5C 199.307,89.1845 197.807,90.1845 196.5,91.5C 194.76,90.1637 193.093,88.8304 191.5,87.5C 192.391,86.4104 193.391,86.4104 194.5,87.5C 194.833,87 195.167,86.5 195.5,86C 193.578,84.5805 192.245,82.7472 191.5,80.5C 192.858,78.4968 194.191,76.4968 195.5,74.5 Z"/></g>
<g><path style="opacity:0.9" fill="#253036" d="M 215.5,83.5 C 236.087,87.2081 253.587,96.5415 268,111.5C 268.424,109.385 269.591,108.552 271.5,109C 272.451,112.057 272.784,115.223 272.5,118.5C 269.167,118.5 265.833,118.5 262.5,118.5C 262.5,117.5 262.5,116.5 262.5,115.5C 263.873,115.657 265.207,115.49 266.5,115C 252.099,99.9678 234.766,91.1344 214.5,88.5C 214.366,86.7085 214.699,85.0418 215.5,83.5 Z"/></g>
<g><path style="opacity:0.884" fill="#efefef" d="M 88.5,89.5 C 89.1667,89.5 89.5,89.8333 89.5,90.5C 90.1667,90.5 90.5,90.8333 90.5,91.5C 90.8769,93.258 91.5435,94.9246 92.5,96.5C 94.7812,97.2766 96.9479,98.2766 99,99.5C 99.6172,100.449 99.4506,101.282 98.5,102C 89.0365,104.314 79.7032,103.981 70.5,101C 66.5879,93.3019 68.7546,90.4686 77,92.5C 76.7336,89.1185 78.2336,87.4518 81.5,87.5C 83.9322,87.8864 86.2655,88.5531 88.5,89.5 Z"/></g>
<g><path style="opacity:0.916" fill="#e9e9e9" d="M 220.5,95.5 C 231.329,95.4956 235.829,100.829 234,111.5C 230.345,118.07 224.845,120.237 217.5,118C 214,117.167 211.833,115 211,111.5C 208.84,102.8 212.007,97.467 220.5,95.5 Z"/></g>
<g><path style="opacity:0.861" fill="#273338" d="M 179.5,84.5 C 180.434,85.5676 180.768,86.901 180.5,88.5C 162.24,92.2956 146.573,100.796 133.5,114C 132.552,114.483 131.552,114.649 130.5,114.5C 131.779,110.698 134.112,107.531 137.5,105C 149.752,94.7081 163.752,87.8748 179.5,84.5 Z"/></g>
<g><path style="opacity:0.937" fill="#f2f2f2" d="M 204.5,99.5 C 204.303,105.545 204.637,111.545 205.5,117.5C 209.425,117.196 212.758,118.363 215.5,121C 215.18,122.653 214.18,123.653 212.5,124C 209.854,124.497 207.187,124.664 204.5,124.5C 204.5,150.833 204.5,177.167 204.5,203.5C 203.596,202.791 203.263,201.791 203.5,200.5C 203.5,175.167 203.5,149.833 203.5,124.5C 200.833,124.833 198.167,125.167 195.5,125.5C 195.5,149.833 195.5,174.167 195.5,198.5C 195.5,199.167 195.167,199.5 194.5,199.5C 194.5,174.833 194.5,150.167 194.5,125.5C 188.625,124.1 182.625,123.267 176.5,123C 171.32,119.256 170.32,114.589 173.5,109C 177.244,108.071 180.744,108.571 184,110.5C 184.133,103.341 187.633,101.008 194.5,103.5C 194.5,102.5 194.5,101.5 194.5,100.5C 194.833,100.5 195.167,100.5 195.5,100.5C 195.238,101.978 195.571,103.311 196.5,104.5C 199.415,105.704 201.581,107.704 203,110.5C 203.498,107.183 203.665,103.85 203.5,100.5C 203.5,99.8333 203.833,99.5 204.5,99.5 Z M 195.5,100.5 C 196.5,100.5 197.5,100.5 198.5,100.5C 200.167,100.5 201.833,100.5 203.5,100.5C 203.665,103.85 203.498,107.183 203,110.5C 201.581,107.704 199.415,105.704 196.5,104.5C 195.571,103.311 195.238,101.978 195.5,100.5 Z"/></g>
<g><path style="opacity:1" fill="#56368b" d="M 315.5,116.5 C 313.219,116.923 311.552,116.256 310.5,114.5C 311.919,113.549 313.585,113.216 315.5,113.5C 315.5,114.5 315.5,115.5 315.5,116.5 Z"/></g>
<g><path style="opacity:1" fill="#57378b" d="M 326.5,116.5 C 324.5,116.5 322.5,116.5 320.5,116.5C 320.5,115.5 320.5,114.5 320.5,113.5C 322.5,113.5 324.5,113.5 326.5,113.5C 326.5,114.5 326.5,115.5 326.5,116.5 Z"/></g>
<g><path style="opacity:0.972" fill="#92979c" d="M 309.5,127.5 C 311.833,127.5 314.167,127.5 316.5,127.5C 316.5,128.167 316.5,128.833 316.5,129.5C 310.169,129.549 310.169,130.549 316.5,132.5C 318.035,133.354 319.368,133.354 320.5,132.5C 322.833,132.5 325.167,132.5 327.5,132.5C 327.5,133.5 327.5,134.5 327.5,135.5C 322.34,135.605 322.34,136.272 327.5,137.5C 330.553,138.777 333.386,140.444 336,142.5C 336.585,143.998 336.085,144.998 334.5,145.5C 317.925,137.213 301.259,128.879 284.5,120.5C 267.95,128.608 251.616,136.941 235.5,145.5C 233.524,144.573 233.191,143.24 234.5,141.5C 251.272,133.031 268.105,124.697 285,116.5C 293.139,120.236 301.139,124.236 309,128.5C 309.399,128.272 309.565,127.938 309.5,127.5 Z"/></g>
<g><path style="opacity:1" fill="#b2b2bc" d="M 320.5,116.5 C 322.5,116.5 324.5,116.5 326.5,116.5C 326.5,117.5 326.5,118.5 326.5,119.5C 324.5,119.5 322.5,119.5 320.5,119.5C 320.5,118.5 320.5,117.5 320.5,116.5 Z"/></g>
<g><path style="opacity:1" fill="#aaabb6" d="M 310.5,114.5 C 311.552,116.256 313.219,116.923 315.5,116.5C 315.5,117.5 315.5,118.5 315.5,119.5C 313.5,119.5 311.5,119.5 309.5,119.5C 309.216,117.585 309.549,115.919 310.5,114.5 Z"/></g>
<g><path style="opacity:1" fill="#56358b" d="M 309.5,119.5 C 311.5,119.5 313.5,119.5 315.5,119.5C 315.5,119.833 315.5,120.167 315.5,120.5C 313.735,121.461 311.735,121.795 309.5,121.5C 309.5,120.833 309.5,120.167 309.5,119.5 Z"/></g>
<g><path style="opacity:1" fill="#624591" d="M 320.5,119.5 C 322.5,119.5 324.5,119.5 326.5,119.5C 326.5,120.5 326.5,121.5 326.5,122.5C 324.5,122.5 322.5,122.5 320.5,122.5C 320.5,121.5 320.5,120.5 320.5,119.5 Z"/></g>
<g><path style="opacity:0.948" fill="#765ca1" d="M 81.5,120.5 C 81.5,123.167 81.5,125.833 81.5,128.5C 77.8333,128.5 74.1667,128.5 70.5,128.5C 70.5,125.833 70.5,123.167 70.5,120.5C 74.1667,120.5 77.8333,120.5 81.5,120.5 Z"/></g>
<g><path style="opacity:0.955" fill="#765ca1" d="M 92.5,120.5 C 95.8333,120.5 99.1667,120.5 102.5,120.5C 102.5,123.167 102.5,125.833 102.5,128.5C 99.1667,128.5 95.8333,128.5 92.5,128.5C 92.5,125.833 92.5,123.167 92.5,120.5 Z"/></g>
<g><path style="opacity:0.955" fill="#765ca1" d="M 114.5,120.5 C 117.833,120.5 121.167,120.5 124.5,120.5C 124.5,123.167 124.5,125.833 124.5,128.5C 121.167,128.5 117.833,128.5 114.5,128.5C 114.5,125.833 114.5,123.167 114.5,120.5 Z"/></g>
<g><path style="opacity:0.955" fill="#765ca1" d="M 135.5,120.5 C 139.167,120.5 142.833,120.5 146.5,120.5C 146.5,123.167 146.5,125.833 146.5,128.5C 142.833,128.5 139.167,128.5 135.5,128.5C 135.5,125.833 135.5,123.167 135.5,120.5 Z"/></g>
<g><path style="opacity:1" fill="#d0d2d4" d="M 81.5,120.5 C 85.1667,120.5 88.8333,120.5 92.5,120.5C 92.5,123.167 92.5,125.833 92.5,128.5C 92.5,130.833 92.5,133.167 92.5,135.5C 88.4405,138.414 84.7738,138.081 81.5,134.5C 81.5,132.5 81.5,130.5 81.5,128.5C 81.5,125.833 81.5,123.167 81.5,120.5 Z"/></g>
<g><path style="opacity:1" fill="#d0d2d4" d="M 124.5,120.5 C 128.167,120.5 131.833,120.5 135.5,120.5C 135.5,123.167 135.5,125.833 135.5,128.5C 135.5,130.833 135.5,133.167 135.5,135.5C 131.44,138.414 127.774,138.081 124.5,134.5C 124.5,132.5 124.5,130.5 124.5,128.5C 124.5,125.833 124.5,123.167 124.5,120.5 Z"/></g>
<g><path style="opacity:1" fill="#a999c4" d="M 334.5,145.5 C 334.5,158.833 334.5,172.167 334.5,185.5C 324.5,185.5 314.5,185.5 304.5,185.5C 304.5,185.167 304.5,184.833 304.5,184.5C 304.5,173.5 304.5,162.5 304.5,151.5C 302.167,151.5 299.833,151.5 297.5,151.5C 289.167,151.5 280.833,151.5 272.5,151.5C 270.167,151.5 267.833,151.5 265.5,151.5C 265.5,162.833 265.5,174.167 265.5,185.5C 263.833,185.5 262.167,185.5 260.5,185.5C 260.5,180.5 260.5,175.5 260.5,170.5C 254.5,170.5 248.5,170.5 242.5,170.5C 242.5,175.5 242.5,180.5 242.5,185.5C 240.167,185.5 237.833,185.5 235.5,185.5C 235.5,172.167 235.5,158.833 235.5,145.5C 251.616,136.941 267.95,128.608 284.5,120.5C 301.259,128.879 317.925,137.213 334.5,145.5 Z"/></g>
<g><path style="opacity:1" fill="#81739f" d="M 315.5,120.5 C 316.338,120.842 316.672,121.508 316.5,122.5C 314.167,122.5 311.833,122.5 309.5,122.5C 309.5,122.167 309.5,121.833 309.5,121.5C 311.735,121.795 313.735,121.461 315.5,120.5 Z"/></g>
<g><path style="opacity:1" fill="#b7bbbd" d="M 309.5,122.5 C 311.833,122.5 314.167,122.5 316.5,122.5C 316.5,123.167 316.5,123.833 316.5,124.5C 314.167,124.5 311.833,124.5 309.5,124.5C 309.5,123.833 309.5,123.167 309.5,122.5 Z"/></g>
<g><path style="opacity:1" fill="#bdc1c3" d="M 320.5,122.5 C 322.5,122.5 324.5,122.5 326.5,122.5C 326.5,123.167 326.5,123.833 326.5,124.5C 324.5,124.5 322.5,124.5 320.5,124.5C 320.5,123.833 320.5,123.167 320.5,122.5 Z"/></g>
<g><path style="opacity:1" fill="#674d94" d="M 309.5,124.5 C 311.833,124.5 314.167,124.5 316.5,124.5C 316.5,125.5 316.5,126.5 316.5,127.5C 314.167,127.5 311.833,127.5 309.5,127.5C 309.5,126.5 309.5,125.5 309.5,124.5 Z"/></g>
<g><path style="opacity:1" fill="#624591" d="M 320.5,124.5 C 322.5,124.5 324.5,124.5 326.5,124.5C 326.5,125.5 326.5,126.5 326.5,127.5C 324.5,127.5 322.5,127.5 320.5,127.5C 320.5,126.5 320.5,125.5 320.5,124.5 Z"/></g>
<g><path style="opacity:1" fill="#bcc0c2" d="M 320.5,127.5 C 322.5,127.5 324.5,127.5 326.5,127.5C 326.5,128.167 326.5,128.833 326.5,129.5C 324.5,129.5 322.5,129.5 320.5,129.5C 320.5,128.833 320.5,128.167 320.5,127.5 Z"/></g>
<g><path style="opacity:0.963" fill="#56368c" d="M 70.5,128.5 C 74.1667,128.5 77.8333,128.5 81.5,128.5C 81.5,130.5 81.5,132.5 81.5,134.5C 79.0949,137.517 76.0949,138.183 72.5,136.5C 71.8826,136.389 71.3826,136.056 71,135.5C 70.5034,133.19 70.3367,130.857 70.5,128.5 Z"/></g>
<g><path style="opacity:1" fill="#57378c" d="M 92.5,128.5 C 95.8333,128.5 99.1667,128.5 102.5,128.5C 103.487,137.189 100.154,139.522 92.5,135.5C 92.5,133.167 92.5,130.833 92.5,128.5 Z"/></g>
<g><path style="opacity:1" fill="#57378c" d="M 114.5,128.5 C 117.833,128.5 121.167,128.5 124.5,128.5C 124.5,130.5 124.5,132.5 124.5,134.5C 121.658,137.902 118.492,138.235 115,135.5C 114.503,133.19 114.337,130.857 114.5,128.5 Z"/></g>
<g><path style="opacity:0.949" fill="#56368c" d="M 135.5,128.5 C 139.167,128.5 142.833,128.5 146.5,128.5C 146.663,130.857 146.497,133.19 146,135.5C 145.617,136.056 145.117,136.389 144.5,136.5C 141.306,137.952 138.306,137.619 135.5,135.5C 135.5,133.167 135.5,130.833 135.5,128.5 Z"/></g>
<g><path style="opacity:1" fill="#604390" d="M 320.5,129.5 C 322.5,129.5 324.5,129.5 326.5,129.5C 326.557,130.609 326.89,131.609 327.5,132.5C 325.167,132.5 322.833,132.5 320.5,132.5C 320.5,131.5 320.5,130.5 320.5,129.5 Z"/></g>
<g><path style="opacity:0.392" fill="#6c5892" d="M 316.5,129.5 C 316.5,130.5 316.5,131.5 316.5,132.5C 310.169,130.549 310.169,129.549 316.5,129.5 Z"/></g>
<g><path style="opacity:1" fill="#a898c4" d="M 102.5,120.5 C 102.833,120.5 103.167,120.5 103.5,120.5C 103.334,125.511 103.501,130.511 104,135.5C 107.075,138.059 110.075,138.059 113,135.5C 113.499,130.511 113.666,125.511 113.5,120.5C 113.833,120.5 114.167,120.5 114.5,120.5C 114.5,123.167 114.5,125.833 114.5,128.5C 114.337,130.857 114.503,133.19 115,135.5C 118.492,138.235 121.658,137.902 124.5,134.5C 127.774,138.081 131.44,138.414 135.5,135.5C 138.306,137.619 141.306,137.952 144.5,136.5C 144.5,152.833 144.5,169.167 144.5,185.5C 120.5,185.5 96.5,185.5 72.5,185.5C 72.5,169.167 72.5,152.833 72.5,136.5C 76.0949,138.183 79.0949,137.517 81.5,134.5C 84.7738,138.081 88.4405,138.414 92.5,135.5C 100.154,139.522 103.487,137.189 102.5,128.5C 102.5,125.833 102.5,123.167 102.5,120.5 Z"/></g>
<g><path style="opacity:1" fill="#d2d4d6" d="M 103.5,120.5 C 106.833,120.5 110.167,120.5 113.5,120.5C 113.666,125.511 113.499,130.511 113,135.5C 110.075,138.059 107.075,138.059 104,135.5C 103.501,130.511 103.334,125.511 103.5,120.5 Z"/></g>
<g><path style="opacity:0.247" fill="#60448f" d="M 327.5,135.5 C 327.5,136.167 327.5,136.833 327.5,137.5C 322.34,136.272 322.34,135.605 327.5,135.5 Z"/></g>
<g><path style="opacity:1" fill="#6f549d" d="M 95.5,184.5 C 95.5,169.5 95.5,154.5 95.5,139.5C 89.8333,139.5 84.1667,139.5 78.5,139.5C 77.6687,154.328 77.1687,169.328 77,184.5C 76.5001,169.17 76.3334,153.837 76.5,138.5C 83.1667,138.5 89.8333,138.5 96.5,138.5C 96.8295,154.009 96.4962,169.342 95.5,184.5 Z"/></g>
<g><path style="opacity:1" fill="#bdb3cd" d="M 78.5,139.5 C 84.1667,139.5 89.8333,139.5 95.5,139.5C 95.5,154.5 95.5,169.5 95.5,184.5C 89.8333,184.5 84.1667,184.5 78.5,184.5C 77.9987,177.682 78.6653,171.015 80.5,164.5C 78.6283,156.306 77.9616,147.972 78.5,139.5 Z"/></g>
<g><path style="opacity:1" fill="#59398e" d="M 136.5,144.5 C 136.672,145.492 136.338,146.158 135.5,146.5C 125.347,145.506 115.014,145.172 104.5,145.5C 104.5,151.167 104.5,156.833 104.5,162.5C 104.5,163.167 104.167,163.5 103.5,163.5C 103.5,157.167 103.5,150.833 103.5,144.5C 114.5,144.5 125.5,144.5 136.5,144.5 Z"/></g>
<g><path style="opacity:1" fill="#b0a0c8" d="M 135.5,146.5 C 125.5,146.5 115.5,146.5 105.5,146.5C 105.5,151.833 105.5,157.167 105.5,162.5C 105.167,162.5 104.833,162.5 104.5,162.5C 104.5,156.833 104.5,151.167 104.5,145.5C 115.014,145.172 125.347,145.506 135.5,146.5 Z"/></g>
<g><path style="opacity:1" fill="#d9d1e4" d="M 135.5,146.5 C 135.5,151.833 135.5,157.167 135.5,162.5C 125.5,162.5 115.5,162.5 105.5,162.5C 105.5,157.167 105.5,151.833 105.5,146.5C 115.5,146.5 125.5,146.5 135.5,146.5 Z"/></g>
<g><path style="opacity:1" fill="#909699" d="M 272.5,151.5 C 272.5,157.5 272.5,163.5 272.5,169.5C 271.28,171.284 271.28,172.95 272.5,174.5C 272.5,174.833 272.5,175.167 272.5,175.5C 272.5,178.833 272.5,182.167 272.5,185.5C 270.167,185.5 267.833,185.5 265.5,185.5C 265.5,174.167 265.5,162.833 265.5,151.5C 267.833,151.5 270.167,151.5 272.5,151.5 Z"/></g>
<g><path style="opacity:1" fill="#29353b" d="M 272.5,151.5 C 280.833,151.5 289.167,151.5 297.5,151.5C 297.5,157.167 297.5,162.833 297.5,168.5C 297.167,168.5 296.833,168.5 296.5,168.5C 296.5,166.167 296.5,163.833 296.5,161.5C 293.167,161.5 289.833,161.5 286.5,161.5C 286.5,163.833 286.5,166.167 286.5,168.5C 286.167,168.5 285.833,168.5 285.5,168.5C 285.5,166.167 285.5,163.833 285.5,161.5C 282.5,161.5 279.5,161.5 276.5,161.5C 276.5,163.833 276.5,166.167 276.5,168.5C 275.041,168.433 273.708,168.766 272.5,169.5C 272.5,163.5 272.5,157.5 272.5,151.5 Z"/></g>
<g><path style="opacity:1" fill="#92979b" d="M 297.5,151.5 C 299.833,151.5 302.167,151.5 304.5,151.5C 304.5,162.5 304.5,173.5 304.5,184.5C 302.167,184.5 299.833,184.5 297.5,184.5C 297.5,181.5 297.5,178.5 297.5,175.5C 297.5,175.167 297.5,174.833 297.5,174.5C 297.5,172.5 297.5,170.5 297.5,168.5C 297.5,162.833 297.5,157.167 297.5,151.5 Z"/></g>
<g><path style="opacity:1" fill="#785da2" d="M 136.5,144.5 C 137.491,150.979 137.824,157.646 137.5,164.5C 125.988,164.828 114.654,164.495 103.5,163.5C 104.167,163.5 104.5,163.167 104.5,162.5C 104.833,162.5 105.167,162.5 105.5,162.5C 115.5,162.5 125.5,162.5 135.5,162.5C 135.5,157.167 135.5,151.833 135.5,146.5C 136.338,146.158 136.672,145.492 136.5,144.5 Z"/></g>
<g><path style="opacity:1" fill="#989da1" d="M 285.5,168.5 C 282.5,168.5 279.5,168.5 276.5,168.5C 276.5,166.167 276.5,163.833 276.5,161.5C 279.5,161.5 282.5,161.5 285.5,161.5C 285.5,163.833 285.5,166.167 285.5,168.5 Z"/></g>
<g><path style="opacity:1" fill="#767b83" d="M 296.5,168.5 C 295.167,168.5 293.833,168.5 292.5,168.5C 292.5,166.5 292.5,164.5 292.5,162.5C 290.833,162.5 289.167,162.5 287.5,162.5C 287.5,164.5 287.5,166.5 287.5,168.5C 287.167,168.5 286.833,168.5 286.5,168.5C 286.5,166.167 286.5,163.833 286.5,161.5C 289.833,161.5 293.167,161.5 296.5,161.5C 296.5,163.833 296.5,166.167 296.5,168.5 Z"/></g>
<g><path style="opacity:1" fill="#a7adae" d="M 292.5,168.5 C 290.833,168.5 289.167,168.5 287.5,168.5C 287.5,166.5 287.5,164.5 287.5,162.5C 289.167,162.5 290.833,162.5 292.5,162.5C 292.5,164.5 292.5,166.5 292.5,168.5 Z"/></g>
<g><path style="opacity:1" fill="#563889" d="M 276.5,168.5 C 279.5,168.5 282.5,168.5 285.5,168.5C 285.833,168.5 286.167,168.5 286.5,168.5C 286.833,168.5 287.167,168.5 287.5,168.5C 289.167,168.5 290.833,168.5 292.5,168.5C 293.833,168.5 295.167,168.5 296.5,168.5C 296.833,168.5 297.167,168.5 297.5,168.5C 297.5,170.5 297.5,172.5 297.5,174.5C 290.167,174.5 282.833,174.5 275.5,174.5C 275.762,173.022 275.429,171.689 274.5,170.5C 273.828,171.949 273.161,173.282 272.5,174.5C 271.28,172.95 271.28,171.284 272.5,169.5C 273.708,168.766 275.041,168.433 276.5,168.5 Z"/></g>
<g><path style="opacity:1" fill="#856dac" d="M 260.5,185.5 C 254.5,185.5 248.5,185.5 242.5,185.5C 242.5,180.5 242.5,175.5 242.5,170.5C 248.5,170.5 254.5,170.5 260.5,170.5C 260.5,175.5 260.5,180.5 260.5,185.5 Z"/></g>
<g><path style="opacity:1" fill="#56427e" d="M 297.5,174.5 C 297.5,174.833 297.5,175.167 297.5,175.5C 289.833,175.5 282.167,175.5 274.5,175.5C 273.833,175.5 273.167,175.5 272.5,175.5C 272.5,175.167 272.5,174.833 272.5,174.5C 273.161,173.282 273.828,171.949 274.5,170.5C 275.429,171.689 275.762,173.022 275.5,174.5C 282.833,174.5 290.167,174.5 297.5,174.5 Z"/></g>
<g><path style="opacity:1" fill="#28333a" d="M 272.5,175.5 C 273.167,175.5 273.833,175.5 274.5,175.5C 274.5,178.833 274.5,182.167 274.5,185.5C 273.833,185.5 273.167,185.5 272.5,185.5C 272.5,182.167 272.5,178.833 272.5,175.5 Z"/></g>
<g><path style="opacity:1" fill="#7b8286" d="M 274.5,175.5 C 282.167,175.5 289.833,175.5 297.5,175.5C 297.5,178.5 297.5,181.5 297.5,184.5C 299.833,184.5 302.167,184.5 304.5,184.5C 304.5,184.833 304.5,185.167 304.5,185.5C 294.5,185.5 284.5,185.5 274.5,185.5C 274.5,182.167 274.5,178.833 274.5,175.5 Z"/></g>
<g><path style="opacity:1" fill="#c7bdd9" d="M 251.5,173.5 C 252.774,174.189 252.774,175.023 251.5,176C 252.308,176.308 252.975,176.808 253.5,177.5C 252.52,178.981 251.353,180.315 250,181.5C 249.682,179.939 248.849,178.772 247.5,178C 249.041,176.629 250.375,175.129 251.5,173.5 Z"/></g>
<g><path style="opacity:0.871" fill="#253138" d="M 111.5,200.5 C 110.391,200.557 109.391,200.89 108.5,201.5C 107.815,199.586 107.315,197.586 107,195.5C 105.89,197.037 104.39,197.703 102.5,197.5C 104.92,186.277 108.92,185.61 114.5,195.5C 113.022,195.238 111.689,195.571 110.5,196.5C 111.246,197.736 111.579,199.07 111.5,200.5 Z"/></g>
<g><path style="opacity:0.917" fill="#263239" d="M 291.5,199.5 C 290.5,201.5 289.5,203.5 288.5,205.5C 288.167,205.5 287.833,205.5 287.5,205.5C 286.766,204.292 286.433,202.959 286.5,201.5C 288.118,197.425 289.118,193.092 289.5,188.5C 290.5,188.5 291.5,188.5 292.5,188.5C 292.448,192.198 292.114,195.865 291.5,199.5 Z"/></g>
<g><path style="opacity:0.907" fill="#e9e9e9" d="M 74.5,194.5 C 88.1618,192.657 93.6618,198.324 91,211.5C 84.641,218.646 77.641,219.312 70,213.5C 65.7506,205.697 67.2506,199.364 74.5,194.5 Z"/></g>
<g><path style="opacity:0.936" fill="#f1f1f1" d="M 313.5,196.5 C 322.167,196.5 330.833,196.5 339.5,196.5C 339.5,201.833 339.5,207.167 339.5,212.5C 330.833,212.5 322.167,212.5 313.5,212.5C 313.5,207.167 313.5,201.833 313.5,196.5 Z"/></g>
<g><path style="opacity:0.977" fill="#2a343a" d="M 195.5,198.5 C 198.167,199.167 200.833,199.833 203.5,200.5C 203.263,201.791 203.596,202.791 204.5,203.5C 205.686,204.961 205.686,206.295 204.5,207.5C 199.222,207.136 195.222,209.136 192.5,213.5C 191.28,212.289 190.113,212.289 189,213.5C 190.474,215.904 191.641,218.57 192.5,221.5C 191.85,221.804 191.183,222.137 190.5,222.5C 182.371,216.331 181.538,209.331 188,201.5C 189.789,199.771 191.956,199.104 194.5,199.5C 195.167,199.5 195.5,199.167 195.5,198.5 Z"/></g>
<g><path style="opacity:0.951" fill="#654996" d="M 306.5,205.5 C 300.5,205.5 294.5,205.5 288.5,205.5C 289.5,203.5 290.5,201.5 291.5,199.5C 298.086,198.374 304.753,198.208 311.5,199C 309.934,201.326 308.268,203.492 306.5,205.5 Z"/></g>
<g><path style="opacity:0.998" fill="#8870ae" d="M 286.5,201.5 C 286.433,202.959 286.766,204.292 287.5,205.5C 277.985,205.173 268.652,205.506 259.5,206.5C 257.364,204.188 255.364,201.688 253.5,199C 263.5,198.333 273.5,198.333 283.5,199C 284.373,200.045 285.373,200.878 286.5,201.5 Z"/></g>
<g><path style="opacity:0.943" fill="#56358a" d="M 216.5,199.5 C 223.558,199.203 230.558,199.536 237.5,200.5C 238.833,207.833 238.833,215.167 237.5,222.5C 232.553,223.283 227.553,223.783 222.5,224C 221.125,226.477 219.291,227.311 217,226.5C 215.256,217.485 215.089,208.485 216.5,199.5 Z"/></g>
<g><path style="opacity:0.996" fill="#866fac" d="M 111.5,200.5 C 113.5,200.5 115.5,200.5 117.5,200.5C 129.924,205.694 133.09,214.361 127,226.5C 123.737,229.963 119.903,232.296 115.5,233.5C 99.8438,231.197 94.6771,222.53 100,207.5C 102.177,204.477 105.011,202.477 108.5,201.5C 109.391,200.89 110.391,200.557 111.5,200.5 Z"/></g>
<g><path style="opacity:0.831" fill="#57378c" d="M 117.5,200.5 C 127.323,201.491 132.656,206.991 133.5,217C 133.13,222.574 130.797,227.074 126.5,230.5C 124.62,230.229 123.287,230.896 122.5,232.5C 120.194,232.993 117.861,233.326 115.5,233.5C 119.903,232.296 123.737,229.963 127,226.5C 133.09,214.361 129.924,205.694 117.5,200.5 Z"/></g>
<g><path style="opacity:1" fill="#9b88b9" d="M 109.5,204.5 C 121.179,203.68 126.679,209.014 126,220.5C 122.628,227.433 117.128,229.933 109.5,228C 98.9579,220.25 98.9579,212.417 109.5,204.5 Z"/></g>
<g><path style="opacity:1" fill="#dbd6e3" d="M 233.5,202.5 C 235.028,202.517 235.528,203.184 235,204.5C 233.26,206.954 231.093,208.454 228.5,209C 226.579,207.759 226.246,206.259 227.5,204.5C 230.062,206.736 232.062,206.069 233.5,202.5 Z"/></g>
<g><path style="opacity:0.992" fill="#a696c1" d="M 287.5,205.5 C 287.833,205.5 288.167,205.5 288.5,205.5C 288.5,215.167 288.5,224.833 288.5,234.5C 283.833,234.5 279.167,234.5 274.5,234.5C 272.833,234.5 271.167,234.5 269.5,234.5C 266.167,234.5 262.833,234.5 259.5,234.5C 259.5,225.167 259.5,215.833 259.5,206.5C 268.652,205.506 277.985,205.173 287.5,205.5 Z"/></g>
<g><path style="opacity:0.99" fill="#8871ae" d="M 288.5,205.5 C 294.5,205.5 300.5,205.5 306.5,205.5C 306.5,209.833 306.5,214.167 306.5,218.5C 306.5,219.167 306.5,219.833 306.5,220.5C 306.5,225.167 306.5,229.833 306.5,234.5C 300.5,234.5 294.5,234.5 288.5,234.5C 288.5,224.833 288.5,215.167 288.5,205.5 Z"/></g>
<g><path style="opacity:1" fill="#5c3c8f" d="M 113.5,207.5 C 115.011,208.502 116.678,209.169 118.5,209.5C 118.5,210.5 118.5,211.5 118.5,212.5C 117.5,212.5 116.5,212.5 115.5,212.5C 115.5,213.5 115.5,214.5 115.5,215.5C 119.071,215.408 120.238,217.074 119,220.5C 117.406,221.716 115.906,223.049 114.5,224.5C 112.76,223.164 111.093,221.83 109.5,220.5C 110.689,219.571 112.022,219.238 113.5,219.5C 113.5,218.5 113.5,217.5 113.5,216.5C 111.052,216.915 109.719,215.915 109.5,213.5C 110.491,211.193 111.824,209.193 113.5,207.5 Z"/></g>
<g><path style="opacity:0.971" fill="#f3bcb6" d="M 204.5,207.5 C 205.398,213.472 205.398,219.472 204.5,225.5C 204.167,226.833 203.833,226.833 203.5,225.5C 203.657,224.127 203.49,222.793 203,221.5C 201.887,222.305 200.721,222.972 199.5,223.5C 197.283,224.369 194.95,224.702 192.5,224.5C 192.5,223.5 192.5,222.5 192.5,221.5C 191.641,218.57 190.474,215.904 189,213.5C 190.113,212.289 191.28,212.289 192.5,213.5C 195.222,209.136 199.222,207.136 204.5,207.5 Z"/></g>
<g><path style="opacity:0.939" fill="#f0f0f0" d="M 142.5,209.5 C 154.7,209.51 157.7,214.677 151.5,225C 140.848,228.347 136.348,224.514 138,213.5C 139.397,211.93 140.897,210.596 142.5,209.5 Z"/></g>
<g><path style="opacity:1" fill="#a593c2" d="M 218.5,207.5 C 221.073,208.493 223.74,209.326 226.5,210C 225.062,210.219 223.729,210.719 222.5,211.5C 225.252,214.134 228.085,214.134 231,211.5C 231.617,212.449 231.451,213.282 230.5,214C 222.166,214.521 221.833,215.187 229.5,216C 227.444,216.311 225.444,216.811 223.5,217.5C 222.57,213.651 220.903,210.318 218.5,207.5 Z"/></g>
<g><path style="opacity:0.95" fill="#ececec" d="M 306.5,220.5 C 306.5,219.833 306.5,219.167 306.5,218.5C 307.364,217.312 308.364,216.145 309.5,215C 320.848,214.168 332.181,214.334 343.5,215.5C 344.167,216.833 344.833,218.167 345.5,219.5C 344.675,220.386 343.675,220.719 342.5,220.5C 342.5,225.167 342.5,229.833 342.5,234.5C 331.5,234.5 320.5,234.5 309.5,234.5C 309.5,229.833 309.5,225.167 309.5,220.5C 308.5,220.5 307.5,220.5 306.5,220.5 Z"/></g>
<g><path style="opacity:1" fill="#b4b7ba" d="M 199.5,223.5 C 200.167,224.5 200.833,225.5 201.5,226.5C 200.922,228.443 199.922,228.777 198.5,227.5C 196.087,230.124 193.753,230.124 191.5,227.5C 191.263,226.209 191.596,225.209 192.5,224.5C 194.95,224.702 197.283,224.369 199.5,223.5 Z"/></g>
<g><path style="opacity:0.996" fill="#273238" d="M 203.5,225.5 C 203.833,226.833 204.167,226.833 204.5,225.5C 208.5,226.167 210.833,228.5 211.5,232.5C 207.092,232.062 205.425,234.062 206.5,238.5C 204.806,241.181 202.639,243.515 200,245.5C 199.612,247.076 200.112,248.409 201.5,249.5C 203.19,246.976 205.357,244.976 208,243.5C 208.995,244.066 209.828,244.733 210.5,245.5C 210.05,251.136 211.05,256.47 213.5,261.5C 205.862,262.313 198.196,262.646 190.5,262.5C 190.663,260.143 190.497,257.81 190,255.5C 185.399,249.193 182.899,242.193 182.5,234.5C 183.386,229.627 186.386,227.294 191.5,227.5C 193.753,230.124 196.087,230.124 198.5,227.5C 199.922,228.777 200.922,228.443 201.5,226.5C 202.167,226.167 202.833,225.833 203.5,225.5 Z"/></g>
<g><path style="opacity:1" fill="#e5e0ed" d="M 290.5,227.5 C 292.833,227.5 295.167,227.5 297.5,227.5C 297.5,229.167 297.5,230.833 297.5,232.5C 295.167,232.5 292.833,232.5 290.5,232.5C 290.5,230.833 290.5,229.167 290.5,227.5 Z"/></g>
<g><path style="opacity:1" fill="#bbb0cd" d="M 211.5,232.5 C 212.833,232.5 213.5,233.167 213.5,234.5C 212.069,235.78 211.402,237.447 211.5,239.5C 209.765,238.943 208.098,238.61 206.5,238.5C 205.425,234.062 207.092,232.062 211.5,232.5 Z"/></g>
<g><path style="opacity:0.998" fill="#a897c4" d="M 182.5,234.5 C 182.899,242.193 185.399,249.193 190,255.5C 190.497,257.81 190.663,260.143 190.5,262.5C 189.771,267.13 189.437,271.797 189.5,276.5C 188.023,274.193 186.023,272.36 183.5,271C 177.418,270.212 171.418,270.379 165.5,271.5C 163.735,270.539 161.735,270.205 159.5,270.5C 157.899,260.13 156.066,249.796 154,239.5C 151.987,237.752 149.82,236.418 147.5,235.5C 159.18,235.527 170.846,235.194 182.5,234.5 Z"/></g>
<g><path style="opacity:0.993" fill="#a695c1" d="M 213.5,235.5 C 219.028,235 224.362,235.667 229.5,237.5C 231.949,242.491 232.949,247.824 232.5,253.5C 226.68,256.666 220.847,259.999 215,263.5C 214.722,262.584 214.222,261.918 213.5,261.5C 211.05,256.47 210.05,251.136 210.5,245.5C 211.778,245.782 212.778,246.449 213.5,247.5C 215.147,250.839 217.147,251.173 219.5,248.5C 217.782,244.062 215.782,239.728 213.5,235.5 Z"/></g>
<g><path style="opacity:0.844" fill="#263237" d="M 126.5,230.5 C 127.842,233.166 129.675,235.499 132,237.5C 132.483,238.448 132.649,239.448 132.5,240.5C 131.448,240.649 130.448,240.483 129.5,240C 126.933,237.604 124.6,235.104 122.5,232.5C 123.287,230.896 124.62,230.229 126.5,230.5 Z"/></g>
<g><path style="opacity:0.976" fill="#56358b" d="M 147.5,235.5 C 149.82,236.418 151.987,237.752 154,239.5C 156.066,249.796 157.899,260.13 159.5,270.5C 153.077,270.791 146.744,270.458 140.5,269.5C 139.452,261.427 137.952,253.427 136,245.5C 135.333,243.167 135.333,240.833 136,238.5C 139.649,236.904 143.482,235.904 147.5,235.5 Z"/></g>
<g><path style="opacity:1" fill="#333c44" d="M 213.5,234.5 C 213.5,234.833 213.5,235.167 213.5,235.5C 215.782,239.728 217.782,244.062 219.5,248.5C 217.147,251.173 215.147,250.839 213.5,247.5C 214.478,247.189 215.145,246.522 215.5,245.5C 213.748,243.754 212.415,241.754 211.5,239.5C 211.402,237.447 212.069,235.78 213.5,234.5 Z"/></g>
<g><path style="opacity:1" fill="#e8b9b5" d="M 206.5,238.5 C 208.098,238.61 209.765,238.943 211.5,239.5C 212.415,241.754 213.748,243.754 215.5,245.5C 215.145,246.522 214.478,247.189 213.5,247.5C 212.778,246.449 211.778,245.782 210.5,245.5C 209.828,244.733 208.995,244.066 208,243.5C 205.357,244.976 203.19,246.976 201.5,249.5C 200.112,248.409 199.612,247.076 200,245.5C 202.639,243.515 204.806,241.181 206.5,238.5 Z"/></g>
<g><path style="opacity:0.734" fill="#ededed" d="M 195.5,67.5 C 195.167,67.5 194.833,67.5 194.5,67.5C 194.666,60.825 194.5,54.1583 194,47.5C 193.626,46.5838 193.126,45.7504 192.5,45C 139.5,44.3333 86.5,44.3333 33.5,45C 32.8742,45.7504 32.3742,46.5838 32,47.5C 31.3333,120.167 31.3333,192.833 32,265.5C 32.5,267.333 33.6667,268.5 35.5,269C 51.1667,269.667 66.8333,269.667 82.5,269C 83.376,267.414 84.376,265.914 85.5,264.5C 82.442,264.362 79.442,264.362 76.5,264.5C 79.0472,263.066 81.3805,261.4 83.5,259.5C 79.9421,257.645 76.2755,255.978 72.5,254.5C 72.8333,254.167 73.1667,253.833 73.5,253.5C 76.8378,254.429 80.1711,254.929 83.5,255C 80.318,251.651 76.9846,248.484 73.5,245.5C 74.0016,244.479 74.6683,244.312 75.5,245C 78.5799,247.29 81.7466,249.457 85,251.5C 84.8234,247.804 84.4901,244.137 84,240.5C 86.0827,244.291 88.2493,247.957 90.5,251.5C 94.1677,248.995 95.3344,245.662 94,241.5C 96.3333,243.833 98.6667,246.167 101,248.5C 101.871,244.016 103.204,239.683 105,235.5C 105.108,239.177 105.108,242.843 105,246.5C 107.5,244 110,241.5 112.5,239C 113.759,238.018 115.092,237.685 116.5,238C 113.5,241.667 110.5,245.333 107.5,249C 111.108,248.134 114.774,247.467 118.5,247C 116.751,248.292 114.918,249.458 113,250.5C 110.37,253.697 111.037,255.697 115,256.5C 116.285,256.05 117.452,255.383 118.5,254.5C 118.833,254.833 119.167,255.167 119.5,255.5C 117.167,257.667 114.833,259.833 112.5,262C 115.098,261.578 117.764,261.578 120.5,262C 117.782,263.072 115.115,264.238 112.5,265.5C 114.167,266.667 115.833,267.833 117.5,269C 124.492,269.5 131.492,269.666 138.5,269.5C 138.158,270.338 137.492,270.672 136.5,270.5C 128.16,270.334 119.827,270.5 111.5,271C 112.96,271.811 113.293,272.645 112.5,273.5C 111.186,272.687 110.019,271.687 109,270.5C 108.51,271.793 108.343,273.127 108.5,274.5C 109.5,274.5 110.5,274.5 111.5,274.5C 109.301,284.347 108.301,294.347 108.5,304.5C 120.5,304.5 132.5,304.5 144.5,304.5C 144.5,305.167 144.5,305.833 144.5,306.5C 96.1667,306.5 47.8333,306.5 -0.5,306.5C -0.5,305.833 -0.5,305.167 -0.5,304.5C 29.5,304.5 59.5,304.5 89.5,304.5C 89.2417,294.26 87.9084,284.26 85.5,274.5C 88.5719,274.817 91.5719,274.484 94.5,273.5C 93.3778,270.264 91.8778,269.931 90,272.5C 71.3989,270.685 52.5656,269.852 33.5,270C 32.6667,269.167 31.8333,268.333 31,267.5C 30.0064,193.085 30.3397,118.752 32,44.5C 85.7628,43.3361 139.596,43.1694 193.5,44C 194.126,44.7504 194.626,45.5838 195,46.5C 195.5,53.4921 195.666,60.4921 195.5,67.5 Z M 95.5,248.5 C 99.512,251.583 99.1787,252.75 94.5,252C 95.3366,250.989 95.67,249.822 95.5,248.5 Z M 110.5,252.5 C 110.157,254.225 109.157,254.725 107.5,254C 108.244,252.961 109.244,252.461 110.5,252.5 Z M 110.5,257.5 C 114.243,257.459 114.41,258.126 111,259.5C 110.536,258.906 110.369,258.239 110.5,257.5 Z M 88.5,265.5 C 89.4345,266.568 89.7678,267.901 89.5,269.5C 88.1266,269.657 86.7932,269.49 85.5,269C 86.7101,267.961 87.7101,266.794 88.5,265.5 Z M 94.5,265.5 C 95.8149,266.476 97.1482,267.476 98.5,268.5C 95.9364,269.564 94.6031,268.564 94.5,265.5 Z M 100.5,267.5 C 103.001,267.511 103.168,268.178 101,269.5C 100.536,268.906 100.369,268.239 100.5,267.5 Z M 96.5,270.5 C 98.9732,270.947 99.1399,271.947 97,273.5C 96.5172,272.552 96.3505,271.552 96.5,270.5 Z M 102.5,270.5 C 103.522,271.892 103.189,273.225 101.5,274.5C 101.167,274.167 100.833,273.833 100.5,273.5C 101.193,272.482 101.859,271.482 102.5,270.5 Z M 105.5,270.5 C 106.782,271.708 106.782,273.042 105.5,274.5C 105.094,273.443 105.094,272.109 105.5,270.5 Z"/></g>
<g><path style="opacity:0.983" fill="#e7e7e7" d="M 299.5,244.5 C 299.5,264.833 299.5,285.167 299.5,305.5C 310.679,305.828 321.679,305.495 332.5,304.5C 354.833,304.5 377.167,304.5 399.5,304.5C 399.5,305.167 399.5,305.833 399.5,306.5C 356.833,306.5 314.167,306.5 271.5,306.5C 271.833,305.833 272.167,305.167 272.5,304.5C 273.167,304.5 273.833,304.5 274.5,304.5C 279.5,304.5 284.5,304.5 289.5,304.5C 289.5,293.167 289.5,281.833 289.5,270.5C 286.5,270.5 283.5,270.5 280.5,270.5C 279.508,270.672 278.842,270.338 278.5,269.5C 282.167,269.5 285.833,269.5 289.5,269.5C 289.5,261.167 289.5,252.833 289.5,244.5C 292.833,244.5 296.167,244.5 299.5,244.5 Z"/></g>
<g><path style="opacity:0.938" fill="#f3f3f3" d="M 332.5,304.5 C 321.679,305.495 310.679,305.828 299.5,305.5C 299.5,285.167 299.5,264.833 299.5,244.5C 310.5,244.5 321.5,244.5 332.5,244.5C 332.5,252.833 332.5,261.167 332.5,269.5C 342.839,269.666 353.172,269.5 363.5,269C 365.333,268.5 366.5,267.333 367,265.5C 367.994,192.085 367.66,118.752 366,45.5C 312.904,44.3361 259.737,44.1694 206.5,45C 205.874,45.7504 205.374,46.5838 205,47.5C 204.5,54.4921 204.334,61.4921 204.5,68.5C 204.167,68.5 203.833,68.5 203.5,68.5C 203.334,61.1591 203.5,53.8258 204,46.5C 204.374,45.5838 204.874,44.7504 205.5,44C 259.167,43.3333 312.833,43.3333 366.5,44C 367,44.5 367.5,45 368,45.5C 368.667,119.5 368.667,193.5 368,267.5C 367.167,268.333 366.333,269.167 365.5,270C 354.505,270.5 343.505,270.667 332.5,270.5C 332.5,281.833 332.5,293.167 332.5,304.5 Z"/></g>
<g><path style="opacity:0.865" fill="#253137" d="M 269.5,234.5 C 271.167,234.5 272.833,234.5 274.5,234.5C 268.671,241.162 262.337,247.329 255.5,253C 256.448,253.483 257.448,253.649 258.5,253.5C 258.5,254.5 258.5,255.5 258.5,256.5C 254.987,256.693 251.654,256.026 248.5,254.5C 249.482,251.904 250.149,249.238 250.5,246.5C 251.5,246.5 252.5,246.5 253.5,246.5C 253.351,247.552 253.517,248.552 254,249.5C 259.67,244.996 264.837,239.996 269.5,234.5 Z"/></g>
<g><path style="opacity:0.995" fill="#55348a" d="M 232.5,253.5 C 236.637,253.146 240.637,253.646 244.5,255C 249.411,259.406 253.745,264.24 257.5,269.5C 258.609,270.29 259.942,270.79 261.5,271C 259.842,271.725 259.342,272.892 260,274.5C 263.875,279.746 267.375,285.246 270.5,291C 269.944,291.383 269.611,291.883 269.5,292.5C 268.167,293.167 267.167,294.167 266.5,295.5C 262.537,292.871 258.871,289.871 255.5,286.5C 252.692,283.616 249.859,280.616 247,277.5C 246.184,282.684 246.35,287.684 247.5,292.5C 247.5,301.167 247.5,309.833 247.5,318.5C 245.585,318.216 243.919,318.549 242.5,319.5C 241.414,319.38 240.747,318.713 240.5,317.5C 239.936,314.435 239.269,311.435 238.5,308.5C 237.294,301.802 235.96,295.135 234.5,288.5C 234.156,285.438 233.489,282.438 232.5,279.5C 231.099,280.521 229.765,281.521 228.5,282.5C 218.175,287.668 207.175,289.834 195.5,289C 193.872,292.603 193.038,296.437 193,300.5C 192.768,299.263 192.268,298.263 191.5,297.5C 190.971,293.649 191.638,290.149 193.5,287C 190.627,284.087 189.294,280.587 189.5,276.5C 189.437,271.797 189.771,267.13 190.5,262.5C 198.196,262.646 205.862,262.313 213.5,261.5C 214.222,261.918 214.722,262.584 215,263.5C 220.847,259.999 226.68,256.666 232.5,253.5 Z"/></g>
<g><path style="opacity:0.997" fill="#7a60a4" d="M 138.5,269.5 C 139.167,269.5 139.833,269.5 140.5,269.5C 146.744,270.458 153.077,270.791 159.5,270.5C 161.735,270.205 163.735,270.539 165.5,271.5C 164.355,275.311 164.188,279.311 165,283.5C 167.333,284.833 169.667,286.167 172,287.5C 173.918,300.431 175.251,313.431 176,326.5C 176.5,327 177,327.5 177.5,328C 168.506,328.5 159.506,328.666 150.5,328.5C 147.11,327.056 145.777,324.39 146.5,320.5C 146.461,319.417 146.127,318.417 145.5,317.5C 90.8496,316.167 90.8496,315.501 145.5,315.5C 145.736,312.391 145.403,309.391 144.5,306.5C 144.5,305.833 144.5,305.167 144.5,304.5C 144.33,299.141 143.83,293.808 143,288.5C 141.068,286.962 138.901,285.795 136.5,285C 134.016,280.058 134.016,275.224 136.5,270.5C 137.492,270.672 138.158,270.338 138.5,269.5 Z"/></g>
<g><path style="opacity:1" fill="#baadd0" d="M 189.5,276.5 C 189.294,280.587 190.627,284.087 193.5,287C 191.638,290.149 190.971,293.649 191.5,297.5C 192.114,301.135 192.448,304.802 192.5,308.5C 207.833,308.5 223.167,308.5 238.5,308.5C 239.269,311.435 239.936,314.435 240.5,317.5C 240.747,318.713 241.414,319.38 242.5,319.5C 242.5,321.167 242.5,322.833 242.5,324.5C 241.699,326.042 241.366,327.708 241.5,329.5C 210.995,329.831 180.662,329.498 150.5,328.5C 159.506,328.666 168.506,328.5 177.5,328C 177,327.5 176.5,327 176,326.5C 175.251,313.431 173.918,300.431 172,287.5C 169.667,286.167 167.333,284.833 165,283.5C 164.188,279.311 164.355,275.311 165.5,271.5C 171.418,270.379 177.418,270.212 183.5,271C 186.023,272.36 188.023,274.193 189.5,276.5 Z"/></g>
<g><path style="opacity:0.99" fill="#b9abcf" d="M 257.5,269.5 C 264.5,269.5 271.5,269.5 278.5,269.5C 278.842,270.338 279.508,270.672 280.5,270.5C 282.295,274.617 282.462,278.95 281,283.5C 279.208,285.707 276.874,287.041 274,287.5C 273.56,289.866 273.06,292.199 272.5,294.5C 271.5,293.833 270.5,293.167 269.5,292.5C 269.611,291.883 269.944,291.383 270.5,291C 267.375,285.246 263.875,279.746 260,274.5C 259.342,272.892 259.842,271.725 261.5,271C 259.942,270.79 258.609,270.29 257.5,269.5 Z"/></g>
<g><path style="opacity:1" fill="#775da2" d="M 255.5,286.5 C 254.383,290.295 253.717,294.295 253.5,298.5C 252.829,295.242 251.996,291.909 251,288.5C 249.989,287.663 248.822,287.33 247.5,287.5C 247.5,289.167 247.5,290.833 247.5,292.5C 246.35,287.684 246.184,282.684 247,277.5C 249.859,280.616 252.692,283.616 255.5,286.5 Z"/></g>
<g><path style="opacity:1" fill="#755ba1" d="M 234.5,288.5 C 232.833,288.5 231.167,288.5 229.5,288.5C 229.795,286.265 229.461,284.265 228.5,282.5C 229.765,281.521 231.099,280.521 232.5,279.5C 233.489,282.438 234.156,285.438 234.5,288.5 Z"/></g>
<g><path style="opacity:0.997" fill="#b9accf" d="M 255.5,286.5 C 258.871,289.871 262.537,292.871 266.5,295.5C 267.5,296.833 268.5,298.167 269.5,299.5C 270.263,301.368 271.263,303.035 272.5,304.5C 272.167,305.167 271.833,305.833 271.5,306.5C 271.46,311.193 271.127,315.859 270.5,320.5C 269.996,323.36 268.996,326.027 267.5,328.5C 263.571,329.433 259.571,329.766 255.5,329.5C 253,327.831 250.333,326.164 247.5,324.5C 247.5,322.833 247.5,321.167 247.5,319.5C 245.833,319.5 244.167,319.5 242.5,319.5C 243.919,318.549 245.585,318.216 247.5,318.5C 248.479,315.375 248.813,312.042 248.5,308.5C 250.144,308.714 251.644,308.38 253,307.5C 253.498,304.518 253.665,301.518 253.5,298.5C 253.717,294.295 254.383,290.295 255.5,286.5 Z"/></g>
<g><path style="opacity:1" fill="#9580b6" d="M 253.5,298.5 C 253.665,301.518 253.498,304.518 253,307.5C 251.644,308.38 250.144,308.714 248.5,308.5C 248.813,312.042 248.479,315.375 247.5,318.5C 247.5,309.833 247.5,301.167 247.5,292.5C 247.5,290.833 247.5,289.167 247.5,287.5C 248.822,287.33 249.989,287.663 251,288.5C 251.996,291.909 252.829,295.242 253.5,298.5 Z"/></g>
<g><path style="opacity:1" fill="#9884b8" d="M 228.5,282.5 C 229.461,284.265 229.795,286.265 229.5,288.5C 231.167,288.5 232.833,288.5 234.5,288.5C 235.96,295.135 237.294,301.802 238.5,308.5C 223.167,308.5 207.833,308.5 192.5,308.5C 192.448,304.802 192.114,301.135 191.5,297.5C 192.268,298.263 192.768,299.263 193,300.5C 193.038,296.437 193.872,292.603 195.5,289C 207.175,289.834 218.175,287.668 228.5,282.5 Z"/></g>
<g><path style="opacity:0.97" fill="#f2bcba" d="M 269.5,292.5 C 270.5,293.167 271.5,293.833 272.5,294.5C 273.167,294.5 273.5,294.833 273.5,295.5C 272.674,297.264 271.341,298.598 269.5,299.5C 268.5,298.167 267.5,296.833 266.5,295.5C 267.167,294.167 268.167,293.167 269.5,292.5 Z"/></g>
<g><path style="opacity:0.945" fill="#263137" d="M 274.5,304.5 C 273.833,304.5 273.167,304.5 272.5,304.5C 271.263,303.035 270.263,301.368 269.5,299.5C 271.341,298.598 272.674,297.264 273.5,295.5C 276.86,295.384 280.193,295.051 283.5,294.5C 283.649,295.552 283.483,296.552 283,297.5C 279.977,299.698 277.144,302.031 274.5,304.5 Z"/></g>
<g><path style="opacity:0.217" fill="#ececec" d="M 316.5,311.5 C 321.65,310.349 326.984,310.183 332.5,311C 327.177,311.499 321.844,311.666 316.5,311.5 Z"/></g>
<g><path style="opacity:0.192" fill="#eaeaea" d="M 40.5,312.5 C 52.3262,311.34 64.3262,311.174 76.5,312C 64.5046,312.5 52.5046,312.667 40.5,312.5 Z"/></g>
<g><path style="opacity:0.192" fill="#ededed" d="M 82.5,312.5 C 84.2884,311.378 86.2884,311.211 88.5,312C 86.5273,312.495 84.5273,312.662 82.5,312.5 Z"/></g>
<g><path style="opacity:0.238" fill="#eeeeee" d="M 332.5,318.5 C 341.324,317.343 350.324,317.176 359.5,318C 350.506,318.5 341.506,318.666 332.5,318.5 Z"/></g>
<g><path style="opacity:1" fill="#fdc2bd" d="M 242.5,319.5 C 244.167,319.5 245.833,319.5 247.5,319.5C 247.5,321.167 247.5,322.833 247.5,324.5C 245.833,324.5 244.167,324.5 242.5,324.5C 242.5,322.833 242.5,321.167 242.5,319.5 Z"/></g>
<g><path style="opacity:0.953" fill="#f4f4f4" d="M 146.5,320.5 C 145.777,324.39 147.11,327.056 150.5,328.5C 180.662,329.498 210.995,329.831 241.5,329.5C 246.167,330.833 250.833,330.833 255.5,329.5C 259.571,329.766 263.571,329.433 267.5,328.5C 268.996,326.027 269.996,323.36 270.5,320.5C 292.471,321.548 314.471,323.048 336.5,325C 340.186,325.559 343.853,326.226 347.5,327C 352.833,328.667 352.833,330.333 347.5,332C 320.294,335.623 292.961,337.623 265.5,338C 209.824,338.871 154.157,338.538 98.5,337C 82.1058,336.377 65.7725,335.043 49.5,333C 46.7679,332.587 44.1013,331.92 41.5,331C 40.6634,329.989 40.33,328.822 40.5,327.5C 52.7158,325.161 65.0491,323.661 77.5,323C 100.481,321.584 123.481,320.751 146.5,320.5 Z"/></g>
<g><path style="opacity:1" fill="#3a444a" d="M 242.5,324.5 C 244.167,324.5 245.833,324.5 247.5,324.5C 250.333,326.164 253,327.831 255.5,329.5C 250.833,330.833 246.167,330.833 241.5,329.5C 241.366,327.708 241.699,326.042 242.5,324.5 Z"/></g>
</svg>
