<?xml version="1.0" encoding="utf-8"?>
<!-- Generator: Adobe Illustrator 19.0.0, SVG Export Plug-In . SVG Version: 6.00 Build 0)  -->
<svg version="1.1" id="Layer_1" xmlns="http://www.w3.org/2000/svg" xmlns:xlink="http://www.w3.org/1999/xlink" x="0px" y="0px"
	 viewBox="0 0 400.08 338.65" enable-background="new 0 0 400.08 338.65" xml:space="preserve">
<path fill="#F39A1B" d="M345.11,74.83c-0.03,0-0.05,0.01-0.08,0.01c0.09-0.01,0.14,0,0.14,0C345.16,74.84,345.14,74.83,345.11,74.83
	"/>
<path fill="#F39A1B" d="M316.65,60.95c-0.14,0-0.29,0.01-0.45,0.01v-0.01C316.29,60.94,316.44,60.94,316.65,60.95"/>
<path fill="#F39A1B" d="M345.17,74.84c0,0-0.05,0-0.14,0c0.02,0,0.05-0.01,0.08-0.01C345.14,74.83,345.16,74.84,345.17,74.84"/>
<path fill="#F39A1B" d="M288.77,74.83c-0.04,0.01-0.06,0.01-0.06,0.01c0,0,0.05-0.01,0.14,0C288.82,74.83,288.79,74.83,288.77,74.83
	"/>
<path fill="#EC671B" d="M186.06,194.08c-12.47,3.93-24.31,7.67-37,11.68c-0.21-3.19-0.68-5.26-0.41-7.24
	c0.61-4.46,1.53-8.89,2.43-13.31c3.23-15.86,6.75-31.67,9.64-47.59c1.18-6.5,1.22-13.27-2.31-19.73c-5.9-3.13-11.93-6.16-19.48-4.99
	c0.75,31.38-10.63,60.16-15.36,90.63c-5.79-0.96-9.31-3.81-12.42-9.06c0.44-4.18,0.73-9.21,1.55-14.15
	c3.13-18.9,6.4-37.79,5.14-57.05c-0.34-5.22-1.75-10.46-3.31-15.49c-1.44-4.67-5.23-7.59-10-8.14c-3.61-0.41-7.44,0-11.04,0.73
	c-10.4,2.13-17.01,9.72-23.06,17.51c-7.2,9.27-12.71,19.62-17.05,30.57c-0.74,1.88-2.07,3.53-3.25,5.49
	c-8.11-3.8-16.12-5.67-24.5-4.84c-14.06,1.39-23.46,7.07-25.46,21.68c-0.91,6.68,1.92,12.85,4.17,19.66
	c11.2-8.03,22.23-14.67,36.99-8.74c-2.98,4.6-5.13,8.97-8.24,12.5c-8.21,9.33-18.76,15.44-30.28,19.63
	c2.27,7.69,7.72,11.61,14.23,9.96c3.78-0.96,7.6-2.63,10.81-4.84c5.97-4.09,10.55-9.68,14.3-15.87c3.15-5.19,6.16-10.47,8.78-14.95
	c8.78-0.95,16.62-1.79,25.21-2.72c-0.13,1.94-0.3,4.22-0.45,6.5c-0.27,4.24-1.06,8.52-0.66,12.69c0.53,5.59,1.89,11.24,7.25,14.45
	c10,5.98,29.34,5.21,37.99-6.16c1.04-1.36,2.07-2.72,2.97-3.9c2.85,3.08,5.36,5.78,7.67,8.26c15.23,3.68,30.2,2.18,45.07,1.95
	c2.55-0.04,5.77-1.94,7.47-3.98C188.55,209.12,190.5,202.21,186.06,194.08 M77.99,172c-7.14-0.28-11.36-4.3-15.57-8.21
	c0.29-11.68,11.19-36.04,19.91-43.67C84.06,138.14,80.72,155.04,77.99,172"/>
<path fill="#EC671B" d="M293.27,175.74c-3.41,1.75-6.94,3.57-11.45,5.89c0.8-3.68,1.37-5.94,1.77-8.23
	c1.43-8.06,3.03-15.85,1.35-24.38c-3-15.3-11.23-25.56-25.52-31.06c-21.5-8.27-48.53,2.66-60.27,22.29
	c-7.68,12.84-10.08,26.62-9.26,41.41c0.8,14.39,9.91,30.79,27.97,34.62c22.64,4.81,41.58-0.97,55.84-19.86
	c1.11-1.46,2.32-3.16,3.89-3.9c5.82-2.77,11.77-5.27,17.5-7.77C294.31,181.58,293.69,178.31,293.27,175.74 M227.46,203.25
	c-4.54-0.74-7.49-3.69-9.38-7.86c-3.11-6.84-2.67-13.94-2.13-22.69c5.73,13.16,14.96,20.62,27.41,25.06
	C238.45,203.08,233.19,204.18,227.46,203.25 M254.23,182.18c-0.93,2.17-2.17,4.21-3.56,6.86c-11.42,0.24-18.83-5-24.01-13.8
	c-1.73-2.95-3.21-6.22-3.95-9.53c-1.14-5.04-3.99-10.12-1.12-15.45c3.82-7.1,8.38-13.71,15.68-17.57c8.16-4.3,17.19-0.69,19.81,8.28
	C261.14,154.94,259.97,168.79,254.23,182.18"/>
<path fill="#EC671B" d="M331.91,237.55c-9.45,0-17.14-8.48-17.14-18.9v-22.54c0-10.42,7.69-18.9,17.14-18.9
	c9.45,0,17.14,8.48,17.14,18.9v22.54C349.05,229.07,341.36,237.55,331.91,237.55 M331.91,181.6c-7.26,0-13.17,6.51-13.17,14.52
	v22.54c0,8,5.91,14.52,13.17,14.52c7.26,0,13.16-6.51,13.16-14.52v-22.54C345.07,188.11,339.17,181.6,331.91,181.6"/>
<polygon fill="#FFFFFF" points="299.49,238.82 277.27,239.33 281.61,234.68 "/>
<polygon fill="#FFFFFF" points="302.32,232.16 293.23,229.53 301.61,226.2 "/>
<polygon fill="#FFFFFF" points="304.54,224.99 294.04,221.65 291.51,211.96 303.53,216.1 "/>
<polygon fill="#FFFFFF" points="306.56,234.68 305.45,239.33 314.76,238.92 "/>
<polygon fill="#FFFFFF" points="344.5,239.33 351.35,234.68 353.93,240.24 "/>
<polygon fill="#FFFFFF" points="362.14,226.2 362.62,226.25 368.81,226.84 363.49,229.6 362.14,232.76 359.79,227.85 "/>
<polygon fill="#FFFFFF" points="360.46,225.76 369.21,220.04 372.92,211.42 362.14,217.55 "/>
<path fill="#FFFFFF" d="M341.91,169.01h-20.86c-4.55,0-8.25-3.7-8.25-8.24c0-4.55,3.7-8.24,8.25-8.24h20.86
	c4.55,0,8.24,3.7,8.24,8.24C350.15,165.31,346.45,169.01,341.91,169.01 M321.04,155.59c-2.86,0-5.18,2.32-5.18,5.18
	c0,2.86,2.32,5.18,5.18,5.18h20.86c2.86,0,5.18-2.32,5.18-5.18c0-2.86-2.32-5.18-5.18-5.18H321.04z"/>
<path fill="#EC671B" d="M342.78,94.4c0-6.24-5.06-11.3-11.3-11.3c-6.24,0-11.3,5.06-11.3,11.3c0,6.24,5.06,11.3,11.3,11.3
	C337.72,105.7,342.78,100.64,342.78,94.4"/>
<path fill="#EC671B" d="M395.4,89.48c-0.34-0.12-0.7-0.17-1.07-0.17h-15.86c-0.87,0-1.71-0.35-2.33-0.97l-3.19-3.19
	c-0.62-0.62-1.46-0.96-2.33-0.96h-1.21v-5.49l11.26-10.57c1.37,1.62,3.42,2.65,5.71,2.65c4.13,0,7.48-3.35,7.48-7.48
	c0-4.13-3.35-7.48-7.48-7.48c-4.13,0-7.48,3.35-7.48,7.48c0,1.26,0.31,2.44,0.86,3.48L367.8,78v6.18h-6.6
	c-0.11,0-0.21,0.01-0.32,0.01c0.04,0.01,0.06,0.01,0.07,0.01c0,0-0.05-0.01-0.15,0c-0.13,0.02-0.26,0.04-0.39,0.07l-0.01-0.03
	c0.17-0.03,0.3-0.04,0.4-0.04c0.03,0,0.05-0.01,0.08-0.01c-0.57-0.1-4.63-1.12-15.19-10.55c-4-3.57-11.39-4.19-14.46-4.29
	c-0.28-0.01-0.51-0.02-0.71-0.02h-0.1c-0.14,0-0.31,0.01-0.48,0.01c-3.02,0.11-10.19,0.74-14.18,4.3
	c-10.57,9.44-14.62,10.45-15.19,10.55c0.03,0,0.05,0.01,0.08,0.01c-0.1-0.01-0.15,0-0.15,0c0.01,0,0.03,0,0.07-0.01
	c-0.1-0.01-0.21-0.01-0.32-0.01h-6.61V78l-11.95-11.23c0.55-1.04,0.86-2.22,0.86-3.48c0-4.13-3.35-7.48-7.48-7.48
	c-4.13,0-7.48,3.35-7.48,7.48c0,4.13,3.35,7.48,7.48,7.48c2.29,0,4.34-1.03,5.71-2.65l11.26,10.57v5.49h-1.21
	c-0.87,0-1.72,0.35-2.33,0.96l-3.19,3.19c-0.62,0.62-1.46,0.97-2.33,0.97h-15.85c-0.36,0-0.73,0.05-1.07,0.17
	c-1.41,0.51-4.68,2.36-4.68,8.7c0,4.21,5.6,5.97,7.24,6.4c0.27,0.07,0.56,0.11,0.84,0.11h14.89c0.7,0,1.39,0.23,1.95,0.64l2.69,1.98
	c0.57,0.42,1.25,0.64,1.95,0.64h3.01c0.74,0,1.46,0.25,2.04,0.71l1.35,1.06c-4.67,6.76-7.4,14.96-7.4,23.77v34.17
	c0,16.13,9.15,30.18,22.54,37.2v-5.38c-10.7-6.56-17.86-18.37-17.86-31.81v-34.17c0-7.73,2.37-14.92,6.41-20.88l9.97,7.82
	c0.68,0.53,1.52,0.77,2.37,0.69c2.3-0.22,6.34-1.29,3.8-6.16c-2.57-4.92-6.51-9.95-8.35-12.2c-0.63-0.77-1.56-1.21-2.55-1.21h-10.69
	c-1.82,0-3.3-1.48-3.3-3.3v-4.14c0-1.82,1.48-3.3,3.3-3.3h4.33c0.2,0.04,0.42,0.06,0.68,0.06c2.5,0,8.03-1.9,19.61-12.25
	c2.11-1.88,7.39-2.58,10.54-2.63c3.28,0.05,8.5,0.79,10.56,2.63c11.58,10.34,17.11,12.25,19.6,12.25c0.26,0,0.49-0.02,0.68-0.06
	h4.33c1.82,0,3.3,1.48,3.3,3.3v4.14c0,1.82-1.48,3.3-3.3,3.3h-10.69c-0.99,0-1.92,0.44-2.55,1.21c-1.84,2.25-5.78,7.27-8.35,12.2
	c-2.54,4.87,1.49,5.93,3.8,6.16c0.85,0.08,1.69-0.16,2.37-0.69l11.5-9.01c4.56,6.18,7.25,13.82,7.25,22.07v34.17
	c0,13.44-7.15,25.25-17.85,31.81v5.38c13.38-7.02,22.54-21.06,22.54-37.2v-34.17c0-9.34-3.06-17.98-8.24-24.96
	c0.55-0.38,1.2-0.58,1.86-0.58h3.01c0.7,0,1.38-0.22,1.95-0.64l2.69-1.98c0.57-0.41,1.25-0.64,1.96-0.64h14.89
	c0.28,0,0.56-0.03,0.84-0.11c1.64-0.43,7.24-2.19,7.24-6.4C400.08,91.85,396.82,89.99,395.4,89.48 M277.05,97.73
	c-1.16,0.15-2.31,0.22-3.47,0.22c-1.16,0.01-2.32-0.07-3.47-0.21c-1.16-0.16-2.31-0.38-3.47-0.8c1.16-0.43,2.31-0.65,3.47-0.81
	c1.15-0.15,2.31-0.22,3.47-0.21c1.15,0,2.31,0.07,3.47,0.22c1.15,0.16,2.31,0.38,3.47,0.8C279.36,97.36,278.2,97.58,277.05,97.73
	 M301.04,84.28c-0.12-0.03-0.25-0.05-0.38-0.07c0.09,0,0.22,0.02,0.38,0.04L301.04,84.28z M391.33,97.74
	c-1.15,0.15-2.31,0.22-3.47,0.21c-1.15,0-2.31-0.07-3.47-0.22c-1.15-0.16-2.31-0.38-3.47-0.8c1.15-0.43,2.31-0.65,3.47-0.8
	c1.16-0.15,2.31-0.22,3.47-0.22c1.16-0.01,2.31,0.07,3.47,0.21c1.16,0.16,2.31,0.38,3.47,0.81
	C393.65,97.36,392.49,97.58,391.33,97.74"/>
<path fill="#F39A1B" d="M300.65,84.21c-0.1,0-0.15,0-0.15,0c0.01,0,0.03,0,0.07-0.01C300.59,84.2,300.62,84.2,300.65,84.21"/>
<path fill="#F39A1B" d="M331.23,69.33v0.02c-0.28-0.01-0.51-0.02-0.72-0.02C330.86,69.33,331.1,69.33,331.23,69.33"/>
<path fill="#EC671B" d="M324.89,192.39c0.75,2.26,1.12,4.53,1.4,6.79c0.26,2.26,0.38,4.53,0.39,6.79c0,2.26-0.12,4.53-0.38,6.79
	c-0.28,2.26-0.65,4.53-1.4,6.79c-0.75-2.26-1.13-4.53-1.41-6.79c-0.26-2.26-0.38-4.53-0.38-6.79c0-2.26,0.12-4.53,0.39-6.79
	C323.77,196.91,324.14,194.65,324.89,192.39"/>
<path fill="#EC671B" d="M331.03,199.37c0.75,1.1,1.12,2.2,1.4,3.3c0.26,1.1,0.39,2.2,0.39,3.3c0,1.1-0.12,2.2-0.38,3.3
	c-0.28,1.1-0.65,2.2-1.4,3.3c-0.75-1.1-1.13-2.2-1.41-3.3c-0.26-1.1-0.38-2.2-0.38-3.3c0-1.1,0.13-2.2,0.39-3.3
	C329.91,201.57,330.29,200.47,331.03,199.37"/>
<path fill="#FFFFFF" d="M331.48,44.6c-10.68,0-20.35,4.37-27.33,11.41l11.19,11.19c4.12-4.18,9.83-6.77,16.14-6.77
	c6.28,0,11.97,2.57,16.08,6.7l11.18-11.19C351.77,48.94,342.12,44.6,331.48,44.6"/>
<path fill="#FFFFFF" d="M331.52,0c-23.55,0-44.89,9.63-60.29,25.16l8.62,8.62c13.91-11.87,31.95-19.04,51.63-19.04
	c19.63,0,37.62,7.13,51.52,18.95l8.66-8.66C376.28,9.57,354.99,0,331.52,0 M287.46,41.39l8.46,8.45
	c9.08-9.21,21.68-14.92,35.6-14.92c13.85,0,26.4,5.67,35.47,14.79l8.4-8.41c-11.94-9.89-27.24-15.83-43.91-15.83
	C314.75,25.46,299.4,31.45,287.46,41.39"/>
<path fill="#FFFFFF" d="M0,248.03h25c6.47,0,11.32,1.79,14.56,5.38c3.23,3.59,4.89,8.9,4.96,15.93l0.21,42.41
	c0.07,8.93-1.48,15.65-4.64,20.15c-3.17,4.5-8.4,6.75-15.72,6.75H0V248.03z M21.42,322.61c3.3,0,4.96-1.62,4.96-4.85v-46.73
	c0-2.04-0.16-3.57-0.48-4.59c-0.32-1.02-0.9-1.7-1.74-2.06c-0.84-0.35-2.15-0.53-3.9-0.53h-2v58.76H21.42z"/>
<polygon fill="#FFFFFF" points="52.54,338.65 52.54,248.03 88.83,248.03 88.83,265.54 71,265.54 71,283.16 88.09,283.16 
	88.09,300.25 71,300.25 71,321.03 89.99,321.03 89.99,338.65 "/>
<polygon fill="#FFFFFF" points="97.05,338.65 97.05,248.03 115.2,248.03 115.2,323.25 133.87,323.25 133.87,338.65 "/>
<rect x="139.14" y="248.03" fill="#FFFFFF" width="17.51" height="90.62"/>
<polygon fill="#FFFFFF" points="173.32,338.65 162.14,247.92 179.44,247.92 186.09,309.64 192,247.92 209.3,247.92 198.11,338.65 
	"/>
<polygon fill="#FFFFFF" points="215.52,338.65 215.52,248.03 251.81,248.03 251.81,265.54 233.98,265.54 233.98,283.16 
	251.07,283.16 251.07,300.25 233.98,300.25 233.98,321.03 252.97,321.03 252.97,338.65 "/>
<path fill="#FFFFFF" d="M260.04,248.03h27.85c4.43,0,7.86,1,10.29,3.01c2.43,2,4.06,4.82,4.91,8.44c0.84,3.62,1.27,8.25,1.27,13.87
	c0,5.14-0.67,9.14-2,12.03c-1.34,2.88-3.66,4.89-6.96,6.01c2.74,0.56,4.73,1.93,5.96,4.11c1.23,2.18,1.85,5.13,1.85,8.86
	l-0.21,34.29h-17.72V303.2c0-2.53-0.49-4.15-1.48-4.85c-0.99-0.7-2.78-1.05-5.38-1.05v41.35h-18.36V248.03z M282.82,281.58
	c2.53,0,3.8-2.74,3.8-8.23c0-2.39-0.1-4.18-0.32-5.38c-0.21-1.2-0.6-2.02-1.16-2.48c-0.56-0.46-1.37-0.68-2.43-0.68h-4.22v16.77
	H282.82z"/>
<polygon fill="#FFFFFF" points="322.38,338.65 322.38,308.79 307.93,248.03 325.86,248.03 330.93,278.73 335.99,248.03 
	353.93,248.03 339.47,308.79 339.47,338.65 "/>
</svg>
