<?xml version="1.0" encoding="UTF-8"?>
<!DOCTYPE svg PUBLIC "-//W3C//DTD SVG 1.1//EN" "http://www.w3.org/Graphics/SVG/1.1/DTD/svg11.dtd">
<svg xmlns="http://www.w3.org/2000/svg" version="1.1" width="70px" height="70px" style="shape-rendering:geometricPrecision; text-rendering:geometricPrecision; image-rendering:optimizeQuality; fill-rule:evenodd; clip-rule:evenodd" xmlns:xlink="http://www.w3.org/1999/xlink">
<g><path style="opacity:0.861" fill="#563789" d="M 33.5,-0.5 C 33.8333,-0.5 34.1667,-0.5 34.5,-0.5C 35.5747,0.713431 36.2414,2.21343 36.5,4C 36.6906,5.97288 36.024,7.47288 34.5,8.5C 32.215,5.82222 31.8817,2.82222 33.5,-0.5 Z"/></g>
<g><path style="opacity:0.705" fill="#53338c" d="M 22.5,2.5 C 25.639,4.08503 27.3056,6.7517 27.5,10.5C 23.2792,9.30342 21.6125,6.63675 22.5,2.5 Z"/></g>
<g><path style="opacity:0.746" fill="#54328b" d="M 44.5,3.5 C 45.675,3.28099 46.675,3.61432 47.5,4.5C 46.4106,7.59015 44.4106,9.59015 41.5,10.5C 41.6878,7.79385 42.6878,5.46052 44.5,3.5 Z"/></g>
<g><path style="opacity:0.756" fill="#54328e" d="M 14.5,10.5 C 17.9706,11.2002 19.9706,13.2002 20.5,16.5C 18.2166,16.3921 16.2166,15.5588 14.5,14C 13.3157,12.8545 13.3157,11.6879 14.5,10.5 Z"/></g>
<g><path style="opacity:0.922" fill="#55338a" d="M 46.5,29.5 C 45.0937,29.9731 44.427,30.9731 44.5,32.5C 43.8333,32.5 43.5,32.8333 43.5,33.5C 41.9731,33.427 40.9731,34.0937 40.5,35.5C 36.5,36.8333 32.5,36.8333 28.5,35.5C 28.0269,34.0937 27.0269,33.427 25.5,33.5C 25.5,32.8333 25.1667,32.5 24.5,32.5C 24.573,30.9731 23.9063,29.9731 22.5,29.5C 20.8991,14.9365 27.2324,9.43653 41.5,13C 46.5061,17.5312 48.1727,23.0312 46.5,29.5 Z M 39.5,18.5 C 41.0281,18.5173 41.5281,19.184 41,20.5C 38,23.5 35,26.5 32,29.5C 30.6667,28.1667 29.3333,26.8333 28,25.5C 27.8073,21.7403 28.6407,21.5736 30.5,25C 34.3708,24.3318 37.3708,22.1651 39.5,18.5 Z"/></g>
<g><path style="opacity:0.751" fill="#533289" d="M 51.5,11.5 C 52.9778,11.238 54.3112,11.5713 55.5,12.5C 53.8232,14.7605 51.6566,16.4271 49,17.5C 48.3076,16.9747 47.8076,16.3081 47.5,15.5C 48.8665,14.16 50.1999,12.8267 51.5,11.5 Z"/></g>
<g><path style="opacity:0.894" fill="#503089" d="M 11.5,21.5 C 13.5273,21.3379 15.5273,21.5045 17.5,22C 18.8333,23 18.8333,24 17.5,25C 15.5,25.6667 13.5,25.6667 11.5,25C 10.3157,23.8545 10.3157,22.6879 11.5,21.5 Z"/></g>
<g><path style="opacity:0.72" fill="#53328f" d="M 50.5,22.5 C 53.3965,22.1253 56.0632,22.6253 58.5,24C 55.6513,25.7273 52.6513,25.894 49.5,24.5C 49.8627,23.8165 50.1961,23.1499 50.5,22.5 Z"/></g>
<g><path style="opacity:0.813" fill="#53328a" d="M 22.5,29.5 C 22.427,31.0269 23.0937,32.0269 24.5,32.5C 25.1667,32.5 25.5,32.8333 25.5,33.5C 25.9731,34.9063 26.9731,35.573 28.5,35.5C 30.1175,36.9723 32.1175,37.639 34.5,37.5C 36.8825,37.639 38.8825,36.9723 40.5,35.5C 42.0269,35.573 43.0269,34.9063 43.5,33.5C 44.1667,33.5 44.5,33.1667 44.5,32.5C 45.9063,32.0269 46.573,31.0269 46.5,29.5C 47.1499,29.1961 47.8165,28.8627 48.5,28.5C 51.6424,29.7201 54.309,31.3867 56.5,33.5C 55.209,33.2627 54.209,33.596 53.5,34.5C 52.209,34.2627 51.209,34.596 50.5,35.5C 49.5084,35.3284 48.8417,35.6618 48.5,36.5C 47.209,36.2627 46.209,36.596 45.5,37.5C 44.5084,37.3284 43.8417,37.6618 43.5,38.5C 42.209,38.2627 41.209,38.596 40.5,39.5C 38.4471,39.4021 36.7804,40.0687 35.5,41.5C 34.8333,41.5 34.1667,41.5 33.5,41.5C 32.2196,40.0687 30.5529,39.4021 28.5,39.5C 26.2084,37.7329 23.5418,36.7329 20.5,36.5C 20.1583,35.6618 19.4916,35.3284 18.5,35.5C 17.791,34.596 16.791,34.2627 15.5,34.5C 14.791,33.596 13.791,33.2627 12.5,33.5C 12.5774,32.2502 13.244,31.4169 14.5,31C 17.2592,29.656 19.9258,29.156 22.5,29.5 Z M 22.5,29.5 C 23.9063,29.9731 24.573,30.9731 24.5,32.5C 23.0937,32.0269 22.427,31.0269 22.5,29.5 Z M 46.5,29.5 C 46.573,31.0269 45.9063,32.0269 44.5,32.5C 44.427,30.9731 45.0937,29.9731 46.5,29.5 Z M 25.5,33.5 C 27.0269,33.427 28.0269,34.0937 28.5,35.5C 26.9731,35.573 25.9731,34.9063 25.5,33.5 Z M 43.5,33.5 C 43.0269,34.9063 42.0269,35.573 40.5,35.5C 40.9731,34.0937 41.9731,33.427 43.5,33.5 Z M 28.5,35.5 C 32.5,36.8333 36.5,36.8333 40.5,35.5C 38.8825,36.9723 36.8825,37.639 34.5,37.5C 32.1175,37.639 30.1175,36.9723 28.5,35.5 Z"/></g>
<g><path style="opacity:0.928" fill="#55348a" d="M 12.5,33.5 C 13.209,34.404 14.209,34.7373 15.5,34.5C 16.209,35.404 17.209,35.7373 18.5,35.5C 18.8417,36.3382 19.5084,36.6716 20.5,36.5C 22.7916,38.2671 25.4582,39.2671 28.5,39.5C 29.7804,40.9313 31.4471,41.5979 33.5,41.5C 33.1667,42.8333 32.8333,44.1667 32.5,45.5C 30.7497,46.6594 29.7497,48.326 29.5,50.5C 27.5,50.1667 25.5,49.8333 23.5,49.5C 23.1583,48.6618 22.4916,48.3284 21.5,48.5C 20.791,47.596 19.791,47.2627 18.5,47.5C 17.2196,46.0687 15.5529,45.4021 13.5,45.5C 11.0149,43.9924 8.34828,42.659 5.5,41.5C 6.52619,37.4855 8.85952,34.8189 12.5,33.5 Z"/></g>
<g><path style="opacity:0.911" fill="#56338b" d="M 56.5,33.5 C 60.1405,34.8189 62.4738,37.4855 63.5,41.5C 60.6517,42.659 57.9851,43.9924 55.5,45.5C 53.4471,45.4021 51.7804,46.0687 50.5,47.5C 49.209,47.2627 48.209,47.596 47.5,48.5C 46.5084,48.3284 45.8417,48.6618 45.5,49.5C 44.209,49.2627 43.209,49.596 42.5,50.5C 41.5,50.5 40.5,50.5 39.5,50.5C 39.6716,49.5084 39.3382,48.8417 38.5,48.5C 38.573,46.9731 37.9063,45.9731 36.5,45.5C 36.1667,44.1667 35.8333,42.8333 35.5,41.5C 37.5529,41.5979 39.2196,40.9313 40.5,39.5C 41.791,39.7373 42.791,39.404 43.5,38.5C 44.4916,38.6716 45.1583,38.3382 45.5,37.5C 46.791,37.7373 47.791,37.404 48.5,36.5C 49.4916,36.6716 50.1583,36.3382 50.5,35.5C 51.791,35.7373 52.791,35.404 53.5,34.5C 54.791,34.7373 55.791,34.404 56.5,33.5 Z"/></g>
<g><path style="opacity:0.949" fill="#54348a" d="M 13.5,45.5 C 14.7804,46.9313 16.4471,47.5979 18.5,47.5C 19.209,48.404 20.209,48.7373 21.5,48.5C 21.8417,49.3382 22.5084,49.6716 23.5,49.5C 25.32,51.4611 27.32,51.7944 29.5,50.5C 31.2503,49.3406 32.2503,47.674 32.5,45.5C 33.492,52.9818 33.8254,60.6484 33.5,68.5C 25.9818,66.4106 18.6485,63.7439 11.5,60.5C 10.5059,55.544 10.1725,50.544 10.5,45.5C 11.5,45.5 12.5,45.5 13.5,45.5 Z M 13.5,45.5 C 15.5529,45.4021 17.2196,46.0687 18.5,47.5C 16.4471,47.5979 14.7804,46.9313 13.5,45.5 Z M 32.5,45.5 C 32.2503,47.674 31.2503,49.3406 29.5,50.5C 29.7497,48.326 30.7497,46.6594 32.5,45.5 Z M 23.5,49.5 C 25.5,49.8333 27.5,50.1667 29.5,50.5C 27.32,51.7944 25.32,51.4611 23.5,49.5 Z"/></g>
<g><path style="opacity:0.949" fill="#55348a" d="M 36.5,45.5 C 36.427,47.0269 37.0937,48.0269 38.5,48.5C 38.3284,49.4916 38.6618,50.1583 39.5,50.5C 39.9567,52.5567 40.9567,52.5567 42.5,50.5C 43.791,50.7373 44.791,50.404 45.5,49.5C 46.4916,49.6716 47.1583,49.3382 47.5,48.5C 48.791,48.7373 49.791,48.404 50.5,47.5C 52.5529,47.5979 54.2196,46.9313 55.5,45.5C 56.5,45.5 57.5,45.5 58.5,45.5C 58.8275,50.544 58.4941,55.544 57.5,60.5C 50.3171,63.3299 43.3171,66.3299 36.5,69.5C 36.1667,69.5 35.8333,69.5 35.5,69.5C 35.1743,61.3159 35.5076,53.3159 36.5,45.5 Z M 55.5,45.5 C 54.2196,46.9313 52.5529,47.5979 50.5,47.5C 51.7804,46.0687 53.4471,45.4021 55.5,45.5 Z M 36.5,45.5 C 37.9063,45.9731 38.573,46.9731 38.5,48.5C 37.0937,48.0269 36.427,47.0269 36.5,45.5 Z M 39.5,50.5 C 40.5,50.5 41.5,50.5 42.5,50.5C 40.9567,52.5567 39.9567,52.5567 39.5,50.5 Z"/></g>
</svg>
