<?xml version="1.0" encoding="UTF-8"?>
<!DOCTYPE svg PUBLIC "-//W3C//DTD SVG 1.1//EN" "http://www.w3.org/Graphics/SVG/1.1/DTD/svg11.dtd">
<svg xmlns="http://www.w3.org/2000/svg" version="1.1" width="35px" height="35px" style="shape-rendering:geometricPrecision; text-rendering:geometricPrecision; image-rendering:optimizeQuality; fill-rule:evenodd; clip-rule:evenodd" xmlns:xlink="http://www.w3.org/1999/xlink">
<g><path style="opacity:0.681" fill="#54328a" d="M 13.5,0.5 C 18.9224,2.3778 23.9224,5.04447 28.5,8.5C 29.3253,12.1224 29.8253,15.789 30,19.5C 34.4069,23.5216 34.5736,27.6883 30.5,32C 26.6123,34.2225 23.1123,33.7225 20,30.5C 18.3232,31.5159 16.6565,32.5159 15,33.5C 10.1866,31.0932 5.51989,28.4265 1,25.5C 0.333333,19.8333 0.333333,14.1667 1,8.5C 5.60944,6.36464 9.77611,3.69797 13.5,0.5 Z M 14.5,2.5 C 18.1391,4.65518 21.8057,6.82184 25.5,9C 24.2713,10.5292 22.7713,11.6959 21,12.5C 17.9223,10.0446 14.7556,7.71129 11.5,5.5C 12.7701,4.71237 13.7701,3.71237 14.5,2.5 Z M 7.5,6.5 C 11.2625,8.41269 14.9291,10.5794 18.5,13C 16.537,15.8757 14.2036,16.2091 11.5,14C 8.99058,12.5787 6.65725,10.9121 4.5,9C 5.94227,8.62325 6.94227,7.78991 7.5,6.5 Z M 2.5,11.5 C 6.18939,13.0969 9.68939,15.0969 13,17.5C 13.8265,21.5411 13.6599,25.5411 12.5,29.5C 9.33883,28.0869 6.33883,26.4203 3.5,24.5C 2.50776,20.2172 2.17443,15.8839 2.5,11.5 Z M 21.5,19.5 C 20.7021,15.2971 22.3688,12.6305 26.5,11.5C 27.4742,13.7427 27.8076,16.076 27.5,18.5C 25.3792,18.3253 23.3792,18.6586 21.5,19.5 Z M 21.5,19.5 C 19.5341,23.1058 17.7007,26.7725 16,30.5C 15.1725,26.1287 15.3391,21.7953 16.5,17.5C 17.4776,17.0233 18.3109,16.3567 19,15.5C 19.1216,17.437 19.955,18.7703 21.5,19.5 Z M 23.5,20.5 C 25.7505,20.1814 27.7505,20.6814 29.5,22C 27.8946,23.3603 26.3946,24.8603 25,26.5C 23.9153,24.3426 22.7487,24.1759 21.5,26C 22.6667,27.1667 23.8333,28.3333 25,29.5C 27.0435,27.792 28.7101,25.792 30,23.5C 31.9622,27.5789 30.6289,30.2456 26,31.5C 19.7479,29.0735 18.9146,25.4068 23.5,20.5 Z"/></g>
</svg>
