<?xml version="1.0" encoding="UTF-8"?>
<!DOCTYPE svg PUBLIC "-//W3C//DTD SVG 1.1//EN" "http://www.w3.org/Graphics/SVG/1.1/DTD/svg11.dtd">
<svg xmlns="http://www.w3.org/2000/svg" version="1.1" width="512px" height="512px" style="shape-rendering:geometricPrecision; text-rendering:geometricPrecision; image-rendering:optimizeQuality; fill-rule:evenodd; clip-rule:evenodd" xmlns:xlink="http://www.w3.org/1999/xlink">
<g><path style="opacity:0.977" fill="#000000" d="M 128.5,29.5 C 135.663,28.608 141.497,30.9413 146,36.5C 164.667,67.8333 183.333,99.1667 202,130.5C 203.629,134.014 204.795,137.68 205.5,141.5C 203.837,147.829 201.337,153.829 198,159.5C 187.158,178.516 176.824,197.849 167,217.5C 165.97,222.28 166.97,226.613 170,230.5C 206.833,267.333 243.667,304.167 280.5,341C 284.387,344.03 288.72,345.03 293.5,344C 316.833,331.667 340.167,319.333 363.5,307C 369.443,304.918 375.109,305.585 380.5,309C 411.833,327.667 443.167,346.333 474.5,365C 481.379,370.821 483.212,377.988 480,386.5C 470.115,408.269 460.782,430.269 452,452.5C 445.294,463.448 435.794,470.948 423.5,475C 407.974,480.551 391.974,482.551 375.5,481C 345.142,476.881 316.476,467.548 289.5,453C 233.288,421.158 183.121,381.325 139,333.5C 110.344,302.508 85.3437,268.842 64,232.5C 46.103,202.476 34.7697,170.143 30,135.5C 27.5867,113.374 31.92,92.7073 43,73.5C 46.1311,69.3672 49.6311,65.5338 53.5,62C 78.5694,51.1271 103.569,40.2938 128.5,29.5 Z"/></g>
</svg>
