<?xml version="1.0" encoding="UTF-8"?>
<!DOCTYPE svg PUBLIC "-//W3C//DTD SVG 1.1//EN" "http://www.w3.org/Graphics/SVG/1.1/DTD/svg11.dtd">
<svg xmlns="http://www.w3.org/2000/svg" version="1.1" width="70px" height="70px" style="shape-rendering:geometricPrecision; text-rendering:geometricPrecision; image-rendering:optimizeQuality; fill-rule:evenodd; clip-rule:evenodd" xmlns:xlink="http://www.w3.org/1999/xlink">
<g><path style="opacity:0.931" fill="#54348a" d="M 9.5,1.5 C 25.8367,1.3334 42.1701,1.50007 58.5,2C 63,3.16667 65.8333,6 67,10.5C 67.6667,22.1667 67.6667,33.8333 67,45.5C 66.5,47.3333 65.3333,48.5 63.5,49C 59.5138,49.4988 55.5138,49.6655 51.5,49.5C 51.6658,54.1785 51.4992,58.8452 51,63.5C 50.5,65.3333 49.3333,66.5 47.5,67C 33.5,67.6667 19.5,67.6667 5.5,67C 4.58377,66.6258 3.75044,66.1258 3,65.5C 1.36024,47.2572 1.02691,28.9239 2,10.5C 2.92275,6.08561 5.42275,3.08561 9.5,1.5 Z M 53.5,8.5 C 56.0444,8.10433 58.2111,8.77099 60,10.5C 60.4998,21.495 60.6665,32.495 60.5,43.5C 57.5,43.5 54.5,43.5 51.5,43.5C 51.3335,32.495 51.5002,21.495 52,10.5C 52.7172,9.9558 53.2172,9.28913 53.5,8.5 Z M 15.5,17.5 C 22.8409,17.3337 30.1742,17.5003 37.5,18C 38.8333,19 38.8333,20 37.5,21C 30.1667,21.6667 22.8333,21.6667 15.5,21C 14.3157,19.8545 14.3157,18.6879 15.5,17.5 Z M 24.5,33.5 C 25.8333,33.5 27.1667,33.5 28.5,33.5C 28.6662,39.8421 28.4995,46.1754 28,52.5C 27,53.8333 26,53.8333 25,52.5C 24.5005,46.1754 24.3338,39.8421 24.5,33.5 Z M 36.5,38.5 C 37.4959,38.4142 38.3292,38.7476 39,39.5C 39.6667,43.8333 39.6667,48.1667 39,52.5C 38,53.8333 37,53.8333 36,52.5C 35.2266,47.7481 35.3932,43.0815 36.5,38.5 Z M 14.5,41.5 C 15.4959,41.4142 16.3292,41.7476 17,42.5C 17.6667,45.8333 17.6667,49.1667 17,52.5C 16,53.8333 15,53.8333 14,52.5C 13.2446,48.7446 13.4113,45.0779 14.5,41.5 Z"/></g>
</svg>
