<?xml version="1.0" encoding="UTF-8"?>
<!DOCTYPE svg PUBLIC "-//W3C//DTD SVG 1.1//EN" "http://www.w3.org/Graphics/SVG/1.1/DTD/svg11.dtd">
<svg xmlns="http://www.w3.org/2000/svg" version="1.1" width="238px" height="238px" style="shape-rendering:geometricPrecision; text-rendering:geometricPrecision; image-rendering:optimizeQuality; fill-rule:evenodd; clip-rule:evenodd" xmlns:xlink="http://www.w3.org/1999/xlink">
<g><path style="opacity:0.32" fill="#d9dada" d="M 148.5,38.5 C 147.784,36.4437 147.117,34.277 146.5,32C 139.167,31.3333 131.833,31.3333 124.5,32C 121.767,32.9042 119.433,34.4042 117.5,36.5C 118.591,33.5722 120.591,31.4055 123.5,30C 122.081,24.7383 120.081,19.7383 117.5,15C 104.352,16.7644 91.5183,19.931 79,24.5C 78.8333,26 78.6667,27.5 78.5,29C 79.7546,35.1848 81.0879,41.3515 82.5,47.5C 81.8333,47.5 81.1667,47.5 80.5,47.5C 79.1733,41.181 77.84,34.8477 76.5,28.5C 76.4035,26.0741 77.0702,23.9074 78.5,22C 89.539,19.1568 100.539,16.1568 111.5,13C 115.18,11.9726 118.347,12.8059 121,15.5C 122.642,20.4023 123.809,25.4023 124.5,30.5C 132.174,30.3336 139.841,30.5003 147.5,31C 148.435,33.3806 148.768,35.8806 148.5,38.5 Z"/></g>
<g><path style="opacity:0.999" fill="#fdfdfd" d="M 208.5,36.5 C 208.667,97.8342 208.5,159.168 208,220.5C 206.293,223.59 203.793,225.59 200.5,226.5C 174.122,226.815 147.789,226.482 121.5,225.5C 120.833,225.167 120.167,224.833 119.5,224.5C 117.983,216.593 117.316,208.593 117.5,200.5C 122.021,197.31 126.521,193.976 131,190.5C 132.337,186.974 132.837,183.308 132.5,179.5C 142.167,179.5 151.833,179.5 161.5,179.5C 161.5,161.5 161.5,143.5 161.5,125.5C 149.087,125.187 136.753,125.521 124.5,126.5C 122.527,123.861 120.194,121.527 117.5,119.5C 117.5,91.8333 117.5,64.1667 117.5,36.5C 119.433,34.4042 121.767,32.9042 124.5,32C 131.833,31.3333 139.167,31.3333 146.5,32C 147.117,34.277 147.784,36.4437 148.5,38.5C 158.757,39.6408 169.09,39.8075 179.5,39C 180.218,36.5393 180.885,34.0393 181.5,31.5C 188.811,30.3354 196.144,30.1687 203.5,31C 206.079,32.0757 207.746,33.909 208.5,36.5 Z"/></g>
<g><path style="opacity:0.075" fill="#e2e2e2" d="M 109.5,29.5 C 110.117,29.6107 110.617,29.944 111,30.5C 111.824,33.8823 111.657,37.2156 110.5,40.5C 106.066,41.8543 101.732,43.3543 97.5,45C 102.467,44.1764 107.467,43.5097 112.5,43C 107.26,45.8553 101.76,47.022 96,46.5C 94.6667,43.1667 93.3333,39.8333 92,36.5C 90.8289,35.1068 89.3289,34.2735 87.5,34C 89.5723,31.8515 91.4056,32.0182 93,34.5C 98.5255,32.5819 104.026,30.9152 109.5,29.5 Z M 107.5,31.5 C 109.154,33.5597 110.154,36.0597 110.5,39C 106.267,39.9333 102.1,41.1 98,42.5C 95.8001,41.1332 94.3001,39.1332 93.5,36.5C 98.2597,34.8194 102.926,33.1527 107.5,31.5 Z"/></g>
<g><path style="opacity:0.116" fill="#dfdfdf" d="M 108.5,45.5 C 111.166,45.0658 112.333,46.0658 112,48.5C 108.403,50.0661 107.237,49.0661 108.5,45.5 Z"/></g>
<g><path style="opacity:1" fill="#7e64a6" d="M 199.5,45.5 C 200.5,45.5 201.5,45.5 202.5,45.5C 202.5,46.5 202.5,47.5 202.5,48.5C 201.5,48.5 200.5,48.5 199.5,48.5C 199.5,47.5 199.5,46.5 199.5,45.5 Z"/></g>
<g><path style="opacity:0.961" fill="#352056" d="M 80.5,47.5 C 81.1667,47.5 81.8333,47.5 82.5,47.5C 91.3195,47.9931 97.3195,52.3264 100.5,60.5C 100.5,61.1667 100.5,61.8333 100.5,62.5C 101.689,66.676 101.356,70.676 99.5,74.5C 98.197,72.8577 96.8637,71.1911 95.5,69.5C 89.2569,61.2764 81.0903,55.6098 71,52.5C 69.9701,52.1639 69.4701,51.4972 69.5,50.5C 72.0279,51.3989 74.5279,52.3989 77,53.5C 77.6172,52.5509 77.4506,51.7175 76.5,51C 74.9751,49.9914 73.3084,49.4914 71.5,49.5C 74.1709,47.8819 77.1709,47.2153 80.5,47.5 Z"/></g>
<g><path style="opacity:0.959" fill="#553389" d="M 69.5,50.5 C 69.4701,51.4972 69.9701,52.1639 71,52.5C 81.0903,55.6098 89.2569,61.2764 95.5,69.5C 93.9382,69.2671 92.6049,68.6005 91.5,67.5C 88.5063,65.0002 85.173,63.0002 81.5,61.5C 81.0825,60.7784 80.4158,60.2784 79.5,60C 75.1667,59.3333 70.8333,59.3333 66.5,60C 65.0577,60.3768 64.0577,61.2101 63.5,62.5C 62.6618,62.8417 62.3284,63.5084 62.5,64.5C 57.6066,62.1099 53.4399,58.7766 50,54.5C 50.1851,50.3127 52.5185,47.9794 57,47.5C 61.1384,48.6937 65.3051,49.6937 69.5,50.5 Z"/></g>
<g><path style="opacity:0.17" fill="#e2e2e2" d="M 98.5,48.5 C 99.8333,48.5 101.167,48.5 102.5,48.5C 102.5,49.8333 102.5,51.1667 102.5,52.5C 101.167,52.5 99.8333,52.5 98.5,52.5C 98.5,51.1667 98.5,49.8333 98.5,48.5 Z"/></g>
<g><path style="opacity:1" fill="#d5d1db" d="M 69.5,50.5 C 69.8417,49.6618 70.5084,49.3284 71.5,49.5C 73.3084,49.4914 74.9751,49.9914 76.5,51C 77.4506,51.7175 77.6172,52.5509 77,53.5C 74.5279,52.3989 72.0279,51.3989 69.5,50.5 Z"/></g>
<g><path style="opacity:0.943" fill="#eaeaea" d="M 64.5,112.5 C 60.5654,115.143 56.5654,117.81 52.5,120.5C 49.6996,128.068 47.1996,135.735 45,143.5C 44.6174,144.056 44.1174,144.389 43.5,144.5C 43.1667,144.5 42.8333,144.5 42.5,144.5C 41.8333,144.5 41.1667,144.5 40.5,144.5C 38.7299,143.236 37.0632,141.736 35.5,140C 33.8067,139.516 32.4733,140.016 31.5,141.5C 27.6093,140.146 23.9426,138.312 20.5,136C 16.6782,133.448 16.0116,130.448 18.5,127C 21.7527,125.964 25.086,125.297 28.5,125C 22.297,122.628 17.9636,118.461 15.5,112.5C 15.8333,111.5 16.1667,110.5 16.5,109.5C 20.2268,108.332 23.8935,107.165 27.5,106C 21.9081,101.62 16.4081,97.1196 11,92.5C 10.1041,89.975 10.6041,87.8083 12.5,86C 15.146,85.5026 17.8127,85.3359 20.5,85.5C 16.7083,77.1256 13.7083,68.4589 11.5,59.5C 12.9305,51.5995 16.4305,50.5995 22,56.5C 25.8579,64.2432 29.0246,72.2432 31.5,80.5C 33.9124,78.9015 36.4124,77.5682 39,76.5C 41.1879,76.354 42.5212,77.354 43,79.5C 42.6815,86.5995 41.5148,93.5995 39.5,100.5C 39.8333,100.833 40.1667,101.167 40.5,101.5C 50.9251,93.2927 55.4251,95.626 54,108.5C 53.5477,111.149 52.7143,113.649 51.5,116C 51.8333,116.167 52.1667,116.333 52.5,116.5C 54.9281,113.902 57.7614,111.902 61,110.5C 62.4595,110.808 63.6261,111.475 64.5,112.5 Z"/></g>
<g><path style="opacity:0.844" fill="#b7bbbd" d="M 117.5,36.5 C 117.5,64.1667 117.5,91.8333 117.5,119.5C 116.662,119.158 116.328,118.492 116.5,117.5C 116.5,97.8333 116.5,78.1667 116.5,58.5C 110.993,59.2264 105.659,60.5597 100.5,62.5C 100.5,61.8333 100.5,61.1667 100.5,60.5C 105.51,59.3304 110.51,57.9971 115.5,56.5C 116.167,49.6786 116.833,43.0119 117.5,36.5 Z"/></g>
<g><path style="opacity:1" fill="#313641" d="M 81.5,61.5 C 76.9555,62.2305 72.4555,63.2305 68,64.5C 66.167,64.4814 64.667,63.8148 63.5,62.5C 64.0577,61.2101 65.0577,60.3768 66.5,60C 70.8333,59.3333 75.1667,59.3333 79.5,60C 80.4158,60.2784 81.0825,60.7784 81.5,61.5 Z"/></g>
<g><path style="opacity:0.984" fill="#faba9a" d="M 81.5,61.5 C 85.173,63.0002 88.5063,65.0002 91.5,67.5C 91.0801,72.5116 90.9134,77.5116 91,82.5C 91.7175,83.4506 92.5509,83.6172 93.5,83C 94.0998,79.5643 96.0998,77.731 99.5,77.5C 100.117,77.6107 100.617,77.944 101,78.5C 101.667,81.1667 101.667,83.8333 101,86.5C 99.9887,87.3366 98.8221,87.67 97.5,87.5C 97.7059,91.8982 97.3726,96.2315 96.5,100.5C 91.4372,106.196 85.7706,111.196 79.5,115.5C 76.7212,115.721 74.0545,115.388 71.5,114.5C 70.7929,111.214 70.4595,107.881 70.5,104.5C 69.7813,102.112 68.1146,100.612 65.5,100C 63.6217,98.4571 62.1217,96.6238 61,94.5C 60.4235,84.4003 60.9235,74.4003 62.5,64.5C 62.3284,63.5084 62.6618,62.8417 63.5,62.5C 64.667,63.8148 66.167,64.4814 68,64.5C 72.4555,63.2305 76.9555,62.2305 81.5,61.5 Z"/></g>
<g><path style="opacity:1" fill="#70615a" d="M 66.5,66.5 C 68.1033,66.3118 69.4366,66.8118 70.5,68C 68.8333,68.6667 67.1667,68.6667 65.5,68C 66.056,67.6174 66.3893,67.1174 66.5,66.5 Z"/></g>
<g><path style="opacity:1" fill="#6e6059" d="M 79.5,66.5 C 81.7505,66.1814 83.7505,66.6814 85.5,68C 84.5,68.1667 83.5,68.3333 82.5,68.5C 80.9704,68.3601 79.9704,67.6935 79.5,66.5 Z"/></g>
<g><path style="opacity:1" fill="#f2f2f2" d="M 125.5,67.5 C 137.5,67.5 149.5,67.5 161.5,67.5C 161.5,85.5 161.5,103.5 161.5,121.5C 149.5,121.5 137.5,121.5 125.5,121.5C 125.5,103.5 125.5,85.5 125.5,67.5 Z"/></g>
<g><path style="opacity:1" fill="#f2f1f2" d="M 164.5,67.5 C 176.5,67.5 188.5,67.5 200.5,67.5C 200.5,82.1667 200.5,96.8333 200.5,111.5C 188.5,111.5 176.5,111.5 164.5,111.5C 164.5,96.8333 164.5,82.1667 164.5,67.5 Z"/></g>
<g><path style="opacity:1" fill="#353b3f" d="M 91.5,67.5 C 92.6049,68.6005 93.9382,69.2671 95.5,69.5C 96.8637,71.1911 98.197,72.8577 99.5,74.5C 99.5,75.5 99.5,76.5 99.5,77.5C 96.0998,77.731 94.0998,79.5643 93.5,83C 92.5509,83.6172 91.7175,83.4506 91,82.5C 90.9134,77.5116 91.0801,72.5116 91.5,67.5 Z"/></g>
<g><path style="opacity:1" fill="#867064" d="M 80.5,70.5 C 84.9761,70.6428 85.6427,72.3094 82.5,75.5C 81.7702,74.0663 80.7702,72.8996 79.5,72C 80.056,71.6174 80.3893,71.1174 80.5,70.5 Z"/></g>
<g><path style="opacity:1" fill="#826d63" d="M 66.5,70.5 C 67.9217,70.7086 69.255,71.2086 70.5,72C 69.2298,72.8996 68.2298,74.0663 67.5,75.5C 66.0271,73.8311 65.6938,72.1645 66.5,70.5 Z"/></g>
<g><path style="opacity:1" fill="#563789" d="M 178.5,79.5 C 185.968,78.3183 191.968,80.6516 196.5,86.5C 195.975,87.1924 195.308,87.6924 194.5,88C 187.167,88.6667 179.833,88.6667 172.5,88C 171.549,87.2825 171.383,86.4491 172,85.5C 173.914,83.1435 176.081,81.1435 178.5,79.5 Z"/></g>
<g><path style="opacity:1" fill="#604192" d="M 138.5,84.5 C 140.954,84.3205 143.121,84.9872 145,86.5C 145.873,86.2645 146.707,85.9312 147.5,85.5C 148.8,90.0503 148.8,94.5503 147.5,99C 144.104,101.036 140.938,100.869 138,98.5C 137.227,93.7481 137.393,89.0815 138.5,84.5 Z"/></g>
<g><path style="opacity:1" fill="#b1b5b7" d="M 172.5,96.5 C 174.167,96.5 175.833,96.5 177.5,96.5C 177.766,100.079 179.099,100.413 181.5,97.5C 182.5,97.8333 183.167,98.5 183.5,99.5C 182.167,99.8333 180.833,100.167 179.5,100.5C 177.326,99.9563 175.326,99.9563 173.5,100.5C 172.571,99.3112 172.238,97.9778 172.5,96.5 Z"/></g>
<g><path style="opacity:0.998" fill="#56358a" d="M 96.5,100.5 C 101.916,107.578 108.583,113.245 116.5,117.5C 116.328,118.492 116.662,119.158 117.5,119.5C 120.194,121.527 122.527,123.861 124.5,126.5C 127.021,133.935 128.854,141.601 130,149.5C 130.789,151.712 130.622,153.712 129.5,155.5C 123.245,157.123 116.911,158.456 110.5,159.5C 111.182,165.827 111.348,172.161 111,178.5C 102.623,185.05 94.1227,191.384 85.5,197.5C 86.1795,182.503 86.3461,167.503 86,152.5C 84.955,151.627 84.1217,150.627 83.5,149.5C 80.3484,150.041 77.8484,149.041 76,146.5C 75.9428,143.149 75.1094,140.149 73.5,137.5C 73.7947,135.265 73.4614,133.265 72.5,131.5C 71.1568,126.922 68.1568,125.422 63.5,127C 60.5484,131.021 58.8818,135.521 58.5,140.5C 54.8333,140.5 51.1667,140.5 47.5,140.5C 48.2295,145.13 48.5628,149.797 48.5,154.5C 42.4832,153.864 36.4832,153.031 30.5,152C 28.1027,150.29 28.1027,148.456 30.5,146.5C 31.391,145.89 32.391,145.557 33.5,145.5C 36.1316,147.063 38.4649,146.73 40.5,144.5C 41.1667,144.5 41.8333,144.5 42.5,144.5C 42.8333,145.833 43.1667,145.833 43.5,144.5C 44.1174,144.389 44.6174,144.056 45,143.5C 47.1996,135.735 49.6996,128.068 52.5,120.5C 56.5654,117.81 60.5654,115.143 64.5,112.5C 66.5,109.833 68.5,107.167 70.5,104.5C 70.4595,107.881 70.7929,111.214 71.5,114.5C 69.8987,116.853 67.8987,119.02 65.5,121C 67.9034,121.63 69.7367,120.797 71,118.5C 71.5691,122.361 72.4024,122.361 73.5,118.5C 75.2289,120.851 75.8956,123.518 75.5,126.5C 71.8284,127.045 72.1617,127.378 76.5,127.5C 76.281,126.325 76.6143,125.325 77.5,124.5C 82.2545,127.251 86.9211,127.084 91.5,124C 96.0514,120.049 98.8847,115.216 100,109.5C 95.4657,113.699 91.299,118.199 87.5,123C 81.7187,124.616 77.3854,122.616 74.5,117C 76.3817,116.802 78.0484,116.302 79.5,115.5C 85.7706,111.196 91.4372,106.196 96.5,100.5 Z"/></g>
<g><path style="opacity:1" fill="#a7acae" d="M 135.5,108.5 C 136.75,108.577 137.583,109.244 138,110.5C 139.841,107.919 141.674,107.919 143.5,110.5C 140.914,111.48 138.247,111.813 135.5,111.5C 135.5,110.5 135.5,109.5 135.5,108.5 Z"/></g>
<g><path style="opacity:1" fill="#402967" d="M 71.5,114.5 C 74.0545,115.388 76.7212,115.721 79.5,115.5C 78.0484,116.302 76.3817,116.802 74.5,117C 77.3854,122.616 81.7187,124.616 87.5,123C 91.299,118.199 95.4657,113.699 100,109.5C 98.8847,115.216 96.0514,120.049 91.5,124C 86.9211,127.084 82.2545,127.251 77.5,124.5C 76.6143,125.325 76.281,126.325 76.5,127.5C 72.1617,127.378 71.8284,127.045 75.5,126.5C 75.8956,123.518 75.2289,120.851 73.5,118.5C 72.4024,122.361 71.5691,122.361 71,118.5C 69.7367,120.797 67.9034,121.63 65.5,121C 67.8987,119.02 69.8987,116.853 71.5,114.5 Z"/></g>
<g><path style="opacity:1" fill="#f2f2f3" d="M 164.5,115.5 C 176.5,115.5 188.5,115.5 200.5,115.5C 200.5,132.167 200.5,148.833 200.5,165.5C 188.5,165.5 176.5,165.5 164.5,165.5C 164.5,148.833 164.5,132.167 164.5,115.5 Z"/></g>
<g><path style="opacity:1" fill="#f1f1f2" d="M 132.5,179.5 C 132.493,176.962 132.159,174.462 131.5,172C 132.378,170.2 133.045,168.367 133.5,166.5C 132.5,166.5 131.5,166.5 130.5,166.5C 130.058,162.846 129.724,159.179 129.5,155.5C 130.622,153.712 130.789,151.712 130,149.5C 128.854,141.601 127.021,133.935 124.5,126.5C 136.753,125.521 149.087,125.187 161.5,125.5C 161.5,143.5 161.5,161.5 161.5,179.5C 151.833,179.5 142.167,179.5 132.5,179.5 Z"/></g>
<g><path style="opacity:1" fill="#455964" d="M 72.5,131.5 C 72.5,139.5 72.5,147.5 72.5,155.5C 69.4606,156.01 66.4606,156.677 63.5,157.5C 62.2774,154.726 60.7774,152.059 59,149.5C 59.1141,146.314 58.9474,143.314 58.5,140.5C 58.8818,135.521 60.5484,131.021 63.5,127C 68.1568,125.422 71.1568,126.922 72.5,131.5 Z"/></g>
<g><path style="opacity:1" fill="#5a6a76" d="M 145.5,143.5 C 144.295,144.686 142.961,144.686 141.5,143.5C 140.164,141.99 138.997,140.323 138,138.5C 137.251,137.365 137.417,136.365 138.5,135.5C 142.247,137.033 144.581,139.7 145.5,143.5 Z"/></g>
<g><path style="opacity:1" fill="#593c87" d="M 172.5,127.5 C 177.136,136.977 184.136,138.977 193.5,133.5C 194.266,137.951 192.266,140.784 187.5,142C 175.981,143.646 170.981,138.812 172.5,127.5 Z"/></g>
<g><path style="opacity:1" fill="#3c2462" d="M 73.5,137.5 C 75.1094,140.149 75.9428,143.149 76,146.5C 77.8484,149.041 80.3484,150.041 83.5,149.5C 84.1217,150.627 84.955,151.627 86,152.5C 86.3461,167.503 86.1795,182.503 85.5,197.5C 85.0269,198.906 84.0269,199.573 82.5,199.5C 82.5,183.833 82.5,168.167 82.5,152.5C 79.4552,152.492 76.4552,152.159 73.5,151.5C 73.5,146.833 73.5,142.167 73.5,137.5 Z"/></g>
<g><path style="opacity:1" fill="#495c65" d="M 40.5,144.5 C 38.4649,146.73 36.1316,147.063 33.5,145.5C 32.8333,144.167 32.1667,142.833 31.5,141.5C 32.4733,140.016 33.8067,139.516 35.5,140C 37.0632,141.736 38.7299,143.236 40.5,144.5 Z"/></g>
<g><path style="opacity:1" fill="#58388d" d="M 141.5,143.5 C 142.961,144.686 144.295,144.686 145.5,143.5C 151.08,142.767 154.08,145.101 154.5,150.5C 152.657,162.805 146.49,165.805 136,159.5C 134.239,156.551 133.072,153.384 132.5,150C 133.372,144.969 136.372,142.802 141.5,143.5 Z"/></g>
<g><path style="opacity:1" fill="#f0f0f1" d="M 58.5,140.5 C 58.9474,143.314 59.1141,146.314 59,149.5C 60.7774,152.059 62.2774,154.726 63.5,157.5C 58.3039,156.861 53.3039,155.861 48.5,154.5C 48.5628,149.797 48.2295,145.13 47.5,140.5C 51.1667,140.5 54.8333,140.5 58.5,140.5 Z"/></g>
<g><path style="opacity:1" fill="#f1eef5" d="M 83.5,149.5 C 83.5,148.167 83.5,146.833 83.5,145.5C 87.4659,146.162 91.4659,146.495 95.5,146.5C 95.5,147.833 95.5,149.167 95.5,150.5C 91.5,150.167 87.5,149.833 83.5,149.5 Z"/></g>
<g><path style="opacity:0.992" fill="#331f53" d="M 72.5,131.5 C 73.4614,133.265 73.7947,135.265 73.5,137.5C 73.5,142.167 73.5,146.833 73.5,151.5C 76.4552,152.159 79.4552,152.492 82.5,152.5C 82.5,168.167 82.5,183.833 82.5,199.5C 79.7084,203.12 76.0417,205.287 71.5,206C 67.9441,210.059 63.9441,213.559 59.5,216.5C 58.6143,217.325 58.281,218.325 58.5,219.5C 61.9559,219.404 65.1226,218.404 68,216.5C 68.3333,216.833 68.6667,217.167 69,217.5C 68.0105,221.967 66.5105,226.3 64.5,230.5C 61.1849,229.671 57.8516,228.838 54.5,228C 41.8333,227.667 29.1667,227.333 16.5,227C 25.8333,226.667 35.1667,226.333 44.5,226C 34.1893,223.339 23.856,220.839 13.5,218.5C 13.5,215.167 13.5,211.833 13.5,208.5C 14.9723,206.883 15.639,204.883 15.5,202.5C 15.4892,200.955 15.1558,199.622 14.5,198.5C 15.9441,182.172 17.4441,165.839 19,149.5C 22.7386,148.185 26.572,147.185 30.5,146.5C 28.1027,148.456 28.1027,150.29 30.5,152C 36.4832,153.031 42.4832,153.864 48.5,154.5C 53.3039,155.861 58.3039,156.861 63.5,157.5C 66.4606,156.677 69.4606,156.01 72.5,155.5C 72.5,147.5 72.5,139.5 72.5,131.5 Z"/></g>
<g><path style="opacity:1" fill="#a3a7aa" d="M 173.5,152.5 C 174.566,151.308 175.399,151.641 176,153.5C 177.401,151.808 179.234,151.141 181.5,151.5C 181.5,152.5 181.5,153.5 181.5,154.5C 178.467,154.868 175.8,154.202 173.5,152.5 Z"/></g>
<g><path style="opacity:0.935" fill="#e3e5e5" d="M 208.5,36.5 C 209.222,36.9175 209.722,37.5842 210,38.5C 210.333,81.5 210.667,124.5 211,167.5C 211.962,161.726 214.795,157.226 219.5,154C 225.352,151.96 228.685,153.96 229.5,160C 226.785,166.602 223.452,172.769 219.5,178.5C 231.472,177.278 233.472,181.112 225.5,190C 222.337,192.416 219.004,194.582 215.5,196.5C 214.571,197.689 214.238,199.022 214.5,200.5C 217.425,200.54 220.091,199.707 222.5,198C 230.564,196.399 233.397,199.566 231,207.5C 226.148,216.003 219.315,222.336 210.5,226.5C 207.167,226.5 203.833,226.5 200.5,226.5C 203.793,225.59 206.293,223.59 208,220.5C 208.5,159.168 208.667,97.8342 208.5,36.5 Z"/></g>
<g><path style="opacity:1" fill="#fcbc9c" d="M 129.5,155.5 C 129.724,159.179 130.058,162.846 130.5,166.5C 131.5,166.5 132.5,166.5 133.5,166.5C 133.045,168.367 132.378,170.2 131.5,172C 132.159,174.462 132.493,176.962 132.5,179.5C 132.837,183.308 132.337,186.974 131,190.5C 126.521,193.976 122.021,197.31 117.5,200.5C 106.775,205.361 96.1082,210.528 85.5,216C 82.6174,219.376 79.9507,222.876 77.5,226.5C 77.5,226.833 77.5,227.167 77.5,227.5C 73.4541,229.594 69.1208,230.594 64.5,230.5C 66.5105,226.3 68.0105,221.967 69,217.5C 68.6667,217.167 68.3333,216.833 68,216.5C 65.1226,218.404 61.9559,219.404 58.5,219.5C 58.281,218.325 58.6143,217.325 59.5,216.5C 63.9441,213.559 67.9441,210.059 71.5,206C 76.0417,205.287 79.7084,203.12 82.5,199.5C 84.0269,199.573 85.0269,198.906 85.5,197.5C 94.1227,191.384 102.623,185.05 111,178.5C 111.348,172.161 111.182,165.827 110.5,159.5C 116.911,158.456 123.245,157.123 129.5,155.5 Z"/></g>
<g><path style="opacity:1" fill="#a2a7a9" d="M 134.5,166.5 C 136.124,166.36 137.29,167.027 138,168.5C 139.401,166.808 141.234,166.141 143.5,166.5C 143.5,167.5 143.5,168.5 143.5,169.5C 140.5,169.5 137.5,169.5 134.5,169.5C 134.5,168.5 134.5,167.5 134.5,166.5 Z"/></g>
<g><path style="opacity:1" fill="#f2f2f3" d="M 189.5,218.5 C 194.121,215.411 195.621,211.077 194,205.5C 192.871,203.859 191.371,202.859 189.5,202.5C 188.791,201.596 187.791,201.263 186.5,201.5C 186.824,197.445 186.491,193.445 185.5,189.5C 183.025,190.687 180.691,190.353 178.5,188.5C 177.914,188.709 177.414,189.043 177,189.5C 176.501,193.486 176.334,197.486 176.5,201.5C 172.5,201.5 168.5,201.5 164.5,201.5C 164.5,190.833 164.5,180.167 164.5,169.5C 176.5,169.5 188.5,169.5 200.5,169.5C 200.5,185.833 200.5,202.167 200.5,218.5C 196.833,218.5 193.167,218.5 189.5,218.5 Z"/></g>
<g><path style="opacity:1" fill="#a998c3" d="M 189.5,202.5 C 170.833,202.5 152.167,202.5 133.5,202.5C 139.876,195.136 146.876,194.636 154.5,201C 157.817,201.498 161.15,201.665 164.5,201.5C 168.5,201.5 172.5,201.5 176.5,201.5C 176.334,197.486 176.501,193.486 177,189.5C 177.414,189.043 177.914,188.709 178.5,188.5C 180.691,190.353 183.025,190.687 185.5,189.5C 186.491,193.445 186.824,197.445 186.5,201.5C 187.791,201.263 188.791,201.596 189.5,202.5 Z"/></g>
<g><path style="opacity:0.788" fill="#f0b197" d="M 14.5,198.5 C 15.1558,199.622 15.4892,200.955 15.5,202.5C 15.639,204.883 14.9723,206.883 13.5,208.5C 12.1667,208.5 10.8333,208.5 9.5,208.5C 9.83802,206.146 10.338,203.813 11,201.5C 11.4224,199.574 12.5891,198.574 14.5,198.5 Z"/></g>
<g><path style="opacity:0.993" fill="#57368a" d="M 117.5,200.5 C 117.316,208.593 117.983,216.593 119.5,224.5C 119.5,225.167 119.5,225.833 119.5,226.5C 105.5,226.5 91.5,226.5 77.5,226.5C 79.9507,222.876 82.6174,219.376 85.5,216C 96.1082,210.528 106.775,205.361 117.5,200.5 Z"/></g>
<g><path style="opacity:1" fill="#55348a" d="M 133.5,202.5 C 152.167,202.5 170.833,202.5 189.5,202.5C 191.371,202.859 192.871,203.859 194,205.5C 195.621,211.077 194.121,215.411 189.5,218.5C 170.83,218.667 152.164,218.5 133.5,218C 129.673,214.692 128.506,210.526 130,205.5C 131.039,204.29 132.206,203.29 133.5,202.5 Z"/></g>
<g><path style="opacity:1" fill="#947eb5" d="M 155.5,207.5 C 159.537,207.874 163.204,208.208 166.5,208.5C 165.649,211.612 164.483,211.946 163,209.5C 160.894,211.291 158.394,211.958 155.5,211.5C 155.5,210.167 155.5,208.833 155.5,207.5 Z"/></g>
<g><path style="opacity:0.376" fill="#253138" d="M 121.5,225.5 C 147.789,226.482 174.122,226.815 200.5,226.5C 203.833,226.5 207.167,226.5 210.5,226.5C 172.845,227.508 128.512,227.841 77.5,227.5C 77.5,227.167 77.5,226.833 77.5,226.5C 91.5,226.5 105.5,226.5 119.5,226.5C 120.492,226.672 121.158,226.338 121.5,225.5 Z"/></g>
</svg>
