<?xml version="1.0" encoding="UTF-8"?>
<!DOCTYPE svg PUBLIC "-//W3C//DTD SVG 1.1//EN" "http://www.w3.org/Graphics/SVG/1.1/DTD/svg11.dtd">
<svg xmlns="http://www.w3.org/2000/svg" version="1.1" width="23px" height="23px" style="shape-rendering:geometricPrecision; text-rendering:geometricPrecision; image-rendering:optimizeQuality; fill-rule:evenodd; clip-rule:evenodd" xmlns:xlink="http://www.w3.org/1999/xlink">
<g><path style="opacity:0.561" fill="#543389" d="M 12.5,-0.5 C 13.8333,-0.5 15.1667,-0.5 16.5,-0.5C 20.1267,2.47933 20.46,5.97933 17.5,10C 19.0302,11.1203 20.6968,11.9536 22.5,12.5C 22.5,15.8333 22.5,19.1667 22.5,22.5C 14.8333,22.5 7.16667,22.5 -0.5,22.5C -0.5,21.1667 -0.5,19.8333 -0.5,18.5C 5.98569,18.4422 5.98569,17.7755 -0.5,16.5C -0.5,14.1667 -0.5,11.8333 -0.5,9.5C 3.22605,9.82256 6.89272,9.48922 10.5,8.5C 8.72412,4.77013 9.39079,1.77013 12.5,-0.5 Z M 12.5,5.5 C 18.2936,4.74744 18.9603,6.08077 14.5,9.5C 12.8888,8.67975 12.2222,7.34642 12.5,5.5 Z M 14.5,1.5 C 15.3764,1.36912 16.0431,1.70245 16.5,2.5C 15.277,3.61385 13.9437,3.78052 12.5,3C 13.4158,2.72158 14.0825,2.22158 14.5,1.5 Z M 1.5,10.5 C 4.5,10.5 7.5,10.5 10.5,10.5C 10.5,12.1667 10.5,13.8333 10.5,15.5C 9.5,15.5 8.5,15.5 7.5,15.5C 7.5,14.5 7.5,13.5 7.5,12.5C 6.5,12.5 5.5,12.5 4.5,12.5C 4.5,13.5 4.5,14.5 4.5,15.5C 3.5,15.5 2.5,15.5 1.5,15.5C 1.5,13.8333 1.5,12.1667 1.5,10.5 Z M 11.5,12.5 C 13.205,13.5353 14.8716,13.5353 16.5,12.5C 17.3857,13.325 17.719,14.325 17.5,15.5C 15.5,15.5 13.5,15.5 11.5,15.5C 11.5,14.5 11.5,13.5 11.5,12.5 Z"/></g>
</svg>
