<svg width="430" height="267" viewBox="0 0 430 267" fill="none" xmlns="http://www.w3.org/2000/svg">
<path d="M392.632 55.1839C403.523 45.1599 421.373 44.3246 428.936 45.1599C435.743 45.3746 449.924 57.69 453.328 63.7044C456.05 68.5159 458.244 100.125 459 115.328L437.445 182.99L-13.5147 187L-15.2164 124.851L-13.5147 66.2106C-21.8342 44.659 -30.9858 1.25489 -1.03528 0.0520132C36.4028 -1.45159 54.5547 30.1241 56.2564 32.6301C57.9581 35.1361 63.6306 34.1337 66.4668 34.6349C68.7358 35.0358 74.9755 37.475 77.8117 38.6445L82.9167 32.6301C82.3495 29.2887 88.1354 23.007 115.817 24.6108C150.419 26.6157 161.196 51.6757 161.196 54.1817C161.196 56.6877 165.734 60.1961 169.138 58.6925C175.037 56.6877 183.697 57.8572 187.29 58.6925C189.181 59.3608 193.643 59.4944 196.366 54.6829C200.904 46.6637 209.412 37.1409 225.862 33.1313C242.312 29.1217 253.657 34.6349 261.031 38.6445C266.931 41.8522 270.296 39.6468 271.242 38.1432C275.402 31.2934 290.415 18.5963 317.189 22.6059C350.656 27.618 355.194 52.1768 356.329 57.69C357.236 62.1006 360.11 63.5373 361.434 63.7044C364.27 64.0385 371.19 64.9073 376.182 65.7092C382.422 66.7116 379.018 67.7139 392.632 55.1839Z" fill="#55348B" fill-opacity="0.23"/>
<path d="M108.138 95.0518V126.052V132.052H411.957V106.052H406.185V76.5518H389.918V86.5518H373.652V106.052H357.385V95.0518H318.03V86.5518H299.665V99.0518H246.667V98.0518V92.5518V77.0518H230.4V103.052H212.034V94.0518H178.452V86.5518H153.265V103.052H136.473V95.0518H108.138Z" fill="#383E38"/>
<path d="M136.998 126.052C124.404 123.652 110.062 128.052 104.465 130.552L107.613 149.552C128.427 148.885 170.266 147.552 171.105 147.552C172.155 147.552 241.419 145.552 250.865 145.552C258.421 145.552 353.012 153.552 399.364 157.552L414.581 151.552L411.432 128.552C410.733 128.552 408.389 128.652 404.611 129.052C399.888 129.552 399.888 127.552 395.69 126.552C388.344 125.552 376.275 125.052 371.028 127.552C366.83 129.552 361.583 129.385 359.484 129.052C352.488 127.885 337.55 125.652 333.772 126.052C329.994 126.452 322.753 129.218 319.604 130.552H306.486L257.161 124.052C252.614 125.218 242.469 127.852 238.271 129.052C234.073 130.252 231.275 129.552 230.4 129.052C227.427 128.052 219.066 126.052 209.411 126.052C197.342 126.052 193.144 130.552 188.946 129.052C180.551 126.552 169.007 124.052 156.413 127.552C143.819 131.052 143.819 127.552 136.998 126.052Z" fill="black"/>
<path d="M-29 273.487V193.19V142H449.555V277L-29 273.487Z" fill="#55348B"/>
<path d="M198.916 253.552H3.1915L-1.00635 285.052H196.293L198.916 253.552Z" fill="#55348B"/>
<path d="M21.307 122.662C21.2044 122.688 21.1113 122.452 21.0325 122.052L21.307 122.662C21.8875 122.519 22.7747 114.042 23.1314 80.0518C21.872 52.0518 22.6067 43.7184 23.1314 43.0518H33.1013C32.7515 52.7184 32.0518 73.1518 32.0518 77.5518C32.0518 83.0518 32.0518 114.552 33.1013 117.552C33.9409 119.952 34.1507 123.552 34.1507 125.052L30.4776 128.052L22.6067 125.552L21.307 122.662Z" fill="#67524E"/>
<path d="M27.8538 43.0522C26.1747 43.0522 18.0588 46.3855 14.2108 48.0522L14.7355 28.0522H16.8344L15.785 26.552L14.7355 23.5521C10.3628 18.8854 4.24092 10.5521 14.7355 14.5521C27.8538 19.5521 30.4775 29.0521 31.0022 33.0522C52.5162 11.0522 74.5549 27.5522 75.0796 28.0522C75.6044 28.5522 71.9312 32.0522 67.7334 32.0522C64.3751 32.0522 53.7406 34.3855 48.8431 35.5522C54.2653 36.5522 66.1592 40.3522 70.357 47.5522C75.6044 56.5522 78.228 68.5522 65.1097 56.5522C50.942 45.0522 29.9527 43.0522 27.8538 43.0522Z" fill="#55348B"/>
<path d="M77.9779 120.162C77.8753 120.188 77.7822 119.952 77.7034 119.552L77.9779 120.162C78.5584 120.019 79.4456 111.542 79.8023 77.5518C78.5429 49.5518 79.2776 41.2184 79.8023 40.5518H89.7722C89.4224 50.2184 88.7227 70.6518 88.7227 75.0518C88.7227 80.5518 88.7227 112.052 89.7722 115.052C90.6118 117.452 90.8216 121.052 90.8216 122.552L87.1485 125.552L79.2776 123.052L77.9779 120.162Z" fill="#67524E"/>
<path d="M44.6452 67.5518C57.2388 51.5518 76.1291 44.5518 84.0001 43.0518C97.1183 44.0517 110.761 56.052 116.009 59.552C121.256 63.052 128.078 74.552 127.553 63.552C127.028 52.552 122.306 47.052 112.86 41.052C103.415 35.052 91.8711 38.0518 88.7227 39.552C92.3958 34.052 114.435 25.052 122.83 25.052C129.547 25.052 129.477 23.052 128.602 22.052C126.678 19.7187 120.207 15.152 109.712 15.552C96.5937 16.052 87.1485 28.052 86.0991 29.552C80.327 13.052 60.912 9.552 56.7141 12.052C52.5163 14.552 55.6647 16.552 57.7636 16.552C59.8625 16.552 71.4066 26.052 72.4561 28.052C51.9915 19.052 40.4474 30.052 37.299 33.052C34.1506 36.052 32.5764 40.5518 40.4474 38.5518C48.3184 36.5518 60.3872 36.5518 64.585 38.0518C55.6646 39.0518 46.2194 47.5518 43.071 54.0518C39.9227 60.5518 39.9227 70.5518 44.6452 67.5518Z" fill="#55348B"/>
<path d="M246.667 190.052C251.284 193.652 293.368 191.552 313.832 190.052C346.366 192.052 386.245 191.052 386.77 188.552C387.19 186.552 364.557 185.385 353.187 185.052C348.989 185.885 335.451 187.452 314.882 187.052L313.834 187.031C287.884 186.526 240.972 185.612 246.667 190.052Z" fill="black"/>
<path d="M261.884 137.552C260.625 137.552 255.412 131.218 252.964 128.052L263.458 129.052C263.458 131.885 263.143 137.552 261.884 137.552Z" fill="#51403D"/>
<path d="M379.424 153.052C370.504 151.552 356.861 155.052 356.336 155.052L353.712 148.552C353.887 146.885 355.496 143.552 360.534 143.552C365.571 143.552 371.378 145.218 373.652 146.052C378.549 148.885 386.56 154.252 379.424 153.052Z" fill="#EC671A"/>
<path d="M339.544 147.052C339.964 144.652 339.369 137.718 339.02 134.552L337.97 123.052L348.99 119.052L364.732 131.552C366.83 132.718 370.923 135.752 370.504 138.552C370.084 142.552 368.58 142.552 367.88 142.052C364.732 142.718 358.33 144.152 357.91 144.552C357.385 145.052 353.187 151.052 353.187 153.552C353.187 156.052 353.712 158.052 353.187 163.052C352.663 168.052 349.514 164.052 348.99 163.552C348.465 163.052 339.02 150.052 339.544 147.052Z" fill="#EC671A"/>
<path d="M260.31 134.052V127.052C263.284 126.219 270.385 125.552 275.003 129.552C280.775 134.552 290.22 132.552 300.714 137.052C309.11 140.652 308.41 139.552 307.011 138.552C309.81 139.719 316.037 142.752 318.555 145.552C321.704 149.052 319.08 150.052 318.555 155.552C318.03 161.052 315.407 173.552 307.011 172.552C298.615 171.552 283.398 157.052 283.398 155.552C283.398 154.052 277.626 143.052 277.101 142.052C276.682 141.252 265.732 136.385 260.31 134.052Z" fill="#EC671A"/>
<path d="M296.516 125.052C289.8 125.452 284.972 122.885 283.398 121.552C281.824 119.052 288.121 113.552 289.17 112.552C290.01 111.752 290.569 110.218 290.744 109.552C290.744 108.718 291.899 105.652 296.516 100.052C302.393 91.6518 311.209 88.5518 314.882 88.0518V87.5518L316.981 85.5518C319.43 87.0518 324.432 90.3518 324.852 91.5518C326.111 96.3518 325.376 96.8851 324.852 96.5518L322.753 95.0518C322.928 97.5518 322.543 103.252 319.604 106.052C316.666 108.852 308.585 119.218 304.912 124.052C304.912 124.218 303.233 124.652 296.516 125.052Z" fill="#55348B"/>
<path d="M317.416 90.4227L313.422 94.2292L312.183 93.0487L316.377 89.0519L317.416 90.4227Z" fill="white"/>
<path d="M307.011 119.052L307.536 117.052L323.802 121.552C323.627 122.052 322.963 123.052 321.703 123.052C319.605 123.052 311.034 120.385 307.011 119.052Z" fill="#55348B"/>
<path d="M312.099 106.583C310.391 106.845 306.321 105.502 304.177 104.675C304.009 104.61 303.822 104.705 303.777 104.879L303.416 106.255C303.373 106.418 303.473 106.584 303.636 106.623L311.535 108.504C311.655 108.533 311.78 108.486 311.846 108.382C312.157 107.894 312.543 107.103 312.352 106.684C312.31 106.592 312.199 106.567 312.099 106.583Z" fill="#C4C4C4"/>
<path d="M345.316 130.552C349.934 131.352 353.887 134.885 355.286 136.552H339.019L336.921 132.552C335.346 129.552 331.883 123.052 330.624 121.052C329.364 119.052 331.498 116.885 332.723 116.052C333.947 114.885 336.711 112.352 337.97 111.552C339.229 110.752 338.145 109.552 337.445 109.052C337.445 108.719 337.235 108.452 336.396 110.052C335.556 111.652 334.297 110.719 333.772 110.052L333.247 106.052C333.072 105.052 333.352 103.252 335.871 104.052C338.39 104.852 340.419 109.052 341.118 111.052C344.442 112.719 350.983 116.652 350.564 119.052C350.039 122.052 344.267 122.552 341.643 122.552C337.97 125.052 339.544 129.552 345.316 130.552Z" fill="#3A2E2C"/>
<path d="M273.953 179.052L268.706 175.552C269.755 174.718 270.28 172.452 263.983 170.052C257.686 167.652 254.713 164.718 254.013 163.552L269.755 153.552C270.63 151.218 272.484 146.152 272.903 144.552C270.28 144.052 268.706 143.052 266.607 141.552C264.928 140.352 261.359 141.385 259.785 142.052C255.937 145.718 247.716 153.352 245.618 154.552C243.519 155.752 243.694 154.052 244.043 153.052L253.489 141.052C255.063 139.052 254.013 139.052 252.439 138.052C251.18 137.252 251.914 136.385 252.439 136.052H260.31V132.552L262.934 133.052C269.405 136.218 282.769 142.852 284.448 144.052C286.127 145.252 286.896 146.218 287.071 146.552L290.744 156.552C292.843 157.052 297.776 158.252 300.714 159.052C303.653 159.852 302.988 158.385 302.289 157.552L299.14 154.052C297.391 152.052 294.523 148.152 297.041 148.552C304.387 149.052 310.16 149.052 307.536 145.052C305.437 141.852 287.071 135.052 278.151 132.052L252.964 128.552L248.766 119.052L273.953 123.552L296.516 127.552L327.476 141.052V165.052L332.198 167.552L340.069 145.552C340.769 146.718 342.798 149.952 345.316 153.552C348.465 158.052 351.613 157.552 351.089 155.052C349.409 153.852 350.039 150.885 350.564 149.552C351.438 148.218 353.817 144.852 356.336 142.052C358.855 139.252 366.131 140.885 369.454 142.052L368.929 143.052H362.108L355.286 152.052L349.514 179.552H278.676C275.737 179.552 274.303 179.218 273.953 179.052Z" fill="#3A2E2C"/>
<ellipse cx="267.131" cy="171.552" rx="5.77204" ry="5.5" fill="#3A2E2C"/>
<path d="M287.596 171.552C287.596 182.321 278.434 191.052 267.132 191.052C255.829 191.052 246.667 182.321 246.667 171.552C246.667 160.782 255.829 152.052 267.132 152.052C278.434 152.052 287.596 160.782 287.596 171.552ZM254.102 171.552C254.102 178.409 259.935 183.967 267.132 183.967C274.328 183.967 280.161 178.409 280.161 171.552C280.161 164.695 274.328 159.136 267.132 159.136C259.935 159.136 254.102 164.695 254.102 171.552Z" fill="#3A2E2C"/>
<ellipse cx="365.781" cy="171.552" rx="5.77204" ry="5.5" fill="#3A2E2C"/>
<path d="M386.245 171.552C386.245 182.321 377.083 191.052 365.781 191.052C354.479 191.052 345.316 182.321 345.316 171.552C345.316 160.782 354.479 152.052 365.781 152.052C377.083 152.052 386.245 160.782 386.245 171.552ZM352.751 171.552C352.751 178.409 358.585 183.967 365.781 183.967C372.977 183.967 378.811 178.409 378.811 171.552C378.811 164.695 372.977 159.136 365.781 159.136C358.585 159.136 352.751 164.695 352.751 171.552Z" fill="#3A2E2C"/>
<rect width="45.8026" height="43.1313" rx="3" transform="matrix(0.99136 0.131166 -0.144199 0.989549 246.387 81.0439)" fill="#55348B"/>
<rect width="45.7963" height="4.70756" transform="matrix(0.991428 0.130655 -0.143639 0.98963 245.241 88.9131)" fill="#EC671A"/>
<rect width="24.2696" height="4.70756" transform="matrix(0.991428 0.130655 -0.143639 0.98963 253.64 104.052)" fill="#EC671A"/>
<rect width="24.2696" height="4.70756" transform="matrix(0.991428 0.130655 -0.143639 0.98963 252.591 111.052)" fill="#EC671A"/>
<path d="M316.981 86.552L323.802 91.052C327.161 89.0519 327.65 87.552 327.476 87.052L330.099 88.052C330.624 87.8853 331.673 87.452 331.673 87.052C331.673 86.552 332.723 87.052 333.248 86.552C333.772 86.052 334.297 84.552 334.297 84.052C334.297 83.552 336.396 82.552 335.871 82.052C335.451 81.652 334.997 80.8853 334.822 80.552V77.052C334.997 75.7187 333.877 72.852 328 72.052C322.123 71.252 319.954 79.7186 319.605 84.052L316.981 86.552Z" fill="#F0B686"/>
<path d="M331.149 83.5518L329.574 82.5518V81.5518L331.673 83.0518C332.548 82.8851 334.612 82.3518 335.871 81.5518C336.711 81.9518 336.921 83.0518 336.921 83.5518C336.921 84.3851 336.501 86.5518 334.822 88.5518C333.143 90.5518 329.924 89.3851 328.525 88.5518L329.05 88.0518L330.099 87.0518L331.149 83.5518Z" fill="white"/>
<path d="M317.532 84L326.452 88.5C328.132 88.9 329.251 87.6667 329.601 87V80C329.601 78 330.65 77.5 331.175 77.5L336.947 78.0001C335.897 70.0001 330.154 68.0001 325.403 68C320.68 67.9999 316.483 71.5 315.433 76C314.594 79.6 316.483 82.8333 317.532 84Z" fill="#55348B"/>
<path d="M330.624 78.0518L326.951 74.5518L332.913 68.3967C333.1 68.204 333.405 68.1929 333.606 68.3717L341.107 75.0731C341.367 75.3051 341.316 75.725 341.008 75.8879L336.921 78.0518C335.346 77.8851 332.093 77.5518 331.673 77.5518C331.253 77.5518 330.799 77.8851 330.624 78.0518Z" fill="url(#paint0_linear_153_110)"/>
<path d="M322.228 159.552V163.052V164.552L324.327 166.552C324.747 166.952 327.65 166.385 329.05 166.052L330.099 164.052V160.552C328.84 160.152 324.327 159.718 322.228 159.552Z" fill="#F0B686"/>
<path d="M321.179 162.552C322.018 161.752 322.228 162.552 322.228 163.052C325.167 166.652 329.05 164.885 330.624 163.552C332.548 164.718 337.131 167.552 340.069 169.552C342.168 171.952 340.594 172.552 339.545 172.552L320.654 168.052C320.479 166.552 320.339 163.352 321.179 162.552Z" fill="white"/>
<path d="M322.228 159.552C324.327 163.152 328.7 161.718 330.624 160.552C334.822 150.052 334.822 142.052 335.347 138.552C335.766 135.752 333.073 134.052 331.673 133.552L311.734 125.552L305.437 123.552L283.398 121.552L283.923 127.052C284.448 130.052 286.547 132.552 288.121 133.552C289.695 134.552 315.932 140.052 319.08 140.052C322.228 140.052 322.753 142.552 322.228 143.052C321.704 143.552 321.704 154.052 322.228 159.552Z" fill="#51403D"/>
<mask id="mask0_153_110" style="mask-type:alpha" maskUnits="userSpaceOnUse" x="283" y="85" width="43" height="41">
<path d="M296.516 125.052C289.8 125.452 284.972 122.885 283.398 121.552C281.824 119.052 288.121 113.552 289.17 112.552C290.01 111.752 290.569 110.218 290.744 109.552C290.744 108.718 291.899 105.652 296.516 100.052C302.393 91.6518 311.209 88.5518 314.882 88.0518V87.5518L316.981 85.5518C319.43 87.0518 324.432 90.3518 324.852 91.5518C326.111 96.3518 325.376 96.8851 324.852 96.5518L322.753 95.0518C322.928 97.5518 322.543 103.252 319.604 106.052C316.666 108.852 308.585 119.218 304.912 124.052C304.912 124.218 303.233 124.652 296.516 125.052Z" fill="#55348B"/>
</mask>
<g mask="url(#mask0_153_110)">
<path d="M315.931 88.5518C315.512 89.7518 320.829 96.0518 323.278 98.5518L325.377 97.0518C323.628 95.5518 317.191 89.7518 315.931 88.5518Z" fill="#55348B"/>
<path d="M316.981 101.552L320.654 104.552C321.004 104.719 321.808 105.152 322.228 105.552C322.753 106.052 322.228 106.052 321.703 106.552L318.555 109.552C318.135 109.952 312.433 117.052 309.635 120.552C309.11 122.052 307.955 125.152 307.536 125.552C307.011 126.052 306.486 126.552 304.912 127.052C303.338 127.552 295.992 127.052 294.942 127.052C294.103 127.052 288.995 126.052 286.546 125.552C284.797 124.052 281.299 120.952 281.299 120.552C281.299 120.052 281.299 120.052 281.824 119.052C282.349 118.052 283.398 115.552 283.398 115.052C283.398 114.552 287.071 110.552 287.596 109.552C288.016 108.752 290.919 104.552 292.319 102.552C291.794 101.552 292.214 99.2519 298.091 98.0519C303.968 96.8519 311.734 98.8852 314.882 100.052C315.582 99.2186 317.086 97.6519 317.506 98.0519C317.925 98.4519 317.331 100.552 316.981 101.552Z" fill="#55348B"/>
<path d="M294.418 100.382H304.912V102.051H293.893L294.418 100.382Z" fill="white"/>
<path d="M307.011 119.052L307.536 117.052L323.802 121.552C323.627 122.052 322.963 123.052 321.703 123.052C319.605 123.052 311.034 120.385 307.011 119.052Z" fill="#55348B"/>
</g>
<rect width="24.1692" height="3.90296" transform="matrix(0.571506 0.820598 -0.845195 0.534458 353.792 150.228)" fill="#3A2E2C"/>
<path d="M330.624 121.052C328.525 121.452 325.202 120.552 323.802 120.052C323.627 119.218 323.592 117.552 324.852 117.552C326.111 117.552 327.475 117.218 328 117.052C328.525 116.885 330.519 116.552 334.297 116.552C339.02 116.552 337.97 120.552 336.396 121.552C334.822 122.552 333.248 121.552 333.772 121.052C334.297 120.552 335.346 119.052 333.248 118.052C331.149 117.052 331.149 120.052 330.624 121.052Z" fill="#F0B686"/>
<path d="M305.962 117.552C301.239 116.552 300.714 113.052 301.764 112.552C302.603 112.152 303.863 107.718 304.387 105.552C305.087 105.718 307.536 106.452 311.733 108.052C310.474 111.652 311.908 112.552 312.783 112.552L326.074 116.936C326.255 116.995 326.335 117.207 326.239 117.372L323.913 121.361C323.847 121.475 323.719 121.533 323.591 121.503C319.125 120.483 309.68 118.339 305.962 117.552Z" fill="#55348B"/>
<path d="M37.8239 110.552L30.4777 122.052L13.1615 122.552L12.6368 122.552L12.1121 102.052C12.1121 101.719 12.8467 101.052 15.7852 101.052C28.3787 100.552 29.9529 106.052 31.0024 108.052C32.2617 110.452 36.0748 110.719 37.8239 110.552Z" fill="#55348B"/>
<path d="M72.9808 115.552C80.5369 117.152 82.7758 122.552 82.9507 125.052L26.8044 122.552C27.3292 119.552 30.5825 112.552 39.398 108.552C50.4173 103.552 56.7141 107.552 59.8625 109.552C63.0109 111.552 63.5356 113.552 72.9808 115.552Z" fill="#55348B"/>
<mask id="mask1_153_110" style="mask-type:alpha" maskUnits="userSpaceOnUse" x="12" y="101" width="26" height="22">
<path d="M37.8239 110.552L30.4777 122.052L13.1615 122.552L12.6368 122.552L12.1121 102.052C12.1121 101.719 12.8467 101.052 15.7852 101.052C28.3787 100.552 29.9529 106.052 31.0024 108.052C32.2617 110.452 36.0748 110.719 37.8239 110.552Z" fill="#97C455"/>
</mask>
<g mask="url(#mask1_153_110)">
<path d="M19.4583 109.552C22.3968 105.552 28.3787 104.552 31.0024 104.552V99.0518C31.0024 96.0518 29.4281 97.5518 28.3786 97.5518C27.3291 97.5518 19.9829 96.5518 18.9334 96.5518H11.5873C10.0132 96.5518 7.38945 102.552 6.86472 103.052C6.33999 103.552 5.81526 117.552 11.5873 116.552C17.3593 115.552 15.7852 114.552 19.4583 109.552Z" fill="#55348B"/>
</g>
<mask id="mask2_153_110" style="mask-type:alpha" maskUnits="userSpaceOnUse" x="26" y="106" width="57" height="20">
<path d="M72.9808 115.552C80.5369 117.152 82.7758 122.552 82.9507 125.052L26.8044 122.552C27.3292 119.552 30.5825 112.552 39.398 108.552C50.4173 103.552 56.7141 107.552 59.8625 109.552C63.0109 111.552 63.5356 113.552 72.9808 115.552Z" fill="#97C455"/>
</mask>
<g mask="url(#mask2_153_110)">
<path d="M37.8238 124.052L24.7056 123.052C25.4052 121.552 26.8045 118.452 26.8045 118.052C26.8045 117.652 29.2532 113.219 30.4776 111.052L41.497 105.552C46.3945 104.886 56.3993 104.252 57.2389 107.052C46.3245 108.652 39.7479 119.052 37.8238 124.052Z" fill="#55348B"/>
</g>
<path d="M229.168 241.5H1.9593L1.43457 122.5C20.6747 123 63.7726 124.1 82.2432 124.5C105.331 125 157.28 157 164.101 162C170.923 167 211.852 176 220.247 178.5C226.544 180.9 230.217 185.833 231.267 188L243.86 211C244.21 214.167 244.385 222.7 242.286 231.5C240.187 240.3 232.666 241.833 229.168 241.5Z" fill="#8D80A3"/>
<path d="M88.5398 136.5L-1.71392 134.5L-4.8623 162L30.2947 164.5C53.2079 165.167 99.1394 166.6 99.5592 167C100.084 167.5 124.746 167 127.895 167H142.062C144.686 167 146.785 165.5 145.736 164.5C144.686 163.5 131.043 154 130.518 154C130.099 154 102.358 142.333 88.5398 136.5Z" fill="#51403D"/>
<path fill-rule="evenodd" clip-rule="evenodd" d="M-3.71104 131.002C-5.36281 130.946 -6.74883 132.236 -6.81074 133.888L-7.8602 161.888C-7.89004 162.684 -7.60191 163.459 -7.05936 164.043C-6.5168 164.626 -5.7644 164.97 -4.96811 164.998L150.877 170.498C152.221 170.546 153.433 169.693 153.841 168.411C154.25 167.13 153.755 165.733 152.632 164.994C145.184 160.093 132.58 152.687 119.937 146.297C113.612 143.101 107.237 140.139 101.464 137.868C95.7474 135.618 90.411 133.961 86.2334 133.517C86.1544 133.508 86.0752 133.503 85.9959 133.501C83.453 133.433 79.9106 133.341 75.6606 133.23C54.7404 132.685 16.6758 131.694 -3.71104 131.002ZM-1.7518 159.108L-0.926841 137.098C14.0464 137.588 36.4567 138.2 55.305 138.699L57.4913 161.199L-1.7518 159.108ZM63.5403 161.412L139.852 164.105C133.24 160.167 125.246 155.703 117.231 151.653C111.006 148.507 104.81 145.632 99.2672 143.451C93.7316 141.273 89.0525 139.871 85.7131 139.496C83.1857 139.429 79.6954 139.338 75.5197 139.229L75.5189 139.229C71.3789 139.121 66.5654 138.996 61.3487 138.858L63.5403 161.412Z" fill="#3A2E2C"/>
<mask id="mask3_153_110" style="mask-type:alpha" maskUnits="userSpaceOnUse" x="1" y="122" width="244" height="120">
<path d="M229.168 241H1.9593L1.43457 122C20.6747 122.5 63.7726 123.6 82.2432 124C105.331 124.5 157.28 156.5 164.101 161.5C170.923 166.5 211.852 175.5 220.247 178C226.544 180.4 230.217 185.333 231.267 187.5L243.86 210.5C244.21 213.667 244.385 222.2 242.286 231C240.187 239.8 232.666 241.333 229.168 241Z" fill="black"/>
</mask>
<g mask="url(#mask3_153_110)">
<path d="M146.261 215.5H1.95947V243.5C42.7136 243.667 125.271 243.9 129.469 243.5C134.716 243 140.489 245 169.349 246C198.209 247 202.932 246 213.426 246C223.921 246 234.415 245 238.613 244C242.811 243 246.484 241 250.157 236C253.83 231 252.256 225 251.207 220.5C250.157 216 249.108 208 249.108 207C249.108 206 242.811 197.5 242.286 197C241.867 196.6 237.564 196.167 235.465 196C230.392 195.833 215.945 195.3 198.734 194.5C177.22 193.5 165.676 203.5 162.002 208C157.805 215.2 149.759 216 146.261 215.5Z" fill="white"/>
<path d="M221.297 193.5C224.235 197.1 231.966 197.333 235.465 197L237.564 193L234.94 185L225.495 174.5L206.604 173.5C210.278 178.667 218.358 189.9 221.297 193.5Z" fill="#51403D"/>
</g>
<rect x="69.6494" y="174.5" width="14.6925" height="3" rx="1.5" fill="#3A2E2C"/>
<path d="M233.89 241C234.415 230 230.379 220.237 223.196 212.923C216.012 205.609 206.269 201.5 196.11 201.5C185.951 201.5 176.207 205.609 169.024 212.923C161.84 220.237 157.804 230.657 157.804 241L196.11 240.5L233.89 241Z" fill="#3A2E2C"/>
<ellipse cx="196.634" cy="238.5" rx="29.3849" ry="28" fill="#3A2E2C"/>
<ellipse cx="196.634" cy="238.5" rx="18.8903" ry="18" fill="#51403D"/>
<defs>
<linearGradient id="paint0_linear_153_110" x1="335.871" y1="69.0518" x2="327.356" y2="77.4622" gradientUnits="userSpaceOnUse">
<stop stop-color="white"/>
<stop offset="1" stop-color="white" stop-opacity="0"/>
</linearGradient>
</defs>
</svg>
