<?xml version="1.0" encoding="UTF-8"?>
<!DOCTYPE svg PUBLIC "-//W3C//DTD SVG 1.1//EN" "http://www.w3.org/Graphics/SVG/1.1/DTD/svg11.dtd">
<svg xmlns="http://www.w3.org/2000/svg" version="1.1" width="250px" height="250px" style="shape-rendering:geometricPrecision; text-rendering:geometricPrecision; image-rendering:optimizeQuality; fill-rule:evenodd; clip-rule:evenodd" xmlns:xlink="http://www.w3.org/1999/xlink">
<g><path style="opacity:0.467" fill="#9e9e9e" d="M 231.5,97.5 C 231.167,97.5 230.833,97.5 230.5,97.5C 229.674,94.5152 228.341,91.8485 226.5,89.5C 226.672,88.5084 226.338,87.8417 225.5,87.5C 225.5,87.1667 225.5,86.8333 225.5,86.5C 226.468,84.3926 226.802,82.0593 226.5,79.5C 225.167,79.5 223.833,79.5 222.5,79.5C 222.167,79.5 221.833,79.5 221.5,79.5C 221.5,79.1667 221.5,78.8333 221.5,78.5C 223.167,78.5 224.833,78.5 226.5,78.5C 226.5,76.1667 226.5,73.8333 226.5,71.5C 223.167,71.5 219.833,71.5 216.5,71.5C 215.833,71.5 215.5,71.1667 215.5,70.5C 219.167,70.5 222.833,70.5 226.5,70.5C 226.5,68.1667 226.5,65.8333 226.5,63.5C 220.833,63.5 215.167,63.5 209.5,63.5C 208.833,63.5 208.5,63.1667 208.5,62.5C 214.5,62.5 220.5,62.5 226.5,62.5C 226.5,60.1667 226.5,57.8333 226.5,55.5C 217.827,55.3336 209.16,55.5002 200.5,56C 201.416,56.2784 202.082,56.7784 202.5,57.5C 200.381,57.5323 199.048,56.5323 198.5,54.5C 207.833,54.5 217.167,54.5 226.5,54.5C 226.5,52.1667 226.5,49.8333 226.5,47.5C 213.833,47.5 201.167,47.5 188.5,47.5C 187.209,47.7373 186.209,47.404 185.5,46.5C 199.167,46.5 212.833,46.5 226.5,46.5C 226.5,44.1667 226.5,41.8333 226.5,39.5C 207.659,39.1698 188.993,39.5031 170.5,40.5C 169.5,40.5 168.5,40.5 167.5,40.5C 167.5,39.8333 167.167,39.5 166.5,39.5C 164.585,39.7845 162.919,39.4511 161.5,38.5C 184.167,38.5 206.833,38.5 229.5,38.5C 229.5,36.8333 229.5,35.1667 229.5,33.5C 189.167,33.5 148.833,33.5 108.5,33.5C 108.5,35.1667 108.5,36.8333 108.5,38.5C 116.167,38.5 123.833,38.5 131.5,38.5C 130.081,39.4511 128.415,39.7845 126.5,39.5C 121.167,39.5 115.833,39.5 110.5,39.5C 110.756,41.7925 110.423,43.9592 109.5,46C 110.448,46.4828 111.448,46.6495 112.5,46.5C 111.167,47.8333 109.833,49.1667 108.5,50.5C 108.306,44.4358 107.639,38.4358 106.5,32.5C 148.167,32.5 189.833,32.5 231.5,32.5C 231.5,54.1667 231.5,75.8333 231.5,97.5 Z M 185.5,46.5 C 180.54,44.1788 175.54,42.1788 170.5,40.5C 188.993,39.5031 207.659,39.1698 226.5,39.5C 226.5,41.8333 226.5,44.1667 226.5,46.5C 212.833,46.5 199.167,46.5 185.5,46.5 Z M 126.5,39.5 C 121.62,41.2733 116.953,43.6066 112.5,46.5C 111.448,46.6495 110.448,46.4828 109.5,46C 110.423,43.9592 110.756,41.7925 110.5,39.5C 115.833,39.5 121.167,39.5 126.5,39.5 Z M 161.5,38.5 C 151.497,37.2014 141.497,37.2014 131.5,38.5C 123.833,38.5 116.167,38.5 108.5,38.5C 108.5,36.8333 108.5,35.1667 108.5,33.5C 148.833,33.5 189.167,33.5 229.5,33.5C 229.5,35.1667 229.5,36.8333 229.5,38.5C 206.833,38.5 184.167,38.5 161.5,38.5 Z"/></g>
<g><path style="opacity:0.251" fill="#505050" d="M 23.5,43.5 C 23.5,44.1667 23.8333,44.5 24.5,44.5C 24.5,44.8333 24.5,45.1667 24.5,45.5C 24.6666,70.8355 24.5,96.1689 24,121.5C 23.6174,122.056 23.1174,122.389 22.5,122.5C 22.1688,95.9947 22.5022,69.6614 23.5,43.5 Z"/></g>
<g><path style="opacity:0.251" fill="#666666" d="M 23.5,43.5 C 44.8333,43.5 66.1667,43.5 87.5,43.5C 87.5,59.1667 87.5,74.8333 87.5,90.5C 87.5979,92.5529 86.9313,94.2196 85.5,95.5C 85.5,78.8333 85.5,62.1667 85.5,45.5C 65.3402,44.5028 45.0069,44.1695 24.5,44.5C 23.8333,44.5 23.5,44.1667 23.5,43.5 Z"/></g>
<g><path style="opacity:0.498" fill="#9d9e9e" d="M 24.5,45.5 C 44.8333,45.5 65.1667,45.5 85.5,45.5C 85.5,62.1667 85.5,78.8333 85.5,95.5C 85.6716,96.4916 85.3382,97.1583 84.5,97.5C 84.5,80.5 84.5,63.5 84.5,46.5C 64.8333,46.5 45.1667,46.5 25.5,46.5C 25.5,70.8333 25.5,95.1667 25.5,119.5C 27.1667,119.5 28.8333,119.5 30.5,119.5C 29.6365,117.105 29.6365,114.771 30.5,112.5C 31.8549,113.188 32.8549,114.188 33.5,115.5C 32.4138,115.62 31.7472,116.287 31.5,117.5C 32.2234,119.782 32.5567,122.116 32.5,124.5C 31.8485,123.909 31.1818,123.243 30.5,122.5C 29.5832,123.127 28.5832,123.461 27.5,123.5C 25.5853,123.784 23.9187,123.451 22.5,122.5C 23.1174,122.389 23.6174,122.056 24,121.5C 24.5,96.1689 24.6666,70.8355 24.5,45.5 Z"/></g>
<g><path style="opacity:1" fill="#f0f1f1" d="M 125.5,70.5 C 125.5,70.8333 125.5,71.1667 125.5,71.5C 125.263,72.791 125.596,73.791 126.5,74.5C 126.307,78.5662 126.64,82.5662 127.5,86.5C 127.811,87.4778 128.478,88.1445 129.5,88.5C 137.962,87.8606 146.296,87.1939 154.5,86.5C 154.5,85.5 154.5,84.5 154.5,83.5C 155.461,81.7354 155.795,79.7354 155.5,77.5C 158.079,77.6061 160.412,76.9395 162.5,75.5C 163.558,90.7329 156.558,99.3995 141.5,101.5C 141.167,101.5 140.833,101.5 140.5,101.5C 120.989,96.4779 115.489,84.8112 124,66.5C 124.21,68.0581 124.71,69.3915 125.5,70.5 Z"/></g>
<g><path style="opacity:0.939" fill="#d5d5d5" d="M 43.5,69.5 C 51.1667,69.5 58.8333,69.5 66.5,69.5C 66.5,78.8333 66.5,88.1667 66.5,97.5C 58.8333,97.5 51.1667,97.5 43.5,97.5C 43.5,88.1667 43.5,78.8333 43.5,69.5 Z"/></g>
<g><path style="opacity:1" fill="#553a84" d="M 133.5,73.5 C 132.518,76.9619 132.185,80.6286 132.5,84.5C 133.5,84.5 134.5,84.5 135.5,84.5C 135.815,80.6286 135.482,76.9619 134.5,73.5C 135.833,72.1667 137.167,72.1667 138.5,73.5C 137.518,76.9619 137.185,80.6286 137.5,84.5C 138.5,84.5 139.5,84.5 140.5,84.5C 140.815,80.6286 140.482,76.9619 139.5,73.5C 140.5,72.1667 141.5,72.1667 142.5,73.5C 143.167,88.1667 143.833,88.1667 144.5,73.5C 145.5,72.1667 146.5,72.1667 147.5,73.5C 146.92,77.649 147.586,81.3157 149.5,84.5C 150.479,81.3752 150.813,78.0419 150.5,74.5C 154.008,76.4251 155.341,79.4251 154.5,83.5C 154.5,84.5 154.5,85.5 154.5,86.5C 145.5,86.5 136.5,86.5 127.5,86.5C 126.64,82.5662 126.307,78.5662 126.5,74.5C 127.152,73.2749 128.319,72.6083 130,72.5C 131.385,72.5143 132.551,72.8476 133.5,73.5 Z"/></g>
<g><path style="opacity:1" fill="#cbc1db" d="M 221.5,79.5 C 221.833,79.5 222.167,79.5 222.5,79.5C 223.758,81.6869 224.758,84.0202 225.5,86.5C 206.833,86.5 188.167,86.5 169.5,86.5C 169.5,84.1667 169.5,81.8333 169.5,79.5C 186.833,79.5 204.167,79.5 221.5,79.5 Z"/></g>
<g><path style="opacity:1" fill="#494267" d="M 127.5,86.5 C 136.5,86.5 145.5,86.5 154.5,86.5C 146.296,87.1939 137.962,87.8606 129.5,88.5C 128.478,88.1445 127.811,87.4778 127.5,86.5 Z"/></g>
<g><path style="opacity:1" fill="#cbc1db" d="M 225.5,87.5 C 226.338,87.8417 226.672,88.5084 226.5,89.5C 226.5,91.1667 226.5,92.8333 226.5,94.5C 207.5,94.5 188.5,94.5 169.5,94.5C 169.5,92.1667 169.5,89.8333 169.5,87.5C 188.167,87.5 206.833,87.5 225.5,87.5 Z"/></g>
<g><path style="opacity:1" fill="#444e54" d="M 134.5,90.5 C 138.976,90.8003 140.31,92.9669 138.5,97C 135.144,98.0307 133.144,96.8641 132.5,93.5C 132.942,92.2613 133.609,91.2613 134.5,90.5 Z"/></g>
<g><path style="opacity:1" fill="#465055" d="M 145.5,90.5 C 149.935,90.7521 151.268,92.9188 149.5,97C 143.681,97.5262 142.348,95.3595 145.5,90.5 Z"/></g>
<g><path style="opacity:1" fill="#b8b3c3" d="M 220.5,78.5 C 220.833,78.5 221.167,78.5 221.5,78.5C 221.5,78.8333 221.5,79.1667 221.5,79.5C 204.167,79.5 186.833,79.5 169.5,79.5C 169.5,81.8333 169.5,84.1667 169.5,86.5C 188.167,86.5 206.833,86.5 225.5,86.5C 225.5,86.8333 225.5,87.1667 225.5,87.5C 206.833,87.5 188.167,87.5 169.5,87.5C 169.5,89.8333 169.5,92.1667 169.5,94.5C 188.5,94.5 207.5,94.5 226.5,94.5C 226.5,92.8333 226.5,91.1667 226.5,89.5C 228.341,91.8485 229.674,94.5152 230.5,97.5C 230.196,113.529 230.53,129.529 231.5,145.5C 231.167,146.167 230.833,146.833 230.5,147.5C 230.04,135.378 229.04,123.378 227.5,111.5C 222.305,111.179 217.305,111.513 212.5,112.5C 208.635,109.399 204.302,107.066 199.5,105.5C 200.246,104.264 200.579,102.93 200.5,101.5C 209.082,102.47 217.749,102.803 226.5,102.5C 226.5,100.167 226.5,97.8333 226.5,95.5C 207.5,95.5 188.5,95.5 169.5,95.5C 168.833,104.833 168.167,104.833 167.5,95.5C 164.15,95.335 160.817,95.5017 157.5,96C 157.668,98.363 156.335,99.863 153.5,100.5C 150.288,101.804 146.955,102.804 143.5,103.5C 142.287,103.253 141.62,102.586 141.5,101.5C 156.558,99.3995 163.558,90.7329 162.5,75.5C 162.328,74.5084 162.662,73.8417 163.5,73.5C 163.668,89.4862 164.168,89.4862 165,73.5C 165.202,75.2556 165.702,76.9223 166.5,78.5C 168.127,69.256 169.127,69.256 169.5,78.5C 186.5,78.5 203.5,78.5 220.5,78.5 Z"/></g>
<g><path style="opacity:1" fill="#2d383e" d="M 200.5,101.5 C 200.579,102.93 200.246,104.264 199.5,105.5C 204.302,107.066 208.635,109.399 212.5,112.5C 217.536,119.169 218.703,126.503 216,134.5C 212.831,137.563 209.165,139.897 205,141.5C 205.84,149.506 202.34,152.339 194.5,150C 192.677,149.003 191.01,147.836 189.5,146.5C 188.643,144.597 187.977,142.597 187.5,140.5C 189.39,137.782 191.056,134.949 192.5,132C 192.257,128.997 190.59,127.83 187.5,128.5C 186.227,124.989 185.227,121.322 184.5,117.5C 182.805,116.826 181.138,116.159 179.5,115.5C 174.802,104.249 178.636,98.5828 191,98.5C 193.167,98.6667 195.333,98.8333 197.5,99C 198.942,99.3768 199.942,100.21 200.5,101.5 Z"/></g>
<g><path style="opacity:0.251" fill="#161d20" d="M 79.5,103.5 C 79.5,104.167 79.1667,104.5 78.5,104.5C 77.2072,102.636 77.2072,100.636 78.5,98.5C 79.4519,100.045 79.7852,101.712 79.5,103.5 Z"/></g>
<g><path style="opacity:1" fill="#c8bfd8" d="M 230.5,97.5 C 230.833,97.5 231.167,97.5 231.5,97.5C 241.87,126.448 242.037,155.448 232,184.5C 227.738,193.239 222.905,201.572 217.5,209.5C 209.804,209.831 202.138,209.497 194.5,208.5C 199.996,195.179 204.996,181.679 209.5,168C 208.422,162.455 205.089,160.455 199.5,162C 196.848,164.848 194.848,168.015 193.5,171.5C 193.647,166.786 193.314,162.119 192.5,157.5C 191.167,157.5 189.833,157.5 188.5,157.5C 189.209,156.596 190.209,156.263 191.5,156.5C 191.542,152.991 190.876,149.658 189.5,146.5C 191.01,147.836 192.677,149.003 194.5,150C 202.34,152.339 205.84,149.506 205,141.5C 209.165,139.897 212.831,137.563 216,134.5C 218.703,126.503 217.536,119.169 212.5,112.5C 217.305,111.513 222.305,111.179 227.5,111.5C 229.04,123.378 230.04,135.378 230.5,147.5C 230.833,146.833 231.167,146.167 231.5,145.5C 230.53,129.529 230.196,113.529 230.5,97.5 Z"/></g>
<g><path style="opacity:1" fill="#757685" d="M 153.5,100.5 C 152.942,101.79 151.942,102.623 150.5,103C 147.568,103.953 144.568,104.453 141.5,104.5C 141.2,112.223 141.533,119.89 142.5,127.5C 142.043,128.298 141.376,128.631 140.5,128.5C 140.417,120.748 140.417,112.748 140.5,104.5C 137.729,104.579 135.063,104.079 132.5,103C 134.527,102.502 136.527,102.669 138.5,103.5C 139.713,103.253 140.38,102.586 140.5,101.5C 140.833,101.5 141.167,101.5 141.5,101.5C 141.62,102.586 142.287,103.253 143.5,103.5C 146.955,102.804 150.288,101.804 153.5,100.5 Z"/></g>
<g><path style="opacity:0.329" fill="#243136" d="M 49.5,105.5 C 51.5441,106.031 53.2107,107.198 54.5,109C 53.8333,109.667 53.1667,109.667 52.5,109C 50.9371,108.241 49.9371,107.074 49.5,105.5 Z"/></g>
<g><path style="opacity:0.906" fill="#697077" d="M 75.5,108.5 C 80.8333,108.5 86.1667,108.5 91.5,108.5C 91.8016,111.059 91.4682,113.393 90.5,115.5C 90.5,113.5 90.5,111.5 90.5,109.5C 83.1591,109.334 75.8258,109.5 68.5,110C 67.0472,111.649 66.0472,113.482 65.5,115.5C 65.5,114.167 65.5,112.833 65.5,111.5C 63.8333,111.5 62.1667,111.5 60.5,111.5C 59.4324,110.566 58.099,110.232 56.5,110.5C 56.5,112.5 56.5,114.5 56.5,116.5C 56.1667,116.5 55.8333,116.5 55.5,116.5C 55.5,114.167 55.5,111.833 55.5,109.5C 62.1802,109.388 68.8469,109.054 75.5,108.5 Z"/></g>
<g><path style="opacity:1" fill="#fcfcfc" d="M 90.5,115.5 C 90.5172,117.565 90.8505,119.565 91.5,121.5C 91.5,124.167 91.5,126.833 91.5,129.5C 89.5853,129.216 87.9187,129.549 86.5,130.5C 76.8174,130.468 67.1507,130.801 57.5,131.5C 57.7257,126.438 57.3924,121.438 56.5,116.5C 56.5,114.5 56.5,112.5 56.5,110.5C 58.099,110.232 59.4324,110.566 60.5,111.5C 59.5,111.5 58.5,111.5 57.5,111.5C 57.5,112.833 57.5,114.167 57.5,115.5C 60.1667,115.5 62.8333,115.5 65.5,115.5C 66.0472,113.482 67.0472,111.649 68.5,110C 75.8258,109.5 83.1591,109.334 90.5,109.5C 90.5,111.5 90.5,113.5 90.5,115.5 Z"/></g>
<g><path style="opacity:1" fill="#d6d6d6" d="M 91.5,108.5 C 94.1667,108.5 96.8333,108.5 99.5,108.5C 99.7244,112.179 100.058,115.846 100.5,119.5C 100.5,122.833 100.5,126.167 100.5,129.5C 97.8333,129.5 95.1667,129.5 92.5,129.5C 92.8064,126.615 92.4731,123.948 91.5,121.5C 90.8505,119.565 90.5172,117.565 90.5,115.5C 91.4682,113.393 91.8016,111.059 91.5,108.5 Z"/></g>
<g><path style="opacity:1" fill="#c6bdd5" d="M 161.5,38.5 C 162.919,39.4511 164.585,39.7845 166.5,39.5C 167.167,39.5 167.5,39.8333 167.5,40.5C 168.5,40.5 169.5,40.5 170.5,40.5C 175.54,42.1788 180.54,44.1788 185.5,46.5C 186.209,47.404 187.209,47.7373 188.5,47.5C 191.833,49.8333 195.167,52.1667 198.5,54.5C 199.048,56.5323 200.381,57.5323 202.5,57.5C 204.5,59.1667 206.5,60.8333 208.5,62.5C 208.5,63.1667 208.833,63.5 209.5,63.5C 211.5,65.8333 213.5,68.1667 215.5,70.5C 215.5,71.1667 215.833,71.5 216.5,71.5C 218.098,73.6979 219.431,76.0313 220.5,78.5C 203.5,78.5 186.5,78.5 169.5,78.5C 169.127,69.256 168.127,69.256 166.5,78.5C 165.702,76.9223 165.202,75.2556 165,73.5C 164.168,89.4862 163.668,89.4862 163.5,73.5C 163.799,71.396 163.466,69.396 162.5,67.5C 161.893,67.6236 161.56,67.9569 161.5,68.5C 160.163,69.3149 159.163,70.4815 158.5,72C 157.551,72.6172 156.718,72.4506 156,71.5C 153.755,67.6168 154.255,66.9501 157.5,69.5C 158.855,68.8118 159.855,67.8118 160.5,66.5C 161.692,65.4341 161.359,64.6008 159.5,64C 157.735,63.3603 156.068,63.5269 154.5,64.5C 153.781,62.1119 152.115,60.6119 149.5,60C 142.102,57.5072 135.102,58.3406 128.5,62.5C 127.769,64.4012 127.769,66.4012 128.5,68.5C 128.167,68.5 127.833,68.5 127.5,68.5C 126.85,66.5648 126.517,64.5648 126.5,62.5C 124.833,62.5 123.167,62.5 121.5,62.5C 119.133,60.9277 117.133,61.261 115.5,63.5C 117.133,65.739 119.133,66.0723 121.5,64.5C 122.833,64.5 124.167,64.5 125.5,64.5C 125.5,65.8333 125.5,67.1667 125.5,68.5C 125.5,68.8333 125.5,69.1667 125.5,69.5C 125.5,69.8333 125.5,70.1667 125.5,70.5C 124.71,69.3915 124.21,68.0581 124,66.5C 115.489,84.8112 120.989,96.4779 140.5,101.5C 140.38,102.586 139.713,103.253 138.5,103.5C 136.527,102.669 134.527,102.502 132.5,103C 135.063,104.079 137.729,104.579 140.5,104.5C 140.417,112.748 140.417,120.748 140.5,128.5C 140.5,128.833 140.5,129.167 140.5,129.5C 138.738,129.357 137.071,129.691 135.5,130.5C 134.625,137.815 134.625,145.148 135.5,152.5C 139.371,152.815 143.038,152.482 146.5,151.5C 146.232,149.901 146.566,148.568 147.5,147.5C 147.663,149.857 147.497,152.19 147,154.5C 145.274,153.424 143.441,153.257 141.5,154C 143.874,154.848 145.874,156.181 147.5,158C 149.244,163.811 150.911,169.644 152.5,175.5C 152.747,176.713 153.414,177.38 154.5,177.5C 154.393,181.535 154.726,185.535 155.5,189.5C 155.205,191.971 154.205,194.137 152.5,196C 153.056,196.383 153.389,196.883 153.5,197.5C 138.313,195.823 125.48,189.49 115,178.5C 115.195,180.745 116.362,182.578 118.5,184C 115.5,183.667 112.5,183.333 109.5,183C 112.674,184.725 116.007,186.058 119.5,187C 116.833,187.333 114.167,187.667 111.5,188C 114.5,188.333 117.5,188.667 120.5,189C 118.269,190.147 115.935,191.147 113.5,192C 115.634,192.127 117.801,191.961 120,191.5C 129.641,193.738 138.475,197.738 146.5,203.5C 144.11,204.891 142.443,206.891 141.5,209.5C 141.167,209.5 140.833,209.5 140.5,209.5C 132.167,209.5 123.833,209.5 115.5,209.5C 115.5,208.167 115.5,206.833 115.5,205.5C 103.79,205.462 92.1236,205.129 80.5,204.5C 80.81,201.287 80.4767,198.287 79.5,195.5C 76.5,195.5 73.5,195.5 70.5,195.5C 70.5,198.5 70.5,201.5 70.5,204.5C 68.9139,205.413 67.4139,205.413 66,204.5C 64.7308,205.905 64.2308,207.571 64.5,209.5C 63.1667,209.5 61.8333,209.5 60.5,209.5C 55.6928,208.107 50.6928,207.44 45.5,207.5C 40.6969,205.558 36.0303,203.224 31.5,200.5C 32.9838,188.748 34.9838,177.081 37.5,165.5C 38.791,165.737 39.791,165.404 40.5,164.5C 42.8355,173.995 45.0022,183.662 47,193.5C 48.1033,191.371 48.6033,189.037 48.5,186.5C 47.8853,180.095 46.8853,173.762 45.5,167.5C 46.1577,168.398 46.8243,169.398 47.5,170.5C 56.559,163.131 63.2257,154.131 67.5,143.5C 66.7573,142.818 66.0906,142.151 65.5,141.5C 66.0577,140.21 67.0577,139.377 68.5,139C 71.8273,138.39 75.1606,137.89 78.5,137.5C 83.3224,136.8 87.3224,134.634 90.5,131C 89.2068,130.51 87.8734,130.343 86.5,130.5C 87.9187,129.549 89.5853,129.216 91.5,129.5C 94.6248,130.479 97.9581,130.813 101.5,130.5C 101.815,126.629 101.482,122.962 100.5,119.5C 100.058,115.846 99.7244,112.179 99.5,108.5C 96.8333,108.5 94.1667,108.5 91.5,108.5C 86.1667,108.5 80.8333,108.5 75.5,108.5C 76.5,107.167 77.5,105.833 78.5,104.5C 79.1667,104.5 79.5,104.167 79.5,103.5C 81.6326,101.909 83.2993,99.9095 84.5,97.5C 85.3382,97.1583 85.6716,96.4916 85.5,95.5C 86.9313,94.2196 87.5979,92.5529 87.5,90.5C 91.405,81.3071 95.2383,71.9737 99,62.5C 101.464,57.8845 104.631,53.8845 108.5,50.5C 109.833,49.1667 111.167,47.8333 112.5,46.5C 116.953,43.6066 121.62,41.2733 126.5,39.5C 128.415,39.7845 130.081,39.4511 131.5,38.5C 141.497,37.2014 151.497,37.2014 161.5,38.5 Z"/></g>
<g><path style="opacity:1" fill="#edeeee" d="M 147.5,73.5 C 149.414,76.6843 150.08,80.351 149.5,84.5C 147.586,81.3157 146.92,77.649 147.5,73.5 Z"/></g>
<g><path style="opacity:1" fill="#f9f9f9" d="M 142.5,73.5 C 143.167,73.5 143.833,73.5 144.5,73.5C 143.833,88.1667 143.167,88.1667 142.5,73.5 Z"/></g>
<g><path style="opacity:1" fill="#cccfd1" d="M 138.5,73.5 C 138.833,73.5 139.167,73.5 139.5,73.5C 140.482,76.9619 140.815,80.6286 140.5,84.5C 139.5,84.5 138.5,84.5 137.5,84.5C 137.185,80.6286 137.518,76.9619 138.5,73.5 Z"/></g>
<g><path style="opacity:1" fill="#c1c3c8" d="M 133.5,73.5 C 133.833,73.5 134.167,73.5 134.5,73.5C 135.482,76.9619 135.815,80.6286 135.5,84.5C 134.5,84.5 133.5,84.5 132.5,84.5C 132.185,80.6286 132.518,76.9619 133.5,73.5 Z"/></g>
<g><path style="opacity:1" fill="#433866" d="M 125.5,69.5 C 125.5,69.1667 125.5,68.8333 125.5,68.5C 126.167,68.5 126.833,68.5 127.5,68.5C 127.833,68.5 128.167,68.5 128.5,68.5C 135.833,68.5 143.167,68.5 150.5,68.5C 150.5,70.5 150.5,72.5 150.5,74.5C 150.813,78.0419 150.479,81.3752 149.5,84.5C 150.08,80.351 149.414,76.6843 147.5,73.5C 146.5,72.1667 145.5,72.1667 144.5,73.5C 143.833,73.5 143.167,73.5 142.5,73.5C 141.5,72.1667 140.5,72.1667 139.5,73.5C 139.167,73.5 138.833,73.5 138.5,73.5C 137.167,72.1667 135.833,72.1667 134.5,73.5C 134.167,73.5 133.833,73.5 133.5,73.5C 132.551,72.8476 131.385,72.5143 130,72.5C 128.319,72.6083 127.152,73.2749 126.5,74.5C 125.596,73.791 125.263,72.791 125.5,71.5C 157.5,70.8333 157.5,70.1667 125.5,69.5 Z"/></g>
<g><path style="opacity:1" fill="#54338a" d="M 125.5,69.5 C 157.5,70.1667 157.5,70.8333 125.5,71.5C 125.5,71.1667 125.5,70.8333 125.5,70.5C 125.5,70.1667 125.5,69.8333 125.5,69.5 Z"/></g>
<g><path style="opacity:1" fill="#57398a" d="M 160.5,66.5 C 159.855,67.8118 158.855,68.8118 157.5,69.5C 154.255,66.9501 153.755,67.6168 156,71.5C 156.718,72.4506 157.551,72.6172 158.5,72C 159.163,70.4815 160.163,69.3149 161.5,68.5C 162.913,74.898 160.246,77.0647 153.5,75C 149.749,67.2476 152.083,64.4143 160.5,66.5 Z"/></g>
<g><path style="opacity:1" fill="#383e4c" d="M 160.5,66.5 C 152.083,64.4143 149.749,67.2476 153.5,75C 160.246,77.0647 162.913,74.898 161.5,68.5C 161.56,67.9569 161.893,67.6236 162.5,67.5C 163.466,69.396 163.799,71.396 163.5,73.5C 162.662,73.8417 162.328,74.5084 162.5,75.5C 160.412,76.9395 158.079,77.6061 155.5,77.5C 155.795,79.7354 155.461,81.7354 154.5,83.5C 155.341,79.4251 154.008,76.4251 150.5,74.5C 150.5,72.5 150.5,70.5 150.5,68.5C 150.833,66.1667 152.167,64.8333 154.5,64.5C 156.068,63.5269 157.735,63.3603 159.5,64C 161.359,64.6008 161.692,65.4341 160.5,66.5 Z"/></g>
<g><path style="opacity:1" fill="#fcfcfc" d="M 121.5,62.5 C 123.167,62.5 124.833,62.5 126.5,62.5C 126.517,64.5648 126.85,66.5648 127.5,68.5C 126.833,68.5 126.167,68.5 125.5,68.5C 125.5,67.1667 125.5,65.8333 125.5,64.5C 124.167,64.5 122.833,64.5 121.5,64.5C 121.5,63.8333 121.5,63.1667 121.5,62.5 Z"/></g>
<g><path style="opacity:1" fill="#29353b" d="M 121.5,62.5 C 121.5,63.1667 121.5,63.8333 121.5,64.5C 119.133,66.0723 117.133,65.739 115.5,63.5C 117.133,61.261 119.133,60.9277 121.5,62.5 Z"/></g>
<g><path style="opacity:1" fill="#fdfdfd" d="M 154.5,64.5 C 152.167,64.8333 150.833,66.1667 150.5,68.5C 143.167,68.5 135.833,68.5 128.5,68.5C 127.769,66.4012 127.769,64.4012 128.5,62.5C 135.102,58.3406 142.102,57.5072 149.5,60C 152.115,60.6119 153.781,62.1119 154.5,64.5 Z"/></g>
<g><path style="opacity:1" fill="#523486" d="M 60.5,111.5 C 62.1667,111.5 63.8333,111.5 65.5,111.5C 65.5,112.833 65.5,114.167 65.5,115.5C 62.8333,115.5 60.1667,115.5 57.5,115.5C 57.5,114.167 57.5,112.833 57.5,111.5C 58.5,111.5 59.5,111.5 60.5,111.5 Z"/></g>
<g><path style="opacity:1" fill="#513583" d="M 103.5,111.5 C 108.173,110.509 111.506,112.176 113.5,116.5C 111.5,118.167 109.5,119.833 107.5,121.5C 104.083,119.03 102.75,115.697 103.5,111.5 Z"/></g>
<g><path style="opacity:1" fill="#f8f8f8" d="M 33.5,115.5 C 35.7872,120.005 37.4539,124.671 38.5,129.5C 39.5493,138.08 41.2159,146.413 43.5,154.5C 44.4245,158.79 45.0912,163.124 45.5,167.5C 46.8853,173.762 47.8853,180.095 48.5,186.5C 48.6033,189.037 48.1033,191.371 47,193.5C 45.0022,183.662 42.8355,173.995 40.5,164.5C 39.5755,160.21 38.9088,155.876 38.5,151.5C 36.7358,142.333 34.7358,133.333 32.5,124.5C 32.5567,122.116 32.2234,119.782 31.5,117.5C 31.7472,116.287 32.4138,115.62 33.5,115.5 Z"/></g>
<g><path style="opacity:1" fill="#f5f6f6" d="M 179.5,115.5 C 181.138,116.159 182.805,116.826 184.5,117.5C 185.227,121.322 186.227,124.989 187.5,128.5C 190.59,127.83 192.257,128.997 192.5,132C 191.056,134.949 189.39,137.782 187.5,140.5C 187.977,142.597 188.643,144.597 189.5,146.5C 190.876,149.658 191.542,152.991 191.5,156.5C 190.209,156.263 189.209,156.596 188.5,157.5C 181.774,159.297 175.108,161.297 168.5,163.5C 168.062,163.565 167.728,163.399 167.5,163C 170.491,157.345 175.158,154.011 181.5,153C 180.027,152.29 179.36,151.124 179.5,149.5C 185.802,147.274 185.802,145.941 179.5,145.5C 177.173,145.335 175.007,144.669 173,143.5C 172.951,138.936 172.117,134.603 170.5,130.5C 170.608,129.558 170.941,128.725 171.5,128C 172.872,127.598 174.205,127.098 175.5,126.5C 176.1,122.506 177.433,118.839 179.5,115.5 Z"/></g>
<g><path style="opacity:1" fill="#a9a8b4" d="M 33.5,115.5 C 35.1683,116.844 36.8349,118.177 38.5,119.5C 44.1092,118.111 49.7759,117.111 55.5,116.5C 55.8333,116.5 56.1667,116.5 56.5,116.5C 57.3924,121.438 57.7257,126.438 57.5,131.5C 67.1507,130.801 76.8174,130.468 86.5,130.5C 87.8734,130.343 89.2068,130.51 90.5,131C 87.3224,134.634 83.3224,136.8 78.5,137.5C 78.9528,136.542 79.6195,135.708 80.5,135C 68.6544,135.073 68.6544,134.406 80.5,133C 75.4158,132.222 70.4158,132.389 65.5,133.5C 62.7131,132.523 59.7131,132.19 56.5,132.5C 56.5,129.5 56.5,126.5 56.5,123.5C 50.5,123.5 44.5,123.5 38.5,123.5C 38.5,125.5 38.5,127.5 38.5,129.5C 37.4539,124.671 35.7872,120.005 33.5,115.5 Z"/></g>
<g><path style="opacity:1" fill="#c9bfd9" d="M 32.5,124.5 C 34.7358,133.333 36.7358,142.333 38.5,151.5C 37.5,151.5 36.5,151.5 35.5,151.5C 35.6695,153.848 36.0029,156.182 36.5,158.5C 34.271,171.726 31.6044,184.726 28.5,197.5C 16.0047,186.502 9.33808,172.502 8.5,155.5C 9.05319,141.305 15.3865,130.639 27.5,123.5C 28.5832,123.461 29.5832,123.127 30.5,122.5C 31.1818,123.243 31.8485,123.909 32.5,124.5 Z"/></g>
<g><path style="opacity:1" fill="#c3bad3" d="M 65.5,133.5 C 64.5,135.167 63.1667,136.5 61.5,137.5C 55.3263,140.532 49.8263,144.865 45,150.5C 44.2086,151.745 43.7086,153.078 43.5,154.5C 41.2159,146.413 39.5493,138.08 38.5,129.5C 38.5,127.5 38.5,125.5 38.5,123.5C 44.5,123.5 50.5,123.5 56.5,123.5C 56.5,126.5 56.5,129.5 56.5,132.5C 59.7131,132.19 62.7131,132.523 65.5,133.5 Z"/></g>
<g><path style="opacity:1" fill="#cac1da" d="M 147.5,134.5 C 147.88,132.302 147.213,130.635 145.5,129.5C 145.082,128.778 144.416,128.278 143.5,128C 151.493,127.5 159.493,127.334 167.5,127.5C 167.5,129.833 167.5,132.167 167.5,134.5C 160.833,134.5 154.167,134.5 147.5,134.5 Z"/></g>
<g><path style="opacity:1" fill="#7a7e86" d="M 100.5,119.5 C 101.482,122.962 101.815,126.629 101.5,130.5C 97.9581,130.813 94.6248,130.479 91.5,129.5C 91.5,126.833 91.5,124.167 91.5,121.5C 92.4731,123.948 92.8064,126.615 92.5,129.5C 95.1667,129.5 97.8333,129.5 100.5,129.5C 100.5,126.167 100.5,122.833 100.5,119.5 Z"/></g>
<g><path style="opacity:1" fill="#533488" d="M 144.5,144.5 C 146.19,144.856 147.19,145.856 147.5,147.5C 146.566,148.568 146.232,149.901 146.5,151.5C 143.5,151.5 140.5,151.5 137.5,151.5C 137.287,144.826 136.954,138.159 136.5,131.5C 139.448,131.777 142.281,131.444 145,130.5C 146.415,133.958 146.915,137.625 146.5,141.5C 145.5,141.5 144.5,141.5 143.5,141.5C 143.263,142.791 143.596,143.791 144.5,144.5 Z"/></g>
<g><path style="opacity:1" fill="#f9fafa" d="M 78.5,137.5 C 75.1606,137.89 71.8273,138.39 68.5,139C 67.0577,139.377 66.0577,140.21 65.5,141.5C 63.2273,141.043 61.894,139.71 61.5,137.5C 63.1667,136.5 64.5,135.167 65.5,133.5C 70.4158,132.389 75.4158,132.222 80.5,133C 68.6544,134.406 68.6544,135.073 80.5,135C 79.6195,135.708 78.9528,136.542 78.5,137.5 Z"/></g>
<g><path style="opacity:1" fill="#333e44" d="M 174.5,135.5 C 175.708,134.218 177.042,134.218 178.5,135.5C 177.135,138.125 175.802,138.125 174.5,135.5 Z"/></g>
<g><path style="opacity:1" fill="#4e5261" d="M 140.5,129.5 C 142.167,129.5 143.833,129.5 145.5,129.5C 147.213,130.635 147.88,132.302 147.5,134.5C 147.806,137.385 147.473,140.052 146.5,142.5C 145.167,142.5 144.5,143.167 144.5,144.5C 143.596,143.791 143.263,142.791 143.5,141.5C 144.5,141.5 145.5,141.5 146.5,141.5C 146.915,137.625 146.415,133.958 145,130.5C 142.281,131.444 139.448,131.777 136.5,131.5C 136.954,138.159 137.287,144.826 137.5,151.5C 140.5,151.5 143.5,151.5 146.5,151.5C 143.038,152.482 139.371,152.815 135.5,152.5C 134.625,145.148 134.625,137.815 135.5,130.5C 137.071,129.691 138.738,129.357 140.5,129.5 Z"/></g>
<g><path style="opacity:1" fill="#533586" d="M 61.5,137.5 C 61.894,139.71 63.2273,141.043 65.5,141.5C 66.0906,142.151 66.7573,142.818 67.5,143.5C 63.2257,154.131 56.559,163.131 47.5,170.5C 46.8243,169.398 46.1577,168.398 45.5,167.5C 45.0912,163.124 44.4245,158.79 43.5,154.5C 43.7086,153.078 44.2086,151.745 45,150.5C 49.8263,144.865 55.3263,140.532 61.5,137.5 Z"/></g>
<g><path style="opacity:1" fill="#f8f9f9" d="M 146.5,142.5 C 148.091,143.219 149.591,144.219 151,145.5C 151.333,149.167 151.667,152.833 152,156.5C 154.452,161.068 156.618,165.735 158.5,170.5C 156.396,172.372 155.063,174.705 154.5,177.5C 153.414,177.38 152.747,176.713 152.5,175.5C 150.911,169.644 149.244,163.811 147.5,158C 145.874,156.181 143.874,154.848 141.5,154C 143.441,153.257 145.274,153.424 147,154.5C 147.497,152.19 147.663,149.857 147.5,147.5C 147.19,145.856 146.19,144.856 144.5,144.5C 144.5,143.167 145.167,142.5 146.5,142.5 Z"/></g>
<g><path style="opacity:1" fill="#404b50" d="M 179.5,145.5 C 185.802,145.941 185.802,147.274 179.5,149.5C 179.5,148.167 179.5,146.833 179.5,145.5 Z"/></g>
<g><path style="opacity:1" fill="#c0b9cd" d="M 200.5,101.5 C 199.942,100.21 198.942,99.3768 197.5,99C 195.333,98.8333 193.167,98.6667 191,98.5C 178.636,98.5828 174.802,104.249 179.5,115.5C 177.433,118.839 176.1,122.506 175.5,126.5C 174.205,127.098 172.872,127.598 171.5,128C 170.941,128.725 170.608,129.558 170.5,130.5C 172.117,134.603 172.951,138.936 173,143.5C 175.007,144.669 177.173,145.335 179.5,145.5C 179.5,146.833 179.5,148.167 179.5,149.5C 179.36,151.124 180.027,152.29 181.5,153C 175.158,154.011 170.491,157.345 167.5,163C 167.728,163.399 168.062,163.565 168.5,163.5C 164.687,164.952 161.354,167.286 158.5,170.5C 156.618,165.735 154.452,161.068 152,156.5C 151.667,152.833 151.333,149.167 151,145.5C 149.591,144.219 148.091,143.219 146.5,142.5C 147.473,140.052 147.806,137.385 147.5,134.5C 154.167,134.5 160.833,134.5 167.5,134.5C 167.5,132.167 167.5,129.833 167.5,127.5C 159.493,127.334 151.493,127.5 143.5,128C 144.416,128.278 145.082,128.778 145.5,129.5C 143.833,129.5 142.167,129.5 140.5,129.5C 140.5,129.167 140.5,128.833 140.5,128.5C 141.376,128.631 142.043,128.298 142.5,127.5C 141.533,119.89 141.2,112.223 141.5,104.5C 144.568,104.453 147.568,103.953 150.5,103C 151.942,102.623 152.942,101.79 153.5,100.5C 156.335,99.863 157.668,98.363 157.5,96C 160.817,95.5017 164.15,95.335 167.5,95.5C 168.167,104.833 168.833,104.833 169.5,95.5C 188.5,95.5 207.5,95.5 226.5,95.5C 226.5,97.8333 226.5,100.167 226.5,102.5C 217.749,102.803 209.082,102.47 200.5,101.5 Z"/></g>
<g><path style="opacity:0.973" fill="#2b363d" d="M 38.5,151.5 C 38.9088,155.876 39.5755,160.21 40.5,164.5C 39.791,165.404 38.791,165.737 37.5,165.5C 34.9838,177.081 32.9838,188.748 31.5,200.5C 31.0798,202.674 31.0798,204.674 31.5,206.5C 36.1001,207.443 40.7668,207.777 45.5,207.5C 50.6928,207.44 55.6928,208.107 60.5,209.5C 60.5,209.833 60.5,210.167 60.5,210.5C 43.4967,210.667 26.4967,210.5 9.5,210C 15.8333,209.667 22.1667,209.333 28.5,209C 27.4829,205.227 27.4829,201.394 28.5,197.5C 31.6044,184.726 34.271,171.726 36.5,158.5C 36.0029,156.182 35.6695,153.848 35.5,151.5C 36.5,151.5 37.5,151.5 38.5,151.5 Z"/></g>
<g><path style="opacity:1" fill="#533586" d="M 188.5,157.5 C 189.833,157.5 191.167,157.5 192.5,157.5C 193.314,162.119 193.647,166.786 193.5,171.5C 190.914,185.509 184.914,198.009 175.5,209C 173.934,209.765 172.601,209.598 171.5,208.5C 181.777,196.33 187.11,182.33 187.5,166.5C 182.821,163.529 178.654,164.196 175,168.5C 170.939,178.174 166.772,187.84 162.5,197.5C 159.588,198.068 156.588,198.068 153.5,197.5C 153.389,196.883 153.056,196.383 152.5,196C 154.205,194.137 155.205,191.971 155.5,189.5C 154.726,185.535 154.393,181.535 154.5,177.5C 155.063,174.705 156.396,172.372 158.5,170.5C 161.354,167.286 164.687,164.952 168.5,163.5C 175.108,161.297 181.774,159.297 188.5,157.5 Z"/></g>
<g><path style="opacity:1" fill="#5e3f91" d="M 74.5,151.5 C 79.1522,152.104 80.6522,154.77 79,159.5C 77.3333,160.833 75.6667,160.833 74,159.5C 73.7238,161.767 73.0571,164.1 72,166.5C 67.1726,169.22 65.0059,167.553 65.5,161.5C 66.552,161.649 67.552,161.483 68.5,161C 67.6634,159.989 67.33,158.822 67.5,157.5C 69.1439,157.286 70.6439,157.62 72,158.5C 72.1534,155.849 72.9867,153.516 74.5,151.5 Z"/></g>
<g><path style="opacity:1" fill="#2a353d" d="M 217.5,209.5 C 193.866,210.502 168.2,210.835 140.5,210.5C 140.5,210.167 140.5,209.833 140.5,209.5C 140.833,209.5 141.167,209.5 141.5,209.5C 147.69,209.823 153.69,209.49 159.5,208.5C 163.5,209.833 167.5,209.833 171.5,208.5C 172.601,209.598 173.934,209.765 175.5,209C 184.914,198.009 190.914,185.509 193.5,171.5C 194.848,168.015 196.848,164.848 199.5,162C 205.089,160.455 208.422,162.455 209.5,168C 204.996,181.679 199.996,195.179 194.5,208.5C 202.138,209.497 209.804,209.831 217.5,209.5 Z"/></g>
<g><path style="opacity:1" fill="#f7f7f7" d="M 171.5,208.5 C 167.5,209.833 163.5,209.833 159.5,208.5C 154.927,207.421 150.593,205.754 146.5,203.5C 138.475,197.738 129.641,193.738 120,191.5C 117.801,191.961 115.634,192.127 113.5,192C 115.935,191.147 118.269,190.147 120.5,189C 117.5,188.667 114.5,188.333 111.5,188C 114.167,187.667 116.833,187.333 119.5,187C 116.007,186.058 112.674,184.725 109.5,183C 112.5,183.333 115.5,183.667 118.5,184C 116.362,182.578 115.195,180.745 115,178.5C 125.48,189.49 138.313,195.823 153.5,197.5C 156.588,198.068 159.588,198.068 162.5,197.5C 166.772,187.84 170.939,178.174 175,168.5C 178.654,164.196 182.821,163.529 187.5,166.5C 187.11,182.33 181.777,196.33 171.5,208.5 Z"/></g>
<g><path style="opacity:1" fill="#5d3d90" d="M 75.5,162.5 C 78.1194,162.232 80.6194,162.565 83,163.5C 83.1179,166.975 84.2846,169.975 86.5,172.5C 85.163,177.493 82.4963,178.493 78.5,175.5C 77.2528,173.994 77.2528,172.494 78.5,171C 76.2124,168.638 75.2124,165.805 75.5,162.5 Z"/></g>
<g><path style="opacity:1" fill="#634494" d="M 67.5,170.5 C 70.6405,169.908 72.9739,170.908 74.5,173.5C 73.2887,176.761 72.2887,180.095 71.5,183.5C 67.0408,186.44 64.3742,185.107 63.5,179.5C 63.5904,177.575 64.5904,176.408 66.5,176C 65.2427,173.924 65.576,172.09 67.5,170.5 Z"/></g>
<g><path style="opacity:1" fill="#5f4092" d="M 81.5,184.5 C 84.1268,184.293 85.7935,185.46 86.5,188C 85.3395,191.51 83.0061,192.844 79.5,192C 78.057,188.939 78.7236,186.439 81.5,184.5 Z"/></g>
<g><path style="opacity:1" fill="#2a363c" d="M 79.5,195.5 C 79.5,198.5 79.5,201.5 79.5,204.5C 76.3463,205.095 73.3463,205.095 70.5,204.5C 70.5,201.5 70.5,198.5 70.5,195.5C 73.5,195.5 76.5,195.5 79.5,195.5 Z"/></g>
<g><path style="opacity:1" fill="#523685" d="M 146.5,203.5 C 150.593,205.754 154.927,207.421 159.5,208.5C 153.69,209.49 147.69,209.823 141.5,209.5C 142.443,206.891 144.11,204.891 146.5,203.5 Z"/></g>
<g><path style="opacity:0.749" fill="#6f757c" d="M 79.5,195.5 C 80.4767,198.287 80.81,201.287 80.5,204.5C 92.1236,205.129 103.79,205.462 115.5,205.5C 115.5,206.833 115.5,208.167 115.5,209.5C 123.833,209.5 132.167,209.5 140.5,209.5C 140.5,209.833 140.5,210.167 140.5,210.5C 113.833,210.5 87.1667,210.5 60.5,210.5C 60.5,210.167 60.5,209.833 60.5,209.5C 61.8333,209.5 63.1667,209.5 64.5,209.5C 64.2308,207.571 64.7308,205.905 66,204.5C 67.4139,205.413 68.9139,205.413 70.5,204.5C 73.3463,205.095 76.3463,205.095 79.5,204.5C 79.5,201.5 79.5,198.5 79.5,195.5 Z"/></g>
<g><path style="opacity:1" fill="#fefefe" d="M 65.5,206.5 C 81.8333,206.5 98.1667,206.5 114.5,206.5C 114.5,207.5 114.5,208.5 114.5,209.5C 98.1667,209.5 81.8333,209.5 65.5,209.5C 65.5,208.5 65.5,207.5 65.5,206.5 Z"/></g>
<g><path style="opacity:0.444" fill="#263137" d="M 224.5,210.5 C 226.966,209.366 229.633,209.199 232.5,210C 229.854,210.497 227.187,210.664 224.5,210.5 Z"/></g>
</svg>
