<?xml version="1.0" encoding="UTF-8"?>
<!DOCTYPE svg PUBLIC "-//W3C//DTD SVG 1.1//EN" "http://www.w3.org/Graphics/SVG/1.1/DTD/svg11.dtd">
<svg xmlns="http://www.w3.org/2000/svg" version="1.1" width="70px" height="70px" style="shape-rendering:geometricPrecision; text-rendering:geometricPrecision; image-rendering:optimizeQuality; fill-rule:evenodd; clip-rule:evenodd" xmlns:xlink="http://www.w3.org/1999/xlink">
<g><path style="opacity:0.939" fill="#55348b" d="M 30.5,20.5 C 29.596,21.209 29.2627,22.209 29.5,23.5C 28.6618,23.8417 28.3284,24.5084 28.5,25.5C 27.6618,25.8417 27.3284,26.5084 27.5,27.5C 26.8333,27.5 26.5,27.8333 26.5,28.5C 25.0937,28.9731 24.427,29.9731 24.5,31.5C 23.8333,31.5 23.5,31.8333 23.5,32.5C 22.0937,32.9731 21.427,33.9731 21.5,35.5C 20.8333,35.5 20.5,35.8333 20.5,36.5C 19.8333,36.5 19.5,36.8333 19.5,37.5C 18.8333,37.5 18.5,37.8333 18.5,38.5C 17.8333,38.5 17.5,38.8333 17.5,39.5C 16.5,39.5 15.5,39.5 14.5,39.5C 14.5,38.8333 14.1667,38.5 13.5,38.5C 13.5,37.8333 13.1667,37.5 12.5,37.5C 12.5,36.8333 12.1667,36.5 11.5,36.5C 11.5,35.8333 11.1667,35.5 10.5,35.5C 10.5,34.8333 10.1667,34.5 9.5,34.5C 9.57298,32.9731 8.90632,31.9731 7.5,31.5C 5.42509,28.3544 3.59175,25.0211 2,21.5C 0.201024,4.96743 7.36769,-1.19924 23.5,3C 29.4465,7.33126 31.7799,13.1646 30.5,20.5 Z M 14.5,8.5 C 22.9965,10.4849 24.6632,14.9849 19.5,22C 11.0003,23.1711 7.83365,19.6711 10,11.5C 11.6516,10.6006 13.1516,9.60064 14.5,8.5 Z"/></g>
<g><path style="opacity:0.957" fill="#59348e" d="M 25.5,52.5 C 25.1583,51.6618 24.4916,51.3284 23.5,51.5C 21.5,50.1667 19.5,50.1667 17.5,51.5C 16.5084,51.3284 15.8417,51.6618 15.5,52.5C 12.1667,52.5 8.83333,52.5 5.5,52.5C 4.87213,45.0869 5.5388,38.0869 7.5,31.5C 7.42702,33.0269 8.09368,34.0269 9.5,34.5C 10.1667,34.5 10.5,34.8333 10.5,35.5C 11.1667,35.5 11.5,35.8333 11.5,36.5C 12.1667,36.5 12.5,36.8333 12.5,37.5C 13.1667,37.5 13.5,37.8333 13.5,38.5C 14.1667,38.5 14.5,38.8333 14.5,39.5C 15.5,40.8333 16.5,40.8333 17.5,39.5C 18.1667,39.5 18.5,39.1667 18.5,38.5C 19.1667,38.5 19.5,38.1667 19.5,37.5C 20.1667,37.5 20.5,37.1667 20.5,36.5C 21.1667,36.5 21.5,36.1667 21.5,35.5C 22.9063,35.0269 23.573,34.0269 23.5,32.5C 24.1667,32.5 24.5,32.1667 24.5,31.5C 25.9063,31.0269 26.573,30.0269 26.5,28.5C 27.1667,28.5 27.5,28.1667 27.5,27.5C 28.3382,27.1583 28.6716,26.4916 28.5,25.5C 29.3382,25.1583 29.6716,24.4916 29.5,23.5C 30.404,22.791 30.7373,21.791 30.5,20.5C 34.5231,18.5024 38.8564,18.0024 43.5,19C 44.428,19.3879 45.0946,20.0546 45.5,21C 46.4653,31.4604 46.7987,41.9604 46.5,52.5C 39.5,52.5 32.5,52.5 25.5,52.5 Z M 7.5,31.5 C 8.90632,31.9731 9.57298,32.9731 9.5,34.5C 8.09368,34.0269 7.42702,33.0269 7.5,31.5 Z M 23.5,32.5 C 23.573,34.0269 22.9063,35.0269 21.5,35.5C 21.427,33.9731 22.0937,32.9731 23.5,32.5 Z"/></g>
<g><path style="opacity:0.89" fill="#55348a" d="M 60.5,52.5 C 60.1583,51.6618 59.4916,51.3284 58.5,51.5C 56.5,50.1667 54.5,50.1667 52.5,51.5C 51.5084,51.3284 50.8417,51.6618 50.5,52.5C 49.5,52.5 48.5,52.5 47.5,52.5C 47.5,44.1667 47.5,35.8333 47.5,27.5C 52.5111,27.3341 57.5111,27.5007 62.5,28C 66.9634,35.5119 68.6301,43.6785 67.5,52.5C 65.1667,52.5 62.8333,52.5 60.5,52.5 Z M 50.5,32.5 C 53.5719,32.1826 56.5719,32.5159 59.5,33.5C 60.2728,36.4308 61.2728,39.2641 62.5,42C 58.2854,42.6587 54.2854,42.1587 50.5,40.5C 50.5,37.8333 50.5,35.1667 50.5,32.5 Z M 51.5,45.5 C 52.3764,45.3691 53.0431,45.7025 53.5,46.5C 51.1916,47.8734 50.5249,47.5401 51.5,45.5 Z"/></g>
<g><path style="opacity:0.88" fill="#55338b" d="M 17.5,51.5 C 19.5,51.5 21.5,51.5 23.5,51.5C 23.8417,52.3382 24.5084,52.6716 25.5,52.5C 25.8333,53.5 26.5,54.1667 27.5,54.5C 27.3284,55.4916 27.6618,56.1583 28.5,56.5C 28.0581,67.8384 23.0581,70.5051 13.5,64.5C 12.5934,61.5788 12.2601,58.5788 12.5,55.5C 13.8333,54.8333 14.8333,53.8333 15.5,52.5C 16.4916,52.6716 17.1583,52.3382 17.5,51.5 Z M 19.5,56.5 C 21.4841,56.484 22.4841,57.484 22.5,59.5C 22.5658,61.2664 21.7324,62.2664 20,62.5C 16.897,60.888 16.7304,58.888 19.5,56.5 Z"/></g>
<g><path style="opacity:0.887" fill="#54348a" d="M 52.5,51.5 C 54.5,51.5 56.5,51.5 58.5,51.5C 58.8417,52.3382 59.5084,52.6716 60.5,52.5C 60.8333,53.5 61.5,54.1667 62.5,54.5C 62.3284,55.4916 62.6618,56.1583 63.5,56.5C 63.0581,67.8384 58.0581,70.5051 48.5,64.5C 47.5934,61.5788 47.2601,58.5788 47.5,55.5C 48.8333,54.8333 49.8333,53.8333 50.5,52.5C 51.4916,52.6716 52.1583,52.3382 52.5,51.5 Z M 54.5,56.5 C 56.4841,56.484 57.4841,57.484 57.5,59.5C 57.5658,61.2664 56.7324,62.2664 55,62.5C 51.897,60.888 51.7304,58.888 54.5,56.5 Z"/></g>
<g><path style="opacity:0.767" fill="#54338a" d="M 12.5,55.5 C 11.776,57.2184 11.1094,59.0517 10.5,61C 9.16667,61.6667 7.83333,61.6667 6.5,61C 5.565,58.6194 5.23166,56.1194 5.5,53.5C 8.38779,52.9898 10.7211,53.6565 12.5,55.5 Z"/></g>
<g><path style="opacity:0.806" fill="#543389" d="M 27.5,54.5 C 30.6491,53.8349 33.9825,53.5016 37.5,53.5C 41.2386,53.5136 44.572,54.1803 47.5,55.5C 46.776,57.2184 46.1094,59.0517 45.5,61C 40.1771,61.4994 34.8437,61.666 29.5,61.5C 29.7845,59.5853 29.4511,57.9187 28.5,56.5C 28.6716,55.5084 28.3382,54.8417 27.5,54.5 Z"/></g>
<g><path style="opacity:0.747" fill="#513285" d="M 62.5,54.5 C 63.9187,53.5489 65.5853,53.2155 67.5,53.5C 67.5,56.1667 67.5,58.8333 67.5,61.5C 66.5,61.5 65.5,61.5 64.5,61.5C 64.7845,59.5853 64.4511,57.9187 63.5,56.5C 63.6716,55.5084 63.3382,54.8417 62.5,54.5 Z"/></g>
</svg>
