<?xml version="1.0" encoding="UTF-8"?>
<!DOCTYPE svg PUBLIC "-//W3C//DTD SVG 1.1//EN" "http://www.w3.org/Graphics/SVG/1.1/DTD/svg11.dtd">
<svg xmlns="http://www.w3.org/2000/svg" version="1.1" width="400px" height="400px" style="shape-rendering:geometricPrecision; text-rendering:geometricPrecision; image-rendering:optimizeQuality; fill-rule:evenodd; clip-rule:evenodd" xmlns:xlink="http://www.w3.org/1999/xlink">
<g><path style="opacity:0.995" fill="#b8b6ee" d="M 235.5,167.5 C 227.677,168.329 219.677,168.829 211.5,169C 216.333,169.167 221.167,169.333 226,169.5C 231.216,169.494 236.049,168.827 240.5,167.5C 241.404,168.209 241.737,169.209 241.5,170.5C 239.058,170.119 238.391,170.786 239.5,172.5C 241.631,173.169 243.631,173.835 245.5,174.5C 239.824,174.334 234.157,174.501 228.5,175C 233.582,175.219 238.582,175.719 243.5,176.5C 246.72,178.603 249.72,180.936 252.5,183.5C 250.5,184.167 248.5,184.833 246.5,185.5C 244.566,186.11 242.899,187.11 241.5,188.5C 238.678,190.904 235.345,192.238 231.5,192.5C 219.656,191.623 208.656,188.123 198.5,182C 195.594,178.689 193.927,174.856 193.5,170.5C 192.488,164.276 191.155,158.11 189.5,152C 191.286,150.317 191.619,148.484 190.5,146.5C 191.483,142.531 193.483,139.198 196.5,136.5C 198.379,137.341 200.379,137.675 202.5,137.5C 201.769,133.397 202.769,129.897 205.5,127C 204.956,126.283 204.289,125.783 203.5,125.5C 203.279,121.282 201.779,120.615 199,123.5C 198.536,122.906 198.369,122.239 198.5,121.5C 199.058,120.21 200.058,119.377 201.5,119C 199.292,118.809 197.292,118.309 195.5,117.5C 202.164,118.827 207.498,116.827 211.5,111.5C 207.555,110.509 203.555,110.176 199.5,110.5C 197.131,106.256 193.464,104.256 188.5,104.5C 179.377,104.802 173.71,109.302 171.5,118C 171.978,121.622 173.311,124.788 175.5,127.5C 176.209,133.549 179.542,136.215 185.5,135.5C 182.5,136.833 179.5,138.167 176.5,139.5C 173.231,139.884 170.397,141.218 168,143.5C 163.029,149.774 159.362,156.774 157,164.5C 155.04,177.419 152.54,190.086 149.5,202.5C 149.5,196.833 149.5,191.167 149.5,185.5C 146.167,185.5 142.833,185.5 139.5,185.5C 139.5,178.5 139.5,171.5 139.5,164.5C 137.265,164.795 135.265,164.461 133.5,163.5C 132.352,155.267 130.352,147.267 127.5,139.5C 124.813,139.664 122.146,139.497 119.5,139C 121.81,138.503 124.143,138.337 126.5,138.5C 125.697,134.761 124.697,131.095 123.5,127.5C 175.5,126.5 175.5,125.5 123.5,124.5C 121.752,107.213 128.419,94.3796 143.5,86C 181.134,71.9785 208.967,82.8119 227,118.5C 230.844,130.172 232.51,142.172 232,154.5C 232.872,158.943 234.038,163.276 235.5,167.5 Z"/></g>
<g><path style="opacity:1" fill="#fb940e" d="M 199.5,110.5 C 196.833,112.5 194.167,114.5 191.5,116.5C 185.782,119.686 180.448,123.352 175.5,127.5C 173.311,124.788 171.978,121.622 171.5,118C 173.71,109.302 179.377,104.802 188.5,104.5C 193.464,104.256 197.131,106.256 199.5,110.5 Z"/></g>
<g><path style="opacity:1" fill="#f4b928" d="M 199.5,110.5 C 203.555,110.176 207.555,110.509 211.5,111.5C 207.498,116.827 202.164,118.827 195.5,117.5C 194.167,117.167 192.833,116.833 191.5,116.5C 194.167,114.5 196.833,112.5 199.5,110.5 Z"/></g>
<g><path style="opacity:0.977" fill="#bebef1" d="M 238.5,111.5 C 240.144,111.286 241.644,111.62 243,112.5C 244.725,119.144 242.558,121.311 236.5,119C 235.057,115.939 235.724,113.439 238.5,111.5 Z"/></g>
<g><path style="opacity:1" fill="#2156d0" d="M 191.5,116.5 C 192.833,116.833 194.167,117.167 195.5,117.5C 197.292,118.309 199.292,118.809 201.5,119C 200.058,119.377 199.058,120.21 198.5,121.5C 197.178,121.33 196.011,121.663 195,122.5C 194.187,124.436 193.687,126.436 193.5,128.5C 193.5,128.833 193.5,129.167 193.5,129.5C 192.5,129.5 191.5,129.5 190.5,129.5C 191.014,127.488 191.18,125.488 191,123.5C 189.989,122.663 188.822,122.33 187.5,122.5C 187.665,126.182 187.499,129.848 187,133.5C 186.722,134.416 186.222,135.082 185.5,135.5C 179.542,136.215 176.209,133.549 175.5,127.5C 180.448,123.352 185.782,119.686 191.5,116.5 Z"/></g>
<g><path style="opacity:1" fill="#eb92a5" d="M 198.5,121.5 C 198.369,122.239 198.536,122.906 199,123.5C 201.779,120.615 203.279,121.282 203.5,125.5C 200.373,126.997 197.04,127.997 193.5,128.5C 193.687,126.436 194.187,124.436 195,122.5C 196.011,121.663 197.178,121.33 198.5,121.5 Z"/></g>
<g><path style="opacity:0.967" fill="#bbbaf0" d="M 94.5,125.5 C 105.515,125.065 108.515,129.565 103.5,139C 99.5835,140.987 95.7502,140.821 92,138.5C 89.578,133.445 90.4114,129.111 94.5,125.5 Z"/></g>
<g><path style="opacity:1" fill="#8564bc" d="M 123.5,124.5 C 175.5,125.5 175.5,126.5 123.5,127.5C 121.833,127.5 120.167,127.5 118.5,127.5C 118.5,126.5 118.5,125.5 118.5,124.5C 120.167,124.5 121.833,124.5 123.5,124.5 Z"/></g>
<g><path style="opacity:1" fill="#f48ea0" d="M 193.5,129.5 C 194.656,131.824 195.656,134.157 196.5,136.5C 193.483,139.198 191.483,142.531 190.5,146.5C 188.037,144.539 185.703,142.372 183.5,140C 181.19,139.503 178.857,139.337 176.5,139.5C 179.5,138.167 182.5,136.833 185.5,135.5C 186.222,135.082 186.722,134.416 187,133.5C 187.499,129.848 187.665,126.182 187.5,122.5C 188.822,122.33 189.989,122.663 191,123.5C 191.18,125.488 191.014,127.488 190.5,129.5C 191.5,129.5 192.5,129.5 193.5,129.5 Z"/></g>
<g><path style="opacity:0.957" fill="#5f5ec1" d="M 272.5,128.5 C 278.093,127.281 281.926,129.281 284,134.5C 295.37,127.234 303.537,129.901 308.5,142.5C 318.522,140.862 323.189,145.196 322.5,155.5C 299.5,155.5 276.5,155.5 253.5,155.5C 253.338,150.455 255.338,146.622 259.5,144C 261.112,143.28 262.612,143.446 264,144.5C 264.794,141.529 265.461,138.529 266,135.5C 267.413,132.396 269.58,130.063 272.5,128.5 Z"/></g>
<g><path style="opacity:1" fill="#f1edee" d="M 203.5,125.5 C 204.289,125.783 204.956,126.283 205.5,127C 202.769,129.897 201.769,133.397 202.5,137.5C 200.379,137.675 198.379,137.341 196.5,136.5C 195.656,134.157 194.656,131.824 193.5,129.5C 193.5,129.167 193.5,128.833 193.5,128.5C 197.04,127.997 200.373,126.997 203.5,125.5 Z"/></g>
<g><path style="opacity:1" fill="#fab80d" d="M 176.5,139.5 C 178.857,139.337 181.19,139.503 183.5,140C 185.703,142.372 188.037,144.539 190.5,146.5C 191.619,148.484 191.286,150.317 189.5,152C 191.155,158.11 192.488,164.276 193.5,170.5C 189.118,171.477 184.784,172.643 180.5,174C 183.838,179.511 186.504,185.344 188.5,191.5C 186.834,195.185 185.501,199.185 184.5,203.5C 182.596,203.738 181.262,204.738 180.5,206.5C 174.758,210.735 169.425,215.568 164.5,221C 161.609,222.274 158.942,223.774 156.5,225.5C 152.914,224.911 150.58,222.911 149.5,219.5C 149.5,213.833 149.5,208.167 149.5,202.5C 152.54,190.086 155.04,177.419 157,164.5C 159.362,156.774 163.029,149.774 168,143.5C 170.397,141.218 173.231,139.884 176.5,139.5 Z"/></g>
<g><path style="opacity:0.996" fill="#5f5ec1" d="M 98.5,168.5 C 98.5,172.833 98.5,177.167 98.5,181.5C 80.5,181.5 62.5,181.5 44.5,181.5C 44.7373,180.209 44.404,179.209 43.5,178.5C 44.5959,172.439 48.2626,170.105 54.5,171.5C 54.9518,167.837 55.4518,164.17 56,160.5C 62.2508,153.858 68.4175,153.858 74.5,160.5C 80.3294,155.365 86.3294,155.198 92.5,160C 94.3991,162.988 96.3991,165.821 98.5,168.5 Z"/></g>
<g><path style="opacity:1" fill="#fe9314" d="M 121.5,163.5 C 125.5,163.5 129.5,163.5 133.5,163.5C 135.265,164.461 137.265,164.795 139.5,164.5C 139.5,171.5 139.5,178.5 139.5,185.5C 125.833,186.833 112.167,186.833 98.5,185.5C 98.5,184.167 98.5,182.833 98.5,181.5C 99.4889,176.025 99.8222,170.358 99.5,164.5C 105.167,164.5 110.833,164.5 116.5,164.5C 116.5,168.5 116.5,172.5 116.5,176.5C 118.167,176.5 119.833,176.5 121.5,176.5C 121.5,172.167 121.5,167.833 121.5,163.5 Z"/></g>
<g><path style="opacity:1" fill="#d37b1f" d="M 121.5,163.5 C 121.5,167.833 121.5,172.167 121.5,176.5C 119.833,176.5 118.167,176.5 116.5,176.5C 116.5,172.5 116.5,168.5 116.5,164.5C 110.833,164.5 105.167,164.5 99.5,164.5C 99.8222,170.358 99.4889,176.025 98.5,181.5C 98.5,177.167 98.5,172.833 98.5,168.5C 98.5,166.833 98.5,165.167 98.5,163.5C 106.167,163.5 113.833,163.5 121.5,163.5 Z"/></g>
<g><path style="opacity:1" fill="#ffe3bc" d="M 127.5,167.5 C 130.5,167.5 133.5,167.5 136.5,167.5C 136.5,168.833 136.5,170.167 136.5,171.5C 133.5,171.5 130.5,171.5 127.5,171.5C 127.5,170.167 127.5,168.833 127.5,167.5 Z"/></g>
<g><path style="opacity:1" fill="#7750b2" d="M 235.5,167.5 C 237.167,167.5 238.833,167.5 240.5,167.5C 236.049,168.827 231.216,169.494 226,169.5C 221.167,169.333 216.333,169.167 211.5,169C 219.677,168.829 227.677,168.329 235.5,167.5 Z"/></g>
<g><path style="opacity:0.95" fill="#bbbaf1" d="M 292.5,168.5 C 301.099,169.698 303.266,174.032 299,181.5C 294.779,184.366 291.112,183.699 288,179.5C 286.651,174.485 288.151,170.818 292.5,168.5 Z"/></g>
<g><path style="opacity:1" fill="#fb96a6" d="M 193.5,170.5 C 193.927,174.856 195.594,178.689 198.5,182C 208.656,188.123 219.656,191.623 231.5,192.5C 235.345,192.238 238.678,190.904 241.5,188.5C 244.543,190.543 246.876,193.21 248.5,196.5C 247.173,197.8 245.84,199.133 244.5,200.5C 243.252,199.96 242.085,199.293 241,198.5C 240.601,198.728 240.435,199.062 240.5,199.5C 235.314,199.561 230.314,198.894 225.5,197.5C 214.743,199.041 204.076,198.541 193.5,196C 191.292,194.953 189.626,193.453 188.5,191.5C 186.504,185.344 183.838,179.511 180.5,174C 184.784,172.643 189.118,171.477 193.5,170.5 Z"/></g>
<g><path style="opacity:1" fill="#7b55b6" d="M 245.5,174.5 C 245.938,174.435 246.272,174.601 246.5,175C 245.263,175.232 244.263,175.732 243.5,176.5C 238.582,175.719 233.582,175.219 228.5,175C 234.157,174.501 239.824,174.334 245.5,174.5 Z"/></g>
<g><path style="opacity:0.291" fill="#8382d1" d="M 43.5,178.5 C 44.404,179.209 44.7373,180.209 44.5,181.5C 62.5,181.5 80.5,181.5 98.5,181.5C 98.5,182.833 98.5,184.167 98.5,185.5C 98.1667,185.5 97.8333,185.5 97.5,185.5C 97.5,184.5 97.5,183.5 97.5,182.5C 79.5,182.5 61.5,182.5 43.5,182.5C 43.5,181.167 43.5,179.833 43.5,178.5 Z"/></g>
<g><path style="opacity:1" fill="#c91a67" d="M 257.5,180.5 C 259.167,180.5 260.833,180.5 262.5,180.5C 262.5,186.5 262.5,192.5 262.5,198.5C 259.43,198.632 256.43,198.299 253.5,197.5C 250.557,194.068 249.891,190.235 251.5,186C 249.866,185.506 248.199,185.34 246.5,185.5C 248.5,184.833 250.5,184.167 252.5,183.5C 253.659,181.75 255.326,180.75 257.5,180.5 Z"/></g>
<g><path style="opacity:1" fill="#fa197a" d="M 246.5,185.5 C 248.199,185.34 249.866,185.506 251.5,186C 249.891,190.235 250.557,194.068 253.5,197.5C 253.875,199.698 254.542,201.698 255.5,203.5C 256.791,215.741 261.124,226.741 268.5,236.5C 274.962,238.413 277.628,242.746 276.5,249.5C 271.608,251.617 266.941,254.284 262.5,257.5C 259.772,267.621 255.438,276.954 249.5,285.5C 245.7,291.467 240.367,295.3 233.5,297C 209.478,297.57 185.478,297.07 161.5,295.5C 161.5,295.167 161.5,294.833 161.5,294.5C 168.768,292.695 176.435,291.861 184.5,292C 177.5,291.667 170.5,291.333 163.5,291C 177.987,275.547 177.987,260.213 163.5,245C 151.331,237.731 138.664,236.731 125.5,242C 109.766,250.4 97.2664,262.233 88,277.5C 87.51,276.207 87.3433,274.873 87.5,273.5C 89.7945,266.244 93.1279,259.578 97.5,253.5C 103.89,246.135 111.557,240.468 120.5,236.5C 121.72,234.019 123.386,232.019 125.5,230.5C 133.266,229.863 140.933,229.196 148.5,228.5C 151.833,228.5 155.167,228.5 158.5,228.5C 160.167,228.5 161.833,228.5 163.5,228.5C 166.333,236.669 171.666,242.669 179.5,246.5C 180.386,247.325 180.719,248.325 180.5,249.5C 180.335,252.85 180.502,256.183 181,259.5C 181.099,261.653 181.933,263.319 183.5,264.5C 185.965,270.251 190.298,273.918 196.5,275.5C 196.5,276.167 196.5,276.833 196.5,277.5C 195.5,277.5 194.5,277.5 193.5,277.5C 192.84,280.825 192.174,284.158 191.5,287.5C 191.55,289.923 192.55,291.756 194.5,293C 205.535,294.298 216.535,294.298 227.5,293C 229.584,292.303 231.251,291.136 232.5,289.5C 239.11,288.107 244.61,284.774 249,279.5C 252.562,271.709 255.562,263.709 258,255.5C 259.368,246.87 259.702,238.203 259,229.5C 255.649,218.423 252.149,207.423 248.5,196.5C 246.876,193.21 244.543,190.543 241.5,188.5C 242.899,187.11 244.566,186.11 246.5,185.5 Z"/></g>
<g><path style="opacity:1" fill="#e05fad" d="M 139.5,185.5 C 142.833,185.5 146.167,185.5 149.5,185.5C 149.5,191.167 149.5,196.833 149.5,202.5C 149.5,208.167 149.5,213.833 149.5,219.5C 149.802,222.059 149.468,224.393 148.5,226.5C 148.5,226.167 148.5,225.833 148.5,225.5C 148.5,212.5 148.5,199.5 148.5,186.5C 145.287,186.81 142.287,186.477 139.5,185.5 Z"/></g>
<g><path style="opacity:1" fill="#f71776" d="M 97.5,185.5 C 97.8333,185.5 98.1667,185.5 98.5,185.5C 112.167,186.833 125.833,186.833 139.5,185.5C 142.287,186.477 145.287,186.81 148.5,186.5C 148.5,199.5 148.5,212.5 148.5,225.5C 130.833,225.5 113.167,225.5 95.5,225.5C 95.1924,223.076 95.5258,220.743 96.5,218.5C 112.662,220.465 128.995,221.132 145.5,220.5C 145.5,219.5 145.5,218.5 145.5,217.5C 128.487,217.65 111.487,217.316 94.5,216.5C 94.1667,216.5 93.8333,216.5 93.5,216.5C 93.5,214.5 93.5,212.5 93.5,210.5C 93.5,202.167 93.5,193.833 93.5,185.5C 94.8333,185.5 96.1667,185.5 97.5,185.5 Z"/></g>
<g><path style="opacity:1" fill="#bf065c" d="M 99.5,187.5 C 111.851,187.168 124.185,187.501 136.5,188.5C 134.604,189.466 132.604,189.799 130.5,189.5C 130.703,191.39 130.037,192.89 128.5,194C 123.167,194.667 117.833,194.667 112.5,194C 111.62,192.644 111.286,191.144 111.5,189.5C 107.154,189.666 102.821,189.499 98.5,189C 99.056,188.617 99.3893,188.117 99.5,187.5 Z"/></g>
<g><path style="opacity:0.995" fill="#b8b6ef" d="M 267.5,188.5 C 280.668,191.901 294.001,194.734 307.5,197C 324.836,203.467 334.67,215.967 337,234.5C 337.862,244.252 337.362,253.918 335.5,263.5C 328.58,264.628 321.58,264.795 314.5,264C 314,263.5 313.5,263 313,262.5C 312.667,253.5 312.333,244.5 312,235.5C 311.5,235 311,234.5 310.5,234C 305.5,233.333 300.5,233.333 295.5,234C 295,234.5 294.5,235 294,235.5C 293.828,240.202 293.328,244.868 292.5,249.5C 291.264,250.246 289.93,250.579 288.5,250.5C 284.298,250.817 280.298,250.483 276.5,249.5C 277.628,242.746 274.962,238.413 268.5,236.5C 261.124,226.741 256.791,215.741 255.5,203.5C 255.5,202.167 255.5,200.833 255.5,199.5C 259.167,199.5 262.833,199.5 266.5,199.5C 266.185,195.629 266.518,191.962 267.5,188.5 Z"/></g>
<g><path style="opacity:1" fill="#b6b2eb" d="M 188.5,191.5 C 189.626,193.453 191.292,194.953 193.5,196C 204.076,198.541 214.743,199.041 225.5,197.5C 230.314,198.894 235.314,199.561 240.5,199.5C 244.582,208.003 248.415,216.669 252,225.5C 254.28,240.714 250.78,254.381 241.5,266.5C 240.671,258.343 240.171,250.01 240,241.5C 237.619,240.565 235.119,240.232 232.5,240.5C 231.57,236.6 231.237,232.6 231.5,228.5C 233.436,223.057 232.769,218.057 229.5,213.5C 229.929,208.075 227.596,204.242 222.5,202C 209.795,201.928 197.129,202.428 184.5,203.5C 185.501,199.185 186.834,195.185 188.5,191.5 Z"/></g>
<g><path style="opacity:1" fill="#c40e61" d="M 248.5,196.5 C 252.149,207.423 255.649,218.423 259,229.5C 259.702,238.203 259.368,246.87 258,255.5C 255.562,263.709 252.562,271.709 249,279.5C 244.61,284.774 239.11,288.107 232.5,289.5C 232.67,288.178 232.337,287.011 231.5,286C 225.103,282.73 218.436,280.064 211.5,278C 218.167,277.667 224.833,277.333 231.5,277C 233.587,276.208 235.421,275.041 237,273.5C 238.012,270.798 239.512,268.465 241.5,266.5C 250.78,254.381 254.28,240.714 252,225.5C 248.415,216.669 244.582,208.003 240.5,199.5C 240.435,199.062 240.601,198.728 241,198.5C 242.085,199.293 243.252,199.96 244.5,200.5C 245.84,199.133 247.173,197.8 248.5,196.5 Z"/></g>
<g><path style="opacity:1" fill="#ea91ce" d="M 257.5,180.5 C 260.304,179.362 263.304,179.195 266.5,180C 267.444,182.719 267.777,185.552 267.5,188.5C 266.518,191.962 266.185,195.629 266.5,199.5C 262.833,199.5 259.167,199.5 255.5,199.5C 255.5,200.833 255.5,202.167 255.5,203.5C 254.542,201.698 253.875,199.698 253.5,197.5C 256.43,198.299 259.43,198.632 262.5,198.5C 262.5,192.5 262.5,186.5 262.5,180.5C 260.833,180.5 259.167,180.5 257.5,180.5 Z"/></g>
<g><path style="opacity:1" fill="#3a0a70" d="M 229.5,213.5 C 227.567,211.404 225.233,209.904 222.5,209C 208.502,208.056 194.502,207.222 180.5,206.5C 181.262,204.738 182.596,203.738 184.5,203.5C 197.129,202.428 209.795,201.928 222.5,202C 227.596,204.242 229.929,208.075 229.5,213.5 Z"/></g>
<g><path style="opacity:1" fill="#6717a0" d="M 180.5,206.5 C 194.502,207.222 208.502,208.056 222.5,209C 225.233,209.904 227.567,211.404 229.5,213.5C 232.769,218.057 233.436,223.057 231.5,228.5C 230.883,228.611 230.383,228.944 230,229.5C 226.83,240.181 223.664,250.848 220.5,261.5C 219.069,262.78 218.402,264.447 218.5,266.5C 217.51,269.739 216.51,273.072 215.5,276.5C 212.833,276.5 210.167,276.5 207.5,276.5C 204.123,276.041 200.789,275.374 197.5,274.5C 197.196,273.85 196.863,273.183 196.5,272.5C 198.171,267.154 199.838,261.821 201.5,256.5C 204.42,246.901 207.086,237.234 209.5,227.5C 205.833,227.5 202.167,227.5 198.5,227.5C 186.827,227.667 175.161,228 163.5,228.5C 161.833,228.5 160.167,228.5 158.5,228.5C 157.833,227.5 157.167,226.5 156.5,225.5C 158.942,223.774 161.609,222.274 164.5,221C 169.425,215.568 174.758,210.735 180.5,206.5 Z"/></g>
<g><path style="opacity:0.948" fill="#d8d3f4" d="M 93.5,210.5 C 93.5,212.5 93.5,214.5 93.5,216.5C 86.1365,216.169 78.8032,216.503 71.5,217.5C 76.1315,218.328 80.7982,218.828 85.5,219C 84.2567,220.154 83.2567,221.488 82.5,223C 74.1733,223.5 65.84,223.666 57.5,223.5C 59.0861,220.798 60.0861,217.798 60.5,214.5C 59.0642,213.066 57.3975,211.9 55.5,211C 64.5,210.667 73.5,210.333 82.5,210C 83.6086,209.362 84.7753,208.862 86,208.5C 88.4966,209.249 90.9966,209.916 93.5,210.5 Z"/></g>
<g><path style="opacity:0.998" fill="#b3abe8" d="M 93.5,216.5 C 93.8333,216.5 94.1667,216.5 94.5,216.5C 94.5,219.833 94.5,223.167 94.5,226.5C 101.5,226.5 108.5,226.5 115.5,226.5C 118.622,228.428 121.955,229.761 125.5,230.5C 123.386,232.019 121.72,234.019 120.5,236.5C 111.557,240.468 103.89,246.135 97.5,253.5C 97.8242,249.445 97.4909,245.445 96.5,241.5C 88.3709,240.862 80.3709,240.195 72.5,239.5C 74.65,234.368 76.9834,229.368 79.5,224.5C 68.1027,224.954 60.7694,224.621 57.5,223.5C 65.84,223.666 74.1733,223.5 82.5,223C 83.2567,221.488 84.2567,220.154 85.5,219C 80.7982,218.828 76.1315,218.328 71.5,217.5C 78.8032,216.503 86.1365,216.169 93.5,216.5 Z"/></g>
<g><path style="opacity:1" fill="#d00e68" d="M 94.5,216.5 C 111.487,217.316 128.487,217.65 145.5,217.5C 145.5,218.5 145.5,219.5 145.5,220.5C 128.995,221.132 112.662,220.465 96.5,218.5C 95.5258,220.743 95.1924,223.076 95.5,225.5C 113.167,225.5 130.833,225.5 148.5,225.5C 148.5,225.833 148.5,226.167 148.5,226.5C 137.5,226.5 126.5,226.5 115.5,226.5C 108.5,226.5 101.5,226.5 94.5,226.5C 94.5,223.167 94.5,219.833 94.5,216.5 Z"/></g>
<g><path style="opacity:0.998" fill="#b7aedf" d="M 149.5,219.5 C 150.58,222.911 152.914,224.911 156.5,225.5C 157.167,226.5 157.833,227.5 158.5,228.5C 155.167,228.5 151.833,228.5 148.5,228.5C 148.5,227.833 148.5,227.167 148.5,226.5C 149.468,224.393 149.802,222.059 149.5,219.5 Z"/></g>
<g><path style="opacity:1" fill="#4a343c" d="M 115.5,226.5 C 126.5,226.5 137.5,226.5 148.5,226.5C 148.5,227.167 148.5,227.833 148.5,228.5C 140.933,229.196 133.266,229.863 125.5,230.5C 121.955,229.761 118.622,228.428 115.5,226.5 Z"/></g>
<g><path style="opacity:1" fill="#c20b61" d="M 198.5,227.5 C 193.919,232.584 189.085,237.584 184,242.5C 182.384,244.713 181.217,247.047 180.5,249.5C 180.719,248.325 180.386,247.325 179.5,246.5C 171.666,242.669 166.333,236.669 163.5,228.5C 175.161,228 186.827,227.667 198.5,227.5 Z"/></g>
<g><path style="opacity:1" fill="#b7b3ed" d="M 198.5,227.5 C 202.167,227.5 205.833,227.5 209.5,227.5C 207.086,237.234 204.42,246.901 201.5,256.5C 199.331,258.598 197.665,261.098 196.5,264C 192.179,264.499 187.846,264.666 183.5,264.5C 181.933,263.319 181.099,261.653 181,259.5C 180.502,256.183 180.335,252.85 180.5,249.5C 181.217,247.047 182.384,244.713 184,242.5C 189.085,237.584 193.919,232.584 198.5,227.5 Z"/></g>
<g><path style="opacity:1" fill="#36046e" d="M 231.5,228.5 C 231.237,232.6 231.57,236.6 232.5,240.5C 233.19,246.81 233.524,253.143 233.5,259.5C 231.901,259.232 230.568,259.566 229.5,260.5C 226.482,260.704 223.482,261.037 220.5,261.5C 223.664,250.848 226.83,240.181 230,229.5C 230.383,228.944 230.883,228.611 231.5,228.5 Z"/></g>
<g><path style="opacity:1" fill="#605ec1" d="M 335.5,263.5 C 338.368,263.085 340.535,264.085 342,266.5C 342.5,277.828 342.667,289.162 342.5,300.5C 347.511,300.334 352.511,300.501 357.5,301C 357.957,301.414 358.291,301.914 358.5,302.5C 343.515,303.499 328.515,303.833 313.5,303.5C 314.997,296.127 314.83,288.794 313,281.5C 311.599,277.619 309.099,274.953 305.5,273.5C 307.102,271.926 309.102,271.259 311.5,271.5C 310.375,266.181 307.709,261.681 303.5,258C 298.687,254.927 293.687,252.427 288.5,250.5C 289.93,250.579 291.264,250.246 292.5,249.5C 293.328,244.868 293.828,240.202 294,235.5C 294.5,235 295,234.5 295.5,234C 300.5,233.333 305.5,233.333 310.5,234C 311,234.5 311.5,235 312,235.5C 312.333,244.5 312.667,253.5 313,262.5C 313.5,263 314,263.5 314.5,264C 321.58,264.795 328.58,264.628 335.5,263.5 Z"/></g>
<g><path style="opacity:1" fill="#c3075e" d="M 161.5,294.5 C 159.833,294.5 158.167,294.5 156.5,294.5C 155.416,275.746 145.416,265.413 126.5,263.5C 109.438,265.228 100.105,274.561 98.5,291.5C 95.8333,291.5 93.1667,291.5 90.5,291.5C 85.2035,289.234 83.3702,285.234 85,279.5C 85.5662,277.277 86.3995,275.277 87.5,273.5C 87.3433,274.873 87.51,276.207 88,277.5C 97.2664,262.233 109.766,250.4 125.5,242C 138.664,236.731 151.331,237.731 163.5,245C 177.987,260.213 177.987,275.547 163.5,291C 170.5,291.333 177.5,291.667 184.5,292C 176.435,291.861 168.768,292.695 161.5,294.5 Z"/></g>
<g><path style="opacity:1" fill="#5f5ec1" d="M 72.5,239.5 C 80.3709,240.195 88.3709,240.862 96.5,241.5C 97.4909,245.445 97.8242,249.445 97.5,253.5C 93.1279,259.578 89.7945,266.244 87.5,273.5C 86.3995,275.277 85.5662,277.277 85,279.5C 83.3702,285.234 85.2035,289.234 90.5,291.5C 92.6074,292.468 94.9407,292.802 97.5,292.5C 97.4158,296.331 98.0825,299.998 99.5,303.5C 80.1667,303.5 60.8333,303.5 41.5,303.5C 41.5,302.5 41.5,301.5 41.5,300.5C 46.1667,300.5 50.8333,300.5 55.5,300.5C 54.3871,286.866 54.2204,273.199 55,259.5C 55.3176,257.939 56.1509,256.772 57.5,256C 60.5535,255.821 63.5535,255.321 66.5,254.5C 67.2787,249.887 67.7787,245.22 68,240.5C 69.3561,239.62 70.8561,239.286 72.5,239.5 Z"/></g>
<g><path style="opacity:1" fill="#fd83c4" d="M 276.5,249.5 C 280.298,250.483 284.298,250.817 288.5,250.5C 293.687,252.427 298.687,254.927 303.5,258C 307.709,261.681 310.375,266.181 311.5,271.5C 309.102,271.259 307.102,271.926 305.5,273.5C 301.764,273.541 298.764,274.874 296.5,277.5C 286.329,279.122 276.662,282.122 267.5,286.5C 264.037,287.099 260.704,288.099 257.5,289.5C 255.742,289.877 254.075,290.544 252.5,291.5C 251.199,289.556 250.199,287.556 249.5,285.5C 255.438,276.954 259.772,267.621 262.5,257.5C 266.941,254.284 271.608,251.617 276.5,249.5 Z"/></g>
<g><path style="opacity:1" fill="#eb6380" d="M 229.5,260.5 C 231.324,265.415 230.657,269.915 227.5,274C 221.32,275.32 218.32,272.82 218.5,266.5C 218.402,264.447 219.069,262.78 220.5,261.5C 223.482,261.037 226.482,260.704 229.5,260.5 Z"/></g>
<g><path style="opacity:1" fill="#635bbf" d="M 201.5,256.5 C 199.838,261.821 198.171,267.154 196.5,272.5C 196.863,273.183 197.196,273.85 197.5,274.5C 197.5,275.167 197.167,275.5 196.5,275.5C 190.298,273.918 185.965,270.251 183.5,264.5C 187.846,264.666 192.179,264.499 196.5,264C 197.665,261.098 199.331,258.598 201.5,256.5 Z"/></g>
<g><path style="opacity:1" fill="#fc85c5" d="M 156.5,294.5 C 152.833,294.5 149.167,294.5 145.5,294.5C 142.167,294.5 138.833,294.5 135.5,294.5C 130.025,293.511 124.358,293.178 118.5,293.5C 115.375,292.521 112.042,292.187 108.5,292.5C 104.833,292.5 101.167,292.5 97.5,292.5C 94.9407,292.802 92.6074,292.468 90.5,291.5C 93.1667,291.5 95.8333,291.5 98.5,291.5C 100.105,274.561 109.438,265.228 126.5,263.5C 145.416,265.413 155.416,275.746 156.5,294.5 Z"/></g>
<g><path style="opacity:1" fill="#4c128d" d="M 305.5,273.5 C 309.099,274.953 311.599,277.619 313,281.5C 314.83,288.794 314.997,296.127 313.5,303.5C 308.457,315.838 299.124,322.505 285.5,323.5C 280.362,322.563 275.362,321.23 270.5,319.5C 268.798,317.306 266.631,315.64 264,314.5C 261.308,311.112 259.141,307.445 257.5,303.5C 256.484,298.77 256.484,294.104 257.5,289.5C 260.704,288.099 264.037,287.099 267.5,286.5C 265.213,304.713 273.213,312.879 291.5,311C 303.076,305.621 306.91,296.788 303,284.5C 301.334,281.669 299.168,279.336 296.5,277.5C 298.764,274.874 301.764,273.541 305.5,273.5 Z"/></g>
<g><path style="opacity:1" fill="#f592a9" d="M 197.5,274.5 C 200.789,275.374 204.123,276.041 207.5,276.5C 206.159,278.932 203.992,280.266 201,280.5C 198.817,280.478 197.317,279.478 196.5,277.5C 196.5,276.833 196.5,276.167 196.5,275.5C 197.167,275.5 197.5,275.167 197.5,274.5 Z"/></g>
<g><path style="opacity:1" fill="#e1defa" d="M 296.5,277.5 C 299.168,279.336 301.334,281.669 303,284.5C 306.91,296.788 303.076,305.621 291.5,311C 273.213,312.879 265.213,304.713 267.5,286.5C 276.662,282.122 286.329,279.122 296.5,277.5 Z"/></g>
<g><path style="opacity:1" fill="#fedcee" d="M 127.5,279.5 C 123.688,278.676 119.688,278.176 115.5,278C 124.532,277.335 133.532,277.668 142.5,279C 137.511,279.499 132.511,279.666 127.5,279.5 Z"/></g>
<g><path style="opacity:1" fill="#5252ae" d="M 232.5,240.5 C 235.119,240.232 237.619,240.565 240,241.5C 240.171,250.01 240.671,258.343 241.5,266.5C 239.512,268.465 238.012,270.798 237,273.5C 235.421,275.041 233.587,276.208 231.5,277C 224.833,277.333 218.167,277.667 211.5,278C 218.436,280.064 225.103,282.73 231.5,286C 232.337,287.011 232.67,288.178 232.5,289.5C 231.251,291.136 229.584,292.303 227.5,293C 216.535,294.298 205.535,294.298 194.5,293C 192.55,291.756 191.55,289.923 191.5,287.5C 192.174,284.158 192.84,280.825 193.5,277.5C 194.5,277.5 195.5,277.5 196.5,277.5C 197.317,279.478 198.817,280.478 201,280.5C 203.992,280.266 206.159,278.932 207.5,276.5C 210.167,276.5 212.833,276.5 215.5,276.5C 216.51,273.072 217.51,269.739 218.5,266.5C 218.32,272.82 221.32,275.32 227.5,274C 230.657,269.915 231.324,265.415 229.5,260.5C 230.568,259.566 231.901,259.232 233.5,259.5C 233.524,253.143 233.19,246.81 232.5,240.5 Z"/></g>
<g><path style="opacity:1" fill="#fed9ed" d="M 127.5,279.5 C 131.312,280.324 135.312,280.824 139.5,281C 130.787,281.798 122.12,281.464 113.5,280C 118.155,279.501 122.821,279.334 127.5,279.5 Z"/></g>
<g><path style="opacity:1" fill="#fee0f0" d="M 111.5,281.5 C 120.245,281.935 128.912,282.769 137.5,284C 132.189,284.035 126.855,283.868 121.5,283.5C 117.761,283.486 114.428,282.82 111.5,281.5 Z"/></g>
<g><path style="opacity:1" fill="#4d138d" d="M 281.5,284.5 C 290.679,282.856 294.846,286.523 294,295.5C 289.392,302.54 284.059,303.207 278,297.5C 276.539,292.284 277.705,287.95 281.5,284.5 Z"/></g>
<g><path style="opacity:1" fill="#fed6eb" d="M 109.5,285.5 C 118.018,284.471 126.685,284.637 135.5,286C 126.826,286.416 118.159,286.25 109.5,285.5 Z"/></g>
<g><path style="opacity:1" fill="#645dbf" d="M 249.5,285.5 C 250.199,287.556 251.199,289.556 252.5,291.5C 254.075,290.544 255.742,289.877 257.5,289.5C 256.484,294.104 256.484,298.77 257.5,303.5C 223.094,303.174 188.76,303.507 154.5,304.5C 155.167,301.5 155.833,298.5 156.5,295.5C 158.167,295.5 159.833,295.5 161.5,295.5C 185.478,297.07 209.478,297.57 233.5,297C 240.367,295.3 245.7,291.467 249.5,285.5 Z"/></g>
<g><path style="opacity:1" fill="#4d138d" d="M 97.5,292.5 C 101.167,292.5 104.833,292.5 108.5,292.5C 110.072,307.553 118.405,313.719 133.5,311C 140.798,307.906 144.798,302.406 145.5,294.5C 149.167,294.5 152.833,294.5 156.5,294.5C 158.167,294.5 159.833,294.5 161.5,294.5C 161.5,294.833 161.5,295.167 161.5,295.5C 159.833,295.5 158.167,295.5 156.5,295.5C 155.833,298.5 155.167,301.5 154.5,304.5C 152.321,310.345 148.654,315.011 143.5,318.5C 132.944,322.086 122.277,322.42 111.5,319.5C 109.36,316.835 106.86,314.502 104,312.5C 102.192,309.562 100.692,306.562 99.5,303.5C 98.0825,299.998 97.4158,296.331 97.5,292.5 Z"/></g>
<g><path style="opacity:1" fill="#e2dffa" d="M 108.5,292.5 C 112.042,292.187 115.375,292.521 118.5,293.5C 120.469,301.317 125.135,303.483 132.5,300C 134.16,298.512 135.16,296.679 135.5,294.5C 138.833,294.5 142.167,294.5 145.5,294.5C 144.798,302.406 140.798,307.906 133.5,311C 118.405,313.719 110.072,307.553 108.5,292.5 Z"/></g>
<g><path style="opacity:1" fill="#51158e" d="M 118.5,293.5 C 124.358,293.178 130.025,293.511 135.5,294.5C 135.16,296.679 134.16,298.512 132.5,300C 125.135,303.483 120.469,301.317 118.5,293.5 Z"/></g>
<g><path style="opacity:0.909" fill="#b1b8cd" d="M 143.5,318.5 C 185.783,318.803 228.116,319.136 270.5,319.5C 271.684,320.688 271.684,321.855 270.5,323C 268.212,323.822 265.878,324.489 263.5,325C 251.324,325.311 239.158,325.811 227,326.5C 222.79,326.356 218.624,325.856 214.5,325C 211.532,322.683 208.199,321.183 204.5,320.5C 200.519,321.634 196.852,323.467 193.5,326C 163.477,326.528 133.477,325.861 103.5,324C 100.118,323.824 96.7848,323.324 93.5,322.5C 93.7093,321.914 94.0426,321.414 94.5,321C 100.088,319.711 105.755,319.211 111.5,319.5C 122.277,322.42 132.944,322.086 143.5,318.5 Z"/></g>
</svg>
