<?xml version="1.0" encoding="UTF-8"?>
<!DOCTYPE svg PUBLIC "-//W3C//DTD SVG 1.1//EN" "http://www.w3.org/Graphics/SVG/1.1/DTD/svg11.dtd">
<svg xmlns="http://www.w3.org/2000/svg" version="1.1" width="767px" height="771px" style="shape-rendering:geometricPrecision; text-rendering:geometricPrecision; image-rendering:optimizeQuality; fill-rule:evenodd; clip-rule:evenodd" xmlns:xlink="http://www.w3.org/1999/xlink">
<g><path style="opacity:0.004" fill="#dddddd" d="M 464.5,32.5 C 469.878,34.5932 475.545,35.9265 481.5,36.5C 482.791,36.2627 483.791,36.596 484.5,37.5C 486.515,38.9238 488.848,39.5905 491.5,39.5C 493.515,40.9238 495.848,41.5905 498.5,41.5C 503.801,44.2687 509.468,46.2687 515.5,47.5C 516.78,48.9313 518.447,49.5979 520.5,49.5C 527.236,51.3727 533.57,54.0394 539.5,57.5C 554.653,65.5762 569.653,73.9095 584.5,82.5C 584.973,83.9063 585.973,84.573 587.5,84.5C 590.135,85.8109 592.469,87.4776 594.5,89.5C 594.973,90.9063 595.973,91.573 597.5,91.5C 610.454,101.784 623.121,112.451 635.5,123.5C 640.167,127.5 644.5,131.833 648.5,136.5C 650.43,140.1 653.097,143.1 656.5,145.5C 661.744,153.745 667.744,161.412 674.5,168.5C 674.427,170.027 675.094,171.027 676.5,171.5C 677.974,172.436 678.974,173.77 679.5,175.5C 679.427,177.027 680.094,178.027 681.5,178.5C 683.719,183.709 686.719,188.376 690.5,192.5C 691.079,195.331 692.412,197.664 694.5,199.5C 695.079,202.331 696.412,204.664 698.5,206.5C 701.325,213.484 704.659,220.151 708.5,226.5C 709.674,227.514 710.34,228.847 710.5,230.5C 713.647,240.114 717.314,249.447 721.5,258.5C 723.072,261.215 724.072,264.215 724.5,267.5C 725.898,275.101 727.898,282.434 730.5,289.5C 731.768,291.905 732.435,294.572 732.5,297.5C 732.549,301.078 733.215,304.411 734.5,307.5C 736.201,313.919 736.867,320.585 736.5,327.5C 735.139,318.697 733.139,310.031 730.5,301.5C 724.55,270.639 713.883,241.639 698.5,214.5C 657.072,135.916 594.738,80.7491 511.5,49C 400.153,10.9013 293.82,21.568 192.5,81C 122.222,126.455 73.8888,188.955 47.5,268.5C 17.5509,360.82 23.0509,451.153 64,539.5C 65.9131,547.818 65.9131,556.152 64,564.5C 53.511,602.123 43.1776,639.789 33,677.5C 32.0775,681.79 31.5775,686.123 31.5,690.5C 27.9381,727.098 44.6048,742.932 81.5,738C 85.8477,737.427 90.181,736.76 94.5,736C 136.872,724.615 179.372,713.782 222,703.5C 235.015,706.06 247.515,710.227 259.5,716C 371.235,753.621 477.568,742.288 578.5,682C 630.652,647.687 670.986,602.854 699.5,547.5C 700.338,547.158 700.672,546.492 700.5,545.5C 714.827,519.528 724.827,491.862 730.5,462.5C 733.139,453.969 735.139,445.303 736.5,436.5C 736.867,443.415 736.201,450.081 734.5,456.5C 733.215,459.589 732.549,462.922 732.5,466.5C 732.435,469.428 731.768,472.095 730.5,474.5C 727.898,481.566 725.898,488.899 724.5,496.5C 724.405,498.786 723.738,500.786 722.5,502.5C 720.399,505.797 719.065,509.463 718.5,513.5C 715.734,518.117 713.734,523.117 712.5,528.5C 711.069,529.78 710.402,531.447 710.5,533.5C 710.008,535.819 709.008,537.819 707.5,539.5C 704.659,543.849 702.326,548.516 700.5,553.5C 700.34,555.153 699.674,556.486 698.5,557.5C 696.412,559.336 695.079,561.669 694.5,564.5C 689.778,571.23 685.445,578.23 681.5,585.5C 680.094,585.973 679.427,586.973 679.5,588.5C 678.094,588.973 677.427,589.973 677.5,591.5C 676.094,591.973 675.427,592.973 675.5,594.5C 673.738,595.262 672.738,596.596 672.5,598.5C 664.836,607.824 657.169,617.158 649.5,626.5C 644.5,632.167 639.167,637.5 633.5,642.5C 621.454,653.216 609.12,663.55 596.5,673.5C 594.973,673.427 593.973,674.094 593.5,675.5C 591.973,675.427 590.973,676.094 590.5,677.5C 588.853,679.326 586.853,680.66 584.5,681.5C 582.973,681.427 581.973,682.094 581.5,683.5C 570.995,689.251 560.662,695.251 550.5,701.5C 540.359,707.234 529.693,711.901 518.5,715.5C 508.621,718.459 498.954,721.792 489.5,725.5C 486.848,725.41 484.515,726.076 482.5,727.5C 478.761,729.102 474.761,730.102 470.5,730.5C 467.219,730.42 464.219,731.087 461.5,732.5C 436.294,738.226 410.627,740.892 384.5,740.5C 358.373,740.892 332.706,738.226 307.5,732.5C 304.781,731.087 301.781,730.42 298.5,730.5C 294.239,730.102 290.239,729.102 286.5,727.5C 284.485,726.076 282.152,725.41 279.5,725.5C 276.495,723.723 273.162,722.723 269.5,722.5C 268.209,722.737 267.209,722.404 266.5,721.5C 262.201,719.065 257.534,717.398 252.5,716.5C 251.22,715.069 249.553,714.402 247.5,714.5C 246.22,713.069 244.553,712.402 242.5,712.5C 241.22,711.069 239.553,710.402 237.5,710.5C 235.597,710.204 233.93,709.537 232.5,708.5C 229.305,706.97 225.805,706.304 222,706.5C 217.888,706.349 214.054,707.016 210.5,708.5C 208.095,709.768 205.428,710.435 202.5,710.5C 198.521,710.742 194.854,711.742 191.5,713.5C 189.095,714.768 186.428,715.435 183.5,715.5C 178.191,716.076 173.191,717.409 168.5,719.5C 167.432,720.434 166.099,720.768 164.5,720.5C 159.191,721.076 154.191,722.409 149.5,724.5C 147.095,725.768 144.428,726.435 141.5,726.5C 136.191,727.076 131.191,728.409 126.5,730.5C 124.095,731.768 121.428,732.435 118.5,732.5C 114.521,732.742 110.854,733.742 107.5,735.5C 102.122,737.593 96.4549,738.927 90.5,739.5C 85.306,739.741 80.306,740.407 75.5,741.5C 70.8333,741.5 66.1667,741.5 61.5,741.5C 56.6497,740.377 51.6497,739.377 46.5,738.5C 42.5867,735.932 38.92,732.932 35.5,729.5C 33.1266,726.218 31.6266,722.552 31,718.5C 30.2917,717.619 29.4584,716.953 28.5,716.5C 27.6287,708.2 27.2953,699.867 27.5,691.5C 27.7215,688.933 28.3882,686.599 29.5,684.5C 30.6572,681.727 31.3239,678.727 31.5,675.5C 42.5919,636.37 53.4252,597.036 64,557.5C 64.6667,553.167 64.6667,548.833 64,544.5C 63.7216,543.584 63.2216,542.918 62.5,542.5C 61.6618,542.158 61.3284,541.492 61.5,540.5C 60.6236,536.418 58.9569,532.751 56.5,529.5C 55.2656,524.117 53.2656,519.117 50.5,514.5C 49.9347,510.463 48.6013,506.797 46.5,503.5C 45.2616,501.786 44.595,499.786 44.5,497.5C 42.7686,488.567 40.4353,479.9 37.5,471.5C 36.5655,470.432 36.2322,469.099 36.5,467.5C 36.2462,462.556 35.2462,457.889 33.5,453.5C 22.8379,406.069 22.8379,358.736 33.5,311.5C 35.2368,306.77 36.2368,301.77 36.5,296.5C 36.2322,294.901 36.5655,293.568 37.5,292.5C 41.0006,281.32 44.3339,269.987 47.5,258.5C 47.2627,257.209 47.596,256.209 48.5,255.5C 51.3528,249.78 53.6862,243.78 55.5,237.5C 56.9313,236.22 57.5979,234.553 57.5,232.5C 57.6596,230.847 58.3263,229.514 59.5,228.5C 68.7371,210.354 78.7371,192.688 89.5,175.5C 90.9063,175.027 91.573,174.027 91.5,172.5C 92.9063,172.027 93.573,171.027 93.5,169.5C 102.539,159.129 111.205,148.462 119.5,137.5C 124.167,132.167 129.167,127.167 134.5,122.5C 146.546,111.784 158.88,101.45 171.5,91.5C 173.027,91.573 174.027,90.9063 174.5,89.5C 177.446,86.6869 180.779,84.3535 184.5,82.5C 198.68,74.243 213.013,66.243 227.5,58.5C 230.74,56.049 234.407,54.3824 238.5,53.5C 240.553,53.5979 242.22,52.9313 243.5,51.5C 245.553,51.5979 247.22,50.9313 248.5,49.5C 251.542,49.2671 254.208,48.2671 256.5,46.5C 263.784,44.7387 270.784,42.4054 277.5,39.5C 280.152,39.5905 282.485,38.9238 284.5,37.5C 291.427,36.435 298.094,34.7683 304.5,32.5C 357.833,20.5 411.167,20.5 464.5,32.5 Z"/></g>
<g><path style="opacity:0.008" fill="#7f807f" d="M 698.5,214.5 C 621.983,84.2197 507.65,22.3863 355.5,29C 228.595,42.3356 133.761,104.169 71,214.5C 62.2904,232.239 54.4571,250.239 47.5,268.5C 73.8888,188.955 122.222,126.455 192.5,81C 293.82,21.568 400.153,10.9013 511.5,49C 594.738,80.7491 657.072,135.916 698.5,214.5 Z"/></g>
<g><path style="opacity:0.012" fill="#bfbfbf" d="M 698.5,214.5 C 711.96,242.554 722.627,271.554 730.5,301.5C 732.412,313.31 734.412,324.977 736.5,336.5C 736.5,347.5 736.5,358.5 736.5,369.5C 734.159,370.508 733.159,369.508 733.5,366.5C 734.02,363.96 734.687,361.46 735.5,359C 733.144,353.094 731.978,353.594 732,360.5C 730.38,358.461 729.213,355.294 728.5,351C 728.667,350.5 728.833,350 729,349.5C 731.995,354.781 733.828,354.115 734.5,347.5C 734.124,345.617 733.124,344.117 731.5,343C 734.186,340.185 734.02,337.685 731,335.5C 730.572,340.498 729.739,340.665 728.5,336C 733,333.583 733.333,330.916 729.5,328C 732.258,325.598 731.925,323.598 728.5,322C 729.574,321.261 730.241,320.261 730.5,319C 729.353,316.291 728.353,313.624 727.5,311C 728.749,309.462 728.582,308.295 727,307.5C 726.055,307.905 725.388,308.572 725,309.5C 724.833,309 724.667,308.5 724.5,308C 726.763,306.757 727.597,304.924 727,302.5C 726.019,305.655 724.685,305.988 723,303.5C 722.667,303.833 722.333,304.167 722,304.5C 719.883,301.542 720.549,300.875 724,302.5C 726.009,301.518 726.509,300.185 725.5,298.5C 724.749,299.376 724.249,300.376 724,301.5C 722.47,300.364 721.137,299.364 720,298.5C 719.667,299.167 719.333,299.833 719,300.5C 717.831,295.869 718.998,295.202 722.5,298.5C 725.695,297.171 726.028,295.505 723.5,293.5C 724.813,291.482 724.147,290.315 721.5,290C 724.028,288.983 724.028,287.816 721.5,286.5C 721.694,284.597 721.694,282.763 721.5,281C 720.5,280.667 719.5,280.333 718.5,280C 721.078,277.843 721.078,276.677 718.5,276.5C 720.022,274.844 719.689,273.677 717.5,273C 718.815,271.605 718.481,270.605 716.5,270C 716.64,268.403 716.64,266.903 716.5,265.5C 715.833,265.167 715.167,264.833 714.5,264.5C 714.36,263.097 714.36,261.597 714.5,260C 713.833,259.667 713.167,259.333 712.5,259C 712.64,257.403 712.64,255.903 712.5,254.5C 712.032,252.866 711.032,251.7 709.5,251C 709.957,250.586 710.291,250.086 710.5,249.5C 709.833,249.167 709.167,248.833 708.5,248.5C 708.709,247.914 709.043,247.414 709.5,247C 708.562,245.937 707.562,244.77 706.5,243.5C 707.902,242.158 707.569,241.324 705.5,241C 706.634,239.984 706.301,239.317 704.5,239C 704.833,238.667 705.167,238.333 705.5,238C 704.413,236.391 703.247,234.891 702,233.5C 700.189,234.078 698.355,234.578 696.5,235C 697.167,235.333 697.833,235.667 698.5,236C 697.299,236.903 696.465,238.069 696,239.5C 693.815,235.706 694.982,233.54 699.5,233C 698.833,232.667 698.167,232.333 697.5,232C 701.57,229.79 701.403,229.29 697,230.5C 693.712,228.596 693.879,227.429 697.5,227C 696.5,226.667 695.5,226.333 694.5,226C 695.672,225.581 696.672,224.915 697.5,224C 695.913,223.138 694.246,222.471 692.5,222C 694.291,221.585 695.624,220.585 696.5,219C 695.527,216.365 693.86,214.365 691.5,213C 691.5,212 691.5,211 691.5,210C 690.167,209.333 688.833,208.667 687.5,208C 688.956,207.577 689.456,206.744 689,205.5C 683.889,207.111 683.389,206.277 687.5,203C 684.937,200.575 682.937,198.242 681.5,196C 681.5,195 681.5,194 681.5,193C 679.631,190.686 677.631,190.353 675.5,192C 677.569,192.324 677.902,193.158 676.5,194.5C 677.376,195.251 678.376,195.751 679.5,196C 678.167,196.333 676.833,196.667 675.5,197C 676.357,197.689 677.023,198.522 677.5,199.5C 676.233,201.371 676.233,203.204 677.5,205C 676.333,206.784 675.333,206.784 674.5,205C 675.141,201.465 675.474,197.965 675.5,194.5C 675.167,194.167 674.833,193.833 674.5,193.5C 673.749,194.376 673.249,195.376 673,196.5C 672.318,194.062 672.818,191.895 674.5,190C 673.978,189.05 673.311,188.216 672.5,187.5C 673.688,187.693 675.022,187.193 676.5,186C 675.853,184.007 674.187,182.341 671.5,181C 671.833,180.667 672.167,180.333 672.5,180C 671.514,177.672 669.514,175.672 666.5,174C 667.833,173.333 667.833,172.667 666.5,172C 665.668,171.312 665.002,171.479 664.5,172.5C 665.506,173.396 665.506,174.062 664.5,174.5C 663.5,174 662.5,173.5 661.5,173C 662.364,171.863 663.364,170.53 664.5,169C 663.228,167.693 662.228,166.193 661.5,164.5C 657.981,163.114 654.648,161.281 651.5,159C 652.996,158.493 654.163,158.993 655,160.5C 655.5,160 656,159.5 656.5,159C 654.651,157.907 652.984,156.574 651.5,155C 652.061,153.434 651.394,152.101 649.5,151C 648.668,150.312 648.002,150.479 647.5,151.5C 648.313,152.814 649.313,153.981 650.5,155C 650.167,155.167 649.833,155.333 649.5,155.5C 644.654,152.243 639.988,148.743 635.5,145C 636.167,144.333 636.833,144.333 637.5,145C 639.911,146.955 642.411,148.789 645,150.5C 645.5,150 646,149.5 646.5,149C 646.018,147.992 645.852,146.825 646,145.5C 637.167,138 629,129.833 621.5,121C 618.218,120.101 615.551,117.768 613.5,114C 612.551,113.383 611.718,113.549 611,114.5C 609.708,112.751 608.542,110.918 607.5,109C 606.551,108.383 605.718,108.549 605,109.5C 604.558,107.321 603.558,106.655 602,107.5C 599.003,105.841 596.336,103.174 594,99.5C 592.899,101.394 591.566,102.061 590,101.5C 589.5,101 589,100.5 588.5,100C 589.624,99.7508 590.624,99.2508 591.5,98.5C 591.154,97.3044 590.654,97.3044 590,98.5C 589,97.1667 588,95.8333 587,94.5C 585.442,95.3452 584.442,94.6785 584,92.5C 582.442,93.3452 581.442,92.6785 581,90.5C 579.442,91.3452 578.442,90.6785 578,88.5C 576.442,89.3452 575.442,88.6785 575,86.5C 573.442,87.3452 572.442,86.6785 572,84.5C 570.442,85.3452 569.442,84.6785 569,82.5C 568.667,82.8333 568.333,83.1667 568,83.5C 566.345,83.1976 565.012,81.8642 564,79.5C 562.984,80.6341 562.317,80.3008 562,78.5C 560.927,79.2797 559.76,79.113 558.5,78C 557.167,76.6667 555.833,75.3333 554.5,74C 553.007,72.6319 551.507,72.4652 550,73.5C 549.085,72.6721 548.419,71.6721 548,70.5C 546.984,71.6341 546.317,71.3008 546,69.5C 544.984,70.6341 544.317,70.3008 544,68.5C 542.984,69.6341 542.317,69.3008 542,67.5C 540.984,68.6341 540.317,68.3008 540,66.5C 538.984,67.6341 538.317,67.3008 538,65.5C 537,65.5 536,65.5 535,65.5C 534.676,63.4311 533.842,63.0977 532.5,64.5C 531.304,64.1543 531.304,63.6543 532.5,63C 531.007,61.6319 529.507,61.4652 528,62.5C 527.683,60.6992 527.016,60.3659 526,61.5C 524.856,59.0829 523.19,58.4162 521,59.5C 520.309,57.1088 519.309,57.1088 518,59.5C 517.383,58.5509 517.549,57.7175 518.5,57C 517.256,56.5439 516.423,57.0439 516,58.5C 515.667,57.5 515.333,56.5 515,55.5C 514.667,55.8333 514.333,56.1667 514,56.5C 513,53.8333 512,53.8333 511,56.5C 510.344,52.9984 509.011,52.9984 507,56.5C 505.795,55.9288 504.628,55.2621 503.5,54.5C 504.167,53.8333 504.833,53.1667 505.5,52.5C 505.167,52.1667 504.833,51.8333 504.5,51.5C 503.097,51.3602 501.597,51.3602 500,51.5C 499.309,49.1088 498.309,49.1088 497,51.5C 496.716,49.1144 495.716,48.4477 494,49.5C 493.692,48.6919 493.192,48.0253 492.5,47.5C 491.097,47.3602 489.597,47.3602 488,47.5C 487.323,45.311 486.156,44.9776 484.5,46.5C 484.167,45.8333 483.833,45.1667 483.5,44.5C 481.362,45.4289 480.196,47.0955 480,49.5C 479.276,47.0411 477.943,46.0411 476,46.5C 475.5,46 475,45.5 474.5,45C 475.956,44.5774 476.456,43.7441 476,42.5C 474.488,43.2567 473.154,44.2567 472,45.5C 471.5,45 471,44.5 470.5,44C 474.367,42.0125 474.367,41.5125 470.5,42.5C 469.407,40.2303 467.907,39.897 466,41.5C 464.324,38.84 462.657,38.84 461,41.5C 460.517,40.552 460.351,39.552 460.5,38.5C 457.612,38.2196 456.112,39.5529 456,42.5C 455.5,42 455,41.5 454.5,41C 455.731,39.8173 455.731,38.6507 454.5,37.5C 452.568,38.1455 451.401,39.4788 451,41.5C 449.581,40.5399 448.081,39.7065 446.5,39C 447.938,38.7811 449.271,38.2811 450.5,37.5C 450.167,37.1667 449.833,36.8333 449.5,36.5C 447.208,38.0244 445.208,37.6911 443.5,35.5C 442.252,36.0402 441.085,36.7069 440,37.5C 437.268,33.5054 434.934,33.8387 433,38.5C 431.184,37.6705 429.351,36.8372 427.5,36C 429.256,35.7978 430.922,35.2978 432.5,34.5C 430.229,33.6365 427.895,33.6365 425.5,34.5C 425.33,35.8221 425.663,36.9887 426.5,38C 425.167,38.6667 423.833,38.6667 422.5,38C 423.167,37.6667 423.833,37.3333 424.5,37C 416.652,35.4029 416.652,34.4029 424.5,34C 420.645,31.6061 417.645,32.4395 415.5,36.5C 412.252,35.3546 408.919,34.5213 405.5,34C 408.5,33.6667 411.5,33.3333 414.5,33C 409.308,30.7187 404.641,31.5521 400.5,35.5C 389.833,34.1667 379.167,34.1667 368.5,35.5C 365.938,32.9181 362.771,31.5847 359,31.5C 352.434,32.9935 352.267,34.1602 358.5,35C 356.782,35.346 355.115,35.846 353.5,36.5C 350.439,31.6549 346.939,31.3215 343,35.5C 341.007,33.6218 338.841,33.2885 336.5,34.5C 338.078,35.2978 339.744,35.7978 341.5,36C 339.649,36.8372 337.816,37.6705 336,38.5C 335.517,37.552 335.351,36.552 335.5,35.5C 332.452,33.5297 330.285,34.1964 329,37.5C 327.915,36.7069 326.748,36.0402 325.5,35.5C 323.751,37.5314 321.751,37.8647 319.5,36.5C 319.167,36.8333 318.833,37.1667 318.5,37.5C 319.729,38.2811 321.062,38.7811 322.5,39C 320.919,39.7065 319.419,40.5399 318,41.5C 317.599,39.4788 316.432,38.1455 314.5,37.5C 313.269,38.6507 313.269,39.8173 314.5,41C 314,41.5 313.5,42 313,42.5C 312.882,40.4267 311.882,39.0933 310,38.5C 307.667,39.5 305.333,40.5 303,41.5C 301.124,39.8769 299.79,40.2102 299,42.5C 298,41.8333 297,41.1667 296,40.5C 296.077,41.7376 295.911,42.7376 295.5,43.5C 293.5,43.5 291.5,43.5 289.5,43.5C 287.942,44.371 286.275,45.371 284.5,46.5C 282.844,44.9776 281.677,45.311 281,47.5C 279.605,46.1854 278.605,46.5188 278,48.5C 276.605,47.1854 275.605,47.5188 275,49.5C 273.605,48.1854 272.605,48.5188 272,50.5C 270.403,50.3602 268.903,50.3602 267.5,50.5C 266.803,52.3845 265.803,52.7178 264.5,51.5C 264.167,52.1667 263.833,52.8333 263.5,53.5C 261.898,52.45 261.065,53.1167 261,55.5C 259.221,52.7236 258.221,53.0569 258,56.5C 257.692,55.6919 257.192,55.0253 256.5,54.5C 256.089,55.2624 255.923,56.2624 256,57.5C 254.221,54.7236 253.221,55.0569 253,58.5C 252.692,57.6919 252.192,57.0253 251.5,56.5C 251.089,57.2624 250.923,58.2624 251,59.5C 250.333,58.8333 249.667,58.1667 249,57.5C 248,58.5 247,59.5 246,60.5C 244.497,60.1654 243.164,60.1654 242,60.5C 241,61.5 240,62.5 239,63.5C 237.493,62.4652 235.993,62.6319 234.5,64C 235.563,65.1882 236.897,65.6882 238.5,65.5C 238.543,69.8926 238.043,70.2259 237,66.5C 236.667,67.1667 236.333,67.8333 236,68.5C 235.16,65.5363 234.16,65.203 233,67.5C 231.691,65.1088 230.691,65.1088 230,67.5C 228.984,66.3659 228.317,66.6992 228,68.5C 226.984,67.3659 226.317,67.6992 226,69.5C 225,69.5 224,69.5 223,69.5C 221.888,72.3029 220.054,73.3029 217.5,72.5C 216.5,73 215.5,73.5 214.5,74C 212.834,74.9969 211.334,76.4969 210,78.5C 208.984,77.3659 208.317,77.6992 208,79.5C 207,79.5 206,79.5 205,79.5C 202.667,81.5 200.333,83.5 198,85.5C 197.667,85.1667 197.333,84.8333 197,84.5C 196.558,86.6785 195.558,87.3452 194,86.5C 194.333,87.8333 194.667,89.1667 195,90.5C 193.984,89.3659 193.317,89.6992 193,91.5C 192.581,90.3279 191.915,89.3279 191,88.5C 189.333,90.1667 187.667,91.8333 186,93.5C 185.667,93.1667 185.333,92.8333 185,92.5C 184.558,94.6785 183.558,95.3452 182,94.5C 180.985,97.0629 179.485,98.3962 177.5,98.5C 178.376,99.2508 179.376,99.7508 180.5,100C 180,100.5 179.5,101 179,101.5C 177.434,102.061 176.101,101.394 175,99.5C 173.661,102.377 171.827,104.044 169.5,104.5C 170.376,105.251 171.376,105.751 172.5,106C 171.638,108.734 170.805,108.901 170,106.5C 168.667,107.833 167.333,107.833 166,106.5C 164.796,110.573 162.796,114.239 160,117.5C 159.309,115.109 158.309,115.109 157,117.5C 156.333,116.833 155.667,116.167 155,115.5C 152.163,118.518 149.829,121.851 148,125.5C 147.333,124.833 146.667,124.167 146,123.5C 139.833,129.667 133.667,135.833 127.5,142C 127.833,142.333 128.167,142.667 128.5,143C 127.107,144.171 126.273,145.671 126,147.5C 124.581,148.46 123.081,149.293 121.5,150C 122.749,151.824 123.915,151.657 125,149.5C 125.667,150.167 125.667,150.833 125,151.5C 123.045,152.453 121.378,153.787 120,155.5C 119.508,154.451 119.674,153.451 120.5,152.5C 119.998,151.479 119.332,151.312 118.5,152C 117.167,152.667 117.167,153.333 118.5,154C 114.162,157.002 110.828,160.335 108.5,164C 109,164.5 109.5,165 110,165.5C 111.049,164.483 112.216,164.316 113.5,165C 112.167,165.667 110.833,166.333 109.5,167C 109.943,168.518 109.276,169.685 107.5,170.5C 107.346,169.091 107.179,167.424 107,165.5C 106.535,166.931 105.701,168.097 104.5,169C 104.833,169.333 105.167,169.667 105.5,170C 102.813,173.683 99.813,177.017 96.5,180C 98.1247,180.853 98.4581,181.853 97.5,183C 98.9448,184.71 99.7782,186.544 100,188.5C 97.779,187.066 96.279,185.066 95.5,182.5C 94.3044,182.846 94.3044,183.346 95.5,184C 94.6721,184.915 93.6721,185.581 92.5,186C 93.1667,186.333 93.8333,186.667 94.5,187C 93.1667,187.667 91.8333,188.333 90.5,189C 91.1667,189.333 91.8333,189.667 92.5,190C 91.1667,190.667 89.8333,191.333 88.5,192C 88.8333,192.333 89.1667,192.667 89.5,193C 87.1667,194 85.5,195.667 84.5,198C 85.6341,199.016 85.3008,199.683 83.5,200C 83.8333,200.333 84.1667,200.667 84.5,201C 83.4214,201.956 82.2547,202.789 81,203.5C 79.4445,208.457 77.2778,213.291 74.5,218C 75.3279,218.915 76.3279,219.581 77.5,220C 75.5,220.333 73.5,220.667 71.5,221C 71.2545,222.06 71.2545,223.227 71.5,224.5C 69.3564,225.886 68.023,227.386 67.5,229C 68.1566,231.579 69.1566,234.079 70.5,236.5C 68.4247,236.302 66.4247,236.135 64.5,236C 64.8333,236.333 65.1667,236.667 65.5,237C 64.1667,238.667 62.8333,240.333 61.5,242C 63.3985,243.978 62.7318,245.645 59.5,247C 59.1654,248.164 59.1654,249.497 59.5,251C 57.4311,251.324 57.0977,252.158 58.5,253.5C 58.1543,254.696 57.6543,254.696 57,253.5C 56.3828,254.449 56.5494,255.282 57.5,256C 55.4311,256.324 55.0977,257.158 56.5,258.5C 54.8027,260.553 53.4694,262.887 52.5,265.5C 55.0756,266.883 54.7423,267.717 51.5,268C 54.2764,269.779 53.9431,270.779 50.5,271C 53.1307,272.691 52.7973,273.858 49.5,274.5C 51.713,277.08 53.8797,277.08 56,274.5C 57.0674,275.191 58.2341,275.691 59.5,276C 57.5188,276.605 57.1854,277.605 58.5,279C 57.2845,281.096 56.4512,280.929 56,278.5C 54.6667,279.167 53.6667,280.167 53,281.5C 52.3333,280.167 51.6667,280.167 51,281.5C 50.5439,280.256 51.0439,279.423 52.5,279C 51.354,278.355 50.354,277.522 49.5,276.5C 48.2888,277.274 48.2888,278.107 49.5,279C 47.311,279.677 46.9776,280.844 48.5,282.5C 47.9747,283.192 47.3081,283.692 46.5,284C 47.7158,285.74 49.3825,286.74 51.5,287C 49.3036,288.222 47.8036,290.056 47,292.5C 44.7943,288.469 44.2943,288.636 45.5,293C 43.311,293.677 42.9776,294.844 44.5,296.5C 43.8333,297.167 43.1667,297.833 42.5,298.5C 42.5,300.833 42.5,303.167 42.5,305.5C 40.458,306.503 40.1246,307.837 41.5,309.5C 40.6215,312.323 39.6215,315.157 38.5,318C 38.9054,318.945 39.572,319.612 40.5,320C 36.5414,322.819 36.8748,325.152 41.5,327C 40.5399,328.419 39.7065,329.919 39,331.5C 37.6859,326.166 37.0192,326.166 37,331.5C 38.0623,333.208 39.229,333.874 40.5,333.5C 39.3906,335.385 38.5573,337.385 38,339.5C 37.7978,337.744 37.2978,336.078 36.5,334.5C 34.9837,337.809 35.9837,340.143 39.5,341.5C 38.9017,342.795 38.4017,344.128 38,345.5C 37.7811,344.062 37.2811,342.729 36.5,341.5C 33.9785,344.176 33.9785,347.01 36.5,350C 35.8948,352.486 34.8948,353.986 33.5,354.5C 34.1539,358.626 35.4872,362.459 37.5,366C 37.0788,368.185 36.5788,370.351 36,372.5C 36.0123,369.349 35.0123,366.682 33,364.5C 32.3333,376.167 32.3333,387.833 33,399.5C 33.6667,398.167 34.3333,398.167 35,399.5C 35.3744,389.772 36.2077,389.439 37.5,398.5C 35.4083,401.851 34.0749,405.518 33.5,409.5C 34.3039,411.136 35.3039,412.636 36.5,414C 34.2029,416.779 34.0363,419.612 36,422.5C 36.3333,420.167 36.6667,417.833 37,415.5C 37.6175,418.83 38.7841,421.163 40.5,422.5C 40.3333,423.167 40.1667,423.833 40,424.5C 39,423.167 38,423.167 37,424.5C 34.6936,427.296 35.1936,429.463 38.5,431C 36.7554,432.692 36.4221,434.525 37.5,436.5C 38.2811,435.271 38.7811,433.938 39,432.5C 39.7065,434.081 40.5399,435.581 41.5,437C 36.8473,438.914 36.514,441.247 40.5,444C 37.9557,445.775 37.9557,447.608 40.5,449.5C 39.0673,451.809 39.734,453.309 42.5,454C 39.2329,456.444 39.2329,458.277 42.5,459.5C 41.4104,460.609 41.4104,461.609 42.5,462.5C 43.3559,458.919 44.3559,458.753 45.5,462C 44.4911,463.168 43.4911,464.335 42.5,465.5C 44.0072,466.739 45.1739,466.405 46,464.5C 46.5,465 47,465.5 47.5,466C 45.9386,466.941 44.6053,468.108 43.5,469.5C 44.376,470.251 45.376,470.751 46.5,471C 43.5845,473.071 43.9178,474.405 47.5,475C 44.972,476.316 44.972,477.483 47.5,478.5C 47.5,480.5 47.5,482.5 47.5,484.5C 48.2624,484.911 49.2624,485.077 50.5,485C 47.9218,487.157 47.9218,488.323 50.5,488.5C 50.5,490.167 50.5,491.833 50.5,493.5C 51.0253,494.192 51.6919,494.692 52.5,495C 51.5494,495.718 51.3828,496.551 52,497.5C 53.6665,496.66 53.8331,497.16 52.5,499C 54.4812,499.605 54.8146,500.605 53.5,502C 54.6141,503.449 55.6141,504.783 56.5,506C 56.1654,507.503 56.1654,508.836 56.5,510C 57.1667,510.333 57.8333,510.667 58.5,511C 58.1654,512.503 58.1654,513.836 58.5,515C 60.9171,516.144 61.5838,517.81 60.5,520C 61.4378,521.063 62.4378,522.23 63.5,523.5C 63.2907,524.086 62.9574,524.586 62.5,525C 63.8333,526.667 65.1667,528.333 66.5,530C 65.5494,530.718 65.3828,531.551 66,532.5C 69.1103,531.327 69.277,531.827 66.5,534C 68.5689,534.324 68.9023,535.158 67.5,536.5C 70.0443,537.937 70.0443,539.437 67.5,541C 68.4491,541.617 69.2825,541.451 70,540.5C 70.4922,541.549 70.3256,542.549 69.5,543.5C 71.0116,544.249 72.0116,545.416 72.5,547C 71.1667,549.333 71.1667,551.667 72.5,554C 71.7827,555.531 70.7827,556.864 69.5,558C 70.34,559.767 71.6734,561.101 73.5,562C 72.324,563.914 71.324,563.748 70.5,561.5C 69.549,560.674 68.549,560.508 67.5,561C 68.7053,563.706 70.7053,565.539 73.5,566.5C 72.229,566.126 71.0623,566.792 70,568.5C 69.7508,567.376 69.2508,566.376 68.5,565.5C 67.4104,566.391 67.4104,567.391 68.5,568.5C 66.0266,570.098 66.0266,571.598 68.5,573C 64.9178,573.595 64.5845,574.929 67.5,577C 65.1144,577.284 64.4477,578.284 65.5,580C 62.8333,581.333 62.8333,582.667 65.5,584C 61.9178,584.595 61.5845,585.929 64.5,588C 61.3323,588.582 60.999,589.582 63.5,591C 62.376,591.249 61.376,591.749 60.5,592.5C 61.6053,593.892 62.9386,595.059 64.5,596C 62.7749,595.591 61.1082,595.758 59.5,596.5C 61.0224,598.156 60.689,599.323 58.5,600C 61.1307,601.691 60.7973,602.858 57.5,603.5C 57.9767,604.478 58.6433,605.311 59.5,606C 56.8532,606.315 56.1865,607.482 57.5,609.5C 54.972,610.517 54.972,611.684 57.5,613C 53.9178,613.595 53.5845,614.929 56.5,617C 54.1144,617.284 53.4477,618.284 54.5,620C 51.8333,621.333 51.8333,622.667 54.5,624C 50.9178,624.595 50.5845,625.929 53.5,628C 51.1144,628.284 50.4477,629.284 51.5,631C 48.8333,632.333 48.8333,633.667 51.5,635C 47.9178,635.595 47.5845,636.929 50.5,639C 48.1144,639.284 47.4477,640.284 48.5,642C 45.8333,643.333 45.8333,644.667 48.5,646C 44.9178,646.595 44.5845,647.929 47.5,650C 45.1144,650.284 44.4477,651.284 45.5,653C 42.8333,654.333 42.8333,655.667 45.5,657C 41.9178,657.595 41.5845,658.929 44.5,661C 41.3323,661.582 40.999,662.582 43.5,664C 42.376,664.249 41.376,664.749 40.5,665.5C 41.6053,666.892 42.9386,668.059 44.5,669C 42.7749,668.591 41.1082,668.758 39.5,669.5C 39.9767,670.478 40.6433,671.311 41.5,672C 38.0458,672.293 37.7124,673.626 40.5,676C 39.552,676.483 38.552,676.649 37.5,676.5C 37.2965,678.39 37.9632,679.89 39.5,681C 36.237,681.537 35.5703,683.204 37.5,686C 36.8333,687.333 36.1667,688.667 35.5,690C 36.8333,694 36.8333,698 35.5,702C 35.2601,704.641 36.0934,705.141 38,703.5C 42.2531,704.413 42.5864,706.08 39,708.5C 38.4531,703.266 37.6198,703.266 36.5,708.5C 38.3429,710.605 40.6762,711.772 43.5,712C 39.7446,714.549 39.7446,717.216 43.5,720C 43.0426,720.414 42.7093,720.914 42.5,721.5C 48.6104,729.24 55.6104,732.74 63.5,732C 62.1118,732.889 62.2785,733.389 64,733.5C 70.4633,731.143 76.9633,731.143 83.5,733.5C 85.3726,733.518 85.7059,733.018 84.5,732C 86.0225,730.672 87.6892,730.838 89.5,732.5C 90.8517,730.364 92.5183,730.03 94.5,731.5C 95.5032,729.458 96.8366,729.125 98.5,730.5C 99.5032,728.458 100.837,728.125 102.5,729.5C 103.503,727.458 104.837,727.125 106.5,728.5C 107.503,726.458 108.837,726.125 110.5,727.5C 111.167,726.833 111.833,726.167 112.5,725.5C 114.403,725.694 116.237,725.694 118,725.5C 118.677,723.311 119.844,722.978 121.5,724.5C 123.5,723.5 125.5,722.5 127.5,721.5C 129.5,721.5 131.5,721.5 133.5,721.5C 134.503,719.458 135.837,719.125 137.5,720.5C 139.058,719.629 140.725,718.629 142.5,717.5C 144.163,718.875 145.497,718.542 146.5,716.5C 148.5,716.5 150.5,716.5 152.5,716.5C 153.503,714.458 154.837,714.125 156.5,715.5C 158.275,714.371 159.942,713.371 161.5,712.5C 162.167,712.833 162.833,713.167 163.5,713.5C 165.5,712.5 167.5,711.5 169.5,710.5C 171.5,710.5 173.5,710.5 175.5,710.5C 176.503,708.458 177.837,708.125 179.5,709.5C 181.058,708.629 182.725,707.629 184.5,706.5C 186.163,707.875 187.497,707.542 188.5,705.5C 190.5,705.5 192.5,705.5 194.5,705.5C 195.503,703.458 196.837,703.125 198.5,704.5C 200.275,703.371 201.942,702.371 203.5,701.5C 205.21,702.687 206.71,702.354 208,700.5C 209.951,701.915 211.618,701.581 213,699.5C 213.873,699.735 214.707,700.069 215.5,700.5C 219.509,698.922 223.676,697.922 228,697.5C 228.915,699.98 230.415,700.647 232.5,699.5C 233.937,702.044 235.437,702.044 237,699.5C 237.065,701.883 237.898,702.55 239.5,701.5C 240.696,701.846 240.696,702.346 239.5,703C 240.449,703.617 241.282,703.451 242,702.5C 242.333,703.167 242.667,703.833 243,704.5C 244,703.5 245,702.5 246,701.5C 246.667,702.833 247.333,702.833 248,701.5C 248.167,701.833 248.333,702.167 248.5,702.5C 247.092,703.243 245.759,704.077 244.5,705C 245.449,705.617 246.282,705.451 247,704.5C 247.691,706.891 248.691,706.891 250,704.5C 250.617,705.449 250.451,706.282 249.5,707C 250.744,707.456 251.577,706.956 252,705.5C 252.065,707.883 252.898,708.55 254.5,707.5C 254.833,708.167 255.167,708.833 255.5,709.5C 256.883,706.924 257.717,707.258 258,710.5C 259,709.5 260,708.5 261,707.5C 262.067,708.191 263.234,708.691 264.5,709C 262.616,709.216 260.949,709.883 259.5,711C 260.549,711.492 261.549,711.326 262.5,710.5C 263.696,710.846 263.696,711.346 262.5,712C 263.449,712.617 264.282,712.451 265,711.5C 265.605,713.481 266.605,713.815 268,712.5C 268.691,714.891 269.691,714.891 271,712.5C 271.333,713.5 271.667,714.5 272,715.5C 273.667,715.5 275.333,715.5 277,715.5C 278.529,716.583 280.029,717.583 281.5,718.5C 282.935,717.176 283.935,715.51 284.5,713.5C 284.126,714.771 284.792,715.938 286.5,717C 282.633,718.987 282.633,719.487 286.5,718.5C 287.258,719.811 288.258,720.311 289.5,720C 290.09,718.491 290.756,716.991 291.5,715.5C 291.126,716.771 291.792,717.938 293.5,719C 289.633,720.987 289.633,721.487 293.5,720.5C 294.937,723.044 296.437,723.044 298,720.5C 298.595,724.082 299.929,724.416 302,721.5C 302.315,724.147 303.482,724.813 305.5,723.5C 306.216,724.311 307.05,724.978 308,725.5C 309.626,724.711 311.126,723.711 312.5,722.5C 314.931,723.806 314.597,724.806 311.5,725.5C 313.061,726.347 314.561,726.014 316,724.5C 316.249,725.624 316.749,726.624 317.5,727.5C 320.295,727.671 323.128,727.671 326,727.5C 327,728.167 328,728.833 329,729.5C 330.44,728.852 331.94,728.519 333.5,728.5C 333.351,729.552 333.517,730.552 334,731.5C 336.088,730.692 338.088,729.692 340,728.5C 342.168,731.693 345.001,732.359 348.5,730.5C 352.008,732.961 355.674,733.128 359.5,731C 360.126,730.25 360.626,729.416 361,728.5C 367.048,729.87 373.214,730.703 379.5,731C 373.833,731.333 368.167,731.667 362.5,732C 362.833,732.333 363.167,732.667 363.5,733C 375.502,732.389 387.502,732.556 399.5,733.5C 402.037,733.603 404.371,733.103 406.5,732C 400.833,731.667 395.167,731.333 389.5,731C 392.833,730.667 396.167,730.333 399.5,730C 395.469,729.519 391.469,728.853 387.5,728C 388.167,727.667 388.833,727.333 389.5,727C 386.167,726.333 382.833,726.333 379.5,727C 380.167,727.333 380.833,727.667 381.5,728C 376.109,728.692 370.775,728.359 365.5,727C 371.703,726.438 377.87,725.605 384,724.5C 392.824,725.74 401.657,726.906 410.5,728C 409.663,729.011 409.33,730.178 409.5,731.5C 414.927,731.981 420.26,731.981 425.5,731.5C 427.088,730.99 428.255,729.99 429,728.5C 431.686,731.156 434.353,731.156 437,728.5C 439.27,729.999 441.27,729.665 443,727.5C 445.872,727.671 448.705,727.671 451.5,727.5C 452.251,726.624 452.751,725.624 453,724.5C 454.11,726.037 455.61,726.703 457.5,726.5C 457.262,722.901 458.262,722.567 460.5,725.5C 461.852,723.364 463.518,723.03 465.5,724.5C 466.503,722.458 467.837,722.125 469.5,723.5C 470.503,721.458 471.837,721.125 473.5,722.5C 475.275,721.371 476.942,720.371 478.5,719.5C 480.156,721.022 481.323,720.689 482,718.5C 482.561,719.022 483.228,719.355 484,719.5C 485.011,719.108 485.511,718.441 485.5,717.5C 487.335,717.834 489.002,717.834 490.5,717.5C 491.197,715.615 492.197,715.282 493.5,716.5C 494.197,714.615 495.197,714.282 496.5,715.5C 497.197,713.615 498.197,713.282 499.5,714.5C 500.197,712.615 501.197,712.282 502.5,713.5C 502.833,712.833 503.167,712.167 503.5,711.5C 505.102,712.55 505.935,711.883 506,709.5C 507.779,712.276 508.779,711.943 509,708.5C 510,711.167 511,711.167 512,708.5C 512.333,708.833 512.667,709.167 513,709.5C 513.456,708.256 512.956,707.423 511.5,707C 512.126,706.25 512.626,705.416 513,704.5C 515.02,708.986 517.02,709.319 519,705.5C 519.414,705.957 519.914,706.291 520.5,706.5C 520.833,705.833 521.167,705.167 521.5,704.5C 522.773,704.746 523.94,704.746 525,704.5C 525.456,703.256 524.956,702.423 523.5,702C 525.689,699.053 527.689,699.053 529.5,702C 527.068,703.087 527.402,703.587 530.5,703.5C 530.351,702.448 530.517,701.448 531,700.5C 531.333,700.833 531.667,701.167 532,701.5C 533.667,700.167 535.333,698.833 537,697.5C 540.453,698.108 543.119,696.775 545,693.5C 546.016,694.634 546.683,694.301 547,692.5C 548.016,693.634 548.683,693.301 549,691.5C 550.016,692.634 550.683,692.301 551,690.5C 552.016,691.634 552.683,691.301 553,689.5C 555.33,690.156 556.997,689.156 558,686.5C 559.016,687.634 559.683,687.301 560,685.5C 562.33,686.156 563.997,685.156 565,682.5C 566,682.5 567,682.5 568,682.5C 569.489,681.576 569.656,680.576 568.5,679.5C 567.264,680.246 565.93,680.579 564.5,680.5C 564.714,678.856 564.38,677.356 563.5,676C 565.456,676.222 567.29,677.055 569,678.5C 569.595,674.918 570.929,674.584 573,677.5C 574.324,676.12 575.657,675.786 577,676.5C 577.317,674.699 577.984,674.366 579,675.5C 580,674.167 581,672.833 582,671.5C 582.333,671.833 582.667,672.167 583,672.5C 584.667,670.833 586.333,669.167 588,667.5C 589.558,668.345 590.558,667.679 591,665.5C 591.333,665.833 591.667,666.167 592,666.5C 596.222,663.031 600.222,659.364 604,655.5C 604.718,656.451 605.551,656.617 606.5,656C 607.46,654.581 608.293,653.081 609,651.5C 610.008,651.018 611.175,650.852 612.5,651C 623.576,639.764 635.242,628.264 647.5,616.5C 646.359,615.575 646.359,614.741 647.5,614C 646.251,612.176 645.085,612.343 644,614.5C 643.837,612.269 645.003,610.935 647.5,610.5C 649.248,612.993 650.914,612.827 652.5,610C 652.167,609.667 651.833,609.333 651.5,609C 655.668,605.983 659.002,602.816 661.5,599.5C 662.245,597.253 663.578,595.42 665.5,594C 665.167,593.667 664.833,593.333 664.5,593C 666.679,592.558 667.345,591.558 666.5,590C 669.302,586.445 672.302,583.112 675.5,580C 674.366,578.984 674.699,578.317 676.5,578C 675.24,576.887 674.073,576.72 673,577.5C 672,575.833 671,574.167 670,572.5C 669.316,574.479 669.816,576.146 671.5,577.5C 670.726,578.711 669.893,578.711 669,577.5C 666.443,566.391 668.11,565.724 674,575.5C 674.483,574.552 674.649,573.552 674.5,572.5C 676.695,573.608 678.695,573.441 680.5,572C 681.833,571.333 681.833,570.667 680.5,570C 682.301,569.683 682.634,569.016 681.5,568C 682.937,565.758 684.937,563.425 687.5,561C 685.878,559.705 684.545,558.205 683.5,556.5C 683.833,555.833 684.167,555.167 684.5,554.5C 684.998,555.603 685.331,556.603 685.5,557.5C 686.23,556.066 687.23,554.9 688.5,554C 687.833,553.667 687.167,553.333 686.5,553C 688.298,553.006 689.965,553.339 691.5,554C 691.5,553 691.5,552 691.5,551C 692.416,550.626 693.25,550.126 694,549.5C 696.359,545.678 697.859,541.845 698.5,538C 697.672,537.085 696.672,536.419 695.5,536C 697.224,535.552 697.891,534.718 697.5,533.5C 698.451,534.326 699.451,534.492 700.5,534C 698.624,532.983 696.624,532.149 694.5,531.5C 695.229,529.236 696.396,527.903 698,527.5C 699.496,529.411 700.829,531.411 702,533.5C 702.617,532.551 702.451,531.718 701.5,531C 703.301,530.683 703.634,530.016 702.5,529C 703.167,528.667 703.833,528.333 704.5,528C 704.5,527 704.5,526 704.5,525C 706.891,524.309 706.891,523.309 704.5,522C 705.449,521.383 706.282,521.549 707,522.5C 707.617,521.551 707.451,520.718 706.5,520C 707.5,519 708.5,518 709.5,517C 708.185,515.605 708.519,514.605 710.5,514C 710.167,513.667 709.833,513.333 709.5,513C 711.869,511.038 713.202,508.872 713.5,506.5C 713.291,505.914 712.957,505.414 712.5,505C 713.386,503.783 714.386,502.449 715.5,501C 715.043,500.586 714.709,500.086 714.5,499.5C 715.167,499.167 715.833,498.833 716.5,498.5C 716.291,497.914 715.957,497.414 715.5,497C 716.583,495.471 717.583,493.971 718.5,492.5C 718.5,490.833 718.5,489.167 718.5,487.5C 721.078,487.323 721.078,486.157 718.5,484C 720.886,483.716 721.552,482.716 720.5,481C 722.689,480.323 723.022,479.156 721.5,477.5C 723.851,475.241 723.185,473.741 719.5,473C 720.333,472.167 721.167,471.333 722,470.5C 722.249,471.624 722.749,472.624 723.5,473.5C 724.59,472.609 724.59,471.609 723.5,470.5C 726.028,468.495 725.695,466.829 722.5,465.5C 719.242,466.952 718.742,466.286 721,463.5C 722.147,464.458 723.147,464.125 724,462.5C 724.249,463.624 724.749,464.624 725.5,465.5C 726.492,463.019 725.492,461.519 722.5,461C 723.893,458.317 725.226,458.15 726.5,460.5C 726.833,460.167 727.167,459.833 727.5,459.5C 726.509,458.335 725.509,457.168 724.5,456C 725.644,452.753 726.644,452.919 727.5,456.5C 728.492,454.019 727.492,452.519 724.5,452C 725.93,447.966 727.263,447.799 728.5,451.5C 729.452,450.467 729.452,449.3 728.5,448C 731.146,445.96 731.146,443.96 728.5,442C 731.925,440.402 732.258,438.402 729.5,436C 733.407,433.162 733.074,430.662 728.5,428.5C 729.236,426.459 730.069,424.459 731,422.5C 731.202,424.256 731.702,425.922 732.5,427.5C 733.712,425.159 733.378,422.993 731.5,421C 735.055,417.932 735.388,414.432 732.5,410.5C 733.715,408.785 734.715,406.951 735.5,405C 733.859,401.655 733.359,398.155 734,394.5C 734.77,393.402 735.603,393.402 736.5,394.5C 736.5,405.5 736.5,416.5 736.5,427.5C 734.412,439.026 732.412,450.692 730.5,462.5C 726.678,476.144 722.511,489.811 718,503.5C 712.424,517.647 706.591,531.647 700.5,545.5C 700.672,546.492 700.338,547.158 699.5,547.5C 646.396,643.725 566.062,704.225 458.5,729C 380.542,744.271 305.209,735.938 232.5,704C 225.507,702.065 218.507,702.065 211.5,704C 171.5,714.333 131.5,724.667 91.5,735C 76.112,739.067 61.112,738.067 46.5,732C 34.4164,720.89 29.4164,707.056 31.5,690.5C 41.8354,650.168 52.6688,609.834 64,569.5C 67.8804,558.91 68.2138,548.244 65,537.5C 24.5984,450.109 18.7651,360.442 47.5,268.5C 54.4571,250.239 62.2904,232.239 71,214.5C 133.761,104.169 228.595,42.3356 355.5,29C 507.65,22.3863 621.983,84.2197 698.5,214.5 Z"/></g>
<g><path style="opacity:0.004" fill="#000000" d="M 304.5,32.5 C 298.094,34.7683 291.427,36.435 284.5,37.5C 290.83,34.9173 297.497,33.2507 304.5,32.5 Z"/></g>
<g><path style="opacity:0.004" fill="#000000" d="M 464.5,32.5 C 470.455,33.0735 476.122,34.4068 481.5,36.5C 475.545,35.9265 469.878,34.5932 464.5,32.5 Z"/></g>
<g><path style="opacity:0.004" fill="#000000" d="M 284.5,37.5 C 282.485,38.9238 280.152,39.5905 277.5,39.5C 279.515,38.0762 281.848,37.4095 284.5,37.5 Z"/></g>
<g><path style="opacity:0.274" fill="#b2b2b2" d="M 736.5,369.5 C 736.5,377.833 736.5,386.167 736.5,394.5C 735.603,393.402 734.77,393.402 734,394.5C 733.359,398.155 733.859,401.655 735.5,405C 734.715,406.951 733.715,408.785 732.5,410.5C 735.388,414.432 735.055,417.932 731.5,421C 733.378,422.993 733.712,425.159 732.5,427.5C 731.702,425.922 731.202,424.256 731,422.5C 730.069,424.459 729.236,426.459 728.5,428.5C 733.074,430.662 733.407,433.162 729.5,436C 732.258,438.402 731.925,440.402 728.5,442C 731.146,443.96 731.146,445.96 728.5,448C 729.452,449.3 729.452,450.467 728.5,451.5C 727.263,447.799 725.93,447.966 724.5,452C 727.492,452.519 728.492,454.019 727.5,456.5C 726.644,452.919 725.644,452.753 724.5,456C 725.509,457.168 726.509,458.335 727.5,459.5C 727.167,459.833 726.833,460.167 726.5,460.5C 725.226,458.15 723.893,458.317 722.5,461C 725.492,461.519 726.492,463.019 725.5,465.5C 724.749,464.624 724.249,463.624 724,462.5C 723.147,464.125 722.147,464.458 721,463.5C 718.742,466.286 719.242,466.952 722.5,465.5C 725.695,466.829 726.028,468.495 723.5,470.5C 724.59,471.609 724.59,472.609 723.5,473.5C 722.749,472.624 722.249,471.624 722,470.5C 721.167,471.333 720.333,472.167 719.5,473C 723.185,473.741 723.851,475.241 721.5,477.5C 723.022,479.156 722.689,480.323 720.5,481C 721.552,482.716 720.886,483.716 718.5,484C 721.078,486.157 721.078,487.323 718.5,487.5C 718.5,489.167 718.5,490.833 718.5,492.5C 717.583,493.971 716.583,495.471 715.5,497C 715.957,497.414 716.291,497.914 716.5,498.5C 715.833,498.833 715.167,499.167 714.5,499.5C 714.709,500.086 715.043,500.586 715.5,501C 714.386,502.449 713.386,503.783 712.5,505C 712.957,505.414 713.291,505.914 713.5,506.5C 713.202,508.872 711.869,511.038 709.5,513C 709.833,513.333 710.167,513.667 710.5,514C 708.519,514.605 708.185,515.605 709.5,517C 708.5,518 707.5,519 706.5,520C 707.451,520.718 707.617,521.551 707,522.5C 706.282,521.549 705.449,521.383 704.5,522C 706.891,523.309 706.891,524.309 704.5,525C 704.5,526 704.5,527 704.5,528C 703.833,528.333 703.167,528.667 702.5,529C 703.634,530.016 703.301,530.683 701.5,531C 702.451,531.718 702.617,532.551 702,533.5C 700.829,531.411 699.496,529.411 698,527.5C 696.396,527.903 695.229,529.236 694.5,531.5C 696.624,532.149 698.624,532.983 700.5,534C 699.451,534.492 698.451,534.326 697.5,533.5C 697.891,534.718 697.224,535.552 695.5,536C 696.672,536.419 697.672,537.085 698.5,538C 697.859,541.845 696.359,545.678 694,549.5C 693.25,550.126 692.416,550.626 691.5,551C 691.5,552 691.5,553 691.5,554C 689.965,553.339 688.298,553.006 686.5,553C 687.167,553.333 687.833,553.667 688.5,554C 687.23,554.9 686.23,556.066 685.5,557.5C 685.331,556.603 684.998,555.603 684.5,554.5C 684.167,555.167 683.833,555.833 683.5,556.5C 684.545,558.205 685.878,559.705 687.5,561C 684.937,563.425 682.937,565.758 681.5,568C 682.634,569.016 682.301,569.683 680.5,570C 681.833,570.667 681.833,571.333 680.5,572C 678.695,573.441 676.695,573.608 674.5,572.5C 674.649,573.552 674.483,574.552 674,575.5C 668.11,565.724 666.443,566.391 669,577.5C 669.893,578.711 670.726,578.711 671.5,577.5C 669.816,576.146 669.316,574.479 670,572.5C 671,574.167 672,575.833 673,577.5C 674.073,576.72 675.24,576.887 676.5,578C 674.699,578.317 674.366,578.984 675.5,580C 672.302,583.112 669.302,586.445 666.5,590C 667.345,591.558 666.679,592.558 664.5,593C 664.833,593.333 665.167,593.667 665.5,594C 663.578,595.42 662.245,597.253 661.5,599.5C 659.002,602.816 655.668,605.983 651.5,609C 651.833,609.333 652.167,609.667 652.5,610C 650.914,612.827 649.248,612.993 647.5,610.5C 645.003,610.935 643.837,612.269 644,614.5C 645.085,612.343 646.251,612.176 647.5,614C 646.359,614.741 646.359,615.575 647.5,616.5C 635.242,628.264 623.576,639.764 612.5,651C 611.175,650.852 610.008,651.018 609,651.5C 608.293,653.081 607.46,654.581 606.5,656C 605.551,656.617 604.718,656.451 604,655.5C 600.222,659.364 596.222,663.031 592,666.5C 591.667,666.167 591.333,665.833 591,665.5C 590.558,667.679 589.558,668.345 588,667.5C 586.333,669.167 584.667,670.833 583,672.5C 582.667,672.167 582.333,671.833 582,671.5C 581,672.833 580,674.167 579,675.5C 577.984,674.366 577.317,674.699 577,676.5C 575.657,675.786 574.324,676.12 573,677.5C 570.929,674.584 569.595,674.918 569,678.5C 567.29,677.055 565.456,676.222 563.5,676C 564.38,677.356 564.714,678.856 564.5,680.5C 565.93,680.579 567.264,680.246 568.5,679.5C 569.656,680.576 569.489,681.576 568,682.5C 567,682.5 566,682.5 565,682.5C 563.997,685.156 562.33,686.156 560,685.5C 559.683,687.301 559.016,687.634 558,686.5C 556.997,689.156 555.33,690.156 553,689.5C 552.683,691.301 552.016,691.634 551,690.5C 550.683,692.301 550.016,692.634 549,691.5C 548.683,693.301 548.016,693.634 547,692.5C 546.683,694.301 546.016,694.634 545,693.5C 543.119,696.775 540.453,698.108 537,697.5C 535.333,698.833 533.667,700.167 532,701.5C 531.667,701.167 531.333,700.833 531,700.5C 530.517,701.448 530.351,702.448 530.5,703.5C 527.402,703.587 527.068,703.087 529.5,702C 527.689,699.053 525.689,699.053 523.5,702C 524.956,702.423 525.456,703.256 525,704.5C 523.94,704.746 522.773,704.746 521.5,704.5C 521.167,705.167 520.833,705.833 520.5,706.5C 519.914,706.291 519.414,705.957 519,705.5C 517.02,709.319 515.02,708.986 513,704.5C 512.626,705.416 512.126,706.25 511.5,707C 512.956,707.423 513.456,708.256 513,709.5C 512.667,709.167 512.333,708.833 512,708.5C 511,711.167 510,711.167 509,708.5C 508.779,711.943 507.779,712.276 506,709.5C 505.935,711.883 505.102,712.55 503.5,711.5C 503.167,712.167 502.833,712.833 502.5,713.5C 501.197,712.282 500.197,712.615 499.5,714.5C 498.197,713.282 497.197,713.615 496.5,715.5C 495.197,714.282 494.197,714.615 493.5,716.5C 492.197,715.282 491.197,715.615 490.5,717.5C 489.002,717.834 487.335,717.834 485.5,717.5C 485.511,718.441 485.011,719.108 484,719.5C 483.228,719.355 482.561,719.022 482,718.5C 481.323,720.689 480.156,721.022 478.5,719.5C 476.942,720.371 475.275,721.371 473.5,722.5C 471.837,721.125 470.503,721.458 469.5,723.5C 467.837,722.125 466.503,722.458 465.5,724.5C 463.518,723.03 461.852,723.364 460.5,725.5C 458.262,722.567 457.262,722.901 457.5,726.5C 455.61,726.703 454.11,726.037 453,724.5C 452.751,725.624 452.251,726.624 451.5,727.5C 448.705,727.671 445.872,727.671 443,727.5C 441.27,729.665 439.27,729.999 437,728.5C 434.353,731.156 431.686,731.156 429,728.5C 428.255,729.99 427.088,730.99 425.5,731.5C 420.26,731.981 414.927,731.981 409.5,731.5C 409.33,730.178 409.663,729.011 410.5,728C 401.657,726.906 392.824,725.74 384,724.5C 377.87,725.605 371.703,726.438 365.5,727C 370.775,728.359 376.109,728.692 381.5,728C 380.833,727.667 380.167,727.333 379.5,727C 382.833,726.333 386.167,726.333 389.5,727C 388.833,727.333 388.167,727.667 387.5,728C 391.469,728.853 395.469,729.519 399.5,730C 396.167,730.333 392.833,730.667 389.5,731C 395.167,731.333 400.833,731.667 406.5,732C 404.371,733.103 402.037,733.603 399.5,733.5C 387.502,732.556 375.502,732.389 363.5,733C 363.167,732.667 362.833,732.333 362.5,732C 368.167,731.667 373.833,731.333 379.5,731C 373.214,730.703 367.048,729.87 361,728.5C 360.626,729.416 360.126,730.25 359.5,731C 355.674,733.128 352.008,732.961 348.5,730.5C 345.001,732.359 342.168,731.693 340,728.5C 338.088,729.692 336.088,730.692 334,731.5C 333.517,730.552 333.351,729.552 333.5,728.5C 331.94,728.519 330.44,728.852 329,729.5C 328,728.833 327,728.167 326,727.5C 323.128,727.671 320.295,727.671 317.5,727.5C 316.749,726.624 316.249,725.624 316,724.5C 314.561,726.014 313.061,726.347 311.5,725.5C 314.597,724.806 314.931,723.806 312.5,722.5C 311.126,723.711 309.626,724.711 308,725.5C 307.05,724.978 306.216,724.311 305.5,723.5C 303.482,724.813 302.315,724.147 302,721.5C 299.929,724.416 298.595,724.082 298,720.5C 296.437,723.044 294.937,723.044 293.5,720.5C 289.633,721.487 289.633,720.987 293.5,719C 291.792,717.938 291.126,716.771 291.5,715.5C 290.756,716.991 290.09,718.491 289.5,720C 288.258,720.311 287.258,719.811 286.5,718.5C 282.633,719.487 282.633,718.987 286.5,717C 284.792,715.938 284.126,714.771 284.5,713.5C 283.935,715.51 282.935,717.176 281.5,718.5C 280.029,717.583 278.529,716.583 277,715.5C 275.333,715.5 273.667,715.5 272,715.5C 271.667,714.5 271.333,713.5 271,712.5C 269.691,714.891 268.691,714.891 268,712.5C 266.605,713.815 265.605,713.481 265,711.5C 264.282,712.451 263.449,712.617 262.5,712C 263.696,711.346 263.696,710.846 262.5,710.5C 261.549,711.326 260.549,711.492 259.5,711C 260.949,709.883 262.616,709.216 264.5,709C 263.234,708.691 262.067,708.191 261,707.5C 260,708.5 259,709.5 258,710.5C 257.717,707.258 256.883,706.924 255.5,709.5C 255.167,708.833 254.833,708.167 254.5,707.5C 252.898,708.55 252.065,707.883 252,705.5C 251.577,706.956 250.744,707.456 249.5,707C 250.451,706.282 250.617,705.449 250,704.5C 248.691,706.891 247.691,706.891 247,704.5C 246.282,705.451 245.449,705.617 244.5,705C 245.759,704.077 247.092,703.243 248.5,702.5C 248.333,702.167 248.167,701.833 248,701.5C 247.333,702.833 246.667,702.833 246,701.5C 245,702.5 244,703.5 243,704.5C 242.667,703.833 242.333,703.167 242,702.5C 241.282,703.451 240.449,703.617 239.5,703C 240.696,702.346 240.696,701.846 239.5,701.5C 237.898,702.55 237.065,701.883 237,699.5C 235.437,702.044 233.937,702.044 232.5,699.5C 230.415,700.647 228.915,699.98 228,697.5C 223.676,697.922 219.509,698.922 215.5,700.5C 214.707,700.069 213.873,699.735 213,699.5C 211.618,701.581 209.951,701.915 208,700.5C 206.71,702.354 205.21,702.687 203.5,701.5C 201.942,702.371 200.275,703.371 198.5,704.5C 196.837,703.125 195.503,703.458 194.5,705.5C 192.5,705.5 190.5,705.5 188.5,705.5C 187.497,707.542 186.163,707.875 184.5,706.5C 182.725,707.629 181.058,708.629 179.5,709.5C 177.837,708.125 176.503,708.458 175.5,710.5C 173.5,710.5 171.5,710.5 169.5,710.5C 167.5,711.5 165.5,712.5 163.5,713.5C 162.833,713.167 162.167,712.833 161.5,712.5C 159.942,713.371 158.275,714.371 156.5,715.5C 154.837,714.125 153.503,714.458 152.5,716.5C 150.5,716.5 148.5,716.5 146.5,716.5C 145.497,718.542 144.163,718.875 142.5,717.5C 140.725,718.629 139.058,719.629 137.5,720.5C 135.837,719.125 134.503,719.458 133.5,721.5C 131.5,721.5 129.5,721.5 127.5,721.5C 125.5,722.5 123.5,723.5 121.5,724.5C 119.844,722.978 118.677,723.311 118,725.5C 116.237,725.694 114.403,725.694 112.5,725.5C 111.833,726.167 111.167,726.833 110.5,727.5C 108.837,726.125 107.503,726.458 106.5,728.5C 104.837,727.125 103.503,727.458 102.5,729.5C 100.837,728.125 99.5032,728.458 98.5,730.5C 96.8366,729.125 95.5032,729.458 94.5,731.5C 92.5183,730.03 90.8517,730.364 89.5,732.5C 87.6892,730.838 86.0225,730.672 84.5,732C 85.7059,733.018 85.3726,733.518 83.5,733.5C 76.9633,731.143 70.4633,731.143 64,733.5C 62.2785,733.389 62.1118,732.889 63.5,732C 55.6104,732.74 48.6104,729.24 42.5,721.5C 42.7093,720.914 43.0426,720.414 43.5,720C 39.7446,717.216 39.7446,714.549 43.5,712C 40.6762,711.772 38.3429,710.605 36.5,708.5C 37.6198,703.266 38.4531,703.266 39,708.5C 42.5864,706.08 42.2531,704.413 38,703.5C 36.0934,705.141 35.2601,704.641 35.5,702C 36.8333,698 36.8333,694 35.5,690C 36.1667,688.667 36.8333,687.333 37.5,686C 35.5703,683.204 36.237,681.537 39.5,681C 37.9632,679.89 37.2965,678.39 37.5,676.5C 38.552,676.649 39.552,676.483 40.5,676C 37.7124,673.626 38.0458,672.293 41.5,672C 40.6433,671.311 39.9767,670.478 39.5,669.5C 41.1082,668.758 42.7749,668.591 44.5,669C 42.9386,668.059 41.6053,666.892 40.5,665.5C 41.376,664.749 42.376,664.249 43.5,664C 40.999,662.582 41.3323,661.582 44.5,661C 41.5845,658.929 41.9178,657.595 45.5,657C 42.8333,655.667 42.8333,654.333 45.5,653C 44.4477,651.284 45.1144,650.284 47.5,650C 44.5845,647.929 44.9178,646.595 48.5,646C 45.8333,644.667 45.8333,643.333 48.5,642C 47.4477,640.284 48.1144,639.284 50.5,639C 47.5845,636.929 47.9178,635.595 51.5,635C 48.8333,633.667 48.8333,632.333 51.5,631C 50.4477,629.284 51.1144,628.284 53.5,628C 50.5845,625.929 50.9178,624.595 54.5,624C 51.8333,622.667 51.8333,621.333 54.5,620C 53.4477,618.284 54.1144,617.284 56.5,617C 53.5845,614.929 53.9178,613.595 57.5,613C 54.972,611.684 54.972,610.517 57.5,609.5C 56.1865,607.482 56.8532,606.315 59.5,606C 58.6433,605.311 57.9767,604.478 57.5,603.5C 60.7973,602.858 61.1307,601.691 58.5,600C 60.689,599.323 61.0224,598.156 59.5,596.5C 61.1082,595.758 62.7749,595.591 64.5,596C 62.9386,595.059 61.6053,593.892 60.5,592.5C 61.376,591.749 62.376,591.249 63.5,591C 60.999,589.582 61.3323,588.582 64.5,588C 61.5845,585.929 61.9178,584.595 65.5,584C 62.8333,582.667 62.8333,581.333 65.5,580C 64.4477,578.284 65.1144,577.284 67.5,577C 64.5845,574.929 64.9178,573.595 68.5,573C 66.0266,571.598 66.0266,570.098 68.5,568.5C 67.4104,567.391 67.4104,566.391 68.5,565.5C 69.2508,566.376 69.7508,567.376 70,568.5C 71.0623,566.792 72.229,566.126 73.5,566.5C 70.7053,565.539 68.7053,563.706 67.5,561C 68.549,560.508 69.549,560.674 70.5,561.5C 71.324,563.748 72.324,563.914 73.5,562C 71.6734,561.101 70.34,559.767 69.5,558C 70.7827,556.864 71.7827,555.531 72.5,554C 71.1667,551.667 71.1667,549.333 72.5,547C 72.0116,545.416 71.0116,544.249 69.5,543.5C 70.3256,542.549 70.4922,541.549 70,540.5C 69.2825,541.451 68.4491,541.617 67.5,541C 70.0443,539.437 70.0443,537.937 67.5,536.5C 68.9023,535.158 68.5689,534.324 66.5,534C 69.277,531.827 69.1103,531.327 66,532.5C 65.3828,531.551 65.5494,530.718 66.5,530C 65.1667,528.333 63.8333,526.667 62.5,525C 62.9574,524.586 63.2907,524.086 63.5,523.5C 62.4378,522.23 61.4378,521.063 60.5,520C 61.5838,517.81 60.9171,516.144 58.5,515C 58.1654,513.836 58.1654,512.503 58.5,511C 57.8333,510.667 57.1667,510.333 56.5,510C 56.1654,508.836 56.1654,507.503 56.5,506C 55.6141,504.783 54.6141,503.449 53.5,502C 54.8146,500.605 54.4812,499.605 52.5,499C 53.8331,497.16 53.6665,496.66 52,497.5C 51.3828,496.551 51.5494,495.718 52.5,495C 51.6919,494.692 51.0253,494.192 50.5,493.5C 50.5,491.833 50.5,490.167 50.5,488.5C 47.9218,488.323 47.9218,487.157 50.5,485C 49.2624,485.077 48.2624,484.911 47.5,484.5C 47.5,482.5 47.5,480.5 47.5,478.5C 44.972,477.483 44.972,476.316 47.5,475C 43.9178,474.405 43.5845,473.071 46.5,471C 45.376,470.751 44.376,470.251 43.5,469.5C 44.6053,468.108 45.9386,466.941 47.5,466C 47,465.5 46.5,465 46,464.5C 45.1739,466.405 44.0072,466.739 42.5,465.5C 43.4911,464.335 44.4911,463.168 45.5,462C 44.3559,458.753 43.3559,458.919 42.5,462.5C 41.4104,461.609 41.4104,460.609 42.5,459.5C 39.2329,458.277 39.2329,456.444 42.5,454C 39.734,453.309 39.0673,451.809 40.5,449.5C 37.9557,447.608 37.9557,445.775 40.5,444C 36.514,441.247 36.8473,438.914 41.5,437C 40.5399,435.581 39.7065,434.081 39,432.5C 38.7811,433.938 38.2811,435.271 37.5,436.5C 36.4221,434.525 36.7554,432.692 38.5,431C 35.1936,429.463 34.6936,427.296 37,424.5C 38,423.167 39,423.167 40,424.5C 40.1667,423.833 40.3333,423.167 40.5,422.5C 38.7841,421.163 37.6175,418.83 37,415.5C 36.6667,417.833 36.3333,420.167 36,422.5C 34.0363,419.612 34.2029,416.779 36.5,414C 35.3039,412.636 34.3039,411.136 33.5,409.5C 34.0749,405.518 35.4083,401.851 37.5,398.5C 36.2077,389.439 35.3744,389.772 35,399.5C 34.3333,398.167 33.6667,398.167 33,399.5C 32.3333,387.833 32.3333,376.167 33,364.5C 35.0123,366.682 36.0123,369.349 36,372.5C 36.5788,370.351 37.0788,368.185 37.5,366C 35.4872,362.459 34.1539,358.626 33.5,354.5C 34.8948,353.986 35.8948,352.486 36.5,350C 33.9785,347.01 33.9785,344.176 36.5,341.5C 37.2811,342.729 37.7811,344.062 38,345.5C 38.4017,344.128 38.9017,342.795 39.5,341.5C 35.9837,340.143 34.9837,337.809 36.5,334.5C 37.2978,336.078 37.7978,337.744 38,339.5C 38.5573,337.385 39.3906,335.385 40.5,333.5C 39.229,333.874 38.0623,333.208 37,331.5C 37.0192,326.166 37.6859,326.166 39,331.5C 39.7065,329.919 40.5399,328.419 41.5,327C 36.8748,325.152 36.5414,322.819 40.5,320C 39.572,319.612 38.9054,318.945 38.5,318C 39.6215,315.157 40.6215,312.323 41.5,309.5C 40.1246,307.837 40.458,306.503 42.5,305.5C 42.5,303.167 42.5,300.833 42.5,298.5C 43.1667,297.833 43.8333,297.167 44.5,296.5C 42.9776,294.844 43.311,293.677 45.5,293C 44.2943,288.636 44.7943,288.469 47,292.5C 47.8036,290.056 49.3036,288.222 51.5,287C 49.3825,286.74 47.7158,285.74 46.5,284C 47.3081,283.692 47.9747,283.192 48.5,282.5C 46.9776,280.844 47.311,279.677 49.5,279C 48.2888,278.107 48.2888,277.274 49.5,276.5C 50.354,277.522 51.354,278.355 52.5,279C 51.0439,279.423 50.5439,280.256 51,281.5C 51.6667,280.167 52.3333,280.167 53,281.5C 53.6667,280.167 54.6667,279.167 56,278.5C 56.4512,280.929 57.2845,281.096 58.5,279C 57.1854,277.605 57.5188,276.605 59.5,276C 58.2341,275.691 57.0674,275.191 56,274.5C 53.8797,277.08 51.713,277.08 49.5,274.5C 52.7973,273.858 53.1307,272.691 50.5,271C 53.9431,270.779 54.2764,269.779 51.5,268C 54.7423,267.717 55.0756,266.883 52.5,265.5C 53.4694,262.887 54.8027,260.553 56.5,258.5C 55.0977,257.158 55.4311,256.324 57.5,256C 56.5494,255.282 56.3828,254.449 57,253.5C 57.6543,254.696 58.1543,254.696 58.5,253.5C 57.0977,252.158 57.4311,251.324 59.5,251C 59.1654,249.497 59.1654,248.164 59.5,247C 62.7318,245.645 63.3985,243.978 61.5,242C 62.8333,240.333 64.1667,238.667 65.5,237C 65.1667,236.667 64.8333,236.333 64.5,236C 66.4247,236.135 68.4247,236.302 70.5,236.5C 69.1566,234.079 68.1566,231.579 67.5,229C 68.023,227.386 69.3564,225.886 71.5,224.5C 71.2545,223.227 71.2545,222.06 71.5,221C 73.5,220.667 75.5,220.333 77.5,220C 76.3279,219.581 75.3279,218.915 74.5,218C 77.2778,213.291 79.4445,208.457 81,203.5C 82.2547,202.789 83.4214,201.956 84.5,201C 84.1667,200.667 83.8333,200.333 83.5,200C 85.3008,199.683 85.6341,199.016 84.5,198C 85.5,195.667 87.1667,194 89.5,193C 89.1667,192.667 88.8333,192.333 88.5,192C 89.8333,191.333 91.1667,190.667 92.5,190C 91.8333,189.667 91.1667,189.333 90.5,189C 91.8333,188.333 93.1667,187.667 94.5,187C 93.8333,186.667 93.1667,186.333 92.5,186C 93.6721,185.581 94.6721,184.915 95.5,184C 94.3044,183.346 94.3044,182.846 95.5,182.5C 96.279,185.066 97.779,187.066 100,188.5C 99.7782,186.544 98.9448,184.71 97.5,183C 98.4581,181.853 98.1247,180.853 96.5,180C 99.813,177.017 102.813,173.683 105.5,170C 105.167,169.667 104.833,169.333 104.5,169C 105.701,168.097 106.535,166.931 107,165.5C 107.179,167.424 107.346,169.091 107.5,170.5C 109.276,169.685 109.943,168.518 109.5,167C 110.833,166.333 112.167,165.667 113.5,165C 112.216,164.316 111.049,164.483 110,165.5C 109.5,165 109,164.5 108.5,164C 110.828,160.335 114.162,157.002 118.5,154C 117.167,153.333 117.167,152.667 118.5,152C 119.332,151.312 119.998,151.479 120.5,152.5C 119.674,153.451 119.508,154.451 120,155.5C 121.378,153.787 123.045,152.453 125,151.5C 125.667,150.833 125.667,150.167 125,149.5C 123.915,151.657 122.749,151.824 121.5,150C 123.081,149.293 124.581,148.46 126,147.5C 126.273,145.671 127.107,144.171 128.5,143C 128.167,142.667 127.833,142.333 127.5,142C 133.667,135.833 139.833,129.667 146,123.5C 146.667,124.167 147.333,124.833 148,125.5C 149.829,121.851 152.163,118.518 155,115.5C 155.667,116.167 156.333,116.833 157,117.5C 158.309,115.109 159.309,115.109 160,117.5C 162.796,114.239 164.796,110.573 166,106.5C 167.333,107.833 168.667,107.833 170,106.5C 170.805,108.901 171.638,108.734 172.5,106C 171.376,105.751 170.376,105.251 169.5,104.5C 171.827,104.044 173.661,102.377 175,99.5C 176.101,101.394 177.434,102.061 179,101.5C 179.5,101 180,100.5 180.5,100C 179.376,99.7508 178.376,99.2508 177.5,98.5C 179.485,98.3962 180.985,97.0629 182,94.5C 183.558,95.3452 184.558,94.6785 185,92.5C 185.333,92.8333 185.667,93.1667 186,93.5C 187.667,91.8333 189.333,90.1667 191,88.5C 191.915,89.3279 192.581,90.3279 193,91.5C 193.317,89.6992 193.984,89.3659 195,90.5C 194.667,89.1667 194.333,87.8333 194,86.5C 195.558,87.3452 196.558,86.6785 197,84.5C 197.333,84.8333 197.667,85.1667 198,85.5C 200.333,83.5 202.667,81.5 205,79.5C 206,79.5 207,79.5 208,79.5C 208.317,77.6992 208.984,77.3659 210,78.5C 211.334,76.4969 212.834,74.9969 214.5,74C 215.5,73.5 216.5,73 217.5,72.5C 220.054,73.3029 221.888,72.3029 223,69.5C 224,69.5 225,69.5 226,69.5C 226.317,67.6992 226.984,67.3659 228,68.5C 228.317,66.6992 228.984,66.3659 230,67.5C 230.691,65.1088 231.691,65.1088 233,67.5C 234.16,65.203 235.16,65.5363 236,68.5C 236.333,67.8333 236.667,67.1667 237,66.5C 238.043,70.2259 238.543,69.8926 238.5,65.5C 236.897,65.6882 235.563,65.1882 234.5,64C 235.993,62.6319 237.493,62.4652 239,63.5C 240,62.5 241,61.5 242,60.5C 243.164,60.1654 244.497,60.1654 246,60.5C 247,59.5 248,58.5 249,57.5C 249.667,58.1667 250.333,58.8333 251,59.5C 250.923,58.2624 251.089,57.2624 251.5,56.5C 252.192,57.0253 252.692,57.6919 253,58.5C 253.221,55.0569 254.221,54.7236 256,57.5C 255.923,56.2624 256.089,55.2624 256.5,54.5C 257.192,55.0253 257.692,55.6919 258,56.5C 258.221,53.0569 259.221,52.7236 261,55.5C 261.065,53.1167 261.898,52.45 263.5,53.5C 263.833,52.8333 264.167,52.1667 264.5,51.5C 265.803,52.7178 266.803,52.3845 267.5,50.5C 268.903,50.3602 270.403,50.3602 272,50.5C 272.605,48.5188 273.605,48.1854 275,49.5C 275.605,47.5188 276.605,47.1854 278,48.5C 278.605,46.5188 279.605,46.1854 281,47.5C 281.677,45.311 282.844,44.9776 284.5,46.5C 286.275,45.371 287.942,44.371 289.5,43.5C 291.5,43.5 293.5,43.5 295.5,43.5C 295.911,42.7376 296.077,41.7376 296,40.5C 297,41.1667 298,41.8333 299,42.5C 299.79,40.2102 301.124,39.8769 303,41.5C 305.333,40.5 307.667,39.5 310,38.5C 311.882,39.0933 312.882,40.4267 313,42.5C 313.5,42 314,41.5 314.5,41C 313.269,39.8173 313.269,38.6507 314.5,37.5C 316.432,38.1455 317.599,39.4788 318,41.5C 319.419,40.5399 320.919,39.7065 322.5,39C 321.062,38.7811 319.729,38.2811 318.5,37.5C 318.833,37.1667 319.167,36.8333 319.5,36.5C 321.751,37.8647 323.751,37.5314 325.5,35.5C 326.748,36.0402 327.915,36.7069 329,37.5C 330.285,34.1964 332.452,33.5297 335.5,35.5C 335.351,36.552 335.517,37.552 336,38.5C 337.816,37.6705 339.649,36.8372 341.5,36C 339.744,35.7978 338.078,35.2978 336.5,34.5C 338.841,33.2885 341.007,33.6218 343,35.5C 346.939,31.3215 350.439,31.6549 353.5,36.5C 355.115,35.846 356.782,35.346 358.5,35C 352.267,34.1602 352.434,32.9935 359,31.5C 362.771,31.5847 365.938,32.9181 368.5,35.5C 379.167,34.1667 389.833,34.1667 400.5,35.5C 404.641,31.5521 409.308,30.7187 414.5,33C 411.5,33.3333 408.5,33.6667 405.5,34C 408.919,34.5213 412.252,35.3546 415.5,36.5C 417.645,32.4395 420.645,31.6061 424.5,34C 416.652,34.4029 416.652,35.4029 424.5,37C 423.833,37.3333 423.167,37.6667 422.5,38C 423.833,38.6667 425.167,38.6667 426.5,38C 425.663,36.9887 425.33,35.8221 425.5,34.5C 427.895,33.6365 430.229,33.6365 432.5,34.5C 430.922,35.2978 429.256,35.7978 427.5,36C 429.351,36.8372 431.184,37.6705 433,38.5C 434.934,33.8387 437.268,33.5054 440,37.5C 441.085,36.7069 442.252,36.0402 443.5,35.5C 445.208,37.6911 447.208,38.0244 449.5,36.5C 449.833,36.8333 450.167,37.1667 450.5,37.5C 449.271,38.2811 447.938,38.7811 446.5,39C 448.081,39.7065 449.581,40.5399 451,41.5C 451.401,39.4788 452.568,38.1455 454.5,37.5C 455.731,38.6507 455.731,39.8173 454.5,41C 455,41.5 455.5,42 456,42.5C 456.112,39.5529 457.612,38.2196 460.5,38.5C 460.351,39.552 460.517,40.552 461,41.5C 462.657,38.84 464.324,38.84 466,41.5C 467.907,39.897 469.407,40.2303 470.5,42.5C 474.367,41.5125 474.367,42.0125 470.5,44C 471,44.5 471.5,45 472,45.5C 473.154,44.2567 474.488,43.2567 476,42.5C 476.456,43.7441 475.956,44.5774 474.5,45C 475,45.5 475.5,46 476,46.5C 477.943,46.0411 479.276,47.0411 480,49.5C 480.196,47.0955 481.362,45.4289 483.5,44.5C 483.833,45.1667 484.167,45.8333 484.5,46.5C 486.156,44.9776 487.323,45.311 488,47.5C 489.597,47.3602 491.097,47.3602 492.5,47.5C 493.192,48.0253 493.692,48.6919 494,49.5C 495.716,48.4477 496.716,49.1144 497,51.5C 498.309,49.1088 499.309,49.1088 500,51.5C 501.597,51.3602 503.097,51.3602 504.5,51.5C 504.833,51.8333 505.167,52.1667 505.5,52.5C 504.833,53.1667 504.167,53.8333 503.5,54.5C 504.628,55.2621 505.795,55.9288 507,56.5C 509.011,52.9984 510.344,52.9984 511,56.5C 512,53.8333 513,53.8333 514,56.5C 514.333,56.1667 514.667,55.8333 515,55.5C 515.333,56.5 515.667,57.5 516,58.5C 516.423,57.0439 517.256,56.5439 518.5,57C 517.549,57.7175 517.383,58.5509 518,59.5C 519.309,57.1088 520.309,57.1088 521,59.5C 523.19,58.4162 524.856,59.0829 526,61.5C 527.016,60.3659 527.683,60.6992 528,62.5C 529.507,61.4652 531.007,61.6319 532.5,63C 531.304,63.6543 531.304,64.1543 532.5,64.5C 533.842,63.0977 534.676,63.4311 535,65.5C 536,65.5 537,65.5 538,65.5C 538.317,67.3008 538.984,67.6341 540,66.5C 540.317,68.3008 540.984,68.6341 542,67.5C 542.317,69.3008 542.984,69.6341 544,68.5C 544.317,70.3008 544.984,70.6341 546,69.5C 546.317,71.3008 546.984,71.6341 548,70.5C 548.419,71.6721 549.085,72.6721 550,73.5C 551.507,72.4652 553.007,72.6319 554.5,74C 555.833,75.3333 557.167,76.6667 558.5,78C 559.76,79.113 560.927,79.2797 562,78.5C 562.317,80.3008 562.984,80.6341 564,79.5C 565.012,81.8642 566.345,83.1976 568,83.5C 568.333,83.1667 568.667,82.8333 569,82.5C 569.442,84.6785 570.442,85.3452 572,84.5C 572.442,86.6785 573.442,87.3452 575,86.5C 575.442,88.6785 576.442,89.3452 578,88.5C 578.442,90.6785 579.442,91.3452 581,90.5C 581.442,92.6785 582.442,93.3452 584,92.5C 584.442,94.6785 585.442,95.3452 587,94.5C 588,95.8333 589,97.1667 590,98.5C 590.654,97.3044 591.154,97.3044 591.5,98.5C 590.624,99.2508 589.624,99.7508 588.5,100C 589,100.5 589.5,101 590,101.5C 591.566,102.061 592.899,101.394 594,99.5C 596.336,103.174 599.003,105.841 602,107.5C 603.558,106.655 604.558,107.321 605,109.5C 605.718,108.549 606.551,108.383 607.5,109C 608.542,110.918 609.708,112.751 611,114.5C 611.718,113.549 612.551,113.383 613.5,114C 615.551,117.768 618.218,120.101 621.5,121C 629,129.833 637.167,138 646,145.5C 645.852,146.825 646.018,147.992 646.5,149C 646,149.5 645.5,150 645,150.5C 642.411,148.789 639.911,146.955 637.5,145C 636.833,144.333 636.167,144.333 635.5,145C 639.988,148.743 644.654,152.243 649.5,155.5C 649.833,155.333 650.167,155.167 650.5,155C 649.313,153.981 648.313,152.814 647.5,151.5C 648.002,150.479 648.668,150.312 649.5,151C 651.394,152.101 652.061,153.434 651.5,155C 652.984,156.574 654.651,157.907 656.5,159C 656,159.5 655.5,160 655,160.5C 654.163,158.993 652.996,158.493 651.5,159C 654.648,161.281 657.981,163.114 661.5,164.5C 662.228,166.193 663.228,167.693 664.5,169C 663.364,170.53 662.364,171.863 661.5,173C 662.5,173.5 663.5,174 664.5,174.5C 665.506,174.062 665.506,173.396 664.5,172.5C 665.002,171.479 665.668,171.312 666.5,172C 667.833,172.667 667.833,173.333 666.5,174C 669.514,175.672 671.514,177.672 672.5,180C 672.167,180.333 671.833,180.667 671.5,181C 674.187,182.341 675.853,184.007 676.5,186C 675.022,187.193 673.688,187.693 672.5,187.5C 673.311,188.216 673.978,189.05 674.5,190C 672.818,191.895 672.318,194.062 673,196.5C 673.249,195.376 673.749,194.376 674.5,193.5C 674.833,193.833 675.167,194.167 675.5,194.5C 675.474,197.965 675.141,201.465 674.5,205C 675.333,206.784 676.333,206.784 677.5,205C 676.233,203.204 676.233,201.371 677.5,199.5C 677.023,198.522 676.357,197.689 675.5,197C 676.833,196.667 678.167,196.333 679.5,196C 678.376,195.751 677.376,195.251 676.5,194.5C 677.902,193.158 677.569,192.324 675.5,192C 677.631,190.353 679.631,190.686 681.5,193C 681.5,194 681.5,195 681.5,196C 682.937,198.242 684.937,200.575 687.5,203C 683.389,206.277 683.889,207.111 689,205.5C 689.456,206.744 688.956,207.577 687.5,208C 688.833,208.667 690.167,209.333 691.5,210C 691.5,211 691.5,212 691.5,213C 693.86,214.365 695.527,216.365 696.5,219C 695.624,220.585 694.291,221.585 692.5,222C 694.246,222.471 695.913,223.138 697.5,224C 696.672,224.915 695.672,225.581 694.5,226C 695.5,226.333 696.5,226.667 697.5,227C 693.879,227.429 693.712,228.596 697,230.5C 701.403,229.29 701.57,229.79 697.5,232C 698.167,232.333 698.833,232.667 699.5,233C 694.982,233.54 693.815,235.706 696,239.5C 696.465,238.069 697.299,236.903 698.5,236C 697.833,235.667 697.167,235.333 696.5,235C 698.355,234.578 700.189,234.078 702,233.5C 703.247,234.891 704.413,236.391 705.5,238C 705.167,238.333 704.833,238.667 704.5,239C 706.301,239.317 706.634,239.984 705.5,241C 707.569,241.324 707.902,242.158 706.5,243.5C 707.562,244.77 708.562,245.937 709.5,247C 709.043,247.414 708.709,247.914 708.5,248.5C 709.167,248.833 709.833,249.167 710.5,249.5C 710.291,250.086 709.957,250.586 709.5,251C 711.032,251.7 712.032,252.866 712.5,254.5C 712.64,255.903 712.64,257.403 712.5,259C 713.167,259.333 713.833,259.667 714.5,260C 714.36,261.597 714.36,263.097 714.5,264.5C 715.167,264.833 715.833,265.167 716.5,265.5C 716.64,266.903 716.64,268.403 716.5,270C 718.481,270.605 718.815,271.605 717.5,273C 719.689,273.677 720.022,274.844 718.5,276.5C 721.078,276.677 721.078,277.843 718.5,280C 719.5,280.333 720.5,280.667 721.5,281C 721.694,282.763 721.694,284.597 721.5,286.5C 724.028,287.816 724.028,288.983 721.5,290C 724.147,290.315 724.813,291.482 723.5,293.5C 726.028,295.505 725.695,297.171 722.5,298.5C 718.998,295.202 717.831,295.869 719,300.5C 719.333,299.833 719.667,299.167 720,298.5C 721.137,299.364 722.47,300.364 724,301.5C 724.249,300.376 724.749,299.376 725.5,298.5C 726.509,300.185 726.009,301.518 724,302.5C 720.549,300.875 719.883,301.542 722,304.5C 722.333,304.167 722.667,303.833 723,303.5C 724.685,305.988 726.019,305.655 727,302.5C 727.597,304.924 726.763,306.757 724.5,308C 724.667,308.5 724.833,309 725,309.5C 725.388,308.572 726.055,307.905 727,307.5C 728.582,308.295 728.749,309.462 727.5,311C 728.353,313.624 729.353,316.291 730.5,319C 730.241,320.261 729.574,321.261 728.5,322C 731.925,323.598 732.258,325.598 729.5,328C 733.333,330.916 733,333.583 728.5,336C 729.739,340.665 730.572,340.498 731,335.5C 734.02,337.685 734.186,340.185 731.5,343C 733.124,344.117 734.124,345.617 734.5,347.5C 733.828,354.115 731.995,354.781 729,349.5C 728.833,350 728.667,350.5 728.5,351C 729.213,355.294 730.38,358.461 732,360.5C 731.978,353.594 733.144,353.094 735.5,359C 734.687,361.46 734.02,363.96 733.5,366.5C 733.159,369.508 734.159,370.508 736.5,369.5 Z"/></g>
<g><path style="opacity:0.004" fill="#000000" d="M 484.5,37.5 C 487.152,37.4095 489.485,38.0762 491.5,39.5C 488.848,39.5905 486.515,38.9238 484.5,37.5 Z"/></g>
<g><path style="opacity:0.004" fill="#000000" d="M 277.5,39.5 C 270.784,42.4054 263.784,44.7387 256.5,46.5C 263.085,43.1937 270.085,40.8604 277.5,39.5 Z"/></g>
<g><path style="opacity:0.004" fill="#000000" d="M 491.5,39.5 C 494.152,39.4095 496.485,40.0762 498.5,41.5C 495.848,41.5905 493.515,40.9238 491.5,39.5 Z"/></g>
<g><path style="opacity:0.004" fill="#000000" d="M 498.5,41.5 C 504.532,42.7313 510.199,44.7313 515.5,47.5C 509.468,46.2687 503.801,44.2687 498.5,41.5 Z"/></g>
<g><path style="opacity:0.004" fill="#000000" d="M 256.5,46.5 C 254.208,48.2671 251.542,49.2671 248.5,49.5C 250.792,47.7329 253.458,46.7329 256.5,46.5 Z"/></g>
<g><path style="opacity:0.004" fill="#000000" d="M 515.5,47.5 C 517.553,47.4021 519.22,48.0687 520.5,49.5C 518.447,49.5979 516.78,48.9313 515.5,47.5 Z"/></g>
<g><path style="opacity:0.004" fill="#000000" d="M 248.5,49.5 C 247.22,50.9313 245.553,51.5979 243.5,51.5C 244.78,50.0687 246.447,49.4021 248.5,49.5 Z"/></g>
<g><path style="opacity:0.004" fill="#000000" d="M 243.5,51.5 C 242.22,52.9313 240.553,53.5979 238.5,53.5C 239.78,52.0687 241.447,51.4021 243.5,51.5 Z"/></g>
<g><path style="opacity:1" fill="#fefefe" d="M 363.5,56.5 C 465.704,53.5395 551.537,89.2062 621,163.5C 696.568,252.46 719.901,353.793 691,467.5C 656.091,577.409 583.924,650.576 474.5,687C 388.247,712.138 305.58,703.638 226.5,661.5C 169.825,676.502 113.158,691.502 56.5,706.5C 71.0842,651.077 86.0842,595.744 101.5,540.5C 49.9597,444.814 45.1264,346.814 87,246.5C 125.872,163.96 188.038,106.793 273.5,75C 302.823,64.8404 332.823,58.6737 363.5,56.5 Z"/></g>
<g><path style="opacity:0.004" fill="#000000" d="M 539.5,57.5 C 555.752,63.792 570.752,72.1253 584.5,82.5C 569.653,73.9095 554.653,65.5762 539.5,57.5 Z"/></g>
<g><path style="opacity:0.004" fill="#000000" d="M 227.5,58.5 C 213.013,66.243 198.68,74.243 184.5,82.5C 197.738,72.7099 212.072,64.7099 227.5,58.5 Z"/></g>
<g><path style="opacity:0.004" fill="#000000" d="M 584.5,82.5 C 586.027,82.427 587.027,83.0937 587.5,84.5C 585.973,84.573 584.973,83.9063 584.5,82.5 Z"/></g>
<g><path style="opacity:0.004" fill="#000000" d="M 174.5,89.5 C 174.027,90.9063 173.027,91.573 171.5,91.5C 171.973,90.0937 172.973,89.427 174.5,89.5 Z"/></g>
<g><path style="opacity:0.004" fill="#000000" d="M 594.5,89.5 C 596.027,89.427 597.027,90.0937 597.5,91.5C 595.973,91.573 594.973,90.9063 594.5,89.5 Z"/></g>
<g><path style="opacity:0.004" fill="#000000" d="M 171.5,91.5 C 158.88,101.45 146.546,111.784 134.5,122.5C 145.365,110.292 157.699,99.9584 171.5,91.5 Z"/></g>
<g><path style="opacity:0.004" fill="#000000" d="M 597.5,91.5 C 611.637,100.294 624.304,110.96 635.5,123.5C 623.121,112.451 610.454,101.784 597.5,91.5 Z"/></g>
<g><path style="opacity:1" fill="#55cf61" d="M 560.5,180.5 C 440.167,181.226 319.834,181.893 199.5,182.5C 270.711,119.611 353.045,98.4446 446.5,119C 489.654,130.403 527.654,150.903 560.5,180.5 Z"/></g>
<g><path style="opacity:0.004" fill="#000000" d="M 648.5,136.5 C 651.903,138.9 654.57,141.9 656.5,145.5C 653.097,143.1 650.43,140.1 648.5,136.5 Z"/></g>
<g><path style="opacity:0.004" fill="#000000" d="M 119.5,137.5 C 111.205,148.462 102.539,159.129 93.5,169.5C 100.732,157.724 109.398,147.058 119.5,137.5 Z"/></g>
<g><path style="opacity:0.004" fill="#000000" d="M 656.5,145.5 C 663.704,152.252 669.704,159.918 674.5,168.5C 667.744,161.412 661.744,153.745 656.5,145.5 Z"/></g>
<g><path style="opacity:0.004" fill="#000000" d="M 674.5,168.5 C 675.906,168.973 676.573,169.973 676.5,171.5C 675.094,171.027 674.427,170.027 674.5,168.5 Z"/></g>
<g><path style="opacity:0.004" fill="#000000" d="M 93.5,169.5 C 93.573,171.027 92.9063,172.027 91.5,172.5C 91.427,170.973 92.0937,169.973 93.5,169.5 Z"/></g>
<g><path style="opacity:0.004" fill="#000000" d="M 91.5,172.5 C 91.573,174.027 90.9063,175.027 89.5,175.5C 89.427,173.973 90.0937,172.973 91.5,172.5 Z"/></g>
<g><path style="opacity:0.004" fill="#000000" d="M 89.5,175.5 C 78.7371,192.688 68.7371,210.354 59.5,228.5C 65.3429,213.814 72.5096,199.814 81,186.5C 83.3696,182.403 86.2029,178.736 89.5,175.5 Z"/></g>
<g><path style="opacity:0.004" fill="#000000" d="M 679.5,175.5 C 680.906,175.973 681.573,176.973 681.5,178.5C 680.094,178.027 679.427,177.027 679.5,175.5 Z"/></g>
<g><path style="opacity:0.004" fill="#000000" d="M 681.5,178.5 C 685.494,182.479 688.494,187.145 690.5,192.5C 686.719,188.376 683.719,183.709 681.5,178.5 Z"/></g>
<g><path style="opacity:1" fill="#51cd5e" d="M 560.5,180.5 C 568.167,187.5 575.5,194.833 582.5,202.5C 447.575,204.537 312.575,205.537 177.5,205.5C 184.132,197.201 191.465,189.534 199.5,182.5C 319.834,181.893 440.167,181.226 560.5,180.5 Z"/></g>
<g><path style="opacity:0.004" fill="#000000" d="M 690.5,192.5 C 692.588,194.336 693.921,196.669 694.5,199.5C 692.412,197.664 691.079,195.331 690.5,192.5 Z"/></g>
<g><path style="opacity:0.004" fill="#000000" d="M 694.5,199.5 C 696.588,201.336 697.921,203.669 698.5,206.5C 696.412,204.664 695.079,202.331 694.5,199.5 Z"/></g>
<g><path style="opacity:1" fill="#4dcb5b" d="M 582.5,202.5 C 595.485,217.138 606.485,233.138 615.5,250.5C 613.708,251.309 611.708,251.809 609.5,252C 507.998,252.374 406.664,253.207 305.5,254.5C 302.713,248.925 299.879,243.259 297,237.5C 291.11,231.066 283.777,228.733 275,230.5C 262.076,228.634 251.41,232.634 243,242.5C 239.257,246.732 235.757,251.065 232.5,255.5C 203.338,254.502 174.005,254.169 144.5,254.5C 153.274,236.605 164.274,220.271 177.5,205.5C 312.575,205.537 447.575,204.537 582.5,202.5 Z"/></g>
<g><path style="opacity:0.004" fill="#000000" d="M 698.5,206.5 C 702.874,212.581 706.207,219.248 708.5,226.5C 704.659,220.151 701.325,213.484 698.5,206.5 Z"/></g>
<g><path style="opacity:0.008" fill="#7f807f" d="M 698.5,214.5 C 713.883,241.639 724.55,270.639 730.5,301.5C 722.627,271.554 711.96,242.554 698.5,214.5 Z"/></g>
<g><path style="opacity:1" fill="#fefefe" d="M 305.5,254.5 C 312.072,272.567 319.405,290.233 327.5,307.5C 327.677,312.805 326.51,317.805 324,322.5C 320.388,328.607 316.221,334.273 311.5,339.5C 307.865,343.307 304.365,347.307 301,351.5C 300.299,354.928 300.632,358.262 302,361.5C 312.7,380.703 326.2,397.703 342.5,412.5C 364.528,434.305 390.361,450.305 420,460.5C 425.716,458.805 430.383,455.472 434,450.5C 442.5,440 451,429.5 459.5,419C 462.833,418.333 466.167,418.333 469.5,419C 493.055,429.413 516.388,440.413 539.5,452C 541,453.5 542.5,455 544,456.5C 544.626,462.195 544.459,467.862 543.5,473.5C 542.456,490.162 535.456,503.662 522.5,514C 505.913,527.363 486.913,533.863 465.5,533.5C 411.518,526.191 363.518,505.524 321.5,471.5C 302.429,455.097 285.096,437.097 269.5,417.5C 255.58,399.323 242.913,380.323 231.5,360.5C 223.99,344.97 219.323,328.637 217.5,311.5C 216.265,291.101 221.265,272.435 232.5,255.5C 235.757,251.065 239.257,246.732 243,242.5C 251.41,232.634 262.076,228.634 275,230.5C 283.777,228.733 291.11,231.066 297,237.5C 299.879,243.259 302.713,248.925 305.5,254.5 Z"/></g>
<g><path style="opacity:0.004" fill="#000000" d="M 710.5,230.5 C 715.325,239.295 718.991,248.628 721.5,258.5C 717.314,249.447 713.647,240.114 710.5,230.5 Z"/></g>
<g><path style="opacity:0.004" fill="#000000" d="M 57.5,232.5 C 57.5979,234.553 56.9313,236.22 55.5,237.5C 55.4021,235.447 56.0687,233.78 57.5,232.5 Z"/></g>
<g><path style="opacity:0.004" fill="#000000" d="M 55.5,237.5 C 53.6862,243.78 51.3528,249.78 48.5,255.5C 49.7594,248.997 52.0927,242.997 55.5,237.5 Z"/></g>
<g><path style="opacity:0.004" fill="#000000" d="M 47.5,258.5 C 44.3339,269.987 41.0006,281.32 37.5,292.5C 39.4498,280.661 42.7832,269.328 47.5,258.5 Z"/></g>
<g><path style="opacity:0.004" fill="#000000" d="M 724.5,267.5 C 727.484,274.467 729.484,281.801 730.5,289.5C 727.898,282.434 725.898,275.101 724.5,267.5 Z"/></g>
<g><path style="opacity:0.008" fill="#7f807f" d="M 47.5,268.5 C 18.7651,360.442 24.5984,450.109 65,537.5C 68.2138,548.244 67.8804,558.91 64,569.5C 52.6688,609.834 41.8354,650.168 31.5,690.5C 31.5775,686.123 32.0775,681.79 33,677.5C 43.1776,639.789 53.511,602.123 64,564.5C 65.9131,556.152 65.9131,547.818 64,539.5C 23.0509,451.153 17.5509,360.82 47.5,268.5 Z"/></g>
<g><path style="opacity:1" fill="#47c856" d="M 615.5,250.5 C 625.477,267.407 633.144,285.407 638.5,304.5C 534.663,304.865 430.996,305.865 327.5,307.5C 319.405,290.233 312.072,272.567 305.5,254.5C 406.664,253.207 507.998,252.374 609.5,252C 611.708,251.809 613.708,251.309 615.5,250.5 Z"/></g>
<g><path style="opacity:1" fill="#47c756" d="M 144.5,254.5 C 174.005,254.169 203.338,254.502 232.5,255.5C 221.265,272.435 216.265,291.101 217.5,311.5C 216.566,310.432 216.232,309.099 216.5,307.5C 185.093,307.175 153.76,307.508 122.5,308.5C 127.656,289.534 134.99,271.534 144.5,254.5 Z"/></g>
<g><path style="opacity:0.004" fill="#000000" d="M 36.5,296.5 C 36.2368,301.77 35.2368,306.77 33.5,311.5C 33.6253,306.206 34.6253,301.206 36.5,296.5 Z"/></g>
<g><path style="opacity:0.004" fill="#000000" d="M 732.5,297.5 C 734.011,300.544 734.678,303.878 734.5,307.5C 733.215,304.411 732.549,301.078 732.5,297.5 Z"/></g>
<g><path style="opacity:0.008" fill="#7f807f" d="M 730.5,301.5 C 733.139,310.031 735.139,318.697 736.5,327.5C 736.5,330.5 736.5,333.5 736.5,336.5C 734.412,324.977 732.412,313.31 730.5,301.5 Z"/></g>
<g><path style="opacity:1" fill="#42c553" d="M 638.5,304.5 C 641.616,314.632 643.949,324.965 645.5,335.5C 619.048,336.825 592.381,337.491 565.5,337.5C 480.82,337.881 396.154,338.548 311.5,339.5C 316.221,334.273 320.388,328.607 324,322.5C 326.51,317.805 327.677,312.805 327.5,307.5C 430.996,305.865 534.663,304.865 638.5,304.5 Z"/></g>
<g><path style="opacity:1" fill="#41c451" d="M 217.5,311.5 C 219.323,328.637 223.99,344.97 231.5,360.5C 192.574,360.202 153.574,360.202 114.5,360.5C 114.768,362.099 114.434,363.432 113.5,364.5C 114.338,345.473 117.338,326.807 122.5,308.5C 153.76,307.508 185.093,307.175 216.5,307.5C 216.232,309.099 216.566,310.432 217.5,311.5 Z"/></g>
<g><path style="opacity:1" fill="#3dc24e" d="M 645.5,335.5 C 647.91,349.202 648.91,363.035 648.5,377C 648.679,388.706 648.012,400.206 646.5,411.5C 621.169,410.833 595.669,410.5 570,410.5C 493.999,410.83 418.165,411.496 342.5,412.5C 326.2,397.703 312.7,380.703 302,361.5C 300.632,358.262 300.299,354.928 301,351.5C 304.365,347.307 307.865,343.307 311.5,339.5C 396.154,338.548 480.82,337.881 565.5,337.5C 592.381,337.491 619.048,336.825 645.5,335.5 Z"/></g>
<g><path style="opacity:1" fill="#3bc04d" d="M 231.5,360.5 C 242.913,380.323 255.58,399.323 269.5,417.5C 218.497,417.453 167.497,417.787 116.5,418.5C 113.809,400.633 112.809,382.633 113.5,364.5C 114.434,363.432 114.768,362.099 114.5,360.5C 153.574,360.202 192.574,360.202 231.5,360.5 Z"/></g>
<g><path style="opacity:1" fill="#36bd49" d="M 646.5,411.5 C 644.627,431.654 639.96,450.987 632.5,469.5C 603.164,469.607 573.83,469.94 544.5,470.5C 544.737,471.791 544.404,472.791 543.5,473.5C 544.459,467.862 544.626,462.195 544,456.5C 542.5,455 541,453.5 539.5,452C 516.388,440.413 493.055,429.413 469.5,419C 466.167,418.333 462.833,418.333 459.5,419C 451,429.5 442.5,440 434,450.5C 430.383,455.472 425.716,458.805 420,460.5C 390.361,450.305 364.528,434.305 342.5,412.5C 418.165,411.496 493.999,410.83 570,410.5C 595.669,410.5 621.169,410.833 646.5,411.5 Z"/></g>
<g><path style="opacity:1" fill="#35bd48" d="M 269.5,417.5 C 285.096,437.097 302.429,455.097 321.5,471.5C 257.835,472.03 194.168,472.363 130.5,472.5C 123.355,455.256 118.688,437.256 116.5,418.5C 167.497,417.787 218.497,417.453 269.5,417.5 Z"/></g>
<g><path style="opacity:0.008" fill="#7f807f" d="M 736.5,427.5 C 736.5,430.5 736.5,433.5 736.5,436.5C 735.139,445.303 733.139,453.969 730.5,462.5C 732.412,450.692 734.412,439.026 736.5,427.5 Z"/></g>
<g><path style="opacity:0.004" fill="#000000" d="M 33.5,453.5 C 35.2462,457.889 36.2462,462.556 36.5,467.5C 34.7538,463.111 33.7538,458.444 33.5,453.5 Z"/></g>
<g><path style="opacity:0.004" fill="#000000" d="M 734.5,456.5 C 734.678,460.122 734.011,463.456 732.5,466.5C 732.549,462.922 733.215,459.589 734.5,456.5 Z"/></g>
<g><path style="opacity:0.008" fill="#7f807f" d="M 730.5,462.5 C 724.827,491.862 714.827,519.528 700.5,545.5C 706.591,531.647 712.424,517.647 718,503.5C 722.511,489.811 726.678,476.144 730.5,462.5 Z"/></g>
<g><path style="opacity:0.004" fill="#000000" d="M 37.5,471.5 C 40.4353,479.9 42.7686,488.567 44.5,497.5C 40.9797,489.254 38.6464,480.588 37.5,471.5 Z"/></g>
<g><path style="opacity:0.004" fill="#000000" d="M 730.5,474.5 C 729.482,482.203 727.482,489.536 724.5,496.5C 725.898,488.899 727.898,481.566 730.5,474.5 Z"/></g>
<g><path style="opacity:0.004" fill="#000000" d="M 722.5,502.5 C 721.935,506.537 720.601,510.203 718.5,513.5C 719.065,509.463 720.399,505.797 722.5,502.5 Z"/></g>
<g><path style="opacity:0.004" fill="#000000" d="M 46.5,503.5 C 48.6013,506.797 49.9347,510.463 50.5,514.5C 48.3987,511.203 47.0653,507.537 46.5,503.5 Z"/></g>
<g><path style="opacity:0.004" fill="#000000" d="M 718.5,513.5 C 717.296,518.895 715.296,523.895 712.5,528.5C 713.734,523.117 715.734,518.117 718.5,513.5 Z"/></g>
<g><path style="opacity:0.004" fill="#000000" d="M 50.5,514.5 C 53.2656,519.117 55.2656,524.117 56.5,529.5C 53.7042,524.895 51.7042,519.895 50.5,514.5 Z"/></g>
<g><path style="opacity:1" fill="#2cb841" d="M 632.5,469.5 C 622.278,499.3 606.944,525.967 586.5,549.5C 442.834,550.329 299.167,550.996 155.5,551.5C 155.737,552.791 155.404,553.791 154.5,554.5C 156.027,546.724 158.027,539.057 160.5,531.5C 148.128,513.09 138.128,493.423 130.5,472.5C 194.168,472.363 257.835,472.03 321.5,471.5C 363.518,505.524 411.518,526.191 465.5,533.5C 486.913,533.863 505.913,527.363 522.5,514C 535.456,503.662 542.456,490.162 543.5,473.5C 544.404,472.791 544.737,471.791 544.5,470.5C 573.83,469.94 603.164,469.607 632.5,469.5 Z"/></g>
<g><path style="opacity:0.004" fill="#000000" d="M 712.5,528.5 C 712.598,530.553 711.931,532.22 710.5,533.5C 710.402,531.447 711.069,529.78 712.5,528.5 Z"/></g>
<g><path style="opacity:0.004" fill="#000000" d="M 56.5,529.5 C 58.9569,532.751 60.6236,536.418 61.5,540.5C 59.0431,537.249 57.3764,533.582 56.5,529.5 Z"/></g>
<g><path style="opacity:0.004" fill="#000000" d="M 707.5,539.5 C 706.207,544.753 703.874,549.419 700.5,553.5C 702.326,548.516 704.659,543.849 707.5,539.5 Z"/></g>
<g><path style="opacity:0.004" fill="#000000" d="M 62.5,542.5 C 63.2216,542.918 63.7216,543.584 64,544.5C 64.6667,548.833 64.6667,553.167 64,557.5C 53.4252,597.036 42.5919,636.37 31.5,675.5C 41.2102,635.661 51.7102,595.994 63,556.5C 63.4614,551.816 63.2947,547.149 62.5,542.5 Z"/></g>
<g><path style="opacity:0.008" fill="#7f807f" d="M 699.5,547.5 C 670.986,602.854 630.652,647.687 578.5,682C 477.568,742.288 371.235,753.621 259.5,716C 247.515,710.227 235.015,706.06 222,703.5C 179.372,713.782 136.872,724.615 94.5,736C 90.181,736.76 85.8477,737.427 81.5,738C 44.6048,742.932 27.9381,727.098 31.5,690.5C 29.4164,707.056 34.4164,720.89 46.5,732C 61.112,738.067 76.112,739.067 91.5,735C 131.5,724.667 171.5,714.333 211.5,704C 218.507,702.065 225.507,702.065 232.5,704C 305.209,735.938 380.542,744.271 458.5,729C 566.062,704.225 646.396,643.725 699.5,547.5 Z"/></g>
<g><path style="opacity:0.004" fill="#000000" d="M 698.5,557.5 C 697.921,560.331 696.588,562.664 694.5,564.5C 695.079,561.669 696.412,559.336 698.5,557.5 Z"/></g>
<g><path style="opacity:0.004" fill="#000000" d="M 694.5,564.5 C 691.347,572.3 687.014,579.3 681.5,585.5C 685.445,578.23 689.778,571.23 694.5,564.5 Z"/></g>
<g><path style="opacity:1" fill="#25b33b" d="M 586.5,549.5 C 532.25,613.698 462.75,646.031 378,646.5C 326.037,645.789 278.204,631.455 234.5,603.5C 202.389,611.694 170.389,620.194 138.5,629C 136.741,629.798 135.074,629.631 133.5,628.5C 140.213,603.632 147.213,578.965 154.5,554.5C 155.404,553.791 155.737,552.791 155.5,551.5C 299.167,550.996 442.834,550.329 586.5,549.5 Z"/></g>
<g><path style="opacity:0.004" fill="#000000" d="M 681.5,585.5 C 681.573,587.027 680.906,588.027 679.5,588.5C 679.427,586.973 680.094,585.973 681.5,585.5 Z"/></g>
<g><path style="opacity:0.004" fill="#000000" d="M 679.5,588.5 C 679.573,590.027 678.906,591.027 677.5,591.5C 677.427,589.973 678.094,588.973 679.5,588.5 Z"/></g>
<g><path style="opacity:0.004" fill="#000000" d="M 677.5,591.5 C 677.573,593.027 676.906,594.027 675.5,594.5C 675.427,592.973 676.094,591.973 677.5,591.5 Z"/></g>
<g><path style="opacity:0.004" fill="#000000" d="M 675.5,594.5 C 675.262,596.404 674.262,597.738 672.5,598.5C 672.738,596.596 673.738,595.262 675.5,594.5 Z"/></g>
<g><path style="opacity:0.004" fill="#000000" d="M 672.5,598.5 C 666.338,609.002 658.672,618.335 649.5,626.5C 657.169,617.158 664.836,607.824 672.5,598.5 Z"/></g>
<g><path style="opacity:0.004" fill="#000000" d="M 633.5,642.5 C 622.635,654.708 610.301,665.042 596.5,673.5C 609.12,663.55 621.454,653.216 633.5,642.5 Z"/></g>
<g><path style="opacity:0.004" fill="#000000" d="M 596.5,673.5 C 596.027,674.906 595.027,675.573 593.5,675.5C 593.973,674.094 594.973,673.427 596.5,673.5 Z"/></g>
<g><path style="opacity:0.004" fill="#000000" d="M 31.5,675.5 C 31.3239,678.727 30.6572,681.727 29.5,684.5C 29.2153,681.171 29.8819,678.171 31.5,675.5 Z"/></g>
<g><path style="opacity:0.004" fill="#000000" d="M 593.5,675.5 C 593.027,676.906 592.027,677.573 590.5,677.5C 590.973,676.094 591.973,675.427 593.5,675.5 Z"/></g>
<g><path style="opacity:0.004" fill="#000000" d="M 584.5,681.5 C 584.027,682.906 583.027,683.573 581.5,683.5C 581.973,682.094 582.973,681.427 584.5,681.5 Z"/></g>
<g><path style="opacity:0.004" fill="#000000" d="M 581.5,683.5 C 571.994,690.759 561.66,696.759 550.5,701.5C 560.662,695.251 570.995,689.251 581.5,683.5 Z"/></g>
<g><path style="opacity:0.004" fill="#000000" d="M 27.5,691.5 C 27.2953,699.867 27.6287,708.2 28.5,716.5C 27.7321,715.737 27.2321,714.737 27,713.5C 26.1782,705.988 26.3448,698.655 27.5,691.5 Z"/></g>
<g><path style="opacity:0.004" fill="#000000" d="M 232.5,708.5 C 225.172,707.217 217.838,707.217 210.5,708.5C 214.054,707.016 217.888,706.349 222,706.5C 225.805,706.304 229.305,706.97 232.5,708.5 Z"/></g>
<g><path style="opacity:0.004" fill="#000000" d="M 202.5,710.5 C 199.146,712.258 195.479,713.258 191.5,713.5C 194.854,711.742 198.521,710.742 202.5,710.5 Z"/></g>
<g><path style="opacity:0.004" fill="#000000" d="M 237.5,710.5 C 239.553,710.402 241.22,711.069 242.5,712.5C 240.447,712.598 238.78,711.931 237.5,710.5 Z"/></g>
<g><path style="opacity:0.004" fill="#000000" d="M 242.5,712.5 C 244.553,712.402 246.22,713.069 247.5,714.5C 245.447,714.598 243.78,713.931 242.5,712.5 Z"/></g>
<g><path style="opacity:0.004" fill="#000000" d="M 247.5,714.5 C 249.553,714.402 251.22,715.069 252.5,716.5C 250.447,716.598 248.78,715.931 247.5,714.5 Z"/></g>
<g><path style="opacity:0.004" fill="#000000" d="M 183.5,715.5 C 178.809,717.591 173.809,718.924 168.5,719.5C 173.191,717.409 178.191,716.076 183.5,715.5 Z"/></g>
<g><path style="opacity:0.004" fill="#000000" d="M 518.5,715.5 C 509.328,720.003 499.661,723.336 489.5,725.5C 498.954,721.792 508.621,718.459 518.5,715.5 Z"/></g>
<g><path style="opacity:0.004" fill="#000000" d="M 28.5,716.5 C 29.4584,716.953 30.2917,717.619 31,718.5C 31.6266,722.552 33.1266,726.218 35.5,729.5C 38.92,732.932 42.5867,735.932 46.5,738.5C 35.8047,735.127 29.8047,727.794 28.5,716.5 Z"/></g>
<g><path style="opacity:0.004" fill="#000000" d="M 252.5,716.5 C 257.534,717.398 262.201,719.065 266.5,721.5C 261.466,720.602 256.799,718.935 252.5,716.5 Z"/></g>
<g><path style="opacity:0.004" fill="#000000" d="M 164.5,720.5 C 159.809,722.591 154.809,723.924 149.5,724.5C 154.191,722.409 159.191,721.076 164.5,720.5 Z"/></g>
<g><path style="opacity:0.004" fill="#000000" d="M 269.5,722.5 C 273.162,722.723 276.495,723.723 279.5,725.5C 275.838,725.277 272.505,724.277 269.5,722.5 Z"/></g>
<g><path style="opacity:0.004" fill="#000000" d="M 279.5,725.5 C 282.152,725.41 284.485,726.076 286.5,727.5C 283.848,727.59 281.515,726.924 279.5,725.5 Z"/></g>
<g><path style="opacity:0.004" fill="#000000" d="M 489.5,725.5 C 487.485,726.924 485.152,727.59 482.5,727.5C 484.515,726.076 486.848,725.41 489.5,725.5 Z"/></g>
<g><path style="opacity:0.004" fill="#000000" d="M 141.5,726.5 C 136.809,728.591 131.809,729.924 126.5,730.5C 131.191,728.409 136.191,727.076 141.5,726.5 Z"/></g>
<g><path style="opacity:0.004" fill="#000000" d="M 298.5,730.5 C 301.781,730.42 304.781,731.087 307.5,732.5C 304.219,732.58 301.219,731.913 298.5,730.5 Z"/></g>
<g><path style="opacity:0.004" fill="#000000" d="M 470.5,730.5 C 467.781,731.913 464.781,732.58 461.5,732.5C 464.219,731.087 467.219,730.42 470.5,730.5 Z"/></g>
<g><path style="opacity:0.004" fill="#000000" d="M 118.5,732.5 C 115.146,734.258 111.479,735.258 107.5,735.5C 110.854,733.742 114.521,732.742 118.5,732.5 Z"/></g>
<g><path style="opacity:0.004" fill="#000000" d="M 46.5,738.5 C 51.6497,739.377 56.6497,740.377 61.5,741.5C 56.073,742.018 51.073,741.018 46.5,738.5 Z"/></g>
<g><path style="opacity:0.004" fill="#000000" d="M 90.5,739.5 C 85.7664,741.145 80.7664,741.811 75.5,741.5C 80.306,740.407 85.306,739.741 90.5,739.5 Z"/></g>
</svg>
